<svg width="160" height="160" viewBox="0 0 160 160" fill="none" xmlns="http://www.w3.org/2000/svg">
<circle cx="80" cy="80" r="80" fill="#C2F7AD"/>
<path fill-rule="evenodd" clip-rule="evenodd" d="M101.173 56.7014C104.103 54.381 107.798 53 111.824 53C121.318 53 129 60.6879 129 70.1762C129 79.6645 121.312 87.3524 111.824 87.3524C107.798 87.3524 104.103 85.9714 101.173 83.651C98.243 85.9714 94.5472 87.3524 90.5215 87.3524C86.4958 87.3524 82.8 85.9658 79.8702 83.651C76.9404 85.9714 73.2446 87.3524 69.219 87.3524C65.1933 87.3524 61.4975 85.9658 58.5677 83.651C55.6379 85.9714 51.9421 87.3524 47.9164 87.3524C38.4282 87.3524 30.7402 79.6645 30.7402 70.1762C30.7402 60.6879 38.4282 53 47.9164 53C51.9421 53 55.6379 54.381 58.5677 56.7014C61.4975 54.381 65.1933 53 69.219 53C73.2446 53 76.9404 54.381 79.8702 56.7014C82.8 54.381 86.4958 53 90.5215 53C94.5472 53 98.243 54.381 101.173 56.7014ZM55.7546 80.8545C55.7567 80.8529 55.7588 80.8514 55.7609 80.8498L55.7553 80.8554C55.7551 80.8551 55.7548 80.8548 55.7546 80.8545ZM55.7546 80.8545C53.4403 77.9248 52.0372 74.2182 52.0372 70.1818C52.0372 66.1449 53.4238 62.438 55.7553 59.5082C53.5636 57.9091 50.8351 56.9362 47.9164 56.9362C40.5975 56.9362 34.6764 62.8517 34.6764 70.1762C34.6764 77.5007 40.6031 83.4218 47.922 83.4218C50.8322 83.4218 53.5695 82.4508 55.7546 80.8545ZM55.9846 70.1818C55.9846 73.1284 56.9407 75.8457 58.5733 78.0486C60.2059 75.8457 61.1676 73.134 61.1676 70.1818C61.1676 67.2296 60.2059 64.5179 58.5733 62.315C56.9407 64.5179 55.9846 67.2352 55.9846 70.1818ZM69.2134 83.4162C72.1488 83.4162 74.8661 82.4657 77.0634 80.8498C74.7487 77.92 73.3453 74.2131 73.3453 70.1762C73.3453 66.1394 74.7319 62.4324 77.0634 59.5026C74.8661 57.8867 72.1544 56.9362 69.2134 56.9362C66.2724 56.9362 63.5774 57.8867 61.3801 59.5026C63.7116 62.438 65.0982 66.1561 65.0982 70.1762C65.0982 74.1963 63.6948 77.9256 61.3801 80.8498C63.5774 82.4657 66.278 83.4162 69.2134 83.4162ZM77.2871 70.1818C77.2871 73.1284 78.2432 75.8457 79.8758 78.0486C81.5085 75.8457 82.4701 73.134 82.4701 70.1818C82.4701 67.2296 81.5085 64.5179 79.8758 62.315C78.2432 64.5179 77.2871 67.2352 77.2871 70.1818ZM90.5159 83.4162C93.4513 83.4162 96.1686 82.4657 98.366 80.8498C96.0512 77.92 94.6478 74.2131 94.6478 70.1762C94.6478 66.1394 96.0344 62.4324 98.366 59.5026C96.1686 57.8867 93.4569 56.9362 90.5159 56.9362C87.5749 56.9362 84.88 57.8867 82.6826 59.5026C85.0141 62.438 86.4008 66.1561 86.4008 70.1762C86.4008 74.1963 84.9974 77.9256 82.6826 80.8498C84.88 82.4657 87.5805 83.4162 90.5159 83.4162ZM98.584 70.1818C98.584 73.1284 99.5457 75.8457 101.178 78.0486C102.805 75.8457 103.767 73.134 103.767 70.1818C103.767 67.2296 102.811 64.5179 101.178 62.315C99.5401 64.5179 98.584 67.2352 98.584 70.1818ZM103.991 80.8498C106.177 82.4489 108.911 83.4218 111.83 83.4218C119.154 83.4218 125.075 77.5007 125.075 70.1762C125.075 62.8517 119.149 56.9306 111.83 56.9306C108.917 56.9306 106.182 57.9035 103.991 59.5026C106.322 62.438 107.709 66.1561 107.709 70.1762C107.709 74.1963 106.305 77.9256 103.991 80.8498ZM52.5677 97.5955L50.8177 95.5156H57.488L69.3749 113.352H63.1687L61.4857 110.612C61.4186 110.517 61.4186 110.416 61.4186 110.349C61.3515 110.383 61.2229 110.416 61.0552 110.416H50.3201C50.2173 110.416 50.1167 110.391 50.0387 110.371L50.0386 110.371C49.9893 110.359 49.9491 110.349 49.9231 110.349C49.9231 110.416 49.8895 110.545 49.8224 110.679L48.2066 113.352H42.196L52.5677 97.7968C52.6013 97.7632 52.6684 97.7297 52.7355 97.6961L52.7354 97.6961C52.6683 97.6626 52.6013 97.629 52.5677 97.5955ZM59.3988 107.01L59.4058 107.011H59.4002L59.3988 107.01ZM59.3988 107.01C59.2299 106.977 58.9372 106.944 58.6118 106.944H52.6684C52.372 106.944 52.0422 106.978 51.8744 107.011C51.9751 106.91 52.1708 106.715 52.372 106.452L55.0446 102.024C55.4081 101.431 55.5758 101.034 55.6373 100.866C55.7044 101.034 55.8665 101.425 56.23 102.057L58.9697 106.513C59.1033 106.708 59.2978 106.909 59.3988 107.01ZM108.156 113.352H113.54V100.307H108.156V113.352ZM79.8134 106.184C79.8134 107.833 79.7464 108.297 79.6457 108.728C79.2823 109.918 78.0299 110.444 76.7383 110.444C74.9547 110.444 74.1272 109.751 73.7973 108.66C73.6967 108.297 73.6631 107.9 73.6296 107.503C73.6075 107.22 73.6145 106.924 73.6218 106.613V106.613C73.6257 106.452 73.6296 106.286 73.6296 106.116V100.503H68.3459V107.967C68.3459 109.65 68.905 110.908 69.8331 111.764C71.421 113.318 74.0936 113.776 76.5705 113.776C79.5786 113.776 81.8878 113.346 83.5372 111.73C84.3982 110.903 85.0245 109.812 85.0245 107.934V100.503H79.8079V106.184H79.8134ZM99.7962 95.5156H93.5899L97.1236 99.4797C97.7163 100.14 98.4767 100.732 98.4767 100.732C97.6156 100.235 96.5309 100.039 95.6699 100.039C93.6235 100.039 91.5436 100.469 89.6929 101.493C87.7136 102.583 86.3885 104.4 86.3885 106.81C86.3885 108.661 87.216 110.081 88.2727 111.171C90.649 113.547 94.9766 113.782 96.5645 113.782C98.9072 113.782 102.575 113.251 104.655 111.372C105.879 110.248 106.701 108.7 106.701 106.648C106.701 105.194 106.109 103.511 104.258 101.163L99.8018 95.5156H99.7962ZM99.5334 109.751C98.6108 110.248 97.5206 110.377 96.5589 110.377C95.5972 110.377 94.4789 110.181 93.5508 109.717C92.427 109.158 91.5715 108.068 91.5715 106.877C91.5715 105.457 92.6618 104.333 93.9478 103.774C94.7417 103.41 95.6978 103.276 96.4582 103.276C97.2186 103.276 98.2418 103.377 99.0693 103.707C100.557 104.333 101.546 105.524 101.546 106.81C101.546 108.163 100.657 109.186 99.5334 109.751Z" fill="#092D2E"/>
</svg>
