<svg width="200" height="200" viewBox="0 0 200 200" fill="none" xmlns="http://www.w3.org/2000/svg">
<circle cx="100" cy="100" r="98.8889" fill="white" stroke="#56D690" stroke-width="2.22222"/>
<g clip-path="url(#clip0_142_12759)">
<path d="M65.707 92.5L74.6545 100.662V93.6029L69.589 88.946L65.707 92.5Z" fill="#F15922"/>
<path d="M69.5656 100.466L65.6836 104.02L74.6311 112.206V105.123C74.6548 105.123 69.5656 100.466 69.5656 100.466Z" fill="#F15922"/>
<path d="M66.1803 110.662L65.3282 107.966L64.476 110.662H61.7539L63.9789 112.304L63.1268 115L65.3282 113.333L67.5295 115L66.6774 112.304L68.8788 110.637L66.1803 110.662Z" fill="#F15922"/>
<path d="M135.795 97.2059L130.517 86.348H124.859L133.191 103.358L133.168 114.387H138.446V103.26L146.826 86.348H141.145L135.795 97.2059Z" fill="black"/>
<path d="M94.8683 103.235L98.4425 99.5343V90.147L94.7026 86.348H79.8848V114.387H85.1396V103.676H89.8738L93.235 114.363H98.5372L94.8683 103.235ZM93.1876 98.4314H85.1633V91.5686H93.1876V98.4314Z" fill="black"/>
<path d="M118.517 103.235L122.091 99.5343V90.147L118.351 86.348H103.533V114.387H108.788V103.676H113.522L116.883 114.363H122.186L118.517 103.235ZM116.836 98.4314H108.812V91.5686H116.836V98.4314Z" fill="black"/>
<path d="M174.001 95.098V90.147L170.308 86.348H159.183L155.467 90.147V98.2353L158.544 101.642L168.746 104.02V109.142H160.722V105.637H155.467V110.613L159.183 114.412L170.308 114.387L174.001 110.588V102.5L170.995 99.1666L160.722 96.7157V91.5931H168.746V95.098H174.001Z" fill="black"/>
<path d="M69.1157 100.049L65.2574 96.4951L55.9785 105V112.083L63.6005 105.123L69.1157 100.049Z" fill="#F9A11B"/>
<path d="M69.1394 88.5539L65.2574 85L55.9785 93.5049V100.588L63.6005 93.6275L69.1394 88.5539Z" fill="#F9A11B"/>
<path d="M50.8418 90.147L47.1492 86.3235H32V114.387L47.1492 114.363L50.8181 110.564V102.868L48.096 100.343L50.8418 97.8676V90.147ZM45.5633 109.118H37.2549V102.966H45.5633V109.118ZM45.5633 97.7451H37.2549V91.5931H45.5633V97.7451Z" fill="black"/>
<path d="M147.135 92.598H150.804L154.354 86.3235H150.188L147.135 92.598Z" fill="black"/>
</g>
<defs>
<clipPath id="clip0_142_12759">
<rect width="142" height="30" fill="white" transform="translate(32 85)"/>
</clipPath>
</defs>
</svg>
