<svg width="160" height="160" viewBox="0 0 160 160" fill="none" xmlns="http://www.w3.org/2000/svg">
<circle cx="80" cy="80" r="80" fill="#C2F7AD"/>
<path fill-rule="evenodd" clip-rule="evenodd" d="M111.82 48.1803C103.321 39.6816 92.0197 35 80 35C55.1864 35 35 55.1864 35 80C35 92.0197 39.6816 103.321 48.1803 111.82C56.6791 120.318 67.9803 125 80 125C92.0197 125 103.319 120.318 111.82 111.82C120.318 103.321 125 92.0197 125 80C125 67.9803 120.318 56.6791 111.82 48.1803ZM80 123.442C68.3962 123.442 57.486 118.923 49.2821 110.718C41.0766 102.512 36.5564 91.6038 36.5564 80C36.5564 68.3962 41.0766 57.4876 49.2821 49.2821C57.486 41.075 68.3962 36.5579 80 36.5579C91.6038 36.5579 102.512 41.0766 110.718 49.2821C118.923 57.486 123.442 68.3962 123.442 80C123.442 103.956 103.954 123.442 80 123.442ZM80 38.3471C56.9957 38.3471 38.3471 56.9957 38.3471 80C38.3471 103.004 56.9957 121.653 80 121.653C103.004 121.653 121.653 103.004 121.653 80C121.653 56.9957 103.004 38.3471 80 38.3471ZM73.9126 40.6219H77.21L80.194 48.4286L83.1779 40.6219H86.4769V51.5848H84.2812V43.9302L81.3935 51.5848H78.996L76.1083 43.9302V51.5848H73.9126V40.6219ZM46.2624 58.6576L51.6128 52.2816C52.7191 50.9626 54.2678 49.909 55.7388 51.1426L55.8181 51.2089C56.2179 51.5426 56.419 51.7105 56.9367 52.6555C57.0671 53.0124 57.1679 53.6595 56.9228 54.2926C58.2029 53.4997 59.5653 53.7572 60.4483 54.6153C61.8029 55.9312 61.6028 57.455 60.3148 58.9912L54.6728 65.7148L46.2624 58.6576ZM80 106.606C65.3067 106.606 53.3941 94.6933 53.3941 80C53.3941 65.3067 65.3067 53.3941 80 53.3941C94.6933 53.3941 106.606 65.3067 106.606 80C106.606 94.6933 94.6948 106.606 80 106.606ZM104.79 65.9383L102.799 63.4602L106.767 57.6614L106.744 57.6319L100.245 60.3055L98.2359 57.8429L105.113 48.995L106.811 51.0898L102.503 56.7241L109.084 53.8984L110.904 56.1453L106.772 61.9969L113.179 58.9555L114.875 61.0503L104.79 65.9383ZM80 80H55.1057C55.1057 66.2517 66.2517 55.1057 80 55.1057V80ZM80 80H104.894C104.894 93.7483 93.7483 104.894 80 104.894V80ZM80.1943 48.4286L80.2118 48.4714H80.1784L80.1943 48.4286ZM54.5362 53.8891C53.9947 53.4345 53.1536 53.4159 52.7812 53.8597L49.5676 57.6893L51.5553 59.3574L54.7333 55.5712C55.1336 55.0948 55.1305 54.3872 54.5362 53.8891ZM58.1657 56.4262C58.8143 56.9709 58.8795 57.7964 58.4341 58.3271L55.0855 62.3181L52.9845 60.5553L56.361 56.5317C56.7428 56.0771 57.5931 55.9452 58.1657 56.4262Z" fill="#092D2E"/>
</svg>
