<svg width="200" height="200" viewBox="0 0 200 200" fill="none" xmlns="http://www.w3.org/2000/svg">
<circle cx="100" cy="100" r="98.8889" fill="white" stroke="#56D690" stroke-width="2.22222"/>
<path d="M38.5834 72.717L33 78.4729L37.4667 132.192L42.8904 136.669L57.8866 135.71L75.9133 126.917C75.9133 126.917 79.2634 129.794 80.6996 132.192C82.1358 134.59 85.8053 140.186 90.9095 140.985C96.0137 141.784 111.17 142.264 114.36 141.784C117.55 141.304 124.73 138.106 127.76 132.511C130.791 126.915 129.834 121.639 129.834 121.639C129.834 121.639 132.227 121.8 133.663 120.84L133.983 122.919L151.53 128.514L167.004 126.596L160.94 58.0079L139.563 67.2813L137.329 70.7989L135.256 69.0409L125.206 73.6776C125.206 73.6776 122.015 61.2069 115.953 60.4079C109.89 59.609 107.976 63.7654 107.657 64.2457C107.177 64.4058 106.062 57.6909 100.159 58.0111C94.2564 58.3313 90.9063 63.2866 90.9063 70.9606C89.6299 69.6813 88.5132 69.2026 88.5132 69.2026L86.2798 71.1207C86.2798 71.1207 83.0895 65.5249 79.8992 65.8452C76.7089 66.1654 74.7951 67.9234 73.0394 70.0015C71.2852 72.0797 67.7754 77.6755 68.4129 79.7537C66.6587 78.6345 59.7989 79.4335 59.6391 86.3085C56.7683 84.0702 38.5818 72.7186 38.5818 72.7186L38.5834 72.717Z" fill="#D20224"/>
<path d="M38.8488 75.2214C38.5293 75.3276 35.0195 78.9514 35.0195 78.9514L39.2743 131.285L43.7411 134.589L53.312 130.326L57.6728 125.85L56.5039 111.781L49.0588 113.485L49.9097 124.144L46.7194 125.742L43.5291 86.0927L46.8254 88.117L47.6764 99.6287L55.0139 97.8169L54.2689 84.7073L38.8488 75.2214Z" fill="white"/>
<path d="M77.242 109.223L73.7321 106.025L76.6029 103.254L76.1775 95.9005C76.1775 95.9005 73.1991 94.515 71.3912 90.6773C70.4343 91.4239 68.5204 93.4482 66.0735 93.4482C63.6266 93.4482 61.0753 91.7425 60.4363 88.6514C59.0539 87.7986 56.2891 86.3069 56.2891 86.3069L59.6929 126.596L67.138 123.399L66.287 110.928L69.4773 109.543L70.4343 121.587L77.5599 118.496L77.2404 109.223H77.242ZM65.4377 104.64L65.0122 96.7533L68.3085 98.1388L68.628 103.254L65.4377 104.64Z" fill="white"/>
<path d="M81.0713 78.4189C81.0713 78.4189 84.1556 83.7484 83.9421 89.7166C83.7286 95.6849 80.0068 96.7502 77.7734 96.4315C77.8794 98.4574 79.1558 112.206 79.1558 112.206L83.7286 115.723C83.7286 115.723 84.154 113.166 86.0679 112.314C87.9818 111.461 91.1721 111.141 93.4055 110.82C95.5329 109.116 97.3407 106.558 97.3407 106.558L96.4898 92.3814C96.4898 92.3814 93.086 86.6255 91.4916 80.4432C90.7466 76.2868 90.7466 73.1957 90.7466 73.1957L88.7268 70.9574L86.9189 72.7693L89.5777 104.532L86.5994 106.238L83.9405 75.0076L81.0697 78.4173L81.0713 78.4189Z" fill="white"/>
<path d="M98.2984 93.7668C97.9805 93.6574 99.4689 108.049 99.4689 108.049C99.4689 108.049 102.659 106.664 103.51 105.917C103.936 105.703 106.489 106.024 106.489 106.024L105 94.8321L110.318 106.662C110.318 106.662 119.996 111.565 122.124 111.565C121.912 109.433 120.104 87.6908 120.104 87.6908C120.104 87.6908 118.082 92.7 113.723 92.4876C113.829 93.7668 114.468 99.4165 114.468 99.4165L111.172 91.8487C111.172 91.8487 109.151 91.5285 107.237 86.8395C107.025 86.3069 106.811 86.8395 106.811 86.8395C106.811 86.8395 106.386 96.5393 98.3032 93.7668H98.2984Z" fill="white"/>
<path d="M135.415 71.3838L125.205 75.0076C125.205 75.0076 122.335 78.0987 121.164 78.9515C121.59 84.1748 123.823 110.182 123.823 110.182C123.823 110.182 126.695 112.42 127.227 113.165C128.821 113.699 139.351 116.682 139.351 116.682L143.18 112.526L141.797 98.3512L134.352 100.269L134.884 109.861L131.693 108.688L129.248 79.5904L132.119 78.2049L132.97 87.6907L140.521 86.0913L139.67 74.6858L135.415 71.3822V71.3838Z" fill="white"/>
<path d="M141.264 68.6128L149.028 65.3093L151.262 91.316L154.132 90.8896L152.005 64.1362L159.344 60.6187L164.662 124.464L156.791 122.013L154.664 98.3511H151.899L153.281 120.947L145.305 118.388L141.264 68.6128Z" fill="white"/>
<path d="M64.163 84.7073C65.3334 83.8545 65.6513 83.2157 66.5023 83.1079C65.4394 83.0017 62.8865 84.3871 62.2491 85.8788C62.2491 85.985 61.5041 85.985 61.6117 85.3462C61.7176 84.7073 61.3981 83.2141 61.3981 83.2141C61.3981 83.2141 60.2293 85.7726 60.6532 87.3705C61.0786 88.9683 62.3551 91.7409 65.5454 91.1004C68.7357 90.4616 68.9492 87.6907 68.5237 85.771C68.0983 83.8529 65.4394 83.8513 64.163 84.7042V84.7073ZM79.4771 67.76C79.9025 67.0133 81.073 67.1195 81.6045 67.0133C80.328 65.9481 78.9456 67.76 78.9456 67.76C78.9456 67.76 79.2651 68.0802 79.4771 67.76ZM82.0299 84.2809C79.6906 79.3779 79.6906 78.8453 79.1591 78.2048C78.6277 77.566 79.4771 77.7784 79.5846 77.352C79.6906 76.9256 79.9041 74.6873 79.9041 74.0484C79.9041 73.4096 79.7981 72.5568 79.3727 72.8754C78.9472 73.1956 80.0101 71.9164 80.0101 71.3837C79.4786 72.449 78.9472 72.7692 78.4142 72.8754C78.9456 71.9164 79.3711 70.2107 79.1591 69.5718C79.1591 69.5718 77.7767 71.9164 76.6063 72.5568C75.4358 73.1956 70.6511 73.1956 69.1612 76.607C67.6728 80.0183 70.7555 87.1596 72.2455 90.0368C73.7339 92.9139 75.3298 95.26 78.5201 93.7667C81.7104 92.2735 84.3693 89.1839 82.0299 84.2809ZM73.6279 77.2458C72.1395 77.1396 70.5436 78.6313 70.5436 78.6313C71.181 77.2458 72.9905 77.0318 73.6279 77.2458ZM70.7571 80.4431C70.7571 80.4431 70.7935 80.3845 70.8599 80.2925C70.8188 80.3449 70.7824 80.3956 70.7571 80.4431ZM70.871 80.2767C71.2822 79.7029 72.8639 77.8117 75.7553 77.9924C74.4599 78.292 71.5796 79.4334 70.871 80.2767ZM73.5219 89.6103C73.4349 89.9179 73.5219 85.7726 75.5434 85.0275C77.5648 84.2809 79.7966 85.3477 80.4356 87.1596C79.2651 86.3068 75.2238 83.6421 73.5235 89.6119L73.5219 89.6103ZM97.5576 91.7424C99.685 93.4481 104.789 92.5953 105.215 87.6923C105.64 82.7892 103.726 79.5919 100.854 80.1245C101.917 78.8453 102.768 78.6313 103.193 78.9515C103.087 77.6722 102.875 76.7132 102.342 75.5417C101.811 74.3687 101.597 71.3853 101.597 71.0651C101.597 70.7449 97.344 72.4506 94.7912 68.188C94.2597 67.7616 93.3028 68.2942 93.4087 69.9999C92.9833 69.147 92.7713 66.6963 92.5578 66.2699C92.5578 66.2699 90.7499 73.7298 92.2383 78.9531C93.7267 84.1763 95.4286 90.0384 97.556 91.744L97.5576 91.7424ZM99.5774 82.8954C102.13 82.8954 103.725 85.1337 104.15 86.8394C103.193 85.5602 99.1519 81.51 95.8556 87.0534C95.5836 87.5115 97.0261 82.897 99.5774 82.897V82.8954ZM107.128 78.9515C107.234 79.9105 107.448 84.9197 108.617 86.9456C109.787 88.9715 110.744 89.9306 112.978 89.9306C115.211 89.9306 118.401 87.7985 117.976 83.4281C117.55 79.0577 116.913 78.7391 116.381 78.5251C115.85 78.311 115.105 78.6313 115.105 78.6313C115.105 78.6313 115.531 77.2458 115.317 76.0727C115.105 74.9013 114.572 72.8754 114.572 71.4899C113.827 70.8495 111.807 71.5961 109.999 70.8495C108.191 70.1029 107.234 67.0118 107.234 67.0118C107.234 67.0118 105.533 70.6355 105.852 73.7267C106.172 76.8178 107.023 77.9893 107.128 78.9499V78.9515ZM115.317 82.469C113.829 81.51 110.105 80.8696 108.617 83.4281C108.617 83.4281 111.595 77.9924 115.317 82.469ZM117.125 72.4506C117.338 72.7348 117.409 73.1259 117.338 73.6236L117.232 74.3702C117.232 74.3702 118.401 73.5174 118.827 71.5993C119.252 69.6812 119.252 66.6963 118.721 65.631C118.349 64.886 118.082 66.2699 118.082 66.8025C118.082 67.3351 118.401 70.5325 117.444 71.5993C116.487 72.6662 116.805 72.0257 117.125 72.4522V72.4506ZM123.294 72.7708C122.868 72.2382 122.017 72.3444 122.017 71.8117C122.017 71.2791 122.229 68.6144 121.06 67.2289C120.494 66.5584 121.486 69.147 121.06 70.2139C120.635 71.2791 120.423 71.7055 120.209 72.1319C119.996 72.5584 120.103 73.1972 120.103 73.1972C120.103 73.1972 122.123 73.5174 123.294 72.7708ZM103.725 64.7766L102.874 65.0968C102.874 65.0968 103.937 65.8435 103.513 66.4823L103.087 67.1211C103.087 67.1211 102.981 69.2532 103.193 70.2123C103.407 70.4263 103.407 69.6796 103.938 68.2942C104.47 66.9087 104.47 66.6963 104.789 66.2699C105.109 65.8435 104.364 63.7114 103.619 63.0725C102.853 62.4147 104.576 64.458 103.725 64.7782V64.7766ZM97.1305 123.399C96.4124 123.798 97.2096 129.315 98.0084 131.713C98.8055 134.112 99.4445 134.911 99.8431 135.15C100.242 135.389 100.163 135.071 100.242 134.83C100.321 134.59 99.9222 130.992 99.2848 128.354C98.6458 125.716 98.3279 123.079 97.1305 123.397V123.399ZM123.213 114.685C123.213 114.685 121.459 113.487 120.82 113.166C120.182 112.846 112.843 109.01 110.371 107.651C107.899 106.293 104.708 107.092 103.91 107.171C103.113 107.25 98.486 109.89 94.9762 110.928C91.4664 111.968 90.9887 111.968 89.233 112.207C87.4789 112.447 84.7663 113.087 84.8454 115.885C84.9039 117.965 86.4413 121.56 94.6567 121.081C102.872 120.601 104.628 119.482 104.946 118.044C105.265 116.605 105.425 114.847 105.583 114.527C105.743 114.206 106.86 116.686 106.141 118.123C106.38 118.843 107.179 118.604 107.418 117.884C107.418 118.764 107.497 119.163 107.098 119.483C106.7 119.804 112.921 121.482 111.644 124.759C111.165 124.998 110.847 124.359 110.448 123.96C110.05 123.561 107.976 122.681 106.619 122.681C105.262 122.681 103.429 124.199 103.429 127.478C103.429 130.756 107.896 132.913 109.251 133.233C109.33 132.274 109.251 131.234 110.208 130.356C111.165 129.477 111.723 129.397 111.962 129.637C112.201 129.876 113.079 130.995 114.116 131.315C115.154 131.636 117.228 132.195 119.54 130.436C121.853 128.678 123.528 123.561 123.608 119.644C123.687 115.727 123.21 114.687 123.21 114.687L123.213 114.685ZM89.872 118.922C90.5901 118.922 92.5847 117.404 93.2221 116.763C93.8595 116.124 93.6207 114.365 93.5416 112.925C93.5416 112.925 94.8181 113.246 94.8971 115.563C94.9762 117.881 90.829 119.401 89.872 118.921V118.922ZM94.9762 132.431C94.8971 132.111 94.6567 123.318 94.6567 123.318C94.6567 123.318 88.594 122.758 87.0788 121.639C85.5635 120.52 85.5635 119.8 85.0842 119.961C84.9245 120.2 85.9621 121.879 85.1633 122.598C84.3661 123.318 79.7396 125.076 79.5799 125.396C79.4201 125.716 81.8923 129.633 83.4883 132.591C85.0842 135.549 86.7592 137.707 88.8329 137.948C90.9065 138.187 94.9746 137.869 95.6121 137.788C96.2495 137.708 95.4523 135.31 95.2926 134.75C95.1328 134.191 95.0537 132.752 94.9731 132.433L94.9762 132.431Z" fill="#FF9247"/>
</svg>
