<svg width="160" height="160" viewBox="0 0 160 160" fill="none" xmlns="http://www.w3.org/2000/svg">
<circle cx="80" cy="80" r="80" fill="#C2F7AD"/>
<path fill-rule="evenodd" clip-rule="evenodd" d="M32.1929 74.3478C34.784 74.3478 36.737 74.9904 38.0517 76.2765C39.3665 77.5626 40.0234 79.4821 40.0234 82.035V83.4788H24.7306C24.7679 85.4954 25.2884 86.9804 26.291 87.9338C27.2937 88.8871 28.8252 89.3628 30.8884 89.3628H32.1359C33.6683 89.3628 34.8971 89.1318 35.8241 88.6689C36.751 88.206 37.3939 87.5212 37.7537 86.6156H39.5692C39.1908 88.0401 38.3779 89.1273 37.1295 89.8762C35.8811 90.6242 34.2355 91 32.1929 91H30.8305C28.2393 91 26.2864 90.3574 24.9716 89.0713C23.6569 87.7852 23 85.8658 23 83.3119V82.035C23 79.4821 23.6569 77.5626 24.9716 76.2765C26.2864 74.9904 28.2393 74.3478 30.8305 74.3478H32.1929ZM51.5738 74.3478C53.8819 74.3478 55.6881 74.8612 56.9935 75.8878C58.298 76.9145 59.0735 78.4453 59.3202 80.4803H57.5887C57.343 78.9458 56.7234 77.8128 55.7301 77.0813C54.7378 76.3507 53.3333 75.985 51.5168 75.985H50.2684C48.1688 75.985 46.6176 76.4846 45.615 77.4838C44.6133 78.4829 44.1115 80.0284 44.1115 82.1184V83.2285C44.1115 85.3203 44.6133 86.8649 45.6159 87.8641C46.6176 88.8633 48.1688 89.3628 50.2694 89.3628H51.5168C53.3333 89.3628 54.7378 88.9971 55.7311 88.2665C56.7234 87.5359 57.343 86.402 57.5887 84.8657H59.3193C59.0735 86.9016 58.298 88.4324 56.9926 89.46C55.6881 90.4867 53.8809 91 51.5738 91H50.2124C47.6203 91 45.6673 90.3574 44.3535 89.0713C43.0378 87.7852 42.3819 85.8658 42.3819 83.3119V82.035C42.3819 79.4821 43.0378 77.5626 44.3535 76.2765C45.6673 74.9904 47.6203 74.3478 50.2124 74.3478H51.5738ZM70.7389 74.3478C73.3301 74.3478 75.283 74.9904 76.5978 76.2765C77.9125 77.5626 78.5694 79.4821 78.5694 82.035V83.3119C78.5694 85.8658 77.9125 87.7852 76.5978 89.0713C75.284 90.3574 73.331 91 70.7398 91H69.3784C66.7863 91 64.8333 90.3574 63.5195 89.0713C62.2048 87.7852 61.5479 85.8658 61.5479 83.3119V82.035C61.5479 79.4821 62.2048 77.5626 63.5195 76.2765C64.8333 74.9904 66.7863 74.3478 69.3784 74.3478H70.7389ZM82.9313 69V76.9017C83.5172 76.0501 84.3161 75.4121 85.3281 74.9858C86.3401 74.5605 87.5745 74.3478 89.0303 74.3478H90.3927C92.9839 74.3478 94.9368 74.9904 96.2515 76.2765C97.5663 77.5626 98.2232 79.4821 98.2232 82.035V83.3119C98.2232 85.8658 97.5663 87.7852 96.2515 89.0713C94.9368 90.3574 92.9839 91 90.3927 91H89.0303C86.4391 91 84.4862 90.3574 83.1714 89.0713C81.8567 87.7852 81.1998 85.8658 81.1998 83.3119V69H82.9313ZM109.788 74.3478C112.379 74.3478 114.332 74.9904 115.646 76.2765C116.961 77.5626 117.618 79.4821 117.618 82.035V83.4788H102.327C102.365 85.4954 102.884 86.9804 103.888 87.9338C104.889 88.8871 106.422 89.3628 108.484 89.3628H109.733C111.265 89.3628 112.494 89.1318 113.421 88.6689C114.348 88.206 114.991 87.5212 115.35 86.6156H117.166C116.787 88.0401 115.974 89.1273 114.726 89.8762C113.477 90.6242 111.83 91 109.788 91H108.426C105.834 91 103.881 90.3574 102.567 89.0713C101.253 87.7852 100.596 85.8658 100.596 83.3119V82.035C100.596 79.4821 101.253 77.5626 102.567 76.2765C103.881 74.9904 105.834 74.3478 108.426 74.3478H109.788ZM129.17 74.3478C131.76 74.3478 133.714 74.9904 135.028 76.2765C136.342 77.5626 137 79.4821 137 82.035V83.4788H121.707C121.745 85.4954 122.265 86.9804 123.268 87.9338C124.27 88.8871 125.802 89.3628 127.864 89.3628H129.113C130.645 89.3628 131.874 89.1318 132.801 88.6689C133.728 88.206 134.371 87.5212 134.73 86.6156H136.546C136.167 88.0401 135.354 89.1273 134.106 89.8762C132.858 90.6251 131.212 91 129.17 91H127.807C125.215 91 123.263 90.3574 121.948 89.0713C120.634 87.7852 119.977 85.8658 119.977 83.3119V82.035C119.977 79.4821 120.634 77.5626 121.948 76.2765C123.263 74.9904 125.215 74.3478 127.807 74.3478H129.17ZM70.6828 75.985H69.4344C67.3348 75.985 65.7836 76.4846 64.781 77.4838C63.7784 78.4829 63.2766 80.0284 63.2766 82.1184V83.2285C63.2766 85.3203 63.7784 86.8649 64.781 87.8641C65.7836 88.8633 67.3348 89.3628 69.4344 89.3628H70.6828C72.7816 89.3628 74.3327 88.8633 75.3363 87.8641C76.338 86.8649 76.8388 85.3203 76.8388 83.2285V82.1193C76.8388 80.0284 76.338 78.4829 75.3353 77.4838C74.3327 76.4846 72.7825 75.985 70.6828 75.985ZM90.3357 75.985H89.0873C86.9886 75.985 85.4365 76.4846 84.4339 77.4838C83.4322 78.4829 82.9313 80.0284 82.9313 82.1184V83.2285C82.9313 85.3203 83.4322 86.8649 84.4348 87.8641C85.4365 88.8633 86.9886 89.3628 89.0882 89.3628H90.3357C92.4353 89.3628 93.9865 88.8633 94.9891 87.8641C95.9918 86.8649 96.4936 85.3203 96.4936 83.2285V82.1193C96.4936 80.0284 95.9918 78.4829 94.9891 77.4838C93.9865 76.4846 92.4353 75.985 90.3357 75.985ZM32.1359 75.985H30.8875C28.8252 75.985 27.2937 76.4617 26.291 77.415C25.2884 78.3683 24.7679 79.8433 24.7306 81.8416H38.2928C38.2554 79.8433 37.735 78.3674 36.7323 77.4141C35.7297 76.4617 34.1972 75.985 32.1359 75.985ZM109.732 75.985H108.483C106.421 75.985 104.888 76.4617 103.886 77.415C102.883 78.3683 102.364 79.8433 102.325 81.8416H115.888C115.85 79.8433 115.33 78.3674 114.327 77.4141C113.324 76.4617 111.793 75.985 109.732 75.985ZM129.113 75.985H127.864C125.802 75.985 124.27 76.4617 123.267 77.415C122.265 78.3683 121.745 79.8433 121.707 81.8416H135.269C135.231 79.8433 134.712 78.3674 133.709 77.4141C132.706 76.4617 131.175 75.985 129.113 75.985Z" fill="#092D2E"/>
</svg>
