<svg width="160" height="160" viewBox="0 0 160 160" fill="none" xmlns="http://www.w3.org/2000/svg">
<circle cx="80" cy="80" r="80" fill="#C2F7AD"/>
<path d="M39.257 132.165C38.465 132.165 37.783 132 37.211 131.67C36.639 131.34 36.199 130.874 35.891 130.273C35.5903 129.672 35.44 128.968 35.44 128.161C35.44 127.362 35.5903 126.658 35.891 126.049C36.199 125.44 36.639 124.971 37.211 124.641C37.7903 124.304 38.4723 124.135 39.257 124.135C40.1957 124.135 40.9767 124.373 41.6 124.85C42.2307 125.319 42.6267 125.987 42.788 126.852H41.105C41.0097 126.427 40.797 126.104 40.467 125.884C40.137 125.657 39.7337 125.543 39.257 125.543C38.575 125.543 38.036 125.774 37.64 126.236C37.244 126.691 37.046 127.325 37.046 128.139C37.046 128.96 37.244 129.602 37.64 130.064C38.036 130.526 38.5787 130.757 39.268 130.757C39.8913 130.757 40.379 130.566 40.731 130.185C41.083 129.796 41.292 129.276 41.358 128.623H42.975C42.931 129.327 42.7587 129.947 42.458 130.482C42.1573 131.01 41.7357 131.424 41.193 131.725C40.6503 132.018 40.005 132.165 39.257 132.165ZM48.3174 132.165C47.5327 132.165 46.8507 132 46.2714 131.67C45.6994 131.333 45.2594 130.863 44.9514 130.262C44.6507 129.653 44.5004 128.953 44.5004 128.161C44.5004 127.369 44.6507 126.672 44.9514 126.071C45.2594 125.462 45.6994 124.989 46.2714 124.652C46.8507 124.307 47.5327 124.135 48.3174 124.135C49.1021 124.135 49.7841 124.304 50.3634 124.641C50.9427 124.978 51.3864 125.451 51.6944 126.06C52.0024 126.661 52.1564 127.358 52.1564 128.15C52.1564 128.942 52.0024 129.642 51.6944 130.251C51.3864 130.852 50.9427 131.322 50.3634 131.659C49.7841 131.996 49.1021 132.165 48.3174 132.165ZM48.3284 130.757C49.0104 130.757 49.5494 130.522 49.9454 130.053C50.3487 129.584 50.5504 128.946 50.5504 128.139C50.5504 127.34 50.3487 126.709 49.9454 126.247C49.5494 125.778 49.0104 125.543 48.3284 125.543C47.6464 125.543 47.1037 125.778 46.7004 126.247C46.3044 126.709 46.1064 127.34 46.1064 128.139C46.1064 128.946 46.3044 129.584 46.7004 130.053C47.1037 130.522 47.6464 130.757 48.3284 130.757ZM55.6694 132H54.1294V124.3H56.7474L58.5184 129.613H58.5404L60.2784 124.3H62.8964V132H61.3564V125.807H61.3344L59.2334 132H57.8254L55.6914 125.807H55.6694V132ZM66.8463 132H65.3063V124.3H66.8463V132ZM70.7931 132H69.2531V124.3H71.5741L74.1481 130.163H74.1701V124.3H75.7101V132H73.3891L70.8151 126.148H70.7931V132ZM83.5984 132V131.01H83.5764C83.3124 131.377 82.9641 131.663 82.5314 131.868C82.1061 132.066 81.6258 132.165 81.0904 132.165C80.4084 132.165 79.8108 132 79.2974 131.67C78.7841 131.333 78.3844 130.863 78.0984 130.262C77.8198 129.661 77.6804 128.964 77.6804 128.172C77.6804 127.373 77.8271 126.669 78.1204 126.06C78.4211 125.451 78.8574 124.978 79.4294 124.641C80.0014 124.304 80.6834 124.135 81.4754 124.135C82.3848 124.135 83.1401 124.351 83.7414 124.784C84.3428 125.209 84.7204 125.796 84.8744 126.544H83.1254C83.0008 126.229 82.7991 125.983 82.5204 125.807C82.2418 125.631 81.8971 125.543 81.4864 125.543C80.7898 125.543 80.2471 125.778 79.8584 126.247C79.4698 126.709 79.2754 127.329 79.2754 128.106C79.2754 128.898 79.4698 129.54 79.8584 130.031C80.2471 130.515 80.7788 130.757 81.4534 130.757C81.8274 130.757 82.1684 130.676 82.4764 130.515C82.7844 130.354 83.0301 130.126 83.2134 129.833C83.3968 129.54 83.4958 129.199 83.5104 128.81L83.5214 128.744H81.3214V127.446H85.0614V132H83.5984ZM92.9208 132.165C92.3195 132.165 91.7842 132.055 91.3148 131.835C90.8455 131.615 90.4715 131.303 90.1928 130.9C89.9142 130.489 89.7565 130.013 89.7198 129.47H91.3148C91.3442 129.903 91.5018 130.244 91.7878 130.493C92.0812 130.735 92.4662 130.856 92.9428 130.856C93.3388 130.856 93.6578 130.768 93.8998 130.592C94.1492 130.416 94.2738 130.148 94.2738 129.789C94.2738 129.276 93.9915 128.96 93.4268 128.843L91.6668 128.458C91.0875 128.341 90.6512 128.099 90.3578 127.732C90.0718 127.358 89.9288 126.922 89.9288 126.423C89.9288 125.968 90.0462 125.569 90.2808 125.224C90.5155 124.872 90.8418 124.604 91.2598 124.421C91.6852 124.23 92.1765 124.135 92.7338 124.135C93.3132 124.135 93.8265 124.238 94.2738 124.443C94.7285 124.648 95.0842 124.938 95.3408 125.312C95.5975 125.679 95.7368 126.1 95.7588 126.577H94.1748C94.1528 126.203 94.0135 125.921 93.7568 125.73C93.5002 125.539 93.1665 125.444 92.7558 125.444C92.3965 125.444 92.1032 125.517 91.8758 125.664C91.6558 125.811 91.5458 126.034 91.5458 126.335C91.5458 126.753 91.7695 127.013 92.2168 127.116L93.9438 127.512C94.5452 127.644 95.0145 127.882 95.3518 128.227C95.6965 128.564 95.8688 129.048 95.8688 129.679C95.8688 130.214 95.7405 130.669 95.4838 131.043C95.2272 131.417 94.8752 131.699 94.4278 131.89C93.9878 132.073 93.4855 132.165 92.9208 132.165ZM101.116 132.165C100.331 132.165 99.6494 132 99.0701 131.67C98.4981 131.333 98.0581 130.863 97.7501 130.262C97.4494 129.653 97.2991 128.953 97.2991 128.161C97.2991 127.369 97.4494 126.672 97.7501 126.071C98.0581 125.462 98.4981 124.989 99.0701 124.652C99.6494 124.307 100.331 124.135 101.116 124.135C101.901 124.135 102.583 124.304 103.162 124.641C103.741 124.978 104.185 125.451 104.493 126.06C104.801 126.661 104.955 127.358 104.955 128.15C104.955 128.942 104.801 129.642 104.493 130.251C104.185 130.852 103.741 131.322 103.162 131.659C102.583 131.996 101.901 132.165 101.116 132.165ZM101.127 130.757C101.809 130.757 102.348 130.522 102.744 130.053C103.147 129.584 103.349 128.946 103.349 128.139C103.349 127.34 103.147 126.709 102.744 126.247C102.348 125.778 101.809 125.543 101.127 125.543C100.445 125.543 99.9024 125.778 99.4991 126.247C99.1031 126.709 98.9051 127.34 98.9051 128.139C98.9051 128.946 99.1031 129.584 99.4991 130.053C99.9024 130.522 100.445 130.757 101.127 130.757ZM110.316 132.165C109.531 132.165 108.849 132 108.27 131.67C107.698 131.333 107.258 130.863 106.95 130.262C106.649 129.653 106.499 128.953 106.499 128.161C106.499 127.369 106.649 126.672 106.95 126.071C107.258 125.462 107.698 124.989 108.27 124.652C108.849 124.307 109.531 124.135 110.316 124.135C111.101 124.135 111.783 124.304 112.362 124.641C112.941 124.978 113.385 125.451 113.693 126.06C114.001 126.661 114.155 127.358 114.155 128.15C114.155 128.942 114.001 129.642 113.693 130.251C113.385 130.852 112.941 131.322 112.362 131.659C111.783 131.996 111.101 132.165 110.316 132.165ZM110.327 130.757C111.009 130.757 111.548 130.522 111.944 130.053C112.347 129.584 112.549 128.946 112.549 128.139C112.549 127.34 112.347 126.709 111.944 126.247C111.548 125.778 111.009 125.543 110.327 125.543C109.645 125.543 109.102 125.778 108.699 126.247C108.303 126.709 108.105 127.34 108.105 128.139C108.105 128.946 108.303 129.584 108.699 130.053C109.102 130.522 109.645 130.757 110.327 130.757ZM117.668 132H116.128V124.3H118.449L121.023 130.163H121.045V124.3H122.585V132H120.264L117.69 126.148H117.668V132Z" fill="#AEB9BF"/>
<path fill-rule="evenodd" clip-rule="evenodd" d="M52.8736 83.6034H107.666C108.697 83.6034 109.684 83.1947 110.408 82.4711C111.131 81.7474 111.54 80.7599 111.54 79.7297C111.506 62.2345 97.2544 48 79.7592 48C67.8999 48 57.1048 54.5298 51.5966 65.044C50.6005 66.934 51.3327 69.2837 53.2312 70.2713C55.1212 71.2673 57.4624 70.5267 58.4585 68.6367C62.6301 60.6851 70.786 55.7473 79.7592 55.7473C91.661 55.7473 101.588 64.4651 103.469 75.8561H52.8736C50.7367 75.8561 49 77.5928 49 79.7297C49 81.8666 50.7367 83.6034 52.8736 83.6034ZM51.554 93.9898C56.8409 105.142 68.0191 112.166 80.2785 112.166V112.175C80.7127 112.175 81.1554 112.166 81.5981 112.149C93.4574 111.655 103.972 104.683 109.037 93.9557C109.948 92.0232 109.122 89.716 107.19 88.7966C105.249 87.8856 102.941 88.7114 102.03 90.644C98.1909 98.7573 90.2393 104.027 81.2746 104.402C71.6203 104.793 62.6897 99.4044 58.5521 90.6695C57.6412 88.737 55.3255 87.9112 53.393 88.8306C51.4604 89.7416 50.6346 92.0572 51.554 93.9898Z" fill="#092D2E"/>
</svg>
