<svg width="200" height="200" viewBox="0 0 200 200" fill="none" xmlns="http://www.w3.org/2000/svg">
<circle cx="100" cy="100" r="98.8889" fill="white" stroke="#56D690" stroke-width="2.22222"/>
<g clip-path="url(#clip0_142_12756)">
<path d="M135.804 118.186C136.758 118.186 137.731 118.17 138.68 118.17C138.68 119.052 138.694 119.86 138.68 120.577C137.062 121.654 134.887 121.287 133.711 119.74C132.563 118.256 132.606 116.172 133.81 114.735C134.385 114.058 135.182 113.607 136.06 113.465C137.378 113.224 138.463 113.819 139.524 114.555C139.925 114.104 140.287 113.7 140.638 113.304C139.13 111.308 134.978 110.964 132.703 113.158C130.538 115.246 130.394 118.79 132.397 121.097C134.399 123.404 138.134 123.573 140.654 121.522V116.308C139.878 116.308 137.339 116.308 136.568 116.322C136.36 116.866 136.035 117.446 135.804 118.186Z" fill="black"/>
<path d="M46.255 118.466C45.1812 116.073 43.9679 113.937 42.991 111.607H40.793C42.5122 115.491 44.5048 119.038 46.2511 122.854C48.0072 119.007 49.6102 115.296 51.2906 111.607H49.1876C48.2301 113.937 47.3153 116.056 46.255 118.466Z" fill="black"/>
<path d="M97.2334 76C88.8658 75.9884 82.0741 82.7773 82.0625 91.1605C82.0509 99.5437 88.8271 106.348 97.1946 106.36C105.549 106.342 112.321 99.569 112.352 91.1993C112.352 82.8491 105.558 76.0097 97.2334 76ZM96.962 104.666C89.5268 104.534 83.6073 98.3883 83.7391 90.9411C83.8787 83.4958 90.0075 77.5691 97.4388 77.6934C104.874 77.8254 110.794 83.9696 110.662 91.4188C110.53 98.8679 104.395 104.799 96.962 104.666Z" fill="black"/>
<path d="M98.9538 90.2789C97.8877 89.1856 96.5464 88.8147 95.0772 88.836C94.5733 88.836 94.0713 88.9176 93.5363 88.9564C93.5828 88.0942 93.6274 87.1427 93.6739 86.3659H99.5198C99.5198 86.3659 99.5702 85.4047 99.5702 85.0804V84.226H91.3364C91.2569 86.5562 91.1755 89.1099 91.0941 91.6207C91.2356 91.5644 91.3286 91.5023 91.4217 91.4673C92.7319 90.9624 94.0732 90.6012 95.4804 90.9275C96.5096 91.1683 97.3218 91.7042 97.5582 92.8267C97.6338 93.1976 97.6726 93.5743 97.6706 93.953C97.692 94.4268 97.5834 94.8967 97.3566 95.3123C96.3042 97.0756 93.6894 97.1066 92.5478 95.3997C92.4451 95.2327 92.3695 95.0501 92.3191 94.8598L90.1191 95.3473C90.2102 95.6016 90.4545 96.1027 90.4874 96.1667C90.625 96.4347 90.784 96.6891 90.9642 96.9299C91.3228 97.4193 91.7764 97.831 92.2997 98.1378C92.8889 98.466 93.5421 98.664 94.2147 98.7204C94.8795 98.7922 95.5502 98.7592 96.2053 98.6233C97.8063 98.2485 99.0856 97.2639 99.7233 95.724C100.142 94.7103 100.148 93.6539 100.008 92.582C99.9229 91.7178 99.5527 90.9061 98.9538 90.2789Z" fill="black"/>
<path d="M100.637 87.8747C100.683 88.1835 100.747 88.4884 100.831 88.7874C101.296 89.6671 101.561 90.6361 101.612 91.6304C101.672 93.4053 101.707 95.1802 101.72 96.957C101.72 97.4911 101.959 97.895 102.242 98.297C102.273 98.3397 102.463 98.3455 102.478 98.3144C102.66 97.9765 102.941 97.6367 102.967 97.2833C103.056 96.0016 103.056 94.7141 103.093 93.4286C103.114 92.6712 103.093 91.9081 103.18 91.1566C103.271 90.2982 103.61 89.5564 103.936 88.7583L104.048 87.8514C102.914 87.7136 101.769 87.7213 100.637 87.8747Z" fill="black"/>
<path d="M102.363 86.7757C103.105 86.7757 103.708 86.1718 103.708 85.428C103.706 84.6843 103.105 84.0803 102.363 84.0803C101.62 84.0803 101.018 84.6843 101.018 85.428C101.02 86.1718 101.62 86.7757 102.363 86.7757Z" fill="black"/>
<path d="M23 122.676H24.9383V118.015H28.2333V116.462H24.9383V113.355H29.2025V111.607H23V122.676Z" fill="black"/>
<path d="M36.3738 111.607H34.4355V122.676H36.3738V111.607Z" fill="black"/>
<path d="M55.9512 122.676H62.5413V120.928H58.0833V117.821H61.766V116.267H58.0833V113.355H62.5413V111.607H55.9512V122.676Z" fill="black"/>
<path d="M75.9148 111.607H73.9766V122.87H75.9148V111.607Z" fill="black"/>
<path d="M88.4543 116.817C88.9195 116.275 89.1637 115.574 89.1347 114.86C89.1502 114.343 89.0319 113.83 88.7897 113.372C88.5687 112.974 88.2547 112.636 87.8748 112.386C87.4794 112.116 87.0355 111.921 86.5703 111.813C86.0741 111.692 85.5663 111.626 85.0546 111.619H81.7305V122.687H83.6687V118.027H84.6166L87.9562 122.687H90.3325L86.5975 117.802C87.3825 117.623 88.0008 117.324 88.4543 116.817ZM85.6283 116.394C85.3473 116.434 84.7309 116.462 84.7309 116.462H83.6649V113.355H84.9558C85.2155 113.351 85.4752 113.368 85.7311 113.407C85.9792 113.442 86.2214 113.52 86.4424 113.636C86.6479 113.747 86.8242 113.904 86.958 114.096C87.1014 114.316 87.1712 114.576 87.1615 114.838C87.1731 115.128 87.0975 115.415 86.9425 115.66C86.801 115.869 86.611 116.04 86.3862 116.155C86.1478 116.275 85.8919 116.357 85.6283 116.394Z" fill="black"/>
<path d="M117.669 118.314L110.373 111.613L110.359 122.676H112.334L112.381 116.153L119.719 122.765V111.607H117.674L117.669 118.314Z" fill="black"/>
<path d="M164.3 111.607H162.361V122.676H168.951V120.928H164.3V111.607Z" fill="black"/>
<path d="M180 113.355V111.607H173.604V122.676H175.736V118.015H178.837V116.462H175.736V113.355H180Z" fill="black"/>
<path d="M99.3468 111.502C96.1874 111.5 93.6269 114.065 93.625 117.231C93.6231 120.396 96.1835 122.961 99.3429 122.963C102.502 122.965 105.063 120.4 105.065 117.234C105.065 114.069 102.504 111.504 99.3468 111.502ZM103.111 117.233C103.109 119.314 101.425 121.002 99.3468 121.004C97.267 121.006 95.5807 119.316 95.5788 117.233C95.5768 115.149 97.2631 113.459 99.3429 113.457C101.423 113.456 103.109 115.145 103.111 117.229V117.233Z" fill="black"/>
<path d="M151.478 111.539C148.318 111.537 145.758 114.102 145.756 117.267C145.754 120.433 148.314 122.998 151.474 123C154.633 123 157.194 120.437 157.196 117.271V117.267C157.196 114.104 154.635 111.541 151.478 111.539ZM155.242 117.267C155.238 119.349 153.555 121.037 151.478 121.041C149.398 121.043 147.712 119.353 147.71 117.269C147.71 115.186 149.394 113.496 151.474 113.494C153.554 113.492 155.24 115.182 155.242 117.266V117.267Z" fill="black"/>
</g>
<defs>
<clipPath id="clip0_142_12756">
<rect width="157" height="47" fill="white" transform="translate(23 76)"/>
</clipPath>
</defs>
</svg>
