<svg width="160" height="160" viewBox="0 0 160 160" fill="none" xmlns="http://www.w3.org/2000/svg">
<circle cx="80" cy="80" r="80" fill="#C2F7AD"/>
<path fill-rule="evenodd" clip-rule="evenodd" d="M36.7917 72.8856H28.4161V75.8251H33.1274C33.1475 75.9661 33.1475 76.1271 33.1475 76.2681C33.1475 77.8586 32.2415 78.1606 31.1341 78.1606C30.5806 78.1606 30.027 78.1556 29.4735 78.1505L29.4731 78.1505C28.9195 78.1455 28.3658 78.1405 27.8121 78.1405H27.8121C27.3691 78.1405 26.9061 78.1405 26.4632 78.0801C24.8122 77.7982 24.6109 76.5902 24.6109 74.7379V73.2883C24.6109 71.1139 24.7116 69.7247 26.6243 69.7247C27.339 69.7247 28.0588 69.7297 28.7785 69.7348C29.4983 69.7398 30.2181 69.7448 30.9328 69.7448H30.9328C31.4563 69.7448 31.9999 69.7448 32.5032 69.9864C33.0267 70.2079 33.0871 70.8723 33.1274 71.4964H36.7514V71.2146C36.7514 66.9865 35.1407 66.2013 32.1408 66.0805C31.3154 66.0403 30.4697 66 29.6443 66C29.302 66 28.9597 66 28.6175 66.0201L25.839 66.0805C21.1278 66.1611 20.8057 68.6979 20.8057 74.0937C20.8057 74.7379 20.8258 75.4023 20.846 76.0466C21.007 81.3216 23.3022 81.7645 26.886 81.7645L28.8188 81.7846L31.0335 81.8048C31.6778 81.8048 32.3422 81.8048 32.9864 81.7846C36.2078 81.7846 36.8118 79.57 36.8118 76.1473C36.8118 75.5911 36.8067 75.045 36.8017 74.5015C36.7966 73.9629 36.7917 73.4268 36.7917 72.8856ZM52.5761 66.4228H39.3283V81.4827H52.5761V78.06H42.9523V75.4024H51.9318V72.4226H42.9523V69.8455H52.5761V66.4228ZM71.5416 81.4827H65.7834L58.6361 70.1677V81.4827H55.2335V66.4228H60.9917L68.1391 77.6976V66.4228H71.5416V81.4827ZM87.8902 66.4228H74.6423V81.4827H87.8902V78.06H78.2664V75.4024H87.2459V72.4226H78.2664V69.8455H87.8902V66.4228ZM90.5679 66.4228H101.621C104.42 66.4228 105.587 67.5503 105.587 71.1945C105.587 72.2414 105.527 73.389 105.084 74.295C104.691 75.064 104.023 75.3253 103.362 75.5837C103.244 75.6298 103.126 75.6758 103.01 75.7245C104.52 75.9661 105.426 76.5298 105.426 78.6036V81.4827H101.762V80.0331C101.762 78.3821 101.702 77.6171 100.192 77.6171H94.1516V81.4827H90.5276V66.4228H90.5679ZM99.6481 73.9528H100.111C101.802 73.9528 101.943 73.53 101.943 71.8589C101.923 71.0737 101.903 70.4495 101.239 70.2079C100.916 70.0871 100.534 70.067 100.212 70.067H99.9299H94.1919V73.9528H99.6481ZM110.963 81.4827L112.131 78.7445H119.801L120.929 81.4827H124.915L118.432 66.4228H113.56L106.936 81.4827H110.963ZM113.399 75.6238L115.936 69.6643L118.493 75.6238H113.399ZM140.741 75.7446C140.741 75.8407 140.745 75.9413 140.75 76.0466V76.0467C140.755 76.1619 140.761 76.2827 140.761 76.409C140.761 80.6169 139.814 81.4021 136.311 81.5833C135.385 81.6236 134.479 81.6437 133.553 81.6437L131.318 81.6034C128.298 81.5632 125.963 81.4424 125.681 76.7311C125.6 75.6641 125.58 74.6372 125.58 73.5702C125.58 69.1811 126.124 66.7449 129.929 66.4228C131.056 66.302 132.184 66.302 133.311 66.302C134.781 66.302 136.291 66.302 137.761 66.5033C140.237 66.8456 140.579 69.0603 140.62 71.738H137.116C137.116 70.2683 136.492 70.0669 135.445 70.0065C135.103 69.9864 134.761 69.9864 134.439 69.9864H133.432L131.6 70.0065C129.244 70.0267 129.224 71.1139 129.224 73.9527C129.224 77.013 129.345 77.8385 131.922 77.919L133.331 77.9593C133.643 77.9593 133.951 77.9542 134.258 77.9492C134.565 77.9442 134.872 77.9391 135.184 77.9391C136.412 77.9391 137.197 77.7982 137.197 75.7446H140.741ZM140.801 93.9453L20 89.0931V88.4488L140.801 83.6369V93.9453Z" fill="#092D2E"/>
</svg>
