<svg width="160" height="160" viewBox="0 0 160 160" fill="none" xmlns="http://www.w3.org/2000/svg">
<circle cx="80" cy="80" r="80" fill="#C2F7AD"/>
<path fill-rule="evenodd" clip-rule="evenodd" d="M26.1704 76.1452V69.0347L21 69V86.4661L26.1704 86.4314V78.8048L30.4724 78.7949V86.4661L35.5683 86.4314L35.5633 69.0347H30.4724V76.1452H26.1704ZM70.6345 74.1952C73.6315 72.8009 78.1667 73.0093 80.1862 76.0112C81.0943 77.4056 81.5111 79.2762 81.4416 81.0873H72.659C72.659 83.0771 72.659 84.2531 73.2147 84.655C73.7059 85.3894 75.1002 85.563 76.2812 85.4241C77.4671 85.2107 78.7225 84.2283 79.0003 82.9034C79.375 82.9112 79.6717 82.9081 79.9933 82.9049H79.9933H79.9934H79.9935H79.9935H79.9935H79.9936C80.2894 82.9019 80.6065 82.8987 81.0248 82.9034C81.0943 83.5981 80.6775 84.3771 80.1862 84.9328C78.0973 86.8879 75.0308 87.3047 72.1677 86.6795C69.8009 86.1882 67.9947 83.995 67.6374 81.519C67.2901 78.6609 68.0543 75.7979 70.6345 74.1952ZM72.7108 78.1592C72.7277 78.5165 72.7437 78.8551 72.7284 79.1472L73.0211 79.1531C74.117 79.1753 74.8498 79.1901 76.0281 79.1125L76.0132 76.0807C75.8743 75.0337 74.8174 74.7559 73.8449 74.8948C72.58 75.3977 72.6509 76.8956 72.7108 78.1592ZM65.1267 74.9593C65.6427 75.6986 65.9454 76.4082 66.0347 77.7182C66.0844 79.4152 66.0347 86.4314 66.0347 86.4314H61.0827V77.0533C61.0182 76.7059 60.8495 76.3635 60.4575 76.1452C59.4105 76.0063 58.7159 76.3536 58.0162 76.9838L57.7383 77.4006V86.4562H52.9997V73.9173H57.5994L57.8773 74.8948C59.6884 73.2921 63.3851 72.8009 65.1317 74.9643L65.1267 74.9593ZM88.696 79.6335L86.3242 73.9173L86.3192 73.9074L81.0645 73.8726L85.9719 86.2478L86.0414 87.2947C85.8981 87.509 85.7688 87.764 85.6358 88.0262C85.2484 88.7903 84.8303 89.6148 83.9474 89.6666C84.0022 89.3194 83.9842 89.0526 83.9597 88.6919C83.9443 88.4648 83.9264 88.2005 83.9226 87.8554C83.5753 87.0863 82.831 86.5306 81.8535 86.6001C81.0893 86.6695 80.5981 87.3692 80.2508 87.9944C79.9729 88.9719 80.3252 89.8799 80.9504 90.5051C81.65 91.1353 82.4142 91.5521 83.4611 91.3437C85.0837 91.0807 85.8975 90.4406 86.8055 89.4631L93.0476 73.9967L97.1958 86.4661L100.878 86.4314L103.125 79.0033L105.239 86.4314H108.842L112.052 73.8826L110.38 73.9173L108.335 80.5068L106.197 73.9173H102.222L100.342 80.4026L98.0394 73.8826H91.2068L88.696 79.6335ZM125.251 76.0112C123.226 73.0093 118.696 72.8009 115.694 74.1952C113.114 75.7979 112.35 78.6609 112.697 81.519C113.054 83.995 114.86 86.1882 117.232 86.6795C120.09 87.3047 123.157 86.8879 125.251 84.9328C125.737 84.3771 126.154 83.5981 126.084 82.9034C125.668 82.8987 125.351 82.9019 125.055 82.9049C124.734 82.9081 124.437 82.9112 124.065 82.9034C123.782 84.2283 122.532 85.2107 121.346 85.4241C120.16 85.563 118.765 85.3894 118.274 84.655C117.719 84.2531 117.719 83.0771 117.719 81.0873H126.506C126.576 79.2762 126.154 77.4056 125.251 76.0112ZM117.77 78.1593V78.1592C117.71 76.8956 117.64 75.3977 118.904 74.8948C119.882 74.7559 120.934 75.0337 121.073 76.0807L121.088 79.1125C119.913 79.1902 119.176 79.1753 118.079 79.153L117.788 79.1472C117.803 78.8552 117.787 78.5167 117.77 78.1594V78.1594V78.1593ZM127.841 69H132.55V86.4314H127.841V69ZM139.189 69H134.48V86.4314H139.189V69ZM44.2865 73.3715C45.9785 73.3715 47.6953 73.7883 48.9061 74.7509C50.474 76.0013 51.3126 78.0605 51.3126 80.1843C51.3126 82.1095 50.6427 83.995 49.3179 85.2355C48.0576 86.4214 46.1869 87.002 44.2865 87.002C42.6689 87.002 40.9818 86.6695 39.7959 85.7764C38.1336 84.5309 37.2603 82.3824 37.2603 80.1843C37.2603 78.1796 38.0741 76.1948 39.4932 74.9444C40.7387 73.8528 42.4754 73.3715 44.2865 73.3715ZM44.3113 85.429C45.1896 85.429 45.8991 84.7195 45.8991 83.8412V76.4777C45.8991 75.5944 45.1896 74.8849 44.3113 74.8849C43.8697 74.8849 43.4727 75.0635 43.1849 75.3513C42.8971 75.6391 42.7185 76.0361 42.7185 76.4777V83.8412C42.7185 84.7195 43.433 85.429 44.3113 85.429Z" fill="#092D2E"/>
</svg>
