<svg width="160" height="160" viewBox="0 0 160 160" fill="none" xmlns="http://www.w3.org/2000/svg">
<circle cx="80" cy="80" r="80" fill="#C2F7AD"/>
<path fill-rule="evenodd" clip-rule="evenodd" d="M40.4706 64.7729C41.3704 64.8014 42.1212 63.9492 42.1212 63.9492C44.0569 61.8646 46.8005 61.6999 46.8005 61.6999C50.3233 61.4591 54.6129 64.8774 54.6129 64.8774C51.5842 60.8445 48.3908 60.572 48.3908 60.572C47.5956 60.4358 47.282 59.6121 47.282 59.6121C46.2619 57.7366 45.1087 57.6479 45.1087 57.6479C45.679 58.4272 45.6188 59.4917 45.6188 59.4917C45.6188 61.4559 42.6788 61.741 42.6788 61.741C41.5098 64.0506 40.5245 63.9143 40.5245 63.9143C40.0049 63.9143 39.8655 63.6134 39.8655 63.6134C39.7452 63.4328 39.9447 63.2744 39.9447 63.2744C40.2647 63.0748 40.5657 62.815 40.5657 62.815C42.5647 61.2753 42.5837 59.5361 42.5837 59.5361C42.324 57.5148 40.6259 57.4768 40.6259 57.4768C39.8465 57.4768 39.5076 57.9584 39.5076 57.9584C39.2066 58.3195 38.4272 59.7166 38.4272 59.7166C37.8475 60.6766 37.3279 60.5372 37.3279 60.5372C36.688 60.5784 36.2096 59.9764 36.2096 59.9764C36.1842 59.9543 36.1621 59.9289 36.1431 59.9067C35.8991 59.6026 36.0892 59.2573 36.0892 59.2573C36.8495 58.0376 38.4494 57.7366 38.4494 57.7366C38.5064 57.7208 38.5602 57.7049 38.614 57.6891L38.6142 57.6891C38.6142 57.6891 38.7567 57.6542 38.912 57.6035L38.9024 57.594C40.9744 56.8654 41.1486 55.7787 41.1486 55.7787C40.4485 55.3796 39.7895 55.3986 39.7895 55.3986C38.5318 55.4778 38.1104 56.7197 38.1104 56.7197L37.8095 56.406C37.8095 56.406 37.6732 56.2413 37.8855 56.0449C37.8855 56.0449 38.8296 54.879 42.2891 54.3594C42.2891 54.3594 45.1277 53.8811 48.8058 54.3404C48.8058 54.3404 46.5248 56.7197 43.7876 55.7217C43.7876 55.7217 43.7464 56.6024 46.1478 57.0396C46.1478 57.0396 48.6664 57.2994 51.8472 60.3376C51.8472 60.3376 51.0077 58.4969 48.2894 56.4187C48.2894 56.4187 48.0709 56.2793 48.2704 56.0797C48.2704 56.0797 49.449 54.7206 51.0298 54.7396C51.0298 54.7396 59.2066 55.161 63.8067 59.9574C63.8067 59.9574 63.6483 59.1591 62.9481 57.9964C62.9481 57.9964 62.8087 57.857 62.8879 57.7556C62.8879 57.7556 62.9481 57.556 63.7465 57.7144C63.7465 57.7144 66.6643 58.196 73.4439 60.6734L80.7812 63.2934C80.7812 63.2934 83.341 64.2343 84.7603 64.8711C84.7603 64.8711 81.8995 64.7697 80.382 65.5522C80.382 65.5522 80.3187 65.5903 80.3503 65.6441C80.3503 65.6441 80.3662 65.698 80.4929 65.6726C80.4929 65.6726 82.9006 65.0137 85.226 66.0338C85.226 66.0338 87.6021 67 89.4776 68.5017C89.4776 68.5017 90.7511 69.6105 91.5621 70.5103C91.5621 70.5103 93.4503 72.2812 95.6395 73.5389C95.6395 73.5389 93.8717 71.8599 92.4017 70.3012C92.4017 70.3012 90.3013 67.7826 89.3413 66.943C89.3413 66.943 96.5804 70.3392 103.107 74.0205C104.276 74.6795 108.055 76.8686 108.055 76.8686C111.717 79.1433 115.307 80.5942 115.307 80.5942C118.586 82.0737 121.304 80.515 121.304 80.515L121.434 80.458C123.192 79.5456 123.595 79.8339 123.595 79.8339C124.466 80.1634 124.215 81.0631 124.215 81.0631C124.976 80.2838 124.906 79.8593 124.906 79.8593C124.881 78.5223 123.417 78.6332 123.417 78.6332C123.037 78.6776 121.779 79.3777 120.978 79.8434L120.743 79.9955C118.621 81.0948 115.665 80.0747 115.665 80.0747C111.746 78.516 108.321 76.3902 108.321 76.3902C108.321 76.3902 101.605 72.4016 95.8169 69.4933C95.8169 69.4933 88.5905 65.7455 78.9025 61.5446C78.9019 61.5448 78.8726 61.5316 78.8162 61.5062C77.439 60.8877 59.8773 53.0003 46.7973 53.0003C46.7973 53.0003 39.7388 52.9116 37.3501 55.6235C37.3501 55.6235 37.0808 56.0449 37.141 56.4028C37.141 56.4028 37.1727 56.5232 37.0808 56.5993C37.0808 56.5993 36.0322 57.2899 35.1768 58.2783C35.1768 58.2783 34.6667 58.7726 35.0881 59.4474C35.0881 59.4474 35.3891 59.9257 35.6583 60.2869H35.6615C35.7851 60.4516 36.501 61.3419 37.5624 61.2627C37.5624 61.2627 37.8633 61.2468 38.0122 61.3387C38.0122 61.3387 38.2815 61.5795 38.611 61.6999H39.1052C39.1052 61.6999 39.2098 61.684 39.2256 61.5953C39.2256 61.5953 39.1939 61.326 39.1369 61.1454C39.1369 61.1454 38.8518 60.7716 38.9721 60.3217C38.9721 60.3217 39.0925 59.5709 39.5582 59.0323C39.5582 59.0323 40.0683 58.554 40.6671 58.988C40.6671 58.988 41.8076 59.9764 41.2215 61.1613C41.2215 61.1613 40.7399 62.061 40.2172 62.061C40.2172 62.061 39.9638 62.1371 39.6913 61.8804L39.346 61.8361C39.346 61.8361 39.2414 61.8361 39.2414 61.9248L39.2573 62.1782C39.2573 62.1782 39.2573 62.3303 39.3333 62.4032C39.3333 62.4032 39.4695 62.5679 39.3175 62.777C39.3175 62.777 38.988 63.078 39.1527 63.512C39.1527 63.512 39.4537 64.7729 40.4738 64.7729H40.4706ZM40.081 56.1019C40.081 56.1019 39.5804 56.8812 38.6807 56.783C38.6807 56.783 38.8993 55.8231 40.081 56.1019ZM37.3976 57.0079C37.7429 56.8717 37.7873 57.0681 37.7873 57.0681C37.8031 57.2329 37.6067 57.2931 37.6067 57.2931C36.6626 57.8633 35.8833 58.7472 35.8833 58.7472C35.747 58.8961 35.6583 58.8233 35.6583 58.8233C35.4936 58.6744 35.6583 58.4779 35.6583 58.4779C36.3933 57.6669 37.3976 57.0079 37.3976 57.0079ZM47.4784 54.6414L47.4686 54.6426L47.4753 54.6382L47.4784 54.6414ZM47.4686 54.6426C46.4273 55.3196 44.3579 55.3796 44.3579 55.3796C43.8573 55.3796 43.7781 55.1008 43.7781 55.1008C43.7781 54.9424 44.0189 54.9012 44.0189 54.9012C45.0981 54.9195 47.3037 54.662 47.4686 54.6426ZM97.9825 74.8557L97.9775 74.8505V74.8537L97.9825 74.8557ZM97.9825 74.8557C99.5636 76.4918 102.033 76.612 102.033 76.612L104.393 76.7704C106.132 76.8908 106.493 77.7303 106.493 77.7303C108.001 80.3788 111.771 81.8108 111.771 81.8108C109.373 80.4295 107.634 77.3723 107.634 77.3723C106.493 75.6932 103.734 75.6932 103.734 75.6932H102.115C100.075 75.6932 98.0949 74.9014 97.9825 74.8557ZM112.573 82.1276C112.573 82.1276 114.125 82.2448 115.345 82.8056L115.348 82.8087C119.704 84.8078 123.702 81.608 123.702 81.608C119.983 85.0454 116.384 83.8859 116.384 83.8859L116.396 83.9179C116.669 84.6632 116.889 85.2622 115.883 86.4647C115.883 86.4647 114.223 88.4447 110.266 85.8057C110.266 85.8057 113.986 86.6421 114.933 84.9662C114.933 84.9662 115.69 83.7687 114.572 83.0875C114.572 83.0875 114.052 82.6472 112.573 82.1276ZM80.2236 71.8028C75.0248 72.0436 71.8631 71.7775 71.8631 71.7775L71.8599 71.7838C68.6348 71.4163 66.3285 70.4818 66.3285 70.4818C65.3273 71.6793 62.6091 71.8409 62.6091 71.8409C60.0905 71.8409 55.6901 69.8418 55.6901 69.8418C52.9719 68.8407 52.0119 69.2399 52.0119 69.2399C51.6539 69.3222 51.7331 69.7214 51.7331 69.7214C51.9327 70.4818 51.2136 71.0013 51.2136 71.0013C51.5336 70.203 51.014 69.8418 51.014 69.8418C50.5736 69.6422 50.5736 69.2019 50.5736 69.2019C50.5736 68.2799 52.3731 68.2007 52.3731 68.2007C54.6129 68.2007 57.4927 69.3191 57.4927 69.3191C64.4498 71.5969 65.2101 68.7995 65.2101 68.7995C66.3696 67.2788 64.9693 63.2395 64.9693 63.2395C67.8903 65.3178 72.0088 66.3569 72.0088 66.3569C69.4522 66.9557 66.6516 65.8374 66.6516 65.8374C67.3739 67.2757 67.0128 68.9959 67.0128 68.9959C68.7045 69.9273 70.4786 70.561 72.0183 70.9918C72.0183 70.9918 74.5084 71.6001 82.1055 71.2199C82.2169 71.2136 82.3311 71.2157 82.4472 71.2178H82.4472H82.4474H82.4475C82.5062 71.2188 82.5654 71.2199 82.625 71.2199C82.625 71.2199 84.9155 71.09 85.923 73.2602C85.923 73.2602 87.941 80.2172 95.6585 80.2869L99.7104 80.3091C99.7104 80.3091 103.715 80.3281 106.195 82.5268C106.195 82.5268 108.153 84.4054 109.113 85.1246C109.113 85.1246 104.469 81.7094 100.99 81.7094L97.138 81.6872C88.9802 81.8963 84.8427 73.3774 84.8427 73.3774C84.8427 73.3774 84.4752 72.2876 82.1435 71.9391C82.1435 71.9391 81.5067 71.7426 80.2236 71.8028ZM55.4968 65.4762C55.4968 65.4762 53.9761 63.5564 55.896 60.8381H55.9023C55.9023 60.8381 55.5 64.1171 57.5402 65.3558C57.5402 65.3558 59.0197 66.5565 63.8574 67.6748C63.8574 67.6748 57.4578 66.5153 53.3394 66.5153C53.3394 66.5153 48.5397 66.3569 48.0202 70.0351C48.0202 70.0351 47.9821 72.1577 50.3804 71.6761C50.3804 71.6761 48.6981 73.276 47.2598 70.995C47.2598 70.995 46.3411 68.714 48.8597 66.7561C48.8597 66.7561 50.3392 65.3146 55.4968 65.4762ZM93.9921 100.293C94.1536 99.6185 94.2297 98.8772 94.2297 97.5624V90.5198H92.6741V98.0915C92.6741 99.0039 92.5949 99.5963 92.4967 100.081C92.0659 102.178 90.4787 102.951 88.0931 102.951C86.9653 102.951 85.6252 102.688 84.8553 101.792C84.1742 101.025 84.0316 99.9828 84.0316 98.2404V90.5198H81.5035V98.3735C81.5035 99.9765 81.6714 101.475 82.7771 102.562C83.8004 103.585 85.7836 104.038 88.0424 104.038C91.3689 104.038 93.3584 102.929 93.9921 100.293ZM114.676 103.743H111.667L110 100.03H103.439L101.652 103.743H100.049L106.649 90.5166H108.22L114.676 103.743ZM109.582 99.1306L106.797 93.0258L103.87 99.1306H109.582ZM51.448 103.743H54.4577L47.998 90.5166H46.4266L39.8275 103.743H41.4306L43.2174 100.03H49.7784L51.4448 103.743H51.448ZM46.5787 93.0258L49.3666 99.1306H43.6546L46.5787 93.0258ZM73.4439 103.056C71.9613 103.724 69.8577 104.038 68.2293 104.038C63.8605 104.038 59.7103 102.533 59.7103 97.4547C59.7103 95.8042 60.439 94.1124 61.5478 92.899C63.2839 91.0172 65.9166 90.2664 68.4035 90.2664C69.9084 90.2664 71.6508 90.6085 73.0067 91.296V92.8674C71.7775 91.9518 70.1586 91.3213 68.581 91.3213C64.9884 91.3213 62.5109 93.5675 62.5109 97.2868C62.5109 100.651 64.6969 102.958 68.0614 102.958C68.9168 102.958 70.1016 102.806 70.9158 102.492V97.6638H73.4439V103.056ZM129.794 103.743H132.709L128.822 98.3735C130.194 97.8856 131.736 96.6469 131.736 94.6035C131.736 93.4851 131.429 92.6171 130.862 91.993C129.782 90.7986 127.84 90.5166 125.898 90.5166H121.111V103.743H123.639V98.6649H126.291L129.794 103.743ZM125.499 91.4354C127.526 91.4354 129.151 92.2813 129.151 94.5179C129.151 95.6331 128.749 96.46 128.081 96.9985C127.444 97.5118 126.63 97.7652 125.267 97.7652H123.642V91.4386H125.502L125.499 91.4354ZM32.3889 100.528C32.3889 102.97 31.448 105.334 29.148 106.462H29.1543C28.4827 106.775 27.754 106.984 27 106.984C28.7329 105.733 29.4648 104.456 29.715 102.346C29.8608 101.177 29.8608 100.005 29.8608 98.836V90.5166H32.3889V100.528Z" fill="#092D2E"/>
</svg>
