<svg width="200" height="200" viewBox="0 0 200 200" fill="none" xmlns="http://www.w3.org/2000/svg">
<circle cx="100" cy="100" r="99.0476" fill="white" stroke="#56D690" stroke-width="1.90476"/>
<g clip-path="url(#clip0_142_12760)">
<path d="M161.837 95.6764C161.689 94.0025 161.519 92.3337 161.297 90.6684C161.109 89.2579 160.84 87.8596 160.525 86.4784C159.91 83.7918 159.179 81.1363 158.194 78.5531C157.188 75.913 156.085 73.3212 154.736 70.8327C153.388 68.3424 151.907 65.94 150.254 63.641C148.634 61.3884 146.854 59.2633 144.946 57.2501C143.903 56.1496 142.82 55.087 141.68 54.0779C140.287 52.8448 138.872 51.6496 137.398 50.5165C134.605 48.3707 131.619 46.5297 128.511 44.885C126.771 43.9637 124.97 43.168 123.139 42.4378C120.972 41.5716 118.771 40.8156 116.516 40.2094C114.651 39.7082 112.777 39.2364 110.877 38.916C109.926 38.7559 108.976 38.5699 108.008 38.489C107.414 38.4407 106.815 38.396 106.224 38.3116C105.065 38.1462 103.901 38.0688 102.738 38.0188C101.822 37.9792 100.902 38.0102 100.136 38.0102C97.839 37.962 95.7057 38.0756 93.5706 38.315C91.9297 38.4993 90.3026 38.7301 88.6789 39.0177C86.4664 39.4103 84.2831 39.927 82.1412 40.5969C79.8322 41.3184 77.5439 42.0986 75.3297 43.0854C72.4301 44.3787 69.6133 45.8219 66.9376 47.5354C64.7233 48.9527 62.5969 50.4855 60.5617 52.1559C59.1446 53.3184 57.8171 54.5756 56.4758 55.8172C55.2585 56.9435 54.1961 58.2265 53.0976 59.4699C51.6013 61.1645 50.248 62.9659 48.9549 64.8172C46.7596 67.9653 44.8983 71.3011 43.3504 74.8126C42.3156 77.1581 41.4375 79.5588 40.6799 82.0111C39.5607 85.6363 38.8685 89.3406 38.3795 93.0897C38.1884 94.557 38.0851 96.0415 38.0386 97.5191C37.9577 100.066 38.0007 102.615 38.1987 105.159C38.2005 105.188 38.1987 105.217 38.2022 105.245C38.4484 106.416 38.5 107.611 38.6636 108.794C38.9047 110.542 39.2008 112.28 39.6072 113.99C40.6506 118.376 42.1193 122.621 44.0546 126.696C45.1583 129.019 46.4307 131.253 47.8202 133.419C49.7211 136.385 51.8372 139.19 54.234 141.765C56.8873 144.618 59.7249 147.277 62.8723 149.6C65.6824 151.676 68.6198 153.532 71.7139 155.147C73.4357 156.046 75.2126 156.825 77.0153 157.543C79.3691 158.482 81.7762 159.255 84.2177 159.932C85.6692 160.335 87.15 160.6 88.6187 160.922C89.6982 161.158 90.7985 161.339 91.897 161.444C92.7183 161.523 93.5482 161.593 94.3644 161.69C95.6419 161.838 96.923 161.881 98.1988 161.95C100.139 162.055 102.085 161.967 104.029 161.841C104.997 161.779 105.971 161.711 106.927 161.593C108.614 161.385 110.3 161.135 111.973 160.803C114.372 160.326 116.736 159.72 119.062 158.977C120.798 158.423 122.492 157.755 124.178 157.061C127.038 155.885 129.755 154.438 132.396 152.843C135.483 150.976 138.374 148.829 141.058 146.426C142.374 145.249 143.677 144.046 144.882 142.732C146.606 140.854 148.268 138.935 149.795 136.898C151.649 134.425 153.295 131.821 154.742 129.091C155.973 126.77 157.087 124.393 157.994 121.925C158.71 119.976 159.38 118.011 159.904 116C160.504 113.69 160.978 111.358 161.334 108.994C161.618 107.105 161.846 105.209 161.922 103.312C162.021 100.771 162.064 98.2217 161.839 95.6712L161.837 95.6764ZM154.977 93.4703C155.157 93.7717 155.06 94.0576 155.093 94.3676C153.502 95.0823 151.925 95.7901 150.353 96.4979C150.244 96.3308 150.148 96.1896 150.141 95.9674C150.559 95.6557 151.069 95.4852 151.591 95.2562C151.806 94.6655 151.381 94.1179 151.477 93.5564C151.04 93.3756 150.663 93.2861 150.258 93.2637C149.841 93.2413 149.831 93.1931 149.824 92.5731C151.565 92.8228 153.28 93.1414 154.977 93.4686V93.4703ZM142.995 65.5749C143.646 66.4222 144.264 67.2299 144.894 68.0531C144.727 68.1496 144.607 68.2184 144.447 68.3097C143.956 67.6966 143.477 67.0973 142.982 66.4739C142.511 66.6668 142.172 67.0594 141.719 67.3556C141.883 67.9326 142.472 68.2546 142.649 68.8281C142.604 69.0175 142.451 68.9969 142.312 69.002C141.804 68.7385 141.671 68.1272 141.17 67.7827C140.714 68.1409 140.251 68.5043 139.774 68.8797C140.208 69.6633 140.898 70.2161 141.287 70.998C141.189 71.0807 141.105 71.153 140.984 71.2563C140.481 70.9808 140.287 70.4417 139.949 70.0405C139.602 69.6272 139.219 69.2345 138.954 68.7058C140.266 67.6897 141.592 66.6616 142.995 65.5749ZM135.147 58.385C135.137 58.1938 135.249 58.0836 135.481 57.982C136.325 58.7346 137.191 59.5061 138.009 60.2346C138.057 60.4757 137.976 60.5824 137.799 60.6892C137.446 60.4257 137.072 60.145 136.637 59.8195C135.641 60.9389 134.663 62.0376 133.689 63.1329C133.413 63.1019 133.331 62.9848 133.209 62.8195C134.08 61.614 135.192 60.5928 136.132 59.3924C135.994 58.8827 135.371 58.8276 135.146 58.385H135.147ZM126.5 51.9803C126.867 52.0991 127.144 52.23 127.301 52.5279C127.108 53.8626 127.26 55.199 127.33 56.5853C127.929 55.5727 128.529 54.5601 129.114 53.5715C129.357 53.4768 129.458 53.6249 129.625 53.823C128.794 55.2403 127.948 56.6835 127.089 58.1473C126.614 58.0147 126.666 57.7064 126.666 57.4257C126.667 56.1927 126.676 54.9613 126.673 53.7283C126.673 53.5027 126.724 53.2702 126.605 53.0291C125.757 54.1709 125.219 55.4986 124.405 56.5715C124.171 56.5767 124.098 56.4837 123.947 56.3356C124.791 54.8959 125.646 53.4355 126.499 51.9803H126.5ZM114.857 50.9952C115.162 49.9895 115.515 48.9992 115.846 48.0021C115.94 47.7162 116.102 47.5595 116.426 47.7007C116.584 47.8747 116.526 48.0693 116.46 48.2587C116.197 49.0079 115.94 49.7604 115.656 50.5027C115.467 50.9987 115.417 51.4946 115.505 52.0027C115.904 52.5796 116.448 52.7225 117.085 52.6054C117.457 52.3919 117.662 52.0871 117.79 51.6772C118.117 50.6249 118.492 49.5882 118.843 48.5618C119.109 48.5084 119.226 48.7203 119.443 48.734C119.081 49.8379 118.74 50.8884 118.394 51.9372C118.227 52.447 117.896 52.8293 117.409 53.1341C116.848 53.1737 116.261 53.234 115.694 52.9223C114.919 52.4969 114.599 51.8511 114.857 50.9935V50.9952ZM104.974 46.4987C105.291 45.8529 105.832 45.5481 106.574 45.5722C107.309 45.5963 107.903 45.815 108.277 46.497C108.912 47.6508 108.487 49.4022 107.908 50.1479C107.488 50.6904 106.915 50.9212 106.266 50.8471C105.48 50.7558 104.907 50.3339 104.621 49.5538C104.499 49.2214 104.459 48.8925 104.478 48.5618C104.413 47.8092 104.659 47.1376 104.972 46.4987H104.974ZM94.5899 46.435C94.8534 45.7358 95.4095 45.3345 96.143 45.257C96.8179 45.1864 97.3517 45.4981 97.7632 46.032C97.913 46.2283 97.9733 46.4315 97.8855 46.7002C97.7288 46.7863 97.6203 46.8035 97.5032 46.7553C97.1325 46.265 96.7319 45.9361 96.3014 45.7685C95.3957 45.8925 95.0772 46.4505 95.0049 47.4975C94.9601 48.1554 95.0238 48.8046 95.4078 49.3816C95.852 50.0498 96.1361 50.1531 96.9161 49.9016C97.0228 49.8672 97.1279 49.8293 97.2415 49.7897C97.3465 49.6089 97.4602 49.4436 97.5411 49.2627C97.6186 49.0853 97.5876 48.8563 97.839 48.7237C98.006 48.6445 98.1024 48.8081 98.2075 48.8752C98.278 49.1456 98.1145 49.3006 98.049 49.4814C97.6513 50.5647 96.2463 50.8471 95.3957 50.2667C95.1133 50.0756 94.9222 49.8293 94.7948 49.5641C94.3144 48.5566 94.1922 47.4975 94.5934 46.4332L94.5899 46.435ZM68.4304 55.2231C69.2121 54.8907 69.8922 55.2145 70.2073 56.0032C70.2589 56.1341 70.2917 56.2736 70.3381 56.432C70.252 56.7093 70.1591 57.0038 70.0506 57.3482C70.7669 57.7753 71.4883 58.2076 72.3079 58.6967C72.0255 58.8465 71.8861 59.0135 71.6175 59.0049C70.9528 58.6157 70.2675 58.2127 69.5754 57.8063C69.1949 57.932 69.0244 58.3092 68.575 58.4108C69.1243 59.1152 69.5461 59.6817 69.8698 60.269C69.8216 60.4825 69.72 60.5618 69.4325 60.5618C68.3908 59.358 67.5402 57.9251 66.5398 56.5698C67.0891 55.9516 67.7244 55.5227 68.4286 55.2231H68.4304ZM48.3385 80.5353C48.4349 79.5502 49.1219 78.9767 50.1361 79.0267C50.2721 79.1369 50.2428 79.2712 50.1671 79.4486C49.5541 79.4744 49.1391 79.8154 48.9188 80.3992C48.7845 80.7591 48.8499 81.0123 49.1254 81.2448C49.3871 81.4669 49.6368 81.4738 49.976 81.2293C50.1808 81.0812 50.3634 80.9107 50.5321 80.7092C50.9746 80.1822 51.4619 79.6931 52.1747 79.533C53.1871 79.8085 53.6348 80.227 53.6624 80.9279C53.702 81.9715 53.0477 82.7017 51.7391 83.0789C51.3999 82.7413 51.4102 82.4951 51.7994 82.4606C52.3693 82.4107 52.6396 82.0284 52.9685 81.6547C53.0081 81.2586 53.0442 80.9451 52.9564 80.6403C52.7963 80.3579 52.5156 80.2873 52.2126 80.1891C51.6943 80.4164 51.238 80.7419 50.9195 81.2379C50.7594 81.4859 50.5407 81.6547 50.291 81.8079C49.8451 82.08 49.4043 82.2126 48.9308 81.8803C48.4625 81.5513 48.2851 81.095 48.3402 80.5387L48.3385 80.5353ZM45.5819 90.0656C45.5888 89.9244 45.5853 89.778 45.7868 89.5697C47.4466 89.394 49.208 89.2063 50.9712 89.0203C51.1502 89.2493 50.9023 89.3923 50.8833 89.6076C50.3651 89.6971 49.8382 89.7867 49.2735 89.8848C49.1305 90.4411 48.9274 90.9991 49.0462 91.6311C49.4887 91.8722 49.9346 92.115 50.3599 92.3475C50.3995 92.6282 50.3289 92.747 50.2239 92.8521C50.081 92.9347 46.7527 91.2109 45.6421 90.479C45.5526 90.3515 45.5784 90.2069 45.5836 90.0656H45.5819ZM44.5626 101.849C44.5316 100.872 44.5436 99.8853 44.5557 98.8555C44.7726 98.8142 44.8845 98.7849 45.0395 98.9192V101.272C45.6129 101.428 46.1432 101.354 46.7011 101.342C46.8732 100.745 46.6838 100.133 46.825 99.5616C47.1659 99.5013 47.283 99.6632 47.2865 99.9284C47.2951 100.38 47.2882 100.833 47.2882 101.323H49.1099C49.2889 100.483 49.0909 99.5943 49.2287 98.7711C49.3423 98.6213 49.4577 98.6557 49.5679 98.6643C49.6075 98.7057 49.6781 98.7453 49.6781 98.7849C49.685 99.7837 49.6832 100.781 49.6832 101.773C49.0668 101.933 46.0846 101.978 44.5626 101.847V101.849ZM47.147 117.501C47.24 117.332 47.3364 117.236 47.5602 117.255C47.9683 117.902 48.0182 118.733 48.428 119.449C48.9463 119.418 49.3888 119.165 49.8554 119.017C49.9673 118.405 49.4577 117.994 49.4629 117.391C49.499 117.296 49.6109 117.227 49.8107 117.238C50.2532 117.617 50.1189 118.3 50.5562 118.779C51.0831 118.591 51.6358 118.395 52.2401 118.18C51.9595 117.341 51.6995 116.561 51.4292 115.75C51.5738 115.683 51.6995 115.624 51.8717 115.545C52.3176 116.502 52.557 117.522 52.9271 118.491C52.5001 118.812 49.7504 119.819 48.1457 120.239C47.7307 119.351 47.4449 118.411 47.147 117.501ZM52.5673 129.413C52.4605 129.219 52.3245 129.098 52.3262 128.833C53.59 128.103 54.89 127.352 56.1917 126.599C55.9042 125.873 55.3773 125.282 55.1121 124.533C55.1552 124.41 55.2636 124.335 55.4617 124.285C56.0867 125.039 56.4293 125.974 57.0406 126.847C55.5064 127.727 54.0377 128.569 52.5673 129.412V129.413ZM53.7243 71.3579C53.2629 71.6111 53.1837 72.126 52.8479 72.4222C52.6534 72.4704 52.5087 72.4274 52.4519 72.157C53.027 71.1599 53.6675 70.1627 54.3494 69.2225C54.5405 69.269 54.6197 69.3447 54.6834 69.4601C54.6438 69.9595 54.1307 70.2368 54.036 70.7827C55.2774 71.5835 56.5361 72.3964 57.7672 73.192C57.7861 73.4486 57.6346 73.5399 57.44 73.7155C56.2106 72.9371 54.9709 72.1501 53.7209 71.3579H53.7243ZM59.1618 138.243C58.7744 137.807 58.4111 137.451 58.1098 137.048C57.4245 136.131 57.4245 135.108 58.1563 134.211C58.6505 133.605 59.2548 133.13 60.0813 133.033C60.2173 133.018 60.3482 132.942 60.4033 132.923C61.6688 133.061 62.2456 133.998 63.029 134.814C61.7962 136.042 60.4222 137.051 59.1636 138.241L59.1618 138.243ZM62.4453 67.1507C61.2039 65.9676 60.0692 64.7707 58.7848 63.7012C58.9931 63.4068 59.1308 63.1553 59.3202 62.9555C59.8127 62.4372 60.3275 61.9429 60.8251 61.4452C61.0042 61.4297 61.1006 61.5279 61.1901 61.6657C60.8509 62.3941 60.1381 62.8281 59.656 63.5135C59.9676 63.8976 60.3051 64.2299 60.7097 64.5554C61.2074 64.2988 61.4553 63.765 61.8789 63.5101C62.1044 63.4963 62.1716 63.6289 62.2766 63.7805C62.0648 64.2747 61.5276 64.5244 61.228 65.0566C61.5655 65.4768 61.9787 65.8574 62.4453 66.269C63.1444 65.7678 63.6334 65.0531 64.2636 64.5416C64.4736 64.5244 64.5597 64.6364 64.6596 64.7948C63.9485 65.5508 63.3252 66.4016 62.4453 67.149V67.1507ZM67.3491 145.502C66.8773 145.235 66.5088 144.93 66.1404 144.616C65.0195 143.662 65.0263 142.621 65.7461 141.506C66.2936 140.657 67.0288 140.051 68.1428 140.12C68.4114 140.137 68.6542 140.203 68.878 140.325C69.4307 140.625 69.9284 141 70.4225 141.493C69.4497 142.874 68.377 144.157 67.3491 145.503V145.502ZM74.4292 149.891C74.2777 149.823 74.1502 149.764 74.0297 149.711C74.1055 149.08 75.6035 146.111 76.3163 145.157C76.5177 145.133 76.6262 145.262 76.7536 145.441C76.0236 146.99 75.2178 148.431 74.4309 149.891H74.4292ZM80.0251 116.013H76.0873C75.6069 115.831 75.4692 115.409 75.3125 115.013C74.6392 113.32 73.9746 111.624 73.3066 109.929C72.1564 107.015 71.0114 104.101 69.8509 101.192C69.7252 100.879 69.6787 100.528 69.4497 100.256C69.4497 100.261 69.4497 100.262 69.448 100.266C69.448 100.288 69.4394 100.311 69.448 100.266C69.448 100.247 69.4376 100.228 69.3963 100.257C69.3756 100.273 69.3567 100.306 69.3567 100.331C69.355 105.324 69.3567 110.318 69.3567 115.237C69.2155 115.628 68.9676 115.819 68.711 116.003H63.8469C63.3217 115.748 63.246 115.287 63.1737 114.834C63.1427 114.637 63.1685 114.432 63.1685 114.233C63.1685 104.733 63.1685 95.2338 63.1702 85.7344C63.1702 85.3952 63.1496 85.0611 63.277 84.7184C63.4974 84.1259 63.7591 83.8504 64.3789 83.8366C65.4396 83.8125 66.5019 83.8142 67.5643 83.8366C68.0826 83.8487 68.451 84.0881 68.668 84.615C70.0024 87.8544 71.3609 91.0852 72.7142 94.3159C73.3289 95.7849 73.9522 97.2505 74.5996 98.7797C74.7718 98.4646 74.7012 98.1839 74.7012 97.9204C74.7064 93.8165 74.7047 89.7126 74.7047 85.6087C74.7047 85.4072 74.6909 85.2057 74.7081 85.006C74.7667 84.3326 75.1902 83.8556 75.8531 83.8383C77.0859 83.8056 78.3205 83.8022 79.5533 83.8383C80.2162 83.8573 80.638 84.3395 80.6949 85.0111C80.7104 85.1816 80.6983 85.3556 80.6983 85.5278C80.6983 95.1701 80.6966 104.812 80.7035 114.456C80.7035 115.051 80.6845 115.61 80.0302 116.008L80.0251 116.013ZM80.8223 54.1743C79.8822 53.4751 78.9111 52.738 77.9227 52.0268C77.6094 51.8012 77.3442 51.474 76.9172 51.4361C77.1152 52.4246 77.7075 53.253 78.0415 54.1864C78.1552 54.505 78.3222 54.8029 78.4548 55.0922C78.3584 55.2524 78.2585 55.3454 78.0605 55.3833C77.5818 55.0268 77.5801 54.3965 77.3029 53.9177C77.0188 53.4286 76.8259 52.8861 76.5987 52.3643C76.3714 51.846 76.151 51.3259 75.9323 50.8178C76.0942 50.5509 76.3714 50.5337 76.6228 50.3942C77.8401 51.1468 78.9334 52.0871 80.2403 53.0101C79.7134 51.7512 79.1366 50.6835 78.775 49.5985C78.9042 49.3592 79.0368 49.3471 79.264 49.4022C79.9114 50.8592 80.5778 52.3592 81.2252 53.8144C81.1529 54.0262 81.0409 54.102 80.824 54.1726L80.8223 54.1743ZM85.8534 154.214C85.4109 154.302 85.1561 154.192 84.8513 153.944V150.007C83.9078 151.142 83.2673 152.285 82.4752 153.356C82.2411 153.282 82 153.21 81.7624 153.127C81.7159 153.11 81.6866 153.046 81.6212 152.971C82.0964 151.424 82.5768 149.855 83.0383 148.352C83.2724 148.199 83.4291 148.193 83.6185 148.362C83.2328 149.638 82.8402 150.935 82.4477 152.232C83.3861 151.159 84.1127 149.94 84.934 148.796C85.1819 148.701 85.2818 148.948 85.5142 148.963V152.945C85.5538 152.952 85.5934 152.959 85.633 152.964C86.017 151.746 86.401 150.529 86.7884 149.299C86.9537 149.368 87.0828 149.423 87.2894 149.509C86.8073 151.092 86.3304 152.655 85.8551 154.214H85.8534ZM100.787 153.153C100.291 153.267 99.764 153.169 99.2388 153.205C99.1889 153.088 99.1458 153.017 99.1303 152.94C99.1217 152.891 99.1562 152.836 99.1872 152.728C99.6917 152.631 100.219 152.712 100.747 152.683C100.869 152.89 100.857 152.996 100.787 153.153ZM101.904 116.008H96.2377C95.8916 115.841 95.7332 115.593 95.6574 115.214C95.3699 113.768 95.0686 112.324 94.8051 110.873C94.7104 110.358 94.7242 109.793 94.4108 109.326H90.9052C90.5247 111.374 90.1476 113.406 89.7723 115.426C89.6311 115.662 89.4434 115.834 89.2075 116H83.5824C83.3275 115.848 83.1553 115.659 82.9883 115.419C82.9246 115.135 82.9401 114.834 83.0107 114.518C83.4601 112.467 83.8923 110.415 84.3365 108.363C84.6843 106.755 85.0442 105.15 85.3937 103.541C85.7897 101.713 86.1788 99.8819 86.5714 98.053C86.8693 96.6666 87.1637 95.2786 87.4719 93.894C87.9971 91.5415 88.5377 89.1908 88.9923 86.8228C89.1318 86.0995 89.3332 85.3883 89.483 84.665C89.5622 84.2827 89.7723 84.0674 90.1407 83.9658C90.3887 83.8969 90.628 83.8263 90.8932 83.828C92.126 83.8383 93.3588 83.8246 94.5934 83.8349C95.4646 83.8418 95.8486 84.1483 96.0276 84.9922C96.6148 87.739 97.1813 90.4893 97.777 93.2344C98.3125 95.7005 98.8927 98.158 99.4265 100.624C99.9826 103.204 100.494 105.792 101.045 108.372C101.46 110.313 101.923 112.245 102.333 114.188C102.524 115.095 102.639 115.45 101.908 116.008H101.904ZM112.998 154.595C112.495 153.213 112.364 151.738 111.901 150.343C111.071 150.1 110.357 150.763 109.62 150.622C109.458 150.487 109.475 150.374 109.497 150.208C110.391 149.943 111.321 149.743 112.34 149.569C112.688 150.35 112.759 151.199 112.969 152.005C113.184 152.826 113.339 153.661 113.537 154.571C113.316 154.581 113.177 154.588 112.996 154.596L112.998 154.595ZM113.416 102.865C113.425 106.71 113.421 110.556 113.421 114.401V115.311C113.277 115.615 113.068 115.808 112.762 116.022C111.052 116.022 109.275 116.018 107.498 116.025C107.132 116.025 106.92 115.822 106.693 115.469V114.603C106.693 110.7 106.689 106.796 106.698 102.894C106.698 102.374 106.617 101.885 106.45 101.389C104.675 96.1345 102.915 90.875 101.15 85.6173C101.122 85.5364 101.071 85.4641 101.047 85.3814C100.775 84.4962 101.219 83.8573 102.166 83.8366C103.371 83.8125 104.576 83.8366 105.782 83.8263C106.112 83.8228 106.376 84.0157 106.646 84.0329C106.885 84.2861 106.985 84.5427 107.073 84.8217C107.92 87.5048 108.779 90.1845 109.64 92.8641C109.733 93.1569 109.85 93.4411 110.023 93.906C111.033 91.1661 111.987 88.607 112.833 86.01C112.965 85.6053 113.113 85.2006 113.186 84.7838C113.287 84.2052 113.668 83.9193 114.177 83.8831C115.519 83.7884 116.865 83.7746 118.208 83.8917C118.549 83.921 118.876 84.0639 119.064 84.4514C119.227 84.8785 119.055 85.3142 118.911 85.7448C117.168 90.9508 115.426 96.1569 113.669 101.358C113.502 101.854 113.415 102.341 113.416 102.863V102.865ZM122.473 151.273C121.894 149.936 121.312 148.586 120.713 147.2C119.969 147.461 119.298 147.901 118.549 148.042C118.415 147.923 118.396 147.818 118.441 147.596C119.253 147.236 120.121 146.85 121.066 146.43C121.758 148.037 122.427 149.587 123.081 151.102C122.885 151.36 122.697 151.341 122.473 151.271V151.273ZM129.82 147.332C128.952 145.989 128.059 144.606 127.187 143.256C127.27 143.01 127.394 142.912 127.685 142.884C128.573 144.25 129.488 145.655 130.431 147.105C130.209 147.213 130.09 147.358 129.82 147.331V147.332ZM130.574 115.993C130.197 115.75 129.989 115.44 129.91 114.963C129.672 113.537 129.367 112.121 129.085 110.702C128.997 110.261 128.901 109.82 128.801 109.345H125.197C125.004 110.399 124.81 111.482 124.608 112.564C124.448 113.428 124.307 114.296 124.104 115.15C123.931 115.872 123.735 116.015 123.048 116.02C121.328 116.032 119.608 116.024 117.952 116.024C117.507 115.838 117.345 115.51 117.223 115.135C117.795 112.426 118.36 109.705 118.943 106.989C119.36 105.048 119.811 103.114 120.231 101.174C120.615 99.398 120.972 97.6173 121.352 95.8417C121.702 94.204 122.072 92.5714 122.427 90.9353C122.817 89.134 123.198 87.3309 123.587 85.5278C123.635 85.3056 123.699 85.0869 123.751 84.8665C123.904 84.2276 124.269 83.8556 124.921 83.8401C126.326 83.8091 127.731 83.8177 129.136 83.8401C129.408 83.8452 129.679 83.9865 129.887 84.045C130.335 84.4532 130.331 84.975 130.438 85.4313C130.85 87.2 131.223 88.9755 131.599 90.7528C132.033 92.8073 132.447 94.8653 132.887 96.9181C133.243 98.5817 133.63 100.24 133.99 101.904C134.433 103.957 134.853 106.013 135.294 108.066C135.65 109.729 136.022 111.391 136.384 113.055C136.528 113.719 136.668 114.386 136.823 115.114C136.707 115.467 136.568 115.777 136.179 115.989H130.572L130.574 115.993ZM137.511 141.568C136.838 142.059 136.17 142.109 135.566 141.368C135.476 141.258 135.39 141.145 135.314 141.046C135.247 140.611 135.273 140.201 135.375 139.805C134.577 139.457 133.83 139.131 133.072 138.801C133.465 138.327 133.475 138.313 133.904 138.489C134.533 138.746 135.152 139.019 135.781 139.288C136.125 139.071 136.366 138.794 136.642 138.496C136.125 137.952 135.619 137.421 135.135 136.913C135.204 136.633 135.349 136.522 135.595 136.505C136.742 137.712 137.942 138.887 139.025 140.216C138.525 140.668 138.055 141.169 137.511 141.565V141.568ZM142.892 133.66C142.864 133.497 142.957 133.392 143.121 133.257H144.213C145.089 132.513 145.187 131.816 144.473 131.018C143.977 130.466 143.34 130.066 142.615 129.846C141.966 129.649 141.034 130.237 140.983 131.182C140.972 131.368 141.058 131.518 141.181 131.642C141.358 131.824 141.547 131.997 141.718 132.16C142.119 132 142.141 131.521 142.45 131.368C142.675 131.363 142.744 131.499 142.877 131.631C142.551 132.057 142.326 132.551 141.819 132.956C141.175 132.544 140.531 132.103 139.951 131.626C139.968 131.265 140.141 131.194 140.402 131.253C140.419 131.197 140.44 131.144 140.45 131.089C140.716 129.608 141.78 128.842 143.352 129.462C144.168 129.784 144.808 130.331 145.292 131.082C145.476 131.368 145.368 131.714 145.602 131.971C145.053 133.727 144.004 134.352 142.892 133.658V133.66ZM145.886 79.6415C145.525 79.1231 145.514 79.0869 145.788 78.7459C146.181 78.2586 146.589 77.7815 146.98 77.3131C147.079 76.8395 146.814 76.5399 146.547 76.2006C145.895 76.514 145.26 76.8206 144.703 77.0875C144.366 77.0565 144.438 76.7965 144.18 76.6759C145.714 75.789 147.248 75.1294 148.71 74.3476C149.158 74.7867 149.858 76.1524 149.908 76.6621C149.941 76.9911 149.759 77.2632 149.683 77.5714C149.003 78.1311 148.302 78.3964 147.522 77.7333C146.847 78.3016 146.439 79.0318 145.888 79.6415H145.886ZM153.466 115.636C153.247 116.514 152.257 117.339 151.317 117.255C150.644 117.195 150.031 117.072 149.456 116.726C148.595 116.208 148.243 115.381 148.484 114.401C148.605 113.912 148.662 113.403 148.963 112.865C150.625 113.341 152.221 113.795 153.827 114.255C153.691 114.768 153.572 115.2 153.464 115.636H153.466ZM155.422 103.857C154.177 104.561 152.846 105.134 151.381 105.815C152.743 105.859 153.919 106.114 155.122 106.037C155.299 106.285 155.239 106.447 155.21 106.681C153.528 106.555 151.866 106.431 150.21 106.307C150.05 106.159 150.105 105.987 150.139 105.768C151.579 105.088 153.044 104.397 154.63 103.648C153.151 103.345 151.747 103.426 150.375 103.204C150.263 103.083 150.277 102.958 150.411 102.76C152.045 102.694 153.7 102.942 155.301 103.061C155.513 103.359 155.411 103.59 155.423 103.86L155.422 103.857Z" fill="#009A4D"/>
<path d="M69.445 100.266C69.4369 100.308 69.445 100.287 69.445 100.266V100.266Z" fill="white"/>
<path d="M80.6934 85.533C80.6934 85.3608 80.7055 85.1869 80.69 85.0164C80.6332 84.3448 80.2096 83.8626 79.5484 83.8436C78.3156 83.8075 77.0811 83.8092 75.8483 83.8436C75.1854 83.8608 74.7618 84.3379 74.7032 85.0112C74.686 85.211 74.6998 85.4125 74.6998 85.614C74.6998 89.7179 74.6998 93.8218 74.6964 97.9256C74.6964 98.1891 74.7669 98.4698 74.5948 98.785C73.9491 97.2557 73.3258 95.7902 72.7094 94.3212C71.356 91.0904 69.9975 87.8597 68.6631 84.6203C68.4462 84.0916 68.0777 83.8522 67.5594 83.8419C66.4988 83.8178 65.4364 83.8178 64.3741 83.8419C63.7542 83.8557 63.4925 84.1312 63.2721 84.7236C63.1447 85.0646 63.1654 85.3987 63.1654 85.7397C63.1619 95.2391 63.1636 104.738 63.1636 114.238C63.1636 114.439 63.1395 114.644 63.1688 114.839C63.2394 115.292 63.3169 115.752 63.842 116.008H68.7062C68.9627 115.822 69.2089 115.631 69.3518 115.242C69.3518 110.323 69.3518 105.331 69.3518 100.337C69.3518 100.311 69.3708 100.276 69.3914 100.263C69.4328 100.233 69.4431 100.252 69.4431 100.271C69.4431 100.268 69.4431 100.266 69.4448 100.261C69.6738 100.531 69.7203 100.883 69.846 101.198C71.0082 104.106 72.1532 107.02 73.3017 109.934C73.9697 111.629 74.6344 113.325 75.3076 115.018C75.4643 115.414 75.602 115.836 76.0824 116.019H80.0202C80.6745 115.621 80.6934 115.061 80.6934 114.467C80.6866 104.825 80.6883 95.1823 80.6883 85.5382L80.6934 85.533Z" fill="white"/>
<path d="M101.041 108.371C100.49 105.791 99.9785 103.201 99.4224 100.623C98.8903 98.1547 98.3101 95.699 97.7729 93.2328C97.1771 90.4877 96.6107 87.7374 96.0235 84.9906C95.8427 84.1468 95.4605 83.8402 94.5892 83.8333C93.3564 83.8247 92.1236 83.8368 90.8891 83.8264C90.6239 83.8247 90.3846 83.8936 90.1366 83.9642C89.7699 84.0675 89.5598 84.2828 89.4789 84.6634C89.3291 85.385 89.1259 86.0962 88.9882 86.8213C88.5336 89.1892 87.993 91.54 87.4678 93.8924C87.1596 95.277 86.8652 96.6651 86.5673 98.0514C86.173 99.8803 85.7856 101.711 85.3896 103.54C85.0418 105.148 84.6819 106.753 84.3324 108.362C83.8882 110.413 83.456 112.468 83.0066 114.517C82.9377 114.832 82.9222 115.133 82.9842 115.418C83.1512 115.657 83.3234 115.846 83.5782 115.998H89.2034C89.4376 115.833 89.627 115.66 89.7682 115.424C90.1435 113.404 90.5206 111.372 90.9011 109.325H94.4067C94.7201 109.791 94.7063 110.356 94.801 110.871C95.0662 112.323 95.3658 113.766 95.6533 115.213C95.7291 115.592 95.8875 115.841 96.2336 116.007H101.9C102.632 115.449 102.516 115.092 102.325 114.186C101.916 112.244 101.452 110.311 101.037 108.371H101.041ZM94.2259 104.807C93.3323 104.807 92.4749 104.807 91.6174 104.807C91.5072 104.807 91.397 104.787 91.2455 104.771C91.1542 104.451 91.1783 104.134 91.23 103.836C91.4934 102.271 91.7069 100.698 91.9101 99.1243C92.0995 97.6639 92.3526 96.2104 92.5661 94.7535C92.6074 94.4728 92.5988 94.1869 92.6178 93.8115C92.7882 94.0199 92.8915 94.1628 92.9139 94.3505C93.0379 95.3941 93.1481 96.4395 93.2893 97.4797C93.4219 98.463 93.5768 99.4429 93.7421 100.419C93.8282 100.924 93.842 101.434 93.9212 101.94C94.0572 102.806 94.1708 103.681 94.2948 104.551C94.3017 104.601 94.269 104.658 94.2277 104.807H94.2259Z" fill="white"/>
<path d="M136.824 115.118C136.669 114.389 136.53 113.723 136.385 113.058C136.022 111.395 135.651 109.734 135.295 108.069C134.856 106.016 134.434 103.96 133.992 101.907C133.634 100.244 133.244 98.5852 132.888 96.9216C132.449 94.8688 132.036 92.8108 131.6 90.7563C131.225 88.9808 130.851 87.2035 130.44 85.4349C130.333 84.9768 130.336 84.4567 129.889 84.0485C129.68 83.9883 129.41 83.847 129.138 83.8436C127.733 83.8212 126.326 83.8109 124.923 83.8436C124.27 83.8574 123.904 84.2311 123.752 84.87C123.699 85.0904 123.637 85.3091 123.588 85.5313C123.201 87.3344 122.819 89.1375 122.428 90.9389C122.073 92.5749 121.705 94.2075 121.354 95.8453C120.973 97.6208 120.617 99.4015 120.233 101.177C119.812 103.118 119.361 105.052 118.945 106.993C118.361 109.71 117.795 112.431 117.225 115.139C117.347 115.514 117.509 115.841 117.953 116.027C119.609 116.027 121.329 116.034 123.05 116.024C123.737 116.019 123.933 115.876 124.105 115.154C124.308 114.3 124.448 113.43 124.609 112.567C124.811 111.486 125.005 110.404 125.198 109.349H128.802C128.902 109.824 128.998 110.265 129.086 110.706C129.369 112.125 129.673 113.539 129.911 114.966C129.99 115.443 130.198 115.753 130.576 115.996H136.182C136.571 115.784 136.712 115.476 136.826 115.121L136.824 115.118ZM125.477 104.785C125.613 102.915 125.93 101.106 126.192 99.2982C126.455 97.4848 126.645 95.6541 127.139 93.9147C127.628 97.5089 128.117 101.101 128.618 104.794C127.543 104.816 126.555 104.821 125.477 104.785Z" fill="white"/>
<path d="M119.062 84.4533C118.874 84.0658 118.547 83.9246 118.206 83.8936C116.865 83.7765 115.517 83.7885 114.176 83.885C113.666 83.9212 113.285 84.207 113.184 84.7857C113.11 85.2024 112.962 85.6071 112.831 86.0118C111.984 88.6088 111.032 91.168 110.021 93.9079C109.85 93.4429 109.733 93.157 109.639 92.866C108.779 90.1863 107.918 87.5067 107.071 84.8236C106.984 84.5446 106.882 84.288 106.644 84.0348C106.372 84.0176 106.111 83.8264 105.78 83.8282C104.575 83.8385 103.369 83.8127 102.164 83.8385C101.219 83.8574 100.775 84.4964 101.045 85.3833C101.069 85.4642 101.121 85.5383 101.148 85.6192C102.913 90.8769 104.673 96.1364 106.448 101.391C106.615 101.887 106.698 102.374 106.696 102.896C106.687 106.798 106.691 110.702 106.691 114.605V115.471C106.918 115.824 107.13 116.027 107.497 116.027C109.274 116.02 111.049 116.024 112.76 116.024C113.067 115.81 113.275 115.617 113.42 115.313V114.403C113.42 110.558 113.423 106.712 113.415 102.867C113.415 102.345 113.501 101.857 113.668 101.361C115.426 96.1605 117.168 90.9544 118.909 85.7484C119.053 85.3178 119.224 84.8838 119.062 84.455V84.4533Z" fill="white"/>
<path d="M85.631 152.962C85.5914 152.955 85.5518 152.948 85.5122 152.943V148.962C85.2814 148.946 85.1799 148.702 84.9319 148.795C84.1106 149.938 83.384 151.157 82.4456 152.23C82.8382 150.933 83.2308 149.637 83.6164 148.361C83.4253 148.192 83.2704 148.197 83.0362 148.35C82.5747 149.854 82.0944 151.423 81.6191 152.969C81.6846 153.045 81.7138 153.11 81.7603 153.126C81.9979 153.21 82.239 153.281 82.4732 153.355C83.2652 152.284 83.9057 151.142 84.8493 150.005V153.942C85.154 154.192 85.4089 154.3 85.8514 154.212C86.3266 152.654 86.8035 151.09 87.2856 149.508C87.0773 149.42 86.9482 149.366 86.7846 149.297C86.3972 150.527 86.0132 151.745 85.6292 152.962H85.631Z" fill="white"/>
<path d="M155.297 103.059C153.696 102.941 152.041 102.693 150.407 102.758C150.273 102.956 150.259 103.083 150.371 103.202C151.744 103.424 153.147 103.345 154.626 103.647C153.04 104.396 151.575 105.088 150.135 105.767C150.101 105.985 150.046 106.158 150.206 106.306C151.862 106.43 153.524 106.554 155.206 106.679C155.235 106.445 155.294 106.283 155.118 106.035C153.915 106.113 152.739 105.858 151.377 105.813C152.842 105.133 154.173 104.559 155.418 103.855C155.406 103.586 155.508 103.354 155.296 103.056L155.297 103.059Z" fill="white"/>
<path d="M78.7724 49.5987C79.134 50.6837 79.7108 51.7514 80.2377 53.0103C78.9308 52.0872 77.8375 51.1469 76.6201 50.3943C76.3688 50.5338 76.0915 50.551 75.9297 50.818C76.1484 51.326 76.3705 51.8461 76.596 52.3645C76.825 52.8863 77.0162 53.4288 77.3003 53.9178C77.5775 54.3949 77.5792 55.0269 78.0579 55.3834C78.2559 55.3455 78.3557 55.2525 78.4521 55.0924C78.3196 54.8048 78.1526 54.5051 78.0389 54.1865C77.7049 53.2531 77.1126 52.4247 76.9146 51.4362C77.3416 51.4741 77.6067 51.8013 77.9201 52.0269C78.9084 52.7382 79.8795 53.4753 80.8196 54.1744C81.0366 54.1038 81.1485 54.0281 81.2208 53.8162C80.5734 52.361 79.9071 50.8593 79.2597 49.4041C79.0324 49.349 78.8998 49.361 78.7707 49.6004L78.7724 49.5987ZM76.9146 51.4345C76.9146 51.4345 76.9146 51.4345 76.9146 51.4328C76.8732 51.407 76.8319 51.3811 76.7906 51.3553C76.9146 51.2502 76.8956 51.3725 76.9146 51.4328V51.4345Z" fill="white"/>
<path d="M149.679 77.5715C149.754 77.2633 149.937 76.9912 149.904 76.6622C149.854 76.1507 149.154 74.7851 148.706 74.3477C147.244 75.1295 145.71 75.7891 144.176 76.676C144.434 76.7983 144.363 77.0566 144.699 77.0876C145.255 76.8207 145.891 76.5141 146.543 76.2007C146.812 76.5417 147.077 76.8413 146.975 77.3132C146.585 77.7816 146.177 78.2569 145.784 78.746C145.508 79.087 145.521 79.1232 145.882 79.6415C146.433 79.0302 146.841 78.3017 147.516 77.7334C148.296 78.3982 148.999 78.1329 149.677 77.5715H149.679ZM148.096 77.4165C147.708 77.0411 147.403 76.5583 147.18 75.9682C147.234 75.9079 147.278 75.8235 147.349 75.7874C147.752 75.579 148.16 75.3827 148.596 75.1674C149.018 75.7168 149.346 76.2592 149.229 76.9584C148.995 77.4217 148.615 77.5285 148.096 77.4165Z" fill="white"/>
<path d="M126.606 53.0274C126.725 53.2685 126.673 53.501 126.673 53.7266C126.675 54.9597 126.668 56.191 126.666 57.4241C126.666 57.7048 126.615 58.0148 127.09 58.1457C127.949 56.6818 128.794 55.2404 129.626 53.8213C129.457 53.6233 129.357 53.4752 129.115 53.5699C128.529 54.5584 127.93 55.571 127.331 56.5837C127.26 55.1991 127.109 53.8627 127.302 52.5263C127.145 52.2283 126.869 52.0975 126.501 51.9786C125.649 53.4321 124.793 54.8925 123.949 56.334C124.101 56.4821 124.173 56.5751 124.407 56.5699C125.222 55.4953 125.759 54.1692 126.608 53.0274H126.606Z" fill="white"/>
<path d="M69.8693 60.2674C69.5456 59.6801 69.1255 59.1118 68.5745 58.4092C69.0222 58.3076 69.1943 57.9304 69.5749 57.8047C70.267 58.2111 70.9523 58.6141 71.6169 59.0033C71.8855 59.0102 72.0233 58.8449 72.3074 58.6951C71.4878 58.206 70.7664 57.7737 70.0501 57.3466C70.1568 57.0039 70.2498 56.7077 70.3376 56.4304C70.2894 56.272 70.2584 56.1342 70.2068 56.0016C69.8917 55.2129 69.2116 54.8891 68.4298 55.2215C67.7256 55.5211 67.0903 55.9482 66.541 56.5682C67.5414 57.9235 68.392 59.3564 69.4337 60.5602C69.7195 60.5602 69.8228 60.4827 69.871 60.2674H69.8693ZM67.3881 56.6268C67.8806 56.0653 68.3851 55.6021 69.1892 55.7433C69.6368 55.9878 69.7711 56.3547 69.6506 56.861C69.2908 57.3483 68.8379 57.6428 68.3661 57.9425C67.9391 57.5912 67.6654 57.1348 67.3864 56.6268H67.3881Z" fill="white"/>
<path d="M135.135 136.915C135.619 137.423 136.123 137.954 136.642 138.498C136.366 138.794 136.125 139.073 135.781 139.29C135.152 139.021 134.531 138.748 133.904 138.491C133.475 138.315 133.465 138.329 133.072 138.803C133.83 139.133 134.579 139.459 135.374 139.807C135.273 140.203 135.247 140.613 135.314 141.048C135.39 141.147 135.476 141.26 135.565 141.37C136.17 142.111 136.838 142.059 137.511 141.57C138.055 141.172 138.525 140.673 139.025 140.222C137.942 138.891 136.741 137.716 135.595 136.51C135.349 136.528 135.206 136.638 135.135 136.919V136.915ZM138.21 140.222C137.83 140.552 137.546 140.969 137.079 141.202C136.648 141.415 136.426 141.376 136.091 141.031C135.757 140.688 135.731 140.471 135.944 140.036C136.184 139.547 136.633 139.292 137.058 138.992C137.449 139.409 137.799 139.783 138.21 140.222Z" fill="white"/>
<path d="M143.348 129.462C141.776 128.842 140.712 129.61 140.447 131.089C140.436 131.144 140.416 131.198 140.398 131.253C140.137 131.194 139.964 131.265 139.947 131.626C140.528 132.103 141.171 132.544 141.815 132.956C142.322 132.549 142.547 132.057 142.873 131.632C142.74 131.499 142.671 131.363 142.446 131.368C142.137 131.521 142.115 132 141.714 132.16C141.543 131.997 141.354 131.826 141.177 131.642C141.056 131.516 140.97 131.368 140.979 131.182C141.03 130.235 141.962 129.649 142.611 129.846C143.338 130.064 143.975 130.464 144.469 131.018C145.183 131.818 145.085 132.513 144.209 133.257H143.117C142.954 133.392 142.861 133.497 142.888 133.66C144 134.354 145.049 133.729 145.598 131.973C145.364 131.714 145.473 131.37 145.288 131.084C144.805 130.333 144.164 129.785 143.348 129.463V129.462Z" fill="white"/>
<path d="M68.1437 140.117C67.0296 140.048 66.2944 140.656 65.7469 141.503C65.0272 142.617 65.0203 143.661 66.1412 144.613C66.5096 144.927 66.8781 145.231 67.3499 145.498C68.3778 144.152 69.4505 142.869 70.4233 141.487C69.9275 140.995 69.4316 140.618 68.8789 140.32C68.655 140.199 68.4123 140.132 68.1437 140.115V140.117ZM69.5091 141.477C69.311 142.018 67.9164 143.874 67.1347 144.63C66.9625 144.543 66.8316 144.487 66.7145 144.412C65.7262 143.769 65.6608 142.691 66.2531 141.894C66.582 141.451 66.9108 141.05 67.4222 140.802C67.8819 140.58 68.3176 140.58 68.717 140.855C68.9908 141.045 69.3386 141.159 69.5091 141.477Z" fill="white"/>
<path d="M104.623 49.5522C104.909 50.3323 105.482 50.7542 106.267 50.8455C106.916 50.9213 107.49 50.6888 107.91 50.1463C108.488 49.3989 108.912 47.6475 108.278 46.4953C107.903 45.8151 107.311 45.5946 106.576 45.5705C105.833 45.5464 105.293 45.8512 104.976 46.4971C104.661 47.136 104.415 47.8076 104.482 48.5602C104.463 48.8908 104.502 49.2181 104.625 49.5522H104.623ZM105.417 46.9534C105.709 46.3283 106.257 45.9959 106.842 46.1061C107.433 46.2181 107.882 46.7209 107.908 47.3788C107.931 47.9437 107.958 48.5068 107.765 49.0699C107.598 49.5522 107.354 49.9362 106.956 50.1962C106.894 50.21 106.867 50.2203 106.839 50.2221C105.53 50.2978 105.153 49.9379 105.143 48.6222C105.138 48.0487 105.165 47.4873 105.415 46.9534H105.417Z" fill="white"/>
<path d="M60.4033 132.923C60.3482 132.942 60.2191 133.018 60.0813 133.033C59.2566 133.13 58.6522 133.605 58.1563 134.211C57.4246 135.107 57.4246 136.13 58.1099 137.048C58.4112 137.451 58.7745 137.806 59.1619 138.243C60.4205 137.053 61.7945 136.044 63.0274 134.816C62.2439 134 61.6671 133.063 60.4016 132.925L60.4033 132.923ZM59.1808 137.392C58.7332 137.062 58.5024 136.641 58.2683 136.221C58.1495 136.008 58.1185 135.782 58.165 135.56C58.3595 134.628 59.5149 133.641 60.2948 133.571C61.204 133.49 61.6998 134.025 62.182 134.757C61.1902 135.627 60.2156 136.483 59.1808 137.392Z" fill="white"/>
<path d="M148.482 114.403C148.241 115.383 148.593 116.21 149.454 116.728C150.029 117.074 150.64 117.197 151.315 117.257C152.253 117.341 153.243 116.516 153.464 115.638C153.572 115.202 153.691 114.77 153.827 114.257C152.221 113.797 150.623 113.342 148.963 112.867C148.66 113.406 148.605 113.916 148.484 114.403H148.482ZM153.102 114.686C153.026 115.03 152.987 115.356 152.865 115.676C152.558 116.482 151.861 116.769 151.093 116.68C150.557 116.618 150.051 116.403 149.597 116.106C149.192 115.843 149.009 115.428 148.904 114.894C149.032 114.541 149.025 114.073 149.318 113.633C150.569 113.981 151.835 114.333 153.104 114.686H153.102Z" fill="white"/>
<path d="M150.258 93.2655C150.663 93.2879 151.04 93.3775 151.477 93.5583C151.381 94.1197 151.806 94.6674 151.591 95.258C151.069 95.4871 150.559 95.6576 150.141 95.9693C150.148 96.1915 150.243 96.3327 150.353 96.4997C151.927 95.7919 153.504 95.0841 155.093 94.3694C155.06 94.0594 155.157 93.7736 154.978 93.4722C153.28 93.145 151.565 92.8264 149.824 92.5767C149.831 93.1966 149.841 93.2431 150.258 93.2672V93.2655ZM154.387 94.0525C153.678 94.428 152.96 94.6966 152.202 94.9515C152.097 94.5313 152.238 94.1128 151.909 93.6995C152.71 93.622 153.945 93.8097 154.387 94.0525Z" fill="white"/>
<path d="M50.2229 92.8522C50.328 92.7471 50.3986 92.6283 50.359 92.3476C49.9337 92.1151 49.4877 91.8723 49.0452 91.6312C48.9264 90.9991 49.1296 90.4394 49.2725 89.8849C49.8372 89.7885 50.3641 89.6972 50.8824 89.6076C50.9013 89.3924 51.151 89.2512 50.9702 89.0204C49.2071 89.2081 47.4456 89.3941 45.7858 89.5698C45.5844 89.7781 45.5878 89.9245 45.5809 90.0657C45.574 90.2069 45.5482 90.3516 45.6395 90.479C46.7518 91.211 50.0783 92.9331 50.2212 92.8522H50.2229ZM48.5924 89.8367C48.7749 90.3137 48.3771 90.684 48.496 91.0611C48.3289 91.2747 48.174 91.2161 48.0156 91.1317C47.3974 90.7994 46.7776 90.467 46.0441 90.0726C46.9704 89.9503 47.7848 90.0829 48.5924 89.835V89.8367Z" fill="white"/>
<path d="M48.9301 81.877C49.4036 82.2094 49.8426 82.0768 50.2903 81.8047C50.54 81.6531 50.7586 81.4844 50.9188 81.2346C51.2373 80.7387 51.6936 80.4132 52.2118 80.1859C52.5149 80.284 52.7938 80.3546 52.9557 80.6371C53.0435 80.9436 53.0056 81.257 52.9677 81.6514C52.6389 82.0251 52.3703 82.4074 51.7986 82.4574C51.4095 82.4918 51.3992 82.7381 51.7383 83.0756C53.0487 82.7002 53.7012 81.9683 53.6616 80.9247C53.6358 80.2255 53.1881 79.8053 52.174 79.5297C51.4611 79.6916 50.9739 80.179 50.5314 80.7059C50.3626 80.9074 50.1801 81.0779 49.9752 81.226C49.6377 81.4689 49.3881 81.4637 49.1246 81.2415C48.8509 81.009 48.7837 80.7559 48.918 80.396C49.1367 79.8104 49.5534 79.4712 50.1663 79.4453C50.2438 79.2679 50.2714 79.1353 50.1353 79.0234C49.1212 78.9735 48.4359 79.5469 48.3378 80.532C48.2827 81.0883 48.4617 81.5446 48.9283 81.8736L48.9301 81.877Z" fill="white"/>
<path d="M115.694 52.9225C116.261 53.2342 116.846 53.1739 117.409 53.1343C117.896 52.8277 118.227 52.4472 118.394 51.9374C118.738 50.8886 119.081 49.8381 119.443 48.7342C119.226 48.7204 119.107 48.5086 118.843 48.562C118.494 49.5884 118.117 50.6251 117.79 51.6773C117.662 52.0872 117.457 52.392 117.085 52.6056C116.448 52.7227 115.904 52.5798 115.505 52.0028C115.417 51.4948 115.467 50.9988 115.656 50.5028C115.94 49.7606 116.195 49.008 116.46 48.2589C116.528 48.0694 116.584 47.8766 116.426 47.7009C116.102 47.5597 115.94 47.7164 115.846 48.0023C115.515 48.9994 115.16 49.9896 114.857 50.9954C114.599 51.8513 114.919 52.4988 115.694 52.9242V52.9225Z" fill="white"/>
<path d="M64.264 64.5418C63.6355 65.0532 63.1448 65.7697 62.4457 66.2691C61.9791 65.8558 61.5676 65.4752 61.2284 65.0567C61.5297 64.5245 62.0652 64.2731 62.277 63.7806C62.172 63.629 62.1048 63.4964 61.8793 63.5102C61.4557 63.7651 61.206 64.2972 60.7101 64.5555C60.3055 64.2301 59.968 63.8977 59.6564 63.5136C60.1368 62.8299 60.8496 62.3942 61.1905 61.6658C61.101 61.528 61.0046 61.4298 60.8255 61.4453C60.3262 61.943 59.8114 62.4373 59.3206 62.9557C59.1295 63.1554 58.9935 63.4069 58.7852 63.7014C60.0696 64.7708 61.2043 65.9677 62.4457 67.1508C63.3273 66.4034 63.9489 65.5527 64.66 64.7966C64.5601 64.6382 64.474 64.5263 64.264 64.5435V64.5418Z" fill="white"/>
<path d="M140.983 71.2547C141.104 71.1531 141.188 71.0808 141.286 70.9964C140.895 70.2128 140.205 69.6617 139.773 68.8782C140.25 68.5045 140.713 68.1411 141.169 67.7812C141.672 68.1239 141.804 68.7352 142.311 69.0004C142.45 68.997 142.603 69.0159 142.648 68.8265C142.469 68.2548 141.882 67.931 141.718 67.3541C142.171 67.0579 142.51 66.6652 142.98 66.4723C143.478 67.094 143.957 67.6933 144.446 68.3081C144.606 68.2169 144.725 68.148 144.893 68.0515C144.261 67.2284 143.643 66.4207 142.994 65.5734C141.591 66.66 140.265 67.6864 138.953 68.7042C139.218 69.2329 139.601 69.6256 139.948 70.0389C140.286 70.4402 140.48 70.9792 140.983 71.2547Z" fill="white"/>
<path d="M51.8711 115.547C51.699 115.626 51.5733 115.685 51.4286 115.752C51.699 116.563 51.9607 117.343 52.2396 118.182C51.6353 118.397 51.0826 118.593 50.5557 118.781C50.1183 118.302 50.2526 117.618 49.8101 117.24C49.6104 117.229 49.4985 117.296 49.4623 117.393C49.4572 117.996 49.9668 118.407 49.8549 119.019C49.3883 119.167 48.9458 119.42 48.4275 119.451C48.0177 118.734 47.9678 117.906 47.5597 117.257C47.3359 117.238 47.2395 117.334 47.1465 117.503C47.4444 118.412 47.7302 119.354 48.1451 120.241C49.7481 119.821 52.4996 118.814 52.9266 118.493C52.5564 117.524 52.3188 116.504 51.8711 115.547Z" fill="white"/>
<path d="M95.3924 50.2686C96.243 50.8472 97.648 50.5665 98.0457 49.4833C98.1129 49.3025 98.2764 49.1457 98.2041 48.8771C98.0991 48.8082 98.0044 48.6446 97.8356 48.7255C97.5843 48.8599 97.617 49.0889 97.5378 49.2646C97.4586 49.4454 97.3432 49.6107 97.2382 49.7915C97.1245 49.8312 97.0195 49.869 96.9128 49.9035C96.1328 50.1549 95.8487 50.0516 95.4044 49.3834C95.0205 48.8065 94.955 48.1572 95.0015 47.4994C95.0739 46.4523 95.3924 45.8943 96.2981 45.7703C96.7285 45.9379 97.1291 46.2669 97.4999 46.7571C97.617 46.8053 97.7255 46.7881 97.8821 46.702C97.9699 46.4334 97.9097 46.2284 97.7599 46.0338C97.3501 45.4999 96.8163 45.1865 96.1397 45.2588C95.4062 45.3363 94.85 45.7376 94.5866 46.4368C94.1854 47.5011 94.3076 48.5602 94.788 49.5677C94.9154 49.8346 95.1066 50.0791 95.3889 50.2703L95.3924 50.2686Z" fill="white"/>
<path d="M49.6795 98.7867C49.6795 98.7471 49.6089 98.7075 49.5693 98.6662C49.4591 98.6559 49.342 98.6231 49.2301 98.773C49.0923 99.5962 49.2921 100.483 49.1113 101.325H47.2896C47.2896 100.834 47.2948 100.381 47.2879 99.9302C47.2827 99.6633 47.1656 99.5032 46.8264 99.5634C46.6852 100.137 46.8746 100.747 46.7025 101.344C46.1446 101.358 45.616 101.432 45.0409 101.274V98.9211C44.8859 98.7867 44.774 98.816 44.5571 98.8573C44.5467 99.8872 44.533 100.874 44.564 101.85C46.0861 101.981 49.0682 101.937 49.6846 101.776C49.6846 100.784 49.6846 99.7856 49.6795 98.7885V98.7867Z" fill="white"/>
<path d="M57.7703 73.1921C56.5375 72.3965 55.2789 71.5836 54.0391 70.7828C54.1338 70.2369 54.6452 69.9596 54.6866 69.4602C54.6211 69.3465 54.5436 69.2708 54.3525 69.2225C53.6707 70.1628 53.0302 71.16 52.4551 72.1571C52.5119 72.4292 52.6565 72.4705 52.8511 72.4223C53.1869 72.1261 53.2661 71.6112 53.7275 71.358C54.9775 72.1502 56.2172 72.9372 57.4466 73.7156C57.6412 73.54 57.7927 73.4487 57.7738 73.1921H57.7703Z" fill="white"/>
<path d="M133.692 63.1313C134.666 62.036 135.644 60.9356 136.639 59.8179C137.073 60.1434 137.447 60.4224 137.802 60.6876C137.979 60.5808 138.06 60.4757 138.012 60.2329C137.194 59.5045 136.329 58.7329 135.484 57.9803C135.252 58.082 135.138 58.1922 135.15 58.3833C135.377 58.8259 135.999 58.881 136.137 59.3908C135.196 60.5911 134.084 61.6124 133.213 62.8179C133.333 62.9832 133.416 63.1003 133.693 63.1313H133.692Z" fill="white"/>
<path d="M55.114 124.533C55.3809 125.282 55.9078 125.873 56.1936 126.599C54.8919 127.352 53.5919 128.103 52.3281 128.833C52.3281 129.098 52.4607 129.219 52.5692 129.413C54.0396 128.57 55.5083 127.727 57.0425 126.849C56.4312 125.976 56.0903 125.041 55.4636 124.287C55.2655 124.337 55.1571 124.412 55.114 124.535V124.533Z" fill="white"/>
<path d="M118.438 147.596C118.393 147.816 118.412 147.923 118.546 148.042C119.295 147.901 119.967 147.462 120.711 147.2C121.31 148.584 121.892 149.935 122.47 151.273C122.694 151.343 122.882 151.361 123.078 151.104C122.425 149.588 121.757 148.039 121.064 146.432C120.118 146.852 119.25 147.236 118.438 147.598V147.596Z" fill="white"/>
<path d="M112.34 149.568C111.32 149.742 110.392 149.941 109.497 150.207C109.475 150.374 109.456 150.487 109.619 150.62C110.356 150.761 111.071 150.1 111.901 150.341C112.364 151.734 112.495 153.212 112.997 154.593C113.178 154.584 113.318 154.577 113.538 154.567C113.34 153.66 113.185 152.823 112.97 152.001C112.76 151.195 112.689 150.346 112.341 149.566L112.34 149.568Z" fill="white"/>
<path d="M127.188 143.256C128.059 144.605 128.952 145.989 129.82 147.332C130.09 147.36 130.209 147.215 130.431 147.107C129.488 145.657 128.574 144.252 127.685 142.886C127.394 142.913 127.27 143.012 127.188 143.258V143.256Z" fill="white"/>
<path d="M76.3159 145.156C75.603 146.108 74.1051 149.079 74.0293 149.709C74.1498 149.764 74.2772 149.821 74.4288 149.89C75.2156 148.429 76.0214 146.988 76.7515 145.44C76.6258 145.261 76.5156 145.133 76.3141 145.156H76.3159Z" fill="white"/>
<path d="M99.1871 152.728C99.1561 152.836 99.1216 152.892 99.1302 152.94C99.1457 153.017 99.1888 153.088 99.2387 153.205C99.7639 153.169 100.291 153.267 100.787 153.153C100.857 152.997 100.869 152.89 100.747 152.683C100.22 152.712 99.6916 152.632 99.1871 152.728Z" fill="white"/>
<path d="M93.741 100.419C93.574 99.4411 93.4207 98.4612 93.2882 97.4796C93.147 96.4377 93.0385 95.3923 92.9128 94.3504C92.8904 94.1627 92.7854 94.0198 92.6166 93.8114C92.5977 94.1868 92.6063 94.4744 92.565 94.7534C92.3515 96.2104 92.0984 97.6639 91.909 99.1242C91.7058 100.698 91.4923 102.271 91.2289 103.836C91.1789 104.134 91.1531 104.451 91.2444 104.771C91.3959 104.787 91.5061 104.807 91.6163 104.807C92.4737 104.811 93.3295 104.807 94.2248 104.807C94.2661 104.658 94.2989 104.602 94.292 104.551C94.1697 103.679 94.0544 102.806 93.9183 101.94C93.8391 101.434 93.8254 100.922 93.7393 100.419H93.741Z" fill="#009A4D"/>
<path d="M126.189 99.2982C125.927 101.108 125.609 102.916 125.475 104.785C126.552 104.821 127.541 104.816 128.615 104.794C128.112 101.103 127.623 97.5089 127.136 93.9148C126.642 95.6542 126.453 97.4848 126.189 99.2982Z" fill="#009A4D"/>
<path d="M76.9153 51.434V51.4327H76.9141L76.9153 51.434Z" fill="#009A4D"/>
<path d="M76.791 51.3556C76.8326 51.3817 76.8743 51.4077 76.9159 51.4337C76.8968 51.373 76.9159 51.2498 76.791 51.3556Z" fill="#009A4D"/>
<path d="M149.229 76.9585C149.346 76.2576 149.017 75.7151 148.595 75.1675C148.158 75.3827 147.75 75.5791 147.348 75.7875C147.278 75.8236 147.233 75.9097 147.18 75.9683C147.402 76.5584 147.708 77.0412 148.096 77.4166C148.614 77.5285 148.994 77.4218 149.229 76.9585Z" fill="#009A4D"/>
<path d="M69.6531 56.8609C69.7736 56.3546 69.6376 55.9878 69.1916 55.7433C68.3858 55.6021 67.8831 56.0653 67.3906 56.6267C67.6696 57.1348 67.9416 57.5911 68.3703 57.9425C68.8438 57.6428 69.295 57.3483 69.6548 56.8609H69.6531Z" fill="#009A4D"/>
<path d="M135.941 140.036C135.729 140.471 135.754 140.688 136.088 141.031C136.425 141.376 136.647 141.415 137.076 141.202C137.543 140.971 137.827 140.552 138.207 140.222C137.796 139.783 137.444 139.409 137.055 138.992C136.63 139.292 136.179 139.547 135.941 140.036Z" fill="#009A4D"/>
<path d="M67.4227 140.802C66.9114 141.05 66.5825 141.45 66.2536 141.894C65.6613 142.691 65.7268 143.769 66.7151 144.412C66.8322 144.487 66.9647 144.543 67.1352 144.63C67.9169 143.874 69.3099 142.018 69.5096 141.477C69.3408 141.159 68.9913 141.045 68.7176 140.855C68.3181 140.578 67.8808 140.578 67.4227 140.802Z" fill="#009A4D"/>
<path d="M106.837 50.2222C106.865 50.2222 106.892 50.2101 106.954 50.1963C107.352 49.938 107.597 49.554 107.764 49.07C107.958 48.5086 107.929 47.9437 107.907 47.3789C107.881 46.721 107.431 46.2182 106.841 46.1062C106.255 45.996 105.71 46.3284 105.415 46.9535C105.166 47.4857 105.138 48.0488 105.143 48.6223C105.153 49.938 105.529 50.2979 106.839 50.2222H106.837Z" fill="#009A4D"/>
<path d="M60.2931 133.571C59.5149 133.641 58.3595 134.628 58.1632 135.56C58.1167 135.784 58.1477 136.009 58.2665 136.221C58.5007 136.641 58.7314 137.062 59.1791 137.392C60.2139 136.483 61.1885 135.627 62.1802 134.757C61.6981 134.025 61.2022 133.488 60.2931 133.571Z" fill="#009A4D"/>
<path d="M149.596 116.106C150.051 116.403 150.557 116.618 151.092 116.68C151.862 116.769 152.558 116.482 152.864 115.676C152.986 115.356 153.026 115.03 153.102 114.686C151.833 114.333 150.567 113.981 149.316 113.633C149.025 114.073 149.03 114.539 148.902 114.894C149.009 115.428 149.192 115.843 149.595 116.106H149.596Z" fill="#009A4D"/>
<path d="M154.386 94.0525C153.943 93.8097 152.711 93.622 151.908 93.6995C152.237 94.1128 152.098 94.5295 152.201 94.9515C152.957 94.6983 153.677 94.4297 154.386 94.0525Z" fill="#009A4D"/>
<path d="M48.4948 91.0594C48.376 90.6823 48.7738 90.312 48.5913 89.835C47.7854 90.0847 46.9693 89.9521 46.043 90.0726C46.7765 90.467 47.3963 90.7994 48.0144 91.1317C48.1711 91.2161 48.3261 91.2747 48.4948 91.0611V91.0594Z" fill="#009A4D"/>
</g>
<defs>
<clipPath id="clip0_142_12760">
<rect width="124" height="124" fill="white" transform="translate(38 38)"/>
</clipPath>
</defs>
</svg>
