<svg width="160" height="160" viewBox="0 0 160 160" fill="none" xmlns="http://www.w3.org/2000/svg">
<circle cx="80" cy="80" r="80" fill="#C2F7AD"/>
<path fill-rule="evenodd" clip-rule="evenodd" d="M92.3617 54.2832C92.3617 53.5752 92.9346 53 93.6426 53C94.3529 53 94.9258 53.5752 94.9258 54.2832L93.6426 107.526L92.3617 54.2832ZM38.3966 80.0967L35.2339 78.8181C34.1906 78.4129 33.8133 77.6886 33.8133 76.9923C33.8133 75.5111 35.3806 74.8147 36.8315 74.8147C38.1181 74.8147 39.0195 75.4419 39.712 75.9237C40.144 76.2242 40.4947 76.4682 40.807 76.4682C41.678 76.4682 41.8526 75.9163 41.8526 75.4529C41.9109 74.349 39.4143 73.0751 36.3984 73.0751C34.0485 73.0751 31.5519 74.6121 31.5519 77.1366C31.5519 79.051 32.6838 79.9779 34.2488 80.6183L37.8469 82.0972C38.9765 82.5606 39.9942 83.1126 39.9942 84.4773C39.9942 85.9259 38.6597 87.1183 36.6569 87.1183C34.9543 87.1183 33.9415 86.2586 33.1806 85.6127C32.7228 85.2241 32.3561 84.9128 31.9851 84.9128C31.4611 84.9128 31 85.6092 31 85.9282C31 86.9157 33.2031 88.8603 36.5707 88.8603C39.9383 88.8603 42.2579 87.1183 42.2579 84.3911C42.2579 81.9505 40.4879 80.9374 38.3989 80.0967H38.3966ZM61.0846 84.7405C60.7368 84.7405 60.4032 85.0369 59.9716 85.4204C59.1808 86.1232 58.0609 87.1183 55.9215 87.1183C53.2526 87.1183 51.4244 84.5938 51.3359 81.8946H60.882C62.1326 81.8946 62.305 81.1703 62.305 80.6207C62.305 76.7314 60.0716 73.0751 55.7165 73.0751C51.3615 73.0751 49.0722 77.0784 49.0722 80.9677C49.0722 84.8569 51.1333 88.8603 56.0682 88.8603C59.664 88.8603 62.0721 86.6828 62.0721 85.7559C62.0721 84.9431 61.6669 84.7405 61.0846 84.7405ZM55.6886 74.8147C58.5042 74.8147 59.9551 77.5721 60.0436 80.1549H51.3359C51.4244 77.5721 52.8753 74.8147 55.6886 74.8147ZM72.7198 75.1641C73.5023 74.0322 74.7809 73.0751 76.7534 73.0751C79.4806 73.0751 82.2962 74.9032 82.2962 78.5875V87.5258C82.2962 88.3945 81.9189 88.8603 81.2505 88.8603C80.5821 88.8603 80.2048 88.3945 80.2048 87.5258V78.5293C80.2048 76.3821 78.754 74.9894 76.4344 74.9894C74.4897 74.9894 72.6616 76.3821 72.6616 79.023V87.5258C72.6616 88.3945 72.282 88.8603 71.6159 88.8603C70.9498 88.8603 70.5725 88.3945 70.5725 87.5258V74.4095C70.5725 73.5385 70.9475 73.0751 71.6159 73.0751C72.2843 73.0751 72.6616 73.5385 72.6616 74.4095V75.1641H72.7198ZM127.924 87.7843L128.082 88.7206H128.08L128.084 88.7446C128.086 88.7605 128.089 88.7732 128.089 88.7839L128.089 88.7881C128.089 88.8323 128.066 88.8626 128.022 88.8626C127.984 88.8626 127.949 88.851 127.945 88.7997L127.81 87.8635H127.805L127.528 88.8044C127.514 88.851 127.488 88.8626 127.453 88.8626C127.423 88.8626 127.395 88.851 127.381 88.8044L127.104 87.8635H127.099L126.964 88.7997C126.957 88.851 126.925 88.8626 126.887 88.8626C126.843 88.8626 126.822 88.8323 126.822 88.7881C126.822 88.7695 126.825 88.7508 126.829 88.7206L126.988 87.7843C127.002 87.7052 127.046 87.6749 127.099 87.6749C127.158 87.6749 127.19 87.6958 127.204 87.7517L127.453 88.6064H127.458L127.707 87.7517C127.724 87.6958 127.754 87.6749 127.812 87.6749C127.863 87.6749 127.908 87.7052 127.924 87.7843ZM126.084 87.6865H126.664C126.706 87.6865 126.736 87.7075 126.736 87.7541C126.736 87.8006 126.706 87.8193 126.664 87.8193H126.445V88.7858C126.445 88.8323 126.417 88.8626 126.373 88.8626C126.329 88.8626 126.301 88.8323 126.301 88.7858V87.8193H126.084C126.042 87.8193 126.014 87.8006 126.014 87.7541C126.014 87.7075 126.044 87.6865 126.084 87.6865ZM123.699 73.0751C123.031 73.0751 122.654 73.5385 122.654 74.4095V87.5258C122.654 88.3945 123.031 88.8603 123.699 88.8603C124.368 88.8603 124.745 88.3945 124.745 87.5258V74.4095C124.745 73.5385 124.368 73.0751 123.699 73.0751ZM108.03 78.8181L111.193 80.0967H111.191C113.282 80.9374 115.05 81.9528 115.05 84.3911C115.05 87.1183 112.728 88.8603 109.363 88.8603C105.997 88.8603 103.792 86.9157 103.792 85.9282C103.792 85.6092 104.258 84.9128 104.779 84.9128C105.149 84.9128 105.515 85.2236 105.972 85.6119C106.733 86.2579 107.745 87.1183 109.449 87.1183C111.452 87.1183 112.786 85.9259 112.786 84.4773C112.786 83.1126 111.771 82.5606 110.639 82.0972L107.041 80.6183C105.473 79.9779 104.344 79.051 104.344 77.1366C104.344 74.6121 106.838 73.0751 109.188 73.0751C112.208 73.0751 114.705 74.349 114.647 75.4529C114.647 75.9186 114.472 76.4682 113.601 76.4682C113.29 76.4682 112.94 76.2247 112.508 75.9245C111.816 75.4426 110.913 74.8147 109.626 74.8147C108.175 74.8147 106.61 75.5111 106.61 76.9923C106.61 77.6886 106.985 78.4129 108.03 78.8181Z" fill="#092D2E"/>
</svg>
