<svg width="160" height="160" viewBox="0 0 160 160" fill="none" xmlns="http://www.w3.org/2000/svg">
<circle cx="80" cy="80" r="80" fill="#C2F7AD"/>
<path fill-rule="evenodd" clip-rule="evenodd" d="M47.7297 68.6423C47.9822 67.8848 47.7297 67.0354 47.064 66.5534L44.8603 64.9465L37.4229 59.5521L44.4012 78.4899L47.7297 68.6423ZM27.7586 66.5764L37.4226 59.5522L47.7523 91.3218C48.0048 92.0793 47.7294 92.9286 47.0866 93.3877L37.4229 100.412L37.4229 100.412L37.4228 100.412L37.4226 100.412L37.4225 100.412L37.1245 100.205L31.2251 95.9127L31.1333 95.8439L27.7818 93.4107C27.1161 92.9286 26.8636 92.0793 27.1161 91.3218L30.4446 81.4741L37.4204 100.405L27.0929 68.6423C26.8404 67.8848 27.1159 67.0584 27.7586 66.5764ZM57.1867 77.7094C57.7376 78.2833 58.7017 78.7883 60.0561 79.2015C61.5481 79.6606 62.6729 80.3033 63.4075 80.969C64.1879 81.7725 64.5782 82.8054 64.5782 84.0909C64.5782 85.4452 64.1191 86.5241 63.2009 87.3046C62.2827 88.108 61.112 88.4982 59.6888 88.4982C58.2885 88.4982 57.049 88.0851 56.016 87.2357C55.3044 86.6619 54.8453 85.9043 54.6387 84.9632C54.6157 84.8484 54.6617 84.7107 54.7764 84.6418L55.3962 84.2057C55.6028 84.0679 55.8783 84.1827 55.9242 84.4123C56.0619 85.2846 56.4062 85.9503 56.9801 86.4094C57.7376 87.0291 58.6558 87.3505 59.7117 87.3505C60.7447 87.3505 61.594 87.0521 62.2368 86.4782C62.8795 85.9043 63.2009 85.1468 63.2009 84.1827C63.2009 83.2645 62.9254 82.507 62.3975 81.9331C61.8695 81.3593 60.9283 80.8543 59.574 80.4181C58.036 79.959 56.8653 79.3392 56.0849 78.6047C55.2814 77.8701 54.8912 76.8601 54.8912 75.6205C54.8912 74.3351 55.3503 73.3021 56.2226 72.4757C57.1178 71.6723 58.2426 71.2591 59.6429 71.2591C61.112 71.2591 62.2827 71.7412 63.1779 72.7053C63.66 73.2332 64.0043 73.8301 64.2109 74.4728C64.2568 74.6105 64.2109 74.7483 64.0961 74.8401L63.4993 75.2762C63.3157 75.4139 63.0632 75.3221 62.9943 75.0926C62.8566 74.5187 62.5811 74.0137 62.2138 73.5775C61.594 72.8659 60.7447 72.4987 59.6658 72.4987C58.6099 72.4987 57.7835 72.7971 57.2097 73.3939C56.6358 73.9907 56.3374 74.7253 56.3374 75.6205C56.3374 76.4469 56.6128 77.1356 57.1867 77.7094ZM75.9414 87.1669H68.6877V80.2115H74.9544C75.138 80.2115 75.2758 80.0738 75.2758 79.8902V79.3622C75.2758 79.1786 75.138 79.0408 74.9544 79.0408H68.6877V72.7512H75.8726C76.0562 72.7512 76.194 72.6134 76.194 72.4298V71.8559C76.194 71.6723 76.0562 71.5346 75.8726 71.5346H67.6318C67.4481 71.5346 67.3104 71.6723 67.3104 71.8559V88.0162C67.3104 88.1998 67.4481 88.3376 67.6318 88.3376H75.9414C76.1251 88.3376 76.2628 88.1998 76.2628 88.0162V87.4882C76.2628 87.3046 76.1251 87.1669 75.9414 87.1669ZM88.0157 71.5346H88.7503C88.911 71.5346 89.0717 71.6724 89.0717 71.856V88.0622C89.0717 88.2458 88.9339 88.3836 88.7503 88.3836H87.878C87.7632 88.3836 87.6485 88.3147 87.6026 88.1999L80.1881 74.2892H80.1193V87.9704C80.1193 88.154 79.9815 88.2917 79.7979 88.2917H79.0404C78.8567 88.2917 78.719 88.154 78.719 87.9704V71.8101C78.719 71.6265 78.8567 71.4887 79.0404 71.4887H79.9127C80.0504 71.4887 80.1652 71.5576 80.2111 71.6724L87.6255 85.583H87.6944V71.856C87.6944 71.6724 87.8321 71.5346 88.0157 71.5346ZM105.898 71.5346H105.163C104.979 71.5346 104.842 71.6723 104.842 71.8559V88.0162C104.842 88.1998 104.979 88.3376 105.163 88.3376H105.898C106.081 88.3376 106.219 88.1998 106.219 88.0162V71.8559C106.219 71.6723 106.058 71.5346 105.898 71.5346ZM118.27 78.1915C117.857 78.8342 117.283 79.2704 116.594 79.5229C117.466 79.7065 118.155 80.1886 118.683 80.9461C119.211 81.7265 119.486 82.6218 119.486 83.6548C119.486 85.1698 119.073 86.3175 118.27 87.121C117.466 87.9244 116.365 88.3376 114.987 88.3376H110.396C110.213 88.3376 110.075 88.1998 110.075 88.0162V71.8559C110.075 71.6723 110.213 71.5346 110.396 71.5346H114.299C115.745 71.5346 116.87 71.9018 117.696 72.6364C118.499 73.371 118.913 74.4957 118.913 75.9649C118.913 76.8142 118.683 77.5487 118.27 78.1915ZM114.299 72.7512H111.452V79.0867H114.735C115.607 79.0638 116.296 78.7654 116.778 78.2374C117.26 77.6865 117.512 76.929 117.512 75.919C117.512 74.886 117.237 74.0826 116.686 73.5546C116.135 73.0266 115.355 72.7512 114.299 72.7512ZM114.987 87.1669C115.974 87.1669 116.732 86.8455 117.283 86.2487C117.834 85.6518 118.109 84.8025 118.086 83.7007C118.086 82.6907 117.834 81.8643 117.352 81.2215C116.87 80.5788 116.158 80.2574 115.194 80.2574H111.452V87.1669H114.987ZM130.826 72.9119C129.862 71.833 128.576 71.2821 126.924 71.2821C125.294 71.2821 124.031 71.833 123.113 72.9119C122.195 73.9908 121.736 75.5517 121.736 77.5947V82.3005C121.736 84.3435 122.195 85.9044 123.136 86.9603C124.054 88.0392 125.34 88.5672 126.97 88.5672C128.622 88.5672 129.931 88.0392 130.872 86.9603C131.813 85.8815 132.295 84.3205 132.295 82.3005V77.5947C132.272 75.5517 131.79 73.9908 130.826 72.9119ZM130.895 82.3005C130.895 83.9762 130.551 85.2387 129.862 86.0881C129.173 86.9374 128.209 87.3506 126.924 87.3506C125.684 87.3506 124.72 86.9374 124.054 86.0881C123.389 85.2387 123.067 83.9762 123.067 82.3005V77.5488C123.067 75.8961 123.389 74.6336 124.054 73.8072C124.72 72.9578 125.661 72.5447 126.901 72.5447C128.186 72.5447 129.15 72.9578 129.839 73.8072C130.528 74.6565 130.872 75.8961 130.872 77.5488V82.3005H130.895ZM94.5111 77.7094C95.062 78.2833 96.0261 78.7883 97.3804 79.2015C98.8725 79.6606 99.9973 80.3033 100.732 80.969C101.512 81.7725 101.903 82.8054 101.903 84.0909C101.903 85.4452 101.443 86.5241 100.525 87.3046C99.6071 88.108 98.4364 88.4982 97.0132 88.4982C95.6129 88.4982 94.3733 88.0851 93.3404 87.2357C92.6288 86.6619 92.1697 85.9043 91.9631 84.9632C91.9401 84.8484 91.986 84.7107 92.1008 84.6418L92.7206 84.2057C92.9272 84.0679 93.2026 84.1827 93.2485 84.4123C93.3863 85.2846 93.7306 85.9503 94.3045 86.4094C95.062 87.0291 95.9802 87.3505 97.0361 87.3505C98.0691 87.3505 98.9184 87.0521 99.5611 86.4782C100.204 85.9043 100.525 85.1468 100.525 84.1827C100.525 83.2645 100.25 82.507 99.7218 81.9331C99.1939 81.3593 98.2527 80.8543 96.8984 80.4181C95.3604 79.959 94.1897 79.3392 93.4092 78.6047C92.6058 77.8701 92.2156 76.8601 92.2156 75.6205C92.2156 74.3351 92.6747 73.3021 93.547 72.4757C94.4422 71.6723 95.567 71.2591 96.9672 71.2591C98.4364 71.2591 99.6071 71.7412 100.502 72.7053C100.984 73.2332 101.329 73.8301 101.535 74.4728C101.581 74.6105 101.535 74.7483 101.421 74.8401L100.824 75.2762C100.64 75.4139 100.388 75.3221 100.319 75.0926C100.181 74.5187 99.9055 74.0137 99.5382 73.5775C98.9184 72.8659 98.0691 72.4987 96.9902 72.4987C95.9343 72.4987 95.1079 72.7971 94.534 73.3939C93.9602 73.9907 93.6617 74.7253 93.6617 75.6205C93.6617 76.4469 93.9372 77.1356 94.5111 77.7094Z" fill="#092D2E"/>
</svg>
