<svg width="160" height="160" viewBox="0 0 160 160" fill="none" xmlns="http://www.w3.org/2000/svg">
<circle cx="80" cy="80" r="80" fill="#C2F7AD"/>
<path d="M40.257 134.165C39.465 134.165 38.783 134 38.211 133.67C37.639 133.34 37.199 132.874 36.891 132.273C36.5903 131.672 36.44 130.968 36.44 130.161C36.44 129.362 36.5903 128.658 36.891 128.049C37.199 127.44 37.639 126.971 38.211 126.641C38.7903 126.304 39.4723 126.135 40.257 126.135C41.1957 126.135 41.9767 126.373 42.6 126.85C43.2307 127.319 43.6267 127.987 43.788 128.852H42.105C42.0097 128.427 41.797 128.104 41.467 127.884C41.137 127.657 40.7337 127.543 40.257 127.543C39.575 127.543 39.036 127.774 38.64 128.236C38.244 128.691 38.046 129.325 38.046 130.139C38.046 130.96 38.244 131.602 38.64 132.064C39.036 132.526 39.5787 132.757 40.268 132.757C40.8913 132.757 41.379 132.566 41.731 132.185C42.083 131.796 42.292 131.276 42.358 130.623H43.975C43.931 131.327 43.7587 131.947 43.458 132.482C43.1573 133.01 42.7357 133.424 42.193 133.725C41.6503 134.018 41.005 134.165 40.257 134.165ZM49.3174 134.165C48.5327 134.165 47.8507 134 47.2714 133.67C46.6994 133.333 46.2594 132.863 45.9514 132.262C45.6507 131.653 45.5004 130.953 45.5004 130.161C45.5004 129.369 45.6507 128.672 45.9514 128.071C46.2594 127.462 46.6994 126.989 47.2714 126.652C47.8507 126.307 48.5327 126.135 49.3174 126.135C50.1021 126.135 50.7841 126.304 51.3634 126.641C51.9427 126.978 52.3864 127.451 52.6944 128.06C53.0024 128.661 53.1564 129.358 53.1564 130.15C53.1564 130.942 53.0024 131.642 52.6944 132.251C52.3864 132.852 51.9427 133.322 51.3634 133.659C50.7841 133.996 50.1021 134.165 49.3174 134.165ZM49.3284 132.757C50.0104 132.757 50.5494 132.522 50.9454 132.053C51.3487 131.584 51.5504 130.946 51.5504 130.139C51.5504 129.34 51.3487 128.709 50.9454 128.247C50.5494 127.778 50.0104 127.543 49.3284 127.543C48.6464 127.543 48.1037 127.778 47.7004 128.247C47.3044 128.709 47.1064 129.34 47.1064 130.139C47.1064 130.946 47.3044 131.584 47.7004 132.053C48.1037 132.522 48.6464 132.757 49.3284 132.757ZM56.6694 134H55.1294V126.3H57.7474L59.5184 131.613H59.5404L61.2784 126.3H63.8964V134H62.3564V127.807H62.3344L60.2334 134H58.8254L56.6914 127.807H56.6694V134ZM67.8463 134H66.3063V126.3H67.8463V134ZM71.7931 134H70.2531V126.3H72.5741L75.1481 132.163H75.1701V126.3H76.7101V134H74.3891L71.8151 128.148H71.7931V134ZM84.5984 134V133.01H84.5764C84.3124 133.377 83.9641 133.663 83.5314 133.868C83.1061 134.066 82.6258 134.165 82.0904 134.165C81.4084 134.165 80.8108 134 80.2974 133.67C79.7841 133.333 79.3844 132.863 79.0984 132.262C78.8198 131.661 78.6804 130.964 78.6804 130.172C78.6804 129.373 78.8271 128.669 79.1204 128.06C79.4211 127.451 79.8574 126.978 80.4294 126.641C81.0014 126.304 81.6834 126.135 82.4754 126.135C83.3848 126.135 84.1401 126.351 84.7414 126.784C85.3428 127.209 85.7204 127.796 85.8744 128.544H84.1254C84.0008 128.229 83.7991 127.983 83.5204 127.807C83.2418 127.631 82.8971 127.543 82.4864 127.543C81.7898 127.543 81.2471 127.778 80.8584 128.247C80.4698 128.709 80.2754 129.329 80.2754 130.106C80.2754 130.898 80.4698 131.54 80.8584 132.031C81.2471 132.515 81.7788 132.757 82.4534 132.757C82.8274 132.757 83.1684 132.676 83.4764 132.515C83.7844 132.354 84.0301 132.126 84.2134 131.833C84.3968 131.54 84.4958 131.199 84.5104 130.81L84.5214 130.744H82.3214V129.446H86.0614V134H84.5984ZM93.9208 134.165C93.3195 134.165 92.7842 134.055 92.3148 133.835C91.8455 133.615 91.4715 133.303 91.1928 132.9C90.9142 132.489 90.7565 132.013 90.7198 131.47H92.3148C92.3442 131.903 92.5018 132.244 92.7878 132.493C93.0812 132.735 93.4662 132.856 93.9428 132.856C94.3388 132.856 94.6578 132.768 94.8998 132.592C95.1492 132.416 95.2738 132.148 95.2738 131.789C95.2738 131.276 94.9915 130.96 94.4268 130.843L92.6668 130.458C92.0875 130.341 91.6512 130.099 91.3578 129.732C91.0718 129.358 90.9288 128.922 90.9288 128.423C90.9288 127.968 91.0462 127.569 91.2808 127.224C91.5155 126.872 91.8418 126.604 92.2598 126.421C92.6852 126.23 93.1765 126.135 93.7338 126.135C94.3132 126.135 94.8265 126.238 95.2738 126.443C95.7285 126.648 96.0842 126.938 96.3408 127.312C96.5975 127.679 96.7368 128.1 96.7588 128.577H95.1748C95.1528 128.203 95.0135 127.921 94.7568 127.73C94.5002 127.539 94.1665 127.444 93.7558 127.444C93.3965 127.444 93.1032 127.517 92.8758 127.664C92.6558 127.811 92.5458 128.034 92.5458 128.335C92.5458 128.753 92.7695 129.013 93.2168 129.116L94.9438 129.512C95.5452 129.644 96.0145 129.882 96.3518 130.227C96.6965 130.564 96.8688 131.048 96.8688 131.679C96.8688 132.214 96.7405 132.669 96.4838 133.043C96.2272 133.417 95.8752 133.699 95.4278 133.89C94.9878 134.073 94.4855 134.165 93.9208 134.165ZM102.116 134.165C101.331 134.165 100.649 134 100.07 133.67C99.4981 133.333 99.0581 132.863 98.7501 132.262C98.4494 131.653 98.2991 130.953 98.2991 130.161C98.2991 129.369 98.4494 128.672 98.7501 128.071C99.0581 127.462 99.4981 126.989 100.07 126.652C100.649 126.307 101.331 126.135 102.116 126.135C102.901 126.135 103.583 126.304 104.162 126.641C104.741 126.978 105.185 127.451 105.493 128.06C105.801 128.661 105.955 129.358 105.955 130.15C105.955 130.942 105.801 131.642 105.493 132.251C105.185 132.852 104.741 133.322 104.162 133.659C103.583 133.996 102.901 134.165 102.116 134.165ZM102.127 132.757C102.809 132.757 103.348 132.522 103.744 132.053C104.147 131.584 104.349 130.946 104.349 130.139C104.349 129.34 104.147 128.709 103.744 128.247C103.348 127.778 102.809 127.543 102.127 127.543C101.445 127.543 100.902 127.778 100.499 128.247C100.103 128.709 99.9051 129.34 99.9051 130.139C99.9051 130.946 100.103 131.584 100.499 132.053C100.902 132.522 101.445 132.757 102.127 132.757ZM111.316 134.165C110.531 134.165 109.849 134 109.27 133.67C108.698 133.333 108.258 132.863 107.95 132.262C107.649 131.653 107.499 130.953 107.499 130.161C107.499 129.369 107.649 128.672 107.95 128.071C108.258 127.462 108.698 126.989 109.27 126.652C109.849 126.307 110.531 126.135 111.316 126.135C112.101 126.135 112.783 126.304 113.362 126.641C113.941 126.978 114.385 127.451 114.693 128.06C115.001 128.661 115.155 129.358 115.155 130.15C115.155 130.942 115.001 131.642 114.693 132.251C114.385 132.852 113.941 133.322 113.362 133.659C112.783 133.996 112.101 134.165 111.316 134.165ZM111.327 132.757C112.009 132.757 112.548 132.522 112.944 132.053C113.347 131.584 113.549 130.946 113.549 130.139C113.549 129.34 113.347 128.709 112.944 128.247C112.548 127.778 112.009 127.543 111.327 127.543C110.645 127.543 110.102 127.778 109.699 128.247C109.303 128.709 109.105 129.34 109.105 130.139C109.105 130.946 109.303 131.584 109.699 132.053C110.102 132.522 110.645 132.757 111.327 132.757ZM118.668 134H117.128V126.3H119.449L122.023 132.163H122.045V126.3H123.585V134H121.264L118.69 128.148H118.668V134Z" fill="#AEB9BF"/>
<path fill-rule="evenodd" clip-rule="evenodd" d="M35 59.1672C35 55.1983 38.3174 52 42.2913 52H125.009V80.4207C79.139 79.5892 43.2855 99.8809 35 104.994V59.1672ZM83.7434 59.8498H81.4474L74.6836 75.7977H77.9104L79.3066 72.4778H85.6981L87.0323 75.7977H90.2901L83.7434 59.8498ZM59.7906 59.8809H57.7118L54.8263 75.7977H57.8669L59.4493 66.1483L63.6069 75.9839H64.4446L68.7264 66.1483L70.1226 75.7977H73.1943L70.588 59.8809H68.4781L64.0723 70.0887L59.7906 59.8809ZM52.6544 61.6494C51.3426 60.5014 49.7726 59.9119 48.0624 59.9119C45.2526 59.9119 43.1912 61.8194 43.1911 64.4418C43.1911 66.502 44.2287 67.6538 47.0385 68.6615C48.3255 69.1294 48.9051 69.359 49.2104 69.5923C49.7726 69.9907 50.0481 70.543 50.0481 71.1747C50.0481 72.4394 49.0404 73.3776 47.659 73.3776C46.2541 73.3776 45.0726 72.633 44.3702 71.2988L42.4155 73.1915C43.8204 75.2281 45.5045 76.17 47.7521 76.17C50.9851 76.17 53.2129 74.0875 53.2129 71.0196C53.2129 69.6382 52.73 68.5039 51.8166 67.7307C51.1142 67.1449 50.4465 66.78 48.7139 66.1483C46.8871 65.4694 46.3249 65.0363 46.3249 64.1936C46.3249 63.2343 47.2867 62.4561 48.5278 62.4561C49.512 62.4561 50.2764 62.8384 51.072 63.7282L52.6544 61.6494ZM80.2994 70.0267L82.5644 64.4108L84.7363 70.0267H80.2994ZM117.83 107.689H37.8957C47.2844 102.029 81.5606 83.4192 125.024 84.2284L125.026 100.501C125.026 104.472 121.805 107.689 117.83 107.689Z" fill="#092D2E"/>
</svg>
