<svg width="160" height="160" viewBox="0 0 160 160" fill="none" xmlns="http://www.w3.org/2000/svg">
<circle cx="80" cy="80" r="80" fill="#C2F7AD"/>
<path fill-rule="evenodd" clip-rule="evenodd" d="M70.6171 86.6894V73.6892V73.6695H73.7049L73.6262 75.3806H73.7442C74.3539 73.9449 75.7109 73.5318 77.2253 73.5318C79.9984 73.5318 80.6671 75.1642 80.6671 77.6227V78.665H77.717V77.9964C77.717 76.6786 77.599 75.9116 76.124 75.9116C74.2556 75.9116 73.7049 76.9736 73.7639 78.665V86.6894H70.6171ZM67.726 86.6697H64.5792L64.7168 85.057H64.6382C64.0088 86.7877 62.0814 86.8467 60.567 86.8467C57.6169 86.8467 55.6895 86.237 55.6895 82.7165C55.6895 79.5894 57.3219 78.724 60.567 78.724C62.1601 78.724 63.7335 78.7437 64.4808 80.1991H64.5792V78.5077C64.5792 76.4033 64.4022 75.6559 61.7864 75.6559C60.4293 75.6559 59.328 75.7739 59.328 77.4653H56.1812C56.1812 73.6892 58.7969 73.5318 61.7864 73.5318C65.9756 73.5318 67.726 74.1809 67.726 78.5274V86.6697ZM64.5792 82.6772C64.5792 80.8875 63.2418 80.8285 61.688 80.8285C60.095 80.8285 58.8363 80.8285 58.8166 82.6772C58.8166 84.5063 59.564 84.6833 61.688 84.6833C63.3598 84.6833 64.5792 84.4669 64.5792 82.6772ZM53.054 86.6697H49.9072V68.1233H53.054V86.6697ZM44.0857 80.2188C44.0857 76.6983 43.8693 75.9116 41.0766 75.9116C38.2838 75.9116 38.0674 76.7573 38.0674 80.2188C38.0674 83.6802 38.2838 84.4473 41.0766 84.4473C43.8693 84.4473 44.0857 83.7392 44.0857 80.2188ZM34.9206 80.1794C34.9206 75.1446 35.609 73.5318 41.0766 73.5318C46.5441 73.5318 47.2325 75.1446 47.2325 80.1794C47.2325 85.1946 46.5441 86.8074 41.0766 86.8074C35.609 86.8074 34.9206 85.2143 34.9206 80.1794ZM32.5802 77.2097C32.5802 77.2162 32.5802 77.2228 32.5802 77.2293V77.2097H32.5802ZM26.9553 73.5515C29.5075 73.5515 32.5691 73.5907 32.5802 77.2097H29.4531C29.4531 75.6559 28.6271 75.6559 26.9553 75.6559C25.2836 75.6559 24.1429 75.6559 24.1429 77.367C24.1429 78.665 24.4772 78.7044 27.211 78.8421C27.4284 78.8517 27.6439 78.8596 27.8568 78.8674C30.6875 78.9711 33.0522 79.0578 33.0522 82.9722C33.0522 86.473 30.2791 86.827 26.9553 86.827C23.3955 86.827 20.9961 86.827 20.9961 82.5985H24.1429C24.1822 84.4866 24.6346 84.703 26.9553 84.703C27.0139 84.703 27.0717 84.703 27.1287 84.7031C28.8917 84.7048 29.9251 84.7059 29.9251 82.9722C29.9251 81.8315 29.8464 81.2808 26.68 81.2218C21.8615 81.1431 20.9961 80.5138 20.9961 77.19C20.9961 73.6302 23.5922 73.5515 26.9553 73.5515ZM134.496 82.6773H132.765C132.765 84.6377 131.573 84.6244 129.812 84.6049L129.795 84.6047C127.003 84.6047 126.924 83.7 126.924 80.8679H135.106L134.496 82.6773ZM132.765 78.8814H126.944C126.944 76.5607 127.121 75.9707 129.815 75.9707C132.372 75.9707 132.765 76.187 132.765 78.8814ZM108.338 68.1233H137.702C139.322 68.1233 138.992 69.5251 138.929 69.7911C138.923 69.819 138.919 69.8344 138.921 69.8344L135.853 78.7634C135.637 74.7513 134.457 73.5712 129.835 73.5712C124.584 73.5712 123.836 75.6363 123.836 80.3368C123.836 85.4307 124.839 87.0238 129.835 87.0238C131.093 87.0238 132.195 87.0041 133.1 86.8074L131.861 90.4459C131.271 92.157 129.461 92.157 129.461 92.157H119.804C121.535 91.4293 122.164 89.8952 122.164 86.8271V73.7089H119.037L119.155 75.6953H119.057C118.27 73.9646 116.815 73.5712 114.986 73.5712C110.148 73.5712 109.99 76.836 109.99 80.6908C109.99 84.5457 110.521 87.0238 114.986 87.0238C116.579 87.0238 118.231 86.7288 119.057 84.998H119.136V87.4958C119.136 89.7575 118.565 90.3082 115.91 90.3082C114.14 90.3082 113.471 90.0329 113.471 88.2235H110.541C110.423 90.4656 111.151 91.6063 112.37 92.1766H80.6268C78.8174 92.1766 79.4074 90.4656 79.4074 90.4656L82.4362 81.5956C82.6329 85.6864 83.8719 87.0238 88.4151 87.0238C92.1323 87.0238 94.4924 86.8271 94.4924 82.6969H91.3652C91.3652 84.6247 90.17 84.6245 88.4665 84.6243L88.4151 84.6243C85.6224 84.6243 85.5437 83.7196 85.5437 80.8875H94.4924C94.4924 75.1446 93.7843 73.5712 88.4151 73.5712C86.9597 73.5712 85.8584 73.7286 85.0127 74.0629L86.468 69.8344C87.0581 68.1233 88.8675 68.1233 88.8675 68.1233H105.191V75.479H105.073C104.405 73.8662 102.753 73.5712 101.16 73.5712C96.6755 73.5712 96.1641 75.8723 96.1641 79.9042C96.1641 83.936 96.3214 87.0238 101.16 87.0238C102.989 87.0238 104.444 86.6304 105.231 84.8997H105.329L105.211 86.8861H108.338V68.1233ZM102.084 75.9707C104.778 75.9707 105.152 77.0917 105.152 79.9042C105.152 80.0303 105.152 80.154 105.153 80.2752C105.158 83.1572 105.16 84.6235 102.084 84.6047C99.3076 84.6047 99.3088 82.9642 99.3108 80.1371C99.3108 80.0603 99.3109 79.9827 99.3109 79.9042C99.3109 76.6 99.9206 75.9707 102.084 75.9707ZM85.5633 78.8814C85.5633 76.541 85.7404 75.9707 88.4348 75.9707C90.9916 75.9707 91.3849 76.1673 91.3849 78.8814H85.5633ZM115.91 75.9707C118.624 75.9707 119.037 77.0917 119.037 79.9042C119.037 83.0313 119.037 84.6243 115.91 84.6047C113.137 84.6047 113.137 82.8739 113.137 79.9042C113.137 76.6 113.747 75.9707 115.91 75.9707Z" fill="#092D2E"/>
</svg>
