<svg width="160" height="160" viewBox="0 0 160 160" fill="none" xmlns="http://www.w3.org/2000/svg">
<circle cx="80" cy="80" r="80" fill="#C2F7AD"/>
<path fill-rule="evenodd" clip-rule="evenodd" d="M107.793 48.7406C98.3879 44.6474 89.1971 43.3501 81.1678 43.4131C73.1385 43.3501 63.9477 44.6474 54.5423 48.728C53.4187 46.7128 52.9642 45.4786 52.9642 45.4786C63.2533 41.4232 72.8733 40.0378 81.1678 40C89.4622 40.0378 99.0949 41.4232 109.371 45.4912C109.371 45.4912 109.056 46.4861 107.793 48.7406ZM86.9878 45.4534C86.9878 45.4534 96.9613 45.6549 106.897 50.2519H106.91C104.359 54.068 99.3095 55.9446 99.3095 55.9446C98.9686 52.5819 96.5952 51.7632 89.0709 51.7632L81.1804 96.0328L73.2268 51.7506C65.753 51.7632 63.3796 52.5819 63.0387 55.9446C63.0387 55.9446 57.9888 54.068 55.4386 50.2519C65.3616 45.6549 75.3478 45.4534 75.3478 45.4534L81.1678 52.5189L86.9878 45.4534ZM49 111.952C49.1767 112.657 49.7954 113.375 50.6286 113.552H53.1535L53.2798 113.602V119.975H54.8579V113.602L54.9967 113.552H57.5343C58.3802 113.338 58.9735 112.657 59.1503 111.952L49 111.94V111.952ZM90.0303 111.94H91.5958H91.6084V118.401H98.6151C98.451 119.081 98.0218 119.66 97.2391 119.987H90.0303V111.94ZM83.8947 113.526C84.728 113.287 85.4349 112.645 85.5991 111.94H76.7744V116.688H83.9957V118.35H78.3399C77.4561 118.602 76.6986 119.194 76.3199 119.987H76.7744H85.5486V115.113H78.3399V113.526H83.8947ZM103.526 119.987H101.973V115.126L110.785 115.139V119.987H109.22V116.751H103.526V119.987ZM64.6294 113.552H70.6388C71.472 113.388 72.0906 112.645 72.2674 111.94H62.9882C63.1649 112.645 63.7962 113.388 64.6168 113.552H64.6294ZM70.6388 116.725H64.6294H64.6168C63.7962 116.562 63.1649 115.819 62.9882 115.113H72.2674C72.0906 115.819 71.472 116.562 70.6388 116.725ZM64.6294 119.987H70.6388C71.472 119.824 72.0906 119.093 72.2674 118.375H62.9882C63.1649 119.093 63.7962 119.824 64.6168 119.987H64.6294ZM109.371 113.552H103.362H103.349C102.529 113.388 101.898 112.657 101.721 111.94H111C110.823 112.657 110.205 113.388 109.371 113.552Z" fill="#092D2E"/>
</svg>
