<svg width="160" height="160" viewBox="0 0 160 160" fill="none" xmlns="http://www.w3.org/2000/svg">
<circle cx="80" cy="80" r="80" fill="#C2F7AD"/>
<path d="M121.855 75.9093C121.605 73.0137 121.013 70.1488 120.149 67.3744C116.912 56.9973 109.466 47.9998 99.8485 42.9239C94.2996 39.9532 88.078 38.309 81.7984 38H78.7473C70.4479 38.2612 62.2372 41.0134 55.5 45.8741C46.2411 52.5207 39.7839 63.0702 38.4317 74.4188L38.3463 74.5229C38.307 75.6702 38.0834 76.8022 38.1107 77.9546C38.0134 79.2044 37.928 80.461 38.0936 81.709C38.3804 91.9546 42.7564 101.973 49.9102 109.291C56.0481 115.678 64.2946 119.967 73.0243 121.425C74.7675 121.73 76.5346 121.877 78.2983 122H81.7693C89.6044 121.645 97.3438 119.127 103.815 114.679C108.974 111.143 113.319 106.436 116.449 101.022C119.684 95.4717 121.583 89.1529 121.971 82.7437C121.955 80.4678 122.102 78.1749 121.855 75.9093ZM67.9091 43.938L68.4264 43.7844C68.5971 43.7229 68.7679 43.658 68.9386 43.5932C69.0342 43.571 69.2237 43.5266 69.3176 43.5027C69.975 43.2637 70.6562 43.1049 71.3306 42.929C71.5628 42.8778 71.795 42.8283 72.0238 42.7668C72.3038 42.7122 72.5872 42.6593 72.8655 42.591C73.5399 42.4459 74.228 42.3741 74.9041 42.2376C75.3582 42.1966 75.8141 42.1659 76.2597 42.0634C77.9312 41.9968 79.5993 41.7971 81.2759 41.8841C82.1211 42.0293 82.9816 41.9832 83.8335 42.0617C84.2808 42.1659 84.7418 42.1966 85.1994 42.2359C85.8772 42.3759 86.5636 42.4698 87.2465 42.5807C87.7519 42.7105 88.2624 42.8283 88.7746 42.9273C89.4456 43.1168 90.1268 43.2671 90.7841 43.501C90.8798 43.5249 91.0693 43.5727 91.1632 43.5966C91.3356 43.6563 91.5081 43.7144 91.6839 43.769C91.9468 43.868 92.203 43.9841 92.4676 44.0849C92.3071 44.3905 92.1654 44.7046 92.022 45.0171C91.8034 45.5327 91.5695 46.0415 91.3442 46.5554C91.0983 47.1137 90.8507 47.672 90.6049 48.2302C90.3795 48.7441 90.1507 49.2546 89.9236 49.7668C89.7 50.279 89.4678 50.7895 89.2424 51.3017C89.0187 51.8139 88.7865 52.3227 88.5612 52.8349C86.2545 58.0302 83.9189 63.2154 81.6054 68.4073C81.3596 68.9673 81.1154 69.5273 80.8576 70.0822C80.6596 70.5773 80.4803 71.1083 80.0535 71.4617C79.5771 71.0793 79.4183 70.4732 79.1725 69.9422C78.9454 69.43 78.7115 68.9212 78.4861 68.409C78.2676 67.8934 78.0302 67.3863 77.8049 66.8741C75.6741 62.0783 73.5143 57.2961 71.3886 52.4985C70.9516 51.5459 70.5452 50.5778 70.103 49.6268C69.8896 49.1095 69.6574 48.599 69.4235 48.092C69.1828 47.5063 68.9147 46.931 68.6654 46.3488C68.464 45.9066 68.2608 45.4627 68.0661 45.0171C67.9364 44.7115 67.7947 44.411 67.6444 44.1156C67.7315 44.0559 67.8203 43.9978 67.9091 43.938ZM61.1906 46.9463C61.3767 46.8439 61.5714 46.7602 61.7643 46.6766C64.0607 51.8839 66.4493 57.0537 68.7542 62.2576C69.0035 62.8176 69.2493 63.3776 69.4986 63.9376C69.7564 64.5163 70.0245 65.09 70.2737 65.6739C70.5264 66.2305 70.7774 66.7871 71.025 67.3471C72.5718 70.8044 74.1307 74.2583 75.6946 77.7105C75.8482 78.1732 76.3485 78.3268 76.7924 78.3166C78.9027 78.3268 81.0147 78.3149 83.1267 78.3217C83.4921 78.3046 83.9377 78.32 84.2074 78.0246C84.4379 77.7207 84.5626 77.3537 84.7231 77.0105C86.1777 73.7922 87.629 70.5722 89.0717 67.3471C89.3175 66.7871 89.5702 66.2305 89.828 65.6756C90.0722 65.09 90.3385 64.5129 90.5878 63.929C90.7961 63.4868 90.9976 63.0412 91.1956 62.5939C91.4603 61.9673 91.7573 61.3544 92.0271 60.7278C94.122 56.0532 96.2289 51.3802 98.346 46.7159C98.5509 46.7568 98.7438 46.8405 98.9231 46.9515C103.714 49.7805 107.899 53.6322 111.119 58.172C111.426 58.6176 111.716 59.0751 112.061 59.4968C111.668 60.0261 111.429 60.6441 111.139 61.2298C110.815 61.8307 110.547 62.459 110.227 63.0634C106.118 71.3473 101.986 79.621 97.897 87.9151C96.0582 91.5756 94.2791 95.2685 92.3891 98.9L91.9725 98.8863C91.4517 97.978 91.1068 96.9844 90.6663 96.0368C90.4734 95.5912 90.2873 95.1422 90.0927 94.6983C89.8912 94.2339 89.6812 93.7712 89.49 93.3017C89.2885 92.8595 89.0956 92.4139 88.9009 91.9683C87.4292 88.569 85.9319 85.1817 84.4448 81.7893C84.2928 81.3949 83.9223 81.0688 83.4767 81.1234C81.1974 81.1166 78.9181 81.1183 76.6405 81.1234C76.2222 81.0705 75.8482 81.3471 75.6895 81.7193C74.1836 85.1322 72.6845 88.5485 71.1957 91.9683C71.0028 92.4139 70.8116 92.8595 70.6118 93.3C70.4206 93.7712 70.2072 94.2322 70.0074 94.7C69.8111 95.1439 69.625 95.5912 69.4303 96.0351C69.2288 96.5012 69.0171 96.9622 68.8293 97.4334C68.6125 97.9405 68.3786 98.4424 68.1157 98.9273C67.822 98.9324 67.5744 98.8044 67.4754 98.5176C65.1415 93.8122 62.7938 89.1137 60.4599 84.4083C60.127 83.7185 59.7872 83.0305 59.4474 82.3459C59.3655 82.1854 59.2835 82.0266 59.1999 81.8678C56.2359 75.8137 53.1917 69.7971 50.2158 63.7498C49.9255 63.1846 49.6438 62.6161 49.3621 62.0476C49.1163 61.5422 48.8772 61.0317 48.6194 60.5315C48.4248 60.161 48.2284 59.7854 48.138 59.3722C51.4963 54.3322 55.9576 50.0093 61.1906 46.948V46.9463ZM116.169 91.772C114.166 97.7954 110.69 103.342 106.05 107.682C102.746 110.803 98.9043 113.366 94.7162 115.138C94.431 115.254 94.1459 115.372 93.8625 115.488C93.3588 115.686 92.8483 115.867 92.343 116.06C92.2525 116.084 92.0749 116.134 91.9861 116.158C91.8103 116.217 91.6378 116.277 91.4637 116.34C91.0266 116.479 90.5844 116.598 90.1473 116.736C89.4678 116.919 88.7831 117.081 88.1002 117.247C87.8134 117.298 87.5282 117.348 87.2465 117.416C86.958 117.465 86.6694 117.513 86.3843 117.581C84.9638 117.802 83.5347 118.003 82.0937 118.03C80.6818 118.188 79.251 118.165 77.8407 118.02C76.4509 118.013 75.0851 117.761 73.7124 117.593C73.4272 117.523 73.1387 117.469 72.8536 117.414C72.5718 117.349 72.2867 117.296 72.0033 117.247C71.3186 117.083 70.634 116.919 69.9545 116.736C69.5174 116.598 69.0718 116.482 68.633 116.344C68.4605 116.291 68.2898 116.236 68.1191 116.181C67.9483 116.118 67.7776 116.057 67.6069 115.995C67.3627 115.912 67.1186 115.823 66.8761 115.741C66.6644 115.654 66.4527 115.574 66.2427 115.487C65.9559 115.376 65.6724 115.258 65.3873 115.143C58.1106 112.038 51.8292 106.627 47.6992 99.8783C47.2313 99.1339 46.8233 98.3554 46.3828 97.5956C46.364 97.5495 46.3299 97.4556 46.3128 97.4095C41.6859 88.6185 40.752 77.9632 43.8218 68.5115C44.0249 67.9327 44.1598 67.3215 44.4893 66.7956C45.3601 68.5234 46.2138 70.2598 47.0691 71.9961C47.1528 72.1549 47.2365 72.3137 47.3235 72.4724C47.4038 72.6517 47.4857 72.8327 47.5643 73.0137C47.7692 73.4012 47.957 73.7973 48.1619 74.1849C48.3599 74.5895 48.5631 74.9907 48.756 75.3971C48.7987 75.4824 48.8841 75.6549 48.925 75.742C51.6875 81.3949 54.5525 86.9966 57.3235 92.6444C57.5011 92.9824 57.6667 93.3256 57.8357 93.6688C57.974 93.942 58.1106 94.2151 58.2523 94.4883C58.3394 94.671 58.4247 94.8537 58.5084 95.0398C58.6245 95.2651 58.7372 95.4922 58.8482 95.721C58.9626 95.9463 59.0804 96.17 59.1879 96.3988C59.2306 96.4859 59.3143 96.6583 59.3569 96.7437C59.5874 97.1961 59.8162 97.6502 60.0348 98.1095C60.1457 98.3349 60.2584 98.562 60.366 98.7907C62.4643 103.056 64.6122 107.298 66.7242 111.558C66.9188 111.918 67.1647 112.306 67.5761 112.441C68.1327 112.664 68.7901 112.415 69.1213 111.932C69.4286 111.456 69.6096 110.914 69.8503 110.407C70.0979 109.823 70.3677 109.251 70.6101 108.668C70.8099 108.225 71.0113 107.783 71.2111 107.343C73.755 101.582 76.3434 95.8422 78.9061 90.0902C79.2015 89.4398 79.4371 88.7585 79.7973 88.1405C80.0364 87.968 80.3044 88.1183 80.4513 88.3283C80.6391 88.8593 80.8815 89.368 81.1103 89.882C81.3271 90.3993 81.5662 90.9063 81.7898 91.4202C84.327 97.1261 86.8914 102.82 89.42 108.529C89.6641 109.089 89.9134 109.649 90.1695 110.204C90.528 110.931 90.6971 111.838 91.3988 112.331C92.08 112.779 93.0139 112.395 93.3076 111.669C95.4333 107.428 97.5692 103.192 99.6538 98.9307C99.9321 98.3588 100.222 97.7937 100.497 97.22C100.579 97.0612 100.663 96.9024 100.745 96.7437C100.788 96.6583 100.871 96.4859 100.912 96.4005C101.02 96.17 101.136 95.9446 101.248 95.7193C101.356 95.4871 101.467 95.2583 101.583 95.0329C101.696 94.8024 101.805 94.572 101.925 94.3466C101.967 94.2612 102.051 94.0922 102.094 94.0068C104.871 88.3693 107.713 82.7624 110.495 77.1283C110.637 76.8329 110.782 76.5393 110.914 76.2388C110.997 76.0766 111.081 75.9127 111.166 75.7522C111.211 75.6634 111.298 75.4876 111.342 75.3988C111.426 75.2246 111.508 75.0488 111.588 74.8729C111.675 74.7107 111.762 74.5468 111.849 74.3846C112.07 73.9271 112.297 73.4729 112.519 73.0171C112.739 72.5578 112.968 72.1037 113.2 71.6495C113.994 69.9968 114.858 68.3766 115.619 66.7085C118.722 74.6544 118.831 83.6861 116.169 91.772Z" fill="#092D2E"/>
</svg>
