<svg width="1123" height="470" viewBox="0 0 1123 470" fill="none" xmlns="http://www.w3.org/2000/svg">
<path d="M79.148 120C85.196 120 88.696 116.304 88.696 110.2C88.696 104.096 85.196 100.4 79.148 100.4H73.492V120H79.148ZM75.676 102.444H78.924C83.656 102.444 86.456 105.132 86.456 110.2C86.456 115.268 83.656 117.956 78.924 117.956H75.676V102.444ZM96.1626 120.42C98.1226 120.42 99.9986 119.496 101.259 117.424H101.315L101.343 118.236C101.483 119.328 102.155 120 103.331 120H105.067V118.068H104.507C103.611 118.068 103.387 117.844 103.387 116.948V109.024C103.387 106.168 100.615 105.188 98.0106 105.188C94.3986 105.188 92.1306 107.092 91.7666 109.78H94.0626C94.3706 108.24 95.4626 107.148 98.0666 107.148C99.4946 107.148 101.203 107.484 101.203 109.024C101.203 109.892 100.643 110.424 99.4106 110.676L95.7706 111.404C92.9706 111.964 91.4586 113.588 91.4586 115.912C91.4586 118.404 93.1946 120.42 96.1626 120.42ZM96.4986 118.488C94.7346 118.488 93.7266 117.368 93.7266 115.8C93.7266 114.232 94.7626 113.448 96.2466 113.168L99.1866 112.58C100.111 112.356 100.727 112.132 101.147 111.796H101.203V113.14C101.203 116.864 98.6266 118.488 96.4986 118.488ZM114.3 120L119.564 105.608H117.212L112.76 118.124H112.704L108.224 105.608H105.872L111.164 120H114.3ZM124.342 103.676V100.4H121.962V103.676H124.342ZM124.258 120V105.58H122.074V120H124.258ZM133.902 120.42C135.974 120.42 137.738 119.44 138.718 117.704H138.774V120H140.846V100.4H138.662V107.82H138.578C137.682 106.224 136.002 105.188 133.902 105.188C130.178 105.188 127.658 108.212 127.658 112.776C127.658 117.2 130.038 120.42 133.902 120.42ZM134.35 118.404C131.578 118.404 129.926 116.164 129.926 112.776C129.926 109.416 131.578 107.176 134.35 107.176C137.402 107.176 138.774 109.836 138.774 112.776C138.774 115.744 137.402 118.404 134.35 118.404ZM165.192 120V117.956H153.824V109.304H162.532V107.26H153.824V102.444H164.912V100.4H151.64V120H165.192ZM170.958 120V112.636C170.958 109.304 173.086 107.232 175.55 107.232C177.454 107.232 178.406 108.492 178.406 110.34V120H180.59V109.78C180.59 106.672 178.63 105.188 176.11 105.188C173.982 105.188 171.966 106.28 170.93 108.156H170.874V105.608H168.774V120H170.958ZM195.223 114.904C194.831 117.284 192.955 118.404 190.911 118.404C188.111 118.404 185.927 116.416 185.815 112.832H196.903V111.936C196.903 107.68 194.215 105.188 190.463 105.188C186.627 105.188 183.631 107.876 183.631 112.524C183.631 116.92 186.375 120.42 190.855 120.42C194.187 120.42 196.875 118.516 197.463 114.904H195.223ZM190.463 107.12C192.563 107.12 194.495 108.184 194.607 110.984H185.955C186.459 108.38 188.223 107.12 190.463 107.12ZM202.841 120V111.124C202.841 108.912 203.597 107.904 205.781 107.904H208.357V105.608H206.089C204.325 105.608 203.345 106.392 202.897 107.428H202.841V105.608H200.657V120H202.841ZM214.111 115.1C214.839 115.1 215.567 115.38 216.883 115.38C220.383 115.38 222.567 113.28 222.567 110.172V109.024C222.567 108.184 222.847 107.904 223.659 107.904H224.639V105.608H223.043C221.895 105.608 221.363 106.056 221.279 107.064C220.411 106.056 218.871 105.188 216.659 105.188C213.215 105.188 210.891 107.344 210.891 110.228C210.891 111.824 211.591 113.084 212.319 113.784V113.84C211.255 114.12 210.387 114.988 210.387 116.248C210.387 117.312 210.975 118.096 211.703 118.46V118.516C210.583 119.16 209.799 120.28 209.799 121.904C209.799 124.788 211.815 126.44 214.671 126.44H219.067C221.783 126.44 223.827 124.816 223.827 121.904C223.827 118.992 221.895 117.452 219.067 117.452H214.111C213.215 117.452 212.655 116.948 212.655 116.248C212.655 115.52 213.215 115.1 214.111 115.1ZM216.743 107.064C218.759 107.064 220.355 108.212 220.355 110.284C220.355 112.384 218.759 113.504 216.743 113.504C214.699 113.504 213.103 112.384 213.103 110.284C213.103 108.212 214.699 107.064 216.743 107.064ZM218.731 119.384C220.523 119.384 221.615 120.224 221.615 121.904C221.615 123.556 220.439 124.508 218.731 124.508H215.007C213.159 124.508 212.011 123.528 212.011 121.904C212.011 120.224 213.187 119.384 215.007 119.384H218.731ZM240.23 105.608H237.85L233.678 116.92H233.622L228.974 105.608H226.622L232.166 118.88C232.474 119.636 232.39 120.252 232.166 120.84L231.214 123.36C230.934 124.06 230.598 124.48 229.674 124.48H227.658V126.44H229.926C231.83 126.44 232.614 125.628 233.174 124.2L240.23 105.608Z" fill="#092D2E"/>
<path d="M84.748 194V191.956H75.676V174.4H73.492V194H84.748ZM93.6168 194.42C97.9008 194.42 100.645 191.284 100.645 186.804C100.645 182.324 97.9008 179.188 93.6168 179.188C89.3048 179.188 86.5608 182.324 86.5608 186.776C86.5608 191.256 89.3048 194.42 93.6168 194.42ZM93.6168 192.404C90.9568 192.404 88.8288 190.584 88.8288 186.804C88.8288 182.996 90.9568 181.176 93.6168 181.176C96.2768 181.176 98.4048 182.996 98.4048 186.804C98.4048 190.584 96.2768 192.404 93.6168 192.404ZM110.214 194.42C113.826 194.42 116.346 192.236 116.738 188.68H114.442C114.218 191.256 112.314 192.404 110.186 192.404C107.554 192.404 105.426 190.584 105.426 186.804C105.426 182.996 107.554 181.176 110.298 181.176C112.342 181.176 114.022 182.24 114.302 184.424H116.598C116.234 181.204 113.854 179.188 110.298 179.188C105.902 179.188 103.158 182.324 103.158 186.776C103.158 191.256 105.902 194.42 110.214 194.42ZM124.108 194.42C126.068 194.42 127.944 193.496 129.204 191.424H129.26L129.288 192.236C129.428 193.328 130.1 194 131.276 194H133.012V192.068H132.452C131.556 192.068 131.332 191.844 131.332 190.948V183.024C131.332 180.168 128.56 179.188 125.956 179.188C122.344 179.188 120.076 181.092 119.712 183.78H122.008C122.316 182.24 123.408 181.148 126.012 181.148C127.44 181.148 129.148 181.484 129.148 183.024C129.148 183.892 128.588 184.424 127.356 184.676L123.716 185.404C120.916 185.964 119.404 187.588 119.404 189.912C119.404 192.404 121.14 194.42 124.108 194.42ZM124.444 192.488C122.68 192.488 121.672 191.368 121.672 189.8C121.672 188.232 122.708 187.448 124.192 187.168L127.132 186.58C128.056 186.356 128.672 186.132 129.092 185.796H129.148V187.14C129.148 190.864 126.572 192.488 124.444 192.488ZM138.615 194V174.4H136.431V194H138.615ZM156.678 194.42C161.83 194.42 164.21 191.816 164.21 187.476V174.4H162.026V187.336C162.026 190.808 160.29 192.376 156.678 192.376C153.206 192.376 151.33 190.808 151.33 187.336V174.4H149.146V187.476C149.146 191.816 151.638 194.42 156.678 194.42ZM180.15 177.676H182.502V174.4H180.15V177.676ZM180.234 179.608H173.262V175.8H171.078V179.608H167.242V181.372H171.078V191.06C171.078 193.104 172.002 194 174.046 194H177.322V192.04H174.69C173.626 192.04 173.262 191.676 173.262 190.612V181.372H180.234V194H182.418V179.58H180.234V179.608ZM188.982 194V174.4H186.798V194H188.982ZM195.654 177.676V174.4H193.274V177.676H195.654ZM195.57 194V179.58H193.386V194H195.57ZM216.806 190.92H216.75L212.13 179.608H204.57V175.8H202.386V179.608H198.55V181.372H202.386V191.06C202.386 193.104 203.31 194 205.354 194H208.63V192.04H205.998C204.934 192.04 204.57 191.676 204.57 190.612V181.372H210.478L215.294 192.88C215.602 193.636 215.518 194.252 215.294 194.84L214.342 197.36C214.062 198.06 213.754 198.48 212.802 198.48H210.786V200.44H213.054C214.958 200.44 215.77 199.628 216.302 198.2L223.358 179.608H220.978L216.806 190.92Z" fill="#83939C"/>
<path d="M75.676 268V250.192H75.732L84.72 268H88.444V248.4H86.26V266.236H86.204L77.216 248.4H73.492V268H75.676ZM95.6096 268V257.864H102.078C104.122 257.864 104.738 259.096 104.906 260.412L105.914 268H108.098V267.832L107.006 259.74C106.838 258.564 106.39 257.696 105.522 257.136V257.08C106.558 256.632 107.79 255.344 107.79 252.964C107.79 250.248 106.138 248.4 102.806 248.4H93.4256V268H95.6096ZM95.6096 250.416H102.61C104.458 250.416 105.578 251.2 105.578 253.16C105.578 255.092 104.458 255.876 102.75 255.876H95.6096V250.416ZM129.102 268V256.492H119.89V258.564H126.918V259.068C126.918 263.324 124.034 266.376 120.002 266.376C115.69 266.376 113.03 262.848 113.03 258.172C113.03 253.468 115.69 250.024 120.338 250.024C123.138 250.024 125.322 251.34 126.162 253.776H128.57C127.618 250.164 124.566 247.98 120.282 247.98C114.206 247.98 110.818 252.376 110.818 258.256C110.818 264.136 114.206 268.42 119.694 268.42C123.082 268.42 125.63 266.768 126.974 264.276H127.03V268H129.102Z" fill="#83939C"/>
<path d="M79.96 342.42C83.852 342.42 86.932 340.264 86.932 336.4C86.932 333.32 85.056 331.836 82.396 331.22L77.44 330.016C75.732 329.596 75.172 328.476 75.172 327.244C75.172 324.948 77.16 323.996 79.484 323.996C82.172 323.996 84.244 325.312 84.328 328H86.596C86.456 324.36 83.516 321.98 79.456 321.98C75.452 321.98 72.904 324.192 72.904 327.3C72.904 329.512 74.22 331.416 76.908 332.032L81.808 333.18C83.908 333.684 84.664 334.944 84.664 336.54C84.664 339.284 82.48 340.404 79.988 340.404C76.992 340.404 74.724 338.892 74.528 335.756H72.26C72.512 339.844 75.704 342.42 79.96 342.42ZM100.915 336.904C100.523 339.284 98.6465 340.404 96.6025 340.404C93.8025 340.404 91.6185 338.416 91.5065 334.832H102.595V333.936C102.595 329.68 99.9065 327.188 96.1545 327.188C92.3185 327.188 89.3225 329.876 89.3225 334.524C89.3225 338.92 92.0665 342.42 96.5465 342.42C99.8785 342.42 102.567 340.516 103.155 336.904H100.915ZM96.1545 329.12C98.2545 329.12 100.187 330.184 100.299 332.984H91.6465C92.1505 330.38 93.9145 329.12 96.1545 329.12ZM108.533 342V334.636C108.533 331.304 110.661 329.232 113.125 329.232C115.029 329.232 115.981 330.492 115.981 332.34V342H118.165V331.78C118.165 328.672 116.205 327.188 113.685 327.188C111.557 327.188 109.541 328.28 108.505 330.156H108.449V327.608H106.349V342H108.533ZM127.225 342.42C130.501 342.42 132.685 340.572 132.685 337.884C132.685 336.036 131.677 334.468 129.157 333.992L125.657 333.32C124.257 333.04 123.781 332.228 123.781 331.304C123.781 329.848 125.041 329.12 126.833 329.12C128.765 329.12 130.137 330.016 130.221 331.668H132.489C132.265 328.588 129.661 327.188 126.861 327.188C123.781 327.188 121.541 328.868 121.541 331.388C121.541 333.124 122.633 334.72 125.125 335.196L128.569 335.84C129.913 336.092 130.473 336.848 130.473 337.912C130.473 339.732 128.905 340.488 127.281 340.488C125.181 340.488 123.585 339.396 123.333 337.408H121.065C121.373 340.432 123.697 342.42 127.225 342.42ZM146.661 336.904C146.269 339.284 144.393 340.404 142.349 340.404C139.549 340.404 137.365 338.416 137.253 334.832H148.341V333.936C148.341 329.68 145.653 327.188 141.901 327.188C138.065 327.188 135.069 329.876 135.069 334.524C135.069 338.92 137.813 342.42 142.293 342.42C145.625 342.42 148.313 340.516 148.901 336.904H146.661ZM141.901 329.12C144.001 329.12 145.933 330.184 146.045 332.984H137.393C137.897 330.38 139.661 329.12 141.901 329.12Z" fill="#83939C"/>
<path d="M81.752 416.42C79.8293 416.42 78.1587 415.991 76.74 415.132C75.34 414.273 74.2667 413.079 73.52 411.548C72.7733 410.017 72.4 408.253 72.4 406.256C72.4 404.259 72.7733 402.485 73.52 400.936C74.2667 399.387 75.3493 398.173 76.768 397.296C78.1867 396.419 79.848 395.98 81.752 395.98C83.6747 395.98 85.3453 396.419 86.764 397.296C88.1827 398.155 89.2653 399.359 90.012 400.908C90.7773 402.439 91.16 404.203 91.16 406.2C91.16 408.197 90.7773 409.971 90.012 411.52C89.2653 413.051 88.1827 414.255 86.764 415.132C85.3453 415.991 83.6747 416.42 81.752 416.42ZM81.78 414.376C83.2173 414.376 84.468 414.031 85.532 413.34C86.6147 412.649 87.4453 411.688 88.024 410.456C88.6027 409.224 88.892 407.796 88.892 406.172C88.892 404.548 88.6027 403.129 88.024 401.916C87.4453 400.684 86.6147 399.732 85.532 399.06C84.468 398.369 83.2173 398.024 81.78 398.024C80.3427 398.024 79.0827 398.369 78 399.06C76.936 399.732 76.1147 400.684 75.536 401.916C74.9573 403.129 74.668 404.548 74.668 406.172C74.668 407.777 74.9573 409.205 75.536 410.456C76.1147 411.688 76.936 412.649 78 413.34C79.0827 414.031 80.3427 414.376 81.78 414.376ZM102.095 401.188C103.42 401.188 104.494 401.58 105.315 402.364C106.155 403.148 106.575 404.287 106.575 405.78V416H104.391V406.34C104.391 405.388 104.148 404.632 103.663 404.072C103.178 403.512 102.468 403.232 101.535 403.232C100.714 403.232 99.9482 403.456 99.2389 403.904C98.5482 404.333 97.9882 404.959 97.5589 405.78C97.1482 406.601 96.9429 407.553 96.9429 408.636V416H94.7589V396.4H96.8589V404.156H96.9149C97.4189 403.223 98.1375 402.495 99.0709 401.972C100.004 401.449 101.012 401.188 102.095 401.188ZM110.423 416V401.608H112.607V403.736H112.663C113.186 402.877 113.858 402.243 114.679 401.832C115.5 401.403 116.396 401.188 117.367 401.188C118.412 401.188 119.271 401.421 119.943 401.888C120.615 402.355 121.128 402.971 121.483 403.736H121.539C122.08 402.877 122.762 402.243 123.583 401.832C124.423 401.403 125.319 401.188 126.271 401.188C127.783 401.188 128.922 401.655 129.687 402.588C130.471 403.521 130.863 404.744 130.863 406.256V416H128.679V406.676C128.679 405.519 128.436 404.66 127.951 404.1C127.484 403.521 126.766 403.232 125.795 403.232C124.563 403.232 123.574 403.661 122.827 404.52C122.08 405.379 121.707 406.461 121.707 407.768V416H119.579V407.292C119.579 405.985 119.346 404.987 118.879 404.296C118.412 403.587 117.638 403.232 116.555 403.232C115.267 403.232 114.287 403.727 113.615 404.716C112.943 405.687 112.607 406.965 112.607 408.552V416H110.423ZM143.412 416.42C141.489 416.42 139.819 415.991 138.4 415.132C137 414.273 135.927 413.079 135.18 411.548C134.433 410.017 134.06 408.253 134.06 406.256C134.06 404.259 134.433 402.485 135.18 400.936C135.945 399.387 137.037 398.173 138.456 397.296C139.875 396.419 141.545 395.98 143.468 395.98C145.708 395.98 147.584 396.549 149.096 397.688C150.608 398.827 151.569 400.413 151.98 402.448H149.572C149.255 401.029 148.555 399.937 147.472 399.172C146.389 398.407 145.064 398.024 143.496 398.024C142.04 398.024 140.771 398.369 139.688 399.06C138.605 399.732 137.775 400.684 137.196 401.916C136.617 403.129 136.328 404.548 136.328 406.172C136.328 407.777 136.617 409.205 137.196 410.456C137.775 411.688 138.596 412.649 139.66 413.34C140.743 414.031 142.003 414.376 143.44 414.376C145.419 414.376 146.987 413.741 148.144 412.472C149.301 411.203 149.983 409.541 150.188 407.488H152.484C152.335 409.224 151.877 410.764 151.112 412.108C150.365 413.452 149.339 414.507 148.032 415.272C146.725 416.037 145.185 416.42 143.412 416.42ZM162.195 416.42C160.776 416.42 159.535 416.103 158.471 415.468C157.407 414.815 156.586 413.909 156.007 412.752C155.428 411.595 155.139 410.269 155.139 408.776C155.139 407.301 155.428 405.995 156.007 404.856C156.586 403.699 157.407 402.803 158.471 402.168C159.535 401.515 160.776 401.188 162.195 401.188C163.595 401.188 164.827 401.515 165.891 402.168C166.955 402.803 167.776 403.699 168.355 404.856C168.934 405.995 169.223 407.311 169.223 408.804C169.223 410.297 168.934 411.623 168.355 412.78C167.776 413.919 166.955 414.815 165.891 415.468C164.827 416.103 163.595 416.42 162.195 416.42ZM162.195 414.404C163.595 414.404 164.743 413.928 165.639 412.976C166.535 412.005 166.983 410.615 166.983 408.804C166.983 406.975 166.535 405.584 165.639 404.632C164.743 403.661 163.595 403.176 162.195 403.176C160.795 403.176 159.647 403.661 158.751 404.632C157.855 405.584 157.407 406.975 157.407 408.804C157.407 410.615 157.855 412.005 158.751 412.976C159.647 413.928 160.795 414.404 162.195 414.404ZM172.521 416V401.608H174.621V404.156H174.677C175.181 403.223 175.899 402.495 176.833 401.972C177.766 401.449 178.774 401.188 179.857 401.188C181.182 401.188 182.255 401.58 183.077 402.364C183.917 403.148 184.337 404.287 184.337 405.78V416H182.153V406.34C182.153 405.388 181.91 404.632 181.425 404.072C180.939 403.512 180.23 403.232 179.297 403.232C178.475 403.232 177.71 403.456 177.001 403.904C176.31 404.333 175.75 404.959 175.321 405.78C174.91 406.601 174.705 407.553 174.705 408.636V416H172.521ZM188.161 416V401.608H190.261V404.156H190.317C190.821 403.223 191.54 402.495 192.473 401.972C193.407 401.449 194.415 401.188 195.497 401.188C196.823 401.188 197.896 401.58 198.717 402.364C199.557 403.148 199.977 404.287 199.977 405.78V416H197.793V406.34C197.793 405.388 197.551 404.632 197.065 404.072C196.58 403.512 195.871 403.232 194.937 403.232C194.116 403.232 193.351 403.456 192.641 403.904C191.951 404.333 191.391 404.959 190.961 405.78C190.551 406.601 190.345 407.553 190.345 408.636V416H188.161ZM216.85 410.904C216.57 412.659 215.823 414.021 214.61 414.992C213.415 415.944 211.959 416.42 210.242 416.42C208.786 416.42 207.507 416.075 206.406 415.384C205.323 414.675 204.483 413.723 203.886 412.528C203.307 411.333 203.018 409.999 203.018 408.524C203.018 407.012 203.316 405.705 203.914 404.604C204.511 403.503 205.323 402.663 206.35 402.084C207.395 401.487 208.562 401.188 209.85 401.188C211.1 401.188 212.211 401.459 213.182 402C214.152 402.541 214.908 403.325 215.45 404.352C216.01 405.36 216.29 406.555 216.29 407.936V408.832H205.202C205.258 410.568 205.762 411.931 206.714 412.92C207.666 413.909 208.86 414.404 210.298 414.404C211.38 414.404 212.323 414.105 213.126 413.508C213.928 412.911 214.423 412.043 214.61 410.904H216.85ZM209.85 403.12C208.692 403.12 207.712 403.447 206.91 404.1C206.107 404.753 205.584 405.715 205.342 406.984H213.994C213.938 405.677 213.518 404.707 212.734 404.072C211.968 403.437 211.007 403.12 209.85 403.12ZM226.316 416.42C224.897 416.42 223.656 416.103 222.592 415.468C221.528 414.815 220.707 413.909 220.128 412.752C219.549 411.595 219.26 410.269 219.26 408.776C219.26 407.301 219.549 405.995 220.128 404.856C220.707 403.699 221.537 402.803 222.62 402.168C223.703 401.515 224.963 401.188 226.4 401.188C228.173 401.188 229.62 401.655 230.74 402.588C231.86 403.521 232.513 404.8 232.7 406.424H230.404C230.273 405.379 229.835 404.576 229.088 404.016C228.36 403.456 227.464 403.176 226.4 403.176C224.963 403.176 223.787 403.661 222.872 404.632C221.976 405.584 221.528 406.975 221.528 408.804C221.528 410.615 221.976 412.005 222.872 412.976C223.768 413.928 224.907 414.404 226.288 414.404C227.427 414.404 228.388 414.096 229.172 413.48C229.975 412.845 230.432 411.912 230.544 410.68H232.84C232.653 412.453 231.972 413.853 230.796 414.88C229.62 415.907 228.127 416.42 226.316 416.42ZM241.366 416C240.339 416 239.583 415.767 239.098 415.3C238.631 414.833 238.398 414.087 238.398 413.06V403.372H234.562V401.608H238.398V397.8H240.582V401.608H244.642V403.372H240.582V412.612C240.582 413.135 240.685 413.508 240.89 413.732C241.114 413.937 241.487 414.04 242.01 414.04H244.642V416H241.366Z" fill="#83939C"/>
<path d="M346.627 28.856H337.267V16.256H346.447V18.524H339.787V20.702H344.917V22.97H339.787V26.588H346.627V28.856ZM352.829 28.856H350.309V16.256H354.107L358.319 25.85H358.355V16.256H360.875V28.856H357.077L352.865 19.28H352.829V28.856ZM374.521 28.856H365.161V16.256H374.341V18.524H367.681V20.702H372.811V22.97H367.681V26.588H374.521V28.856ZM378.202 28.856V16.256H384.718C385.834 16.256 386.692 16.544 387.292 17.12C387.904 17.696 388.21 18.5 388.21 19.532C388.21 20.24 388.072 20.816 387.796 21.26C387.532 21.692 387.19 22.004 386.77 22.196V22.232C387.238 22.556 387.52 23.048 387.616 23.708L388.354 28.712V28.856H385.834L385.15 24.248C385.042 23.432 384.592 23.024 383.8 23.024H380.722V28.856H378.202ZM384.34 20.936C385.204 20.936 385.636 20.534 385.636 19.73C385.636 18.914 385.204 18.506 384.34 18.506H380.722V20.936H384.34ZM400.982 28.856V27.236H400.946C400.514 27.836 399.944 28.304 399.236 28.64C398.54 28.964 397.754 29.126 396.878 29.126C395.762 29.126 394.784 28.856 393.944 28.316C393.104 27.764 392.45 26.996 391.982 26.012C391.526 25.028 391.298 23.888 391.298 22.592C391.298 21.284 391.538 20.132 392.018 19.136C392.51 18.14 393.224 17.366 394.16 16.814C395.096 16.262 396.212 15.986 397.508 15.986C398.996 15.986 400.232 16.34 401.216 17.048C402.2 17.744 402.818 18.704 403.07 19.928H400.208C400.004 19.412 399.674 19.01 399.218 18.722C398.762 18.434 398.198 18.29 397.526 18.29C396.386 18.29 395.498 18.674 394.862 19.442C394.226 20.198 393.908 21.212 393.908 22.484C393.908 23.78 394.226 24.83 394.862 25.634C395.498 26.426 396.368 26.822 397.472 26.822C398.084 26.822 398.642 26.69 399.146 26.426C399.65 26.162 400.052 25.79 400.352 25.31C400.652 24.83 400.814 24.272 400.838 23.636L400.856 23.528H397.256V21.404H403.376V28.856H400.982ZM412.135 28.856H409.615V23.276L405.133 16.256H408.157L410.857 20.684H410.893L413.593 16.256H416.599L412.135 23.24V28.856ZM333.935 49.126C332.951 49.126 332.075 48.946 331.307 48.586C330.539 48.226 329.927 47.716 329.471 47.056C329.015 46.384 328.757 45.604 328.697 44.716H331.307C331.355 45.424 331.613 45.982 332.081 46.39C332.561 46.786 333.191 46.984 333.971 46.984C334.619 46.984 335.141 46.84 335.537 46.552C335.945 46.264 336.149 45.826 336.149 45.238C336.149 44.398 335.687 43.882 334.763 43.69L331.883 43.06C330.935 42.868 330.221 42.472 329.741 41.872C329.273 41.26 329.039 40.546 329.039 39.73C329.039 38.986 329.231 38.332 329.615 37.768C329.999 37.192 330.533 36.754 331.217 36.454C331.913 36.142 332.717 35.986 333.629 35.986C334.577 35.986 335.417 36.154 336.149 36.49C336.893 36.826 337.475 37.3 337.895 37.912C338.315 38.512 338.543 39.202 338.579 39.982H335.987C335.951 39.37 335.723 38.908 335.303 38.596C334.883 38.284 334.337 38.128 333.665 38.128C333.077 38.128 332.597 38.248 332.225 38.488C331.865 38.728 331.685 39.094 331.685 39.586C331.685 40.27 332.051 40.696 332.783 40.864L335.609 41.512C336.593 41.728 337.361 42.118 337.913 42.682C338.477 43.234 338.759 44.026 338.759 45.058C338.759 45.934 338.549 46.678 338.129 47.29C337.709 47.902 337.133 48.364 336.401 48.676C335.681 48.976 334.859 49.126 333.935 49.126ZM347.184 49.126C345.468 49.126 344.172 48.718 343.296 47.902C342.42 47.086 341.982 45.952 341.982 44.5V36.256H344.502V44.302C344.502 45.154 344.718 45.79 345.15 46.21C345.582 46.618 346.26 46.822 347.184 46.822C348.12 46.822 348.798 46.618 349.218 46.21C349.65 45.802 349.866 45.166 349.866 44.302V36.256H352.386V44.5C352.386 45.964 351.954 47.104 351.09 47.92C350.226 48.724 348.924 49.126 347.184 49.126ZM356.487 48.856V36.256H363.021C364.125 36.256 364.989 36.586 365.613 37.246C366.249 37.894 366.567 38.764 366.567 39.856C366.567 40.936 366.255 41.776 365.631 42.376C365.007 42.964 364.137 43.258 363.021 43.258H359.007V48.856H356.487ZM362.661 41.062C363.561 41.062 364.011 40.642 364.011 39.802C364.011 39.37 363.891 39.052 363.651 38.848C363.423 38.632 363.093 38.524 362.661 38.524H359.007V41.062H362.661ZM370.073 48.856V36.256H376.607C377.711 36.256 378.575 36.586 379.199 37.246C379.835 37.894 380.153 38.764 380.153 39.856C380.153 40.936 379.841 41.776 379.217 42.376C378.593 42.964 377.723 43.258 376.607 43.258H372.593V48.856H370.073ZM376.247 41.062C377.147 41.062 377.597 40.642 377.597 39.802C377.597 39.37 377.477 39.052 377.237 38.848C377.009 38.632 376.679 38.524 376.247 38.524H372.593V41.062H376.247ZM391.616 48.856H383.66V36.256H386.18V46.588H391.616V48.856ZM397.534 48.856H395.014V36.256H397.534V48.856ZM411.193 48.856H401.833V36.256H411.013V38.524H404.353V40.702H409.483V42.97H404.353V46.588H411.193V48.856ZM414.874 48.856V36.256H421.39C422.506 36.256 423.364 36.544 423.964 37.12C424.576 37.696 424.882 38.5 424.882 39.532C424.882 40.24 424.744 40.816 424.468 41.26C424.204 41.692 423.862 42.004 423.442 42.196V42.232C423.91 42.556 424.192 43.048 424.288 43.708L425.026 48.712V48.856H422.506L421.822 44.248C421.714 43.432 421.264 43.024 420.472 43.024H417.394V48.856H414.874ZM421.012 40.936C421.876 40.936 422.308 40.534 422.308 39.73C422.308 38.914 421.876 38.506 421.012 38.506H417.394V40.936H421.012Z" fill="#25444A"/>
<path d="M514.252 28.856V16.256H520.426C521.602 16.256 522.502 16.532 523.126 17.084C523.75 17.624 524.062 18.35 524.062 19.262C524.062 19.874 523.936 20.39 523.684 20.81C523.444 21.23 523.126 21.554 522.73 21.782V21.818C523.198 22.07 523.588 22.436 523.9 22.916C524.224 23.396 524.386 24.026 524.386 24.806C524.386 25.562 524.218 26.246 523.882 26.858C523.546 27.47 523.036 27.956 522.352 28.316C521.668 28.676 520.828 28.856 519.832 28.856H514.252ZM520.264 20.882C520.696 20.882 521.02 20.792 521.236 20.612C521.464 20.42 521.578 20.102 521.578 19.658C521.578 19.226 521.464 18.92 521.236 18.74C521.02 18.548 520.696 18.452 520.264 18.452H516.772V20.882H520.264ZM519.472 26.66C521.008 26.66 521.776 26.036 521.776 24.788C521.776 23.588 521.086 22.988 519.706 22.988H516.772V26.66H519.472ZM530.517 28.856H527.997V16.256H530.517V28.856ZM542.772 28.856H534.816V16.256H537.336V26.588H542.772V28.856ZM554.108 28.856H546.152V16.256H548.672V26.588H554.108V28.856ZM560.027 28.856H557.507V16.256H560.027V28.856ZM566.845 28.856H564.325V16.256H568.123L572.335 25.85H572.371V16.256H574.891V28.856H571.093L566.881 19.28H566.845V28.856ZM588.159 28.856V27.236H588.123C587.691 27.836 587.121 28.304 586.413 28.64C585.717 28.964 584.931 29.126 584.055 29.126C582.939 29.126 581.961 28.856 581.121 28.316C580.281 27.764 579.627 26.996 579.159 26.012C578.703 25.028 578.475 23.888 578.475 22.592C578.475 21.284 578.715 20.132 579.195 19.136C579.687 18.14 580.401 17.366 581.337 16.814C582.273 16.262 583.389 15.986 584.685 15.986C586.173 15.986 587.409 16.34 588.393 17.048C589.377 17.744 589.995 18.704 590.247 19.928H587.385C587.181 19.412 586.851 19.01 586.395 18.722C585.939 18.434 585.375 18.29 584.703 18.29C583.563 18.29 582.675 18.674 582.039 19.442C581.403 20.198 581.085 21.212 581.085 22.484C581.085 23.78 581.403 24.83 582.039 25.634C582.675 26.426 583.545 26.822 584.649 26.822C585.261 26.822 585.819 26.69 586.323 26.426C586.827 26.162 587.229 25.79 587.529 25.31C587.829 24.83 587.991 24.272 588.015 23.636L588.033 23.528H584.433V21.404H590.553V28.856H588.159ZM499.416 48.856V36.256H505.95C507.054 36.256 507.918 36.586 508.542 37.246C509.178 37.894 509.496 38.764 509.496 39.856C509.496 40.936 509.184 41.776 508.56 42.376C507.936 42.964 507.066 43.258 505.95 43.258H501.936V48.856H499.416ZM505.59 41.062C506.49 41.062 506.94 40.642 506.94 39.802C506.94 39.37 506.82 39.052 506.58 38.848C506.352 38.632 506.022 38.524 505.59 38.524H501.936V41.062H505.59ZM520.959 48.856H513.003V36.256H515.523V46.588H520.959V48.856ZM535.985 48.856H533.249L532.133 45.796H526.895L525.797 48.856H523.079L527.795 36.256H531.233L535.985 48.856ZM529.469 38.704L527.723 43.528H531.305L529.541 38.704H529.469ZM543.502 48.856H540.982V38.524H536.986V36.256H547.498V38.524H543.502V48.856ZM553.224 48.856H550.704V36.256H559.506V38.524H553.224V40.81H558.12V43.096H553.224V48.856ZM568.445 49.126C567.161 49.126 566.045 48.856 565.097 48.316C564.161 47.764 563.441 46.996 562.937 46.012C562.445 45.016 562.199 43.87 562.199 42.574C562.199 41.278 562.445 40.138 562.937 39.154C563.441 38.158 564.161 37.384 565.097 36.832C566.045 36.268 567.161 35.986 568.445 35.986C569.729 35.986 570.845 36.262 571.793 36.814C572.741 37.366 573.467 38.14 573.971 39.136C574.475 40.12 574.727 41.26 574.727 42.556C574.727 43.852 574.475 44.998 573.971 45.994C573.467 46.978 572.741 47.746 571.793 48.298C570.845 48.85 569.729 49.126 568.445 49.126ZM568.463 46.822C569.579 46.822 570.461 46.438 571.109 45.67C571.769 44.902 572.099 43.858 572.099 42.538C572.099 41.23 571.769 40.198 571.109 39.442C570.461 38.674 569.579 38.29 568.463 38.29C567.347 38.29 566.459 38.674 565.799 39.442C565.151 40.198 564.827 41.23 564.827 42.538C564.827 43.858 565.151 44.902 565.799 45.67C566.459 46.438 567.347 46.822 568.463 46.822ZM578.316 48.856V36.256H584.832C585.948 36.256 586.806 36.544 587.406 37.12C588.018 37.696 588.324 38.5 588.324 39.532C588.324 40.24 588.186 40.816 587.91 41.26C587.646 41.692 587.304 42.004 586.884 42.196V42.232C587.352 42.556 587.634 43.048 587.73 43.708L588.468 48.712V48.856H585.948L585.264 44.248C585.156 43.432 584.706 43.024 583.914 43.024H580.836V48.856H578.316ZM584.454 40.936C585.318 40.936 585.75 40.534 585.75 39.73C585.75 38.914 585.318 38.506 584.454 38.506H580.836V40.936H584.454ZM594.756 48.856H592.236V36.256H596.52L599.418 44.95H599.454L602.298 36.256H606.582V48.856H604.062V38.722H604.026L600.588 48.856H598.284L594.792 38.722H594.756V48.856Z" fill="#25444A"/>
<path d="M692.009 28.856V16.256H696.347C698.339 16.256 699.887 16.814 700.991 17.93C702.095 19.034 702.647 20.576 702.647 22.556C702.647 24.536 702.095 26.084 700.991 27.2C699.887 28.304 698.339 28.856 696.347 28.856H692.009ZM696.275 26.588C697.475 26.588 698.399 26.252 699.047 25.58C699.707 24.896 700.037 23.888 700.037 22.556C700.037 21.224 699.707 20.222 699.047 19.55C698.399 18.866 697.475 18.524 696.275 18.524H694.529V26.588H696.275ZM715.589 28.856H706.229V16.256H715.409V18.524H708.749V20.702H713.879V22.97H708.749V26.588H715.589V28.856ZM726.074 28.856H722.654L718.01 16.256H720.746L724.328 26.354H724.4L728.018 16.256H730.754L726.074 28.856ZM736.309 28.856H733.789V16.256H736.309V28.856ZM746.151 29.126C744.855 29.126 743.739 28.856 742.803 28.316C741.867 27.776 741.147 27.014 740.643 26.03C740.151 25.046 739.905 23.894 739.905 22.574C739.905 21.266 740.151 20.114 740.643 19.118C741.147 18.122 741.867 17.354 742.803 16.814C743.751 16.262 744.867 15.986 746.151 15.986C747.687 15.986 748.965 16.376 749.985 17.156C751.017 17.924 751.665 19.016 751.929 20.432H749.175C749.019 19.736 748.671 19.208 748.131 18.848C747.591 18.476 746.931 18.29 746.151 18.29C745.035 18.29 744.153 18.668 743.505 19.424C742.857 20.168 742.533 21.206 742.533 22.538C742.533 23.882 742.857 24.932 743.505 25.688C744.153 26.444 745.041 26.822 746.169 26.822C747.189 26.822 747.987 26.51 748.563 25.886C749.139 25.25 749.481 24.398 749.589 23.33H752.235C752.163 24.482 751.881 25.496 751.389 26.372C750.897 27.236 750.207 27.914 749.319 28.406C748.431 28.886 747.375 29.126 746.151 29.126ZM765.153 28.856H755.793V16.256H764.973V18.524H758.313V20.702H763.443V22.97H758.313V26.588H765.153V28.856ZM658.769 48.856H656.249V36.256H660.533L663.431 44.95H663.467L666.311 36.256H670.595V48.856H668.075V38.722H668.039L664.601 48.856H662.297L658.805 38.722H658.769V48.856ZM686.526 48.856H683.79L682.674 45.796H677.436L676.338 48.856H673.62L678.336 36.256H681.774L686.526 48.856ZM680.01 38.704L678.264 43.528H681.846L680.082 38.704H680.01ZM692.076 48.856H689.556V36.256H693.354L697.566 45.85H697.602V36.256H700.122V48.856H696.324L692.112 39.28H692.076V48.856ZM716.054 48.856H713.318L712.202 45.796H706.964L705.866 48.856H703.148L707.864 36.256H711.302L716.054 48.856ZM709.538 38.704L707.792 43.528H711.374L709.61 38.704H709.538ZM727.399 48.856V47.236H727.363C726.931 47.836 726.361 48.304 725.653 48.64C724.957 48.964 724.171 49.126 723.295 49.126C722.179 49.126 721.201 48.856 720.361 48.316C719.521 47.764 718.867 46.996 718.399 46.012C717.943 45.028 717.715 43.888 717.715 42.592C717.715 41.284 717.955 40.132 718.435 39.136C718.927 38.14 719.641 37.366 720.577 36.814C721.513 36.262 722.629 35.986 723.925 35.986C725.413 35.986 726.649 36.34 727.633 37.048C728.617 37.744 729.235 38.704 729.487 39.928H726.625C726.421 39.412 726.091 39.01 725.635 38.722C725.179 38.434 724.615 38.29 723.943 38.29C722.803 38.29 721.915 38.674 721.279 39.442C720.643 40.198 720.325 41.212 720.325 42.484C720.325 43.78 720.643 44.83 721.279 45.634C721.915 46.426 722.785 46.822 723.889 46.822C724.501 46.822 725.059 46.69 725.563 46.426C726.067 46.162 726.469 45.79 726.769 45.31C727.069 44.83 727.231 44.272 727.255 43.636L727.273 43.528H723.673V41.404H729.793V48.856H727.399ZM743.191 48.856H733.831V36.256H743.011V38.524H736.351V40.702H741.481V42.97H736.351V46.588H743.191V48.856ZM749.393 48.856H746.873V36.256H751.157L754.055 44.95H754.091L756.935 36.256H761.219V48.856H758.699V38.722H758.663L755.225 48.856H752.921L749.429 38.722H749.393V48.856ZM774.864 48.856H765.504V36.256H774.684V38.524H768.024V40.702H773.154V42.97H768.024V46.588H774.864V48.856ZM781.066 48.856H778.546V36.256H782.344L786.556 45.85H786.592V36.256H789.112V48.856H785.314L781.102 39.28H781.066V48.856ZM798.834 48.856H796.314V38.524H792.318V36.256H802.83V38.524H798.834V48.856Z" fill="#25444A"/>
<path d="M861.602 28.856V16.256H865.94C867.932 16.256 869.48 16.814 870.584 17.93C871.688 19.034 872.24 20.576 872.24 22.556C872.24 24.536 871.688 26.084 870.584 27.2C869.48 28.304 867.932 28.856 865.94 28.856H861.602ZM865.868 26.588C867.068 26.588 867.992 26.252 868.64 25.58C869.3 24.896 869.63 23.888 869.63 22.556C869.63 21.224 869.3 20.222 868.64 19.55C867.992 18.866 867.068 18.524 865.868 18.524H864.122V26.588H865.868ZM885.181 28.856H875.821V16.256H885.001V18.524H878.341V20.702H883.471V22.97H878.341V26.588H885.181V28.856ZM891.383 28.856H888.863V16.256H893.147L896.045 24.95H896.081L898.925 16.256H903.209V28.856H900.689V18.722H900.653L897.215 28.856H894.911L891.419 18.722H891.383V28.856ZM919.14 28.856H916.404L915.288 25.796H910.05L908.952 28.856H906.234L910.95 16.256H914.388L919.14 28.856ZM912.624 18.704L910.878 23.528H914.46L912.696 18.704H912.624ZM924.691 28.856H922.171V16.256H925.969L930.181 25.85H930.217V16.256H932.737V28.856H928.939L924.727 19.28H924.691V28.856ZM937.023 28.856V16.256H941.361C943.353 16.256 944.901 16.814 946.005 17.93C947.109 19.034 947.661 20.576 947.661 22.556C947.661 24.536 947.109 26.084 946.005 27.2C944.901 28.304 943.353 28.856 941.361 28.856H937.023ZM941.289 26.588C942.489 26.588 943.413 26.252 944.061 25.58C944.721 24.896 945.051 23.888 945.051 22.556C945.051 21.224 944.721 20.222 944.061 19.55C943.413 18.866 942.489 18.524 941.289 18.524H939.543V26.588H941.289ZM852.541 48.856V36.256H859.057C860.173 36.256 861.031 36.544 861.631 37.12C862.243 37.696 862.549 38.5 862.549 39.532C862.549 40.24 862.411 40.816 862.135 41.26C861.871 41.692 861.529 42.004 861.109 42.196V42.232C861.577 42.556 861.859 43.048 861.955 43.708L862.693 48.712V48.856H860.173L859.489 44.248C859.381 43.432 858.931 43.024 858.139 43.024H855.061V48.856H852.541ZM858.679 40.936C859.543 40.936 859.975 40.534 859.975 39.73C859.975 38.914 859.543 38.506 858.679 38.506H855.061V40.936H858.679ZM875.822 48.856H866.462V36.256H875.642V38.524H868.982V40.702H874.112V42.97H868.982V46.588H875.822V48.856ZM883.949 49.126C882.965 49.126 882.089 48.946 881.321 48.586C880.553 48.226 879.941 47.716 879.485 47.056C879.029 46.384 878.771 45.604 878.711 44.716H881.321C881.369 45.424 881.627 45.982 882.095 46.39C882.575 46.786 883.205 46.984 883.985 46.984C884.633 46.984 885.155 46.84 885.551 46.552C885.959 46.264 886.163 45.826 886.163 45.238C886.163 44.398 885.701 43.882 884.777 43.69L881.897 43.06C880.949 42.868 880.235 42.472 879.755 41.872C879.287 41.26 879.053 40.546 879.053 39.73C879.053 38.986 879.245 38.332 879.629 37.768C880.013 37.192 880.547 36.754 881.231 36.454C881.927 36.142 882.731 35.986 883.643 35.986C884.591 35.986 885.431 36.154 886.163 36.49C886.907 36.826 887.489 37.3 887.909 37.912C888.329 38.512 888.557 39.202 888.593 39.982H886.001C885.965 39.37 885.737 38.908 885.317 38.596C884.897 38.284 884.351 38.128 883.679 38.128C883.091 38.128 882.611 38.248 882.239 38.488C881.879 38.728 881.699 39.094 881.699 39.586C881.699 40.27 882.065 40.696 882.797 40.864L885.623 41.512C886.607 41.728 887.375 42.118 887.927 42.682C888.491 43.234 888.773 44.026 888.773 45.058C888.773 45.934 888.563 46.678 888.143 47.29C887.723 47.902 887.147 48.364 886.415 48.676C885.695 48.976 884.873 49.126 883.949 49.126ZM892.176 48.856V36.256H898.71C899.814 36.256 900.678 36.586 901.302 37.246C901.938 37.894 902.256 38.764 902.256 39.856C902.256 40.936 901.944 41.776 901.32 42.376C900.696 42.964 899.826 43.258 898.71 43.258H894.696V48.856H892.176ZM898.35 41.062C899.25 41.062 899.7 40.642 899.7 39.802C899.7 39.37 899.58 39.052 899.34 38.848C899.112 38.632 898.782 38.524 898.35 38.524H894.696V41.062H898.35ZM911.306 49.126C910.022 49.126 908.906 48.856 907.958 48.316C907.022 47.764 906.302 46.996 905.798 46.012C905.306 45.016 905.06 43.87 905.06 42.574C905.06 41.278 905.306 40.138 905.798 39.154C906.302 38.158 907.022 37.384 907.958 36.832C908.906 36.268 910.022 35.986 911.306 35.986C912.59 35.986 913.706 36.262 914.654 36.814C915.602 37.366 916.328 38.14 916.832 39.136C917.336 40.12 917.588 41.26 917.588 42.556C917.588 43.852 917.336 44.998 916.832 45.994C916.328 46.978 915.602 47.746 914.654 48.298C913.706 48.85 912.59 49.126 911.306 49.126ZM911.324 46.822C912.44 46.822 913.322 46.438 913.97 45.67C914.63 44.902 914.96 43.858 914.96 42.538C914.96 41.23 914.63 40.198 913.97 39.442C913.322 38.674 912.44 38.29 911.324 38.29C910.208 38.29 909.32 38.674 908.66 39.442C908.012 40.198 907.688 41.23 907.688 42.538C907.688 43.858 908.012 44.902 908.66 45.67C909.32 46.438 910.208 46.822 911.324 46.822ZM923.697 48.856H921.177V36.256H924.975L929.187 45.85H929.223V36.256H931.743V48.856H927.945L923.733 39.28H923.697V48.856ZM940.475 49.126C939.491 49.126 938.615 48.946 937.847 48.586C937.079 48.226 936.467 47.716 936.011 47.056C935.555 46.384 935.297 45.604 935.237 44.716H937.847C937.895 45.424 938.153 45.982 938.621 46.39C939.101 46.786 939.731 46.984 940.511 46.984C941.159 46.984 941.681 46.84 942.077 46.552C942.485 46.264 942.689 45.826 942.689 45.238C942.689 44.398 942.227 43.882 941.303 43.69L938.423 43.06C937.475 42.868 936.761 42.472 936.281 41.872C935.813 41.26 935.579 40.546 935.579 39.73C935.579 38.986 935.771 38.332 936.155 37.768C936.539 37.192 937.073 36.754 937.757 36.454C938.453 36.142 939.257 35.986 940.169 35.986C941.117 35.986 941.957 36.154 942.689 36.49C943.433 36.826 944.015 37.3 944.435 37.912C944.855 38.512 945.083 39.202 945.119 39.982H942.527C942.491 39.37 942.263 38.908 941.843 38.596C941.423 38.284 940.877 38.128 940.205 38.128C939.617 38.128 939.137 38.248 938.765 38.488C938.405 38.728 938.225 39.094 938.225 39.586C938.225 40.27 938.591 40.696 939.323 40.864L942.149 41.512C943.133 41.728 943.901 42.118 944.453 42.682C945.017 43.234 945.299 44.026 945.299 45.058C945.299 45.934 945.089 46.678 944.669 47.29C944.249 47.902 943.673 48.364 942.941 48.676C942.221 48.976 941.399 49.126 940.475 49.126ZM958.061 48.856H948.701V36.256H957.881V38.524H951.221V40.702H956.351V42.97H951.221V46.588H958.061V48.856Z" fill="#25444A"/>
<circle cx="373" cy="112.521" r="16" fill="#56D690"/>
<circle cx="551.333" cy="112.521" r="16" fill="#56D690"/>
<circle cx="729.667" cy="112.521" r="16" fill="#56D690"/>
<circle cx="908" cy="112.521" r="16" fill="#56D690"/>
<circle cx="373" cy="189.195" r="16" fill="#C2F7AD"/>
<path fill-rule="evenodd" clip-rule="evenodd" d="M550.627 189.195L546.507 193.314L547.214 194.021L551.334 189.902L555.453 194.021L556.16 193.314L552.041 189.195L556.16 185.076L555.453 184.369L551.334 188.488L547.214 184.369L546.507 185.076L550.627 189.195Z" fill="#AEB9BF"/>
<rect x="535.833" y="173.695" width="31" height="31" rx="15.5" stroke="#AEB9BF"/>
<path fill-rule="evenodd" clip-rule="evenodd" d="M728.96 189.195L724.841 193.314L725.548 194.021L729.667 189.902L733.786 194.021L734.494 193.314L730.374 189.195L734.494 185.076L733.786 184.369L729.667 188.488L725.548 184.369L724.841 185.076L728.96 189.195Z" fill="#AEB9BF"/>
<rect x="714.167" y="173.695" width="31" height="31" rx="15.5" stroke="#AEB9BF"/>
<path fill-rule="evenodd" clip-rule="evenodd" d="M907.293 189.195L903.174 193.314L903.881 194.021L908 189.902L912.12 194.021L912.827 193.314L908.707 189.195L912.827 185.076L912.12 184.369L908 188.488L903.881 184.369L903.174 185.076L907.293 189.195Z" fill="#AEB9BF"/>
<rect x="892.5" y="173.695" width="31" height="31" rx="15.5" stroke="#AEB9BF"/>
<circle cx="373" cy="260.89" r="16" fill="#C2F7AD"/>
<path fill-rule="evenodd" clip-rule="evenodd" d="M550.627 260.89L546.507 265.009L547.214 265.716L551.334 261.597L555.453 265.716L556.16 265.009L552.041 260.89L556.16 256.771L555.453 256.063L551.334 260.183L547.214 256.063L546.507 256.771L550.627 260.89Z" fill="#AEB9BF"/>
<rect x="535.833" y="245.39" width="31" height="31" rx="15.5" stroke="#AEB9BF"/>
<path fill-rule="evenodd" clip-rule="evenodd" d="M728.96 260.89L724.841 265.009L725.548 265.716L729.667 261.597L733.786 265.716L734.494 265.009L730.374 260.89L734.494 256.771L733.786 256.063L729.667 260.183L725.548 256.063L724.841 256.771L728.96 260.89Z" fill="#AEB9BF"/>
<rect x="714.167" y="245.39" width="31" height="31" rx="15.5" stroke="#AEB9BF"/>
<circle cx="908" cy="260.89" r="16" fill="#C2F7AD"/>
<path fill-rule="evenodd" clip-rule="evenodd" d="M372.293 332.585L368.174 336.704L368.881 337.411L373 333.292L377.12 337.411L377.827 336.704L373.707 332.585L377.827 328.465L377.12 327.758L373 331.878L368.881 327.758L368.174 328.465L372.293 332.585Z" fill="#AEB9BF"/>
<rect x="357.5" y="317.085" width="31" height="31" rx="15.5" stroke="#AEB9BF"/>
<path fill-rule="evenodd" clip-rule="evenodd" d="M550.627 332.585L546.507 336.704L547.214 337.411L551.334 333.292L555.453 337.411L556.16 336.704L552.041 332.585L556.16 328.465L555.453 327.758L551.334 331.878L547.214 327.758L546.507 328.465L550.627 332.585Z" fill="#AEB9BF"/>
<rect x="535.833" y="317.085" width="31" height="31" rx="15.5" stroke="#AEB9BF"/>
<circle cx="729.667" cy="332.585" r="16" fill="#C2F7AD"/>
<path fill-rule="evenodd" clip-rule="evenodd" d="M907.293 332.585L903.174 336.704L903.881 337.411L908 333.292L912.12 337.411L912.827 336.704L908.707 332.585L912.827 328.465L912.12 327.758L908 331.878L903.881 327.758L903.174 328.465L907.293 332.585Z" fill="#AEB9BF"/>
<rect x="892.5" y="317.085" width="31" height="31" rx="15.5" stroke="#AEB9BF"/>
<circle cx="373" cy="404.28" r="16" fill="#C2F7AD"/>
<path fill-rule="evenodd" clip-rule="evenodd" d="M550.627 404.28L546.507 408.399L547.214 409.106L551.334 404.987L555.453 409.106L556.16 408.399L552.041 404.28L556.16 400.16L555.453 399.453L551.334 403.573L547.214 399.453L546.507 400.16L550.627 404.28Z" fill="#AEB9BF"/>
<rect x="535.833" y="388.78" width="31" height="31" rx="15.5" stroke="#AEB9BF"/>
<path fill-rule="evenodd" clip-rule="evenodd" d="M728.96 404.28L724.841 408.399L725.548 409.106L729.667 404.987L733.786 409.106L734.494 408.399L730.374 404.28L734.494 400.16L733.786 399.453L729.667 403.573L725.548 399.453L724.841 400.16L728.96 404.28Z" fill="#AEB9BF"/>
<rect x="714.167" y="388.78" width="31" height="31" rx="15.5" stroke="#AEB9BF"/>
<circle cx="908" cy="404.28" r="16" fill="#C2F7AD"/>
<path d="M985 76.6737H71" stroke="#AEB9BF"/>
<path d="M985 148.369H71" stroke="#AEB9BF"/>
<path d="M985 224.047H71" stroke="#AEB9BF"/>
<path d="M985 295.742H71" stroke="#AEB9BF"/>
<path d="M985 367.436H71" stroke="#AEB9BF"/>
<path d="M985 441.123H71" stroke="#AEB9BF"/>
</svg>
