<svg width="1128" height="470" viewBox="0 0 1128 470" fill="none" xmlns="http://www.w3.org/2000/svg">
<path d="M79.148 121C85.196 121 88.696 117.304 88.696 111.2C88.696 105.096 85.196 101.4 79.148 101.4H73.492V121H79.148ZM75.676 103.444H78.924C83.656 103.444 86.456 106.132 86.456 111.2C86.456 116.268 83.656 118.956 78.924 118.956H75.676V103.444ZM96.1626 121.42C98.1226 121.42 99.9986 120.496 101.259 118.424H101.315L101.343 119.236C101.483 120.328 102.155 121 103.331 121H105.067V119.068H104.507C103.611 119.068 103.387 118.844 103.387 117.948V110.024C103.387 107.168 100.615 106.188 98.0106 106.188C94.3986 106.188 92.1306 108.092 91.7666 110.78H94.0626C94.3706 109.24 95.4626 108.148 98.0666 108.148C99.4946 108.148 101.203 108.484 101.203 110.024C101.203 110.892 100.643 111.424 99.4106 111.676L95.7706 112.404C92.9706 112.964 91.4586 114.588 91.4586 116.912C91.4586 119.404 93.1946 121.42 96.1626 121.42ZM96.4986 119.488C94.7346 119.488 93.7266 118.368 93.7266 116.8C93.7266 115.232 94.7626 114.448 96.2466 114.168L99.1866 113.58C100.111 113.356 100.727 113.132 101.147 112.796H101.203V114.14C101.203 117.864 98.6266 119.488 96.4986 119.488ZM114.3 121L119.564 106.608H117.212L112.76 119.124H112.704L108.224 106.608H105.872L111.164 121H114.3ZM124.342 104.676V101.4H121.962V104.676H124.342ZM124.258 121V106.58H122.074V121H124.258ZM133.902 121.42C135.974 121.42 137.738 120.44 138.718 118.704H138.774V121H140.846V101.4H138.662V108.82H138.578C137.682 107.224 136.002 106.188 133.902 106.188C130.178 106.188 127.658 109.212 127.658 113.776C127.658 118.2 130.038 121.42 133.902 121.42ZM134.35 119.404C131.578 119.404 129.926 117.164 129.926 113.776C129.926 110.416 131.578 108.176 134.35 108.176C137.402 108.176 138.774 110.836 138.774 113.776C138.774 116.744 137.402 119.404 134.35 119.404ZM165.192 121V118.956H153.824V110.304H162.532V108.26H153.824V103.444H164.912V101.4H151.64V121H165.192ZM170.958 121V113.636C170.958 110.304 173.086 108.232 175.55 108.232C177.454 108.232 178.406 109.492 178.406 111.34V121H180.59V110.78C180.59 107.672 178.63 106.188 176.11 106.188C173.982 106.188 171.966 107.28 170.93 109.156H170.874V106.608H168.774V121H170.958ZM195.223 115.904C194.831 118.284 192.955 119.404 190.911 119.404C188.111 119.404 185.927 117.416 185.815 113.832H196.903V112.936C196.903 108.68 194.215 106.188 190.463 106.188C186.627 106.188 183.631 108.876 183.631 113.524C183.631 117.92 186.375 121.42 190.855 121.42C194.187 121.42 196.875 119.516 197.463 115.904H195.223ZM190.463 108.12C192.563 108.12 194.495 109.184 194.607 111.984H185.955C186.459 109.38 188.223 108.12 190.463 108.12ZM202.841 121V112.124C202.841 109.912 203.597 108.904 205.781 108.904H208.357V106.608H206.089C204.325 106.608 203.345 107.392 202.897 108.428H202.841V106.608H200.657V121H202.841ZM214.111 116.1C214.839 116.1 215.567 116.38 216.883 116.38C220.383 116.38 222.567 114.28 222.567 111.172V110.024C222.567 109.184 222.847 108.904 223.659 108.904H224.639V106.608H223.043C221.895 106.608 221.363 107.056 221.279 108.064C220.411 107.056 218.871 106.188 216.659 106.188C213.215 106.188 210.891 108.344 210.891 111.228C210.891 112.824 211.591 114.084 212.319 114.784V114.84C211.255 115.12 210.387 115.988 210.387 117.248C210.387 118.312 210.975 119.096 211.703 119.46V119.516C210.583 120.16 209.799 121.28 209.799 122.904C209.799 125.788 211.815 127.44 214.671 127.44H219.067C221.783 127.44 223.827 125.816 223.827 122.904C223.827 119.992 221.895 118.452 219.067 118.452H214.111C213.215 118.452 212.655 117.948 212.655 117.248C212.655 116.52 213.215 116.1 214.111 116.1ZM216.743 108.064C218.759 108.064 220.355 109.212 220.355 111.284C220.355 113.384 218.759 114.504 216.743 114.504C214.699 114.504 213.103 113.384 213.103 111.284C213.103 109.212 214.699 108.064 216.743 108.064ZM218.731 120.384C220.523 120.384 221.615 121.224 221.615 122.904C221.615 124.556 220.439 125.508 218.731 125.508H215.007C213.159 125.508 212.011 124.528 212.011 122.904C212.011 121.224 213.187 120.384 215.007 120.384H218.731ZM240.23 106.608H237.85L233.678 117.92H233.622L228.974 106.608H226.622L232.166 119.88C232.474 120.636 232.39 121.252 232.166 121.84L231.214 124.36C230.934 125.06 230.598 125.48 229.674 125.48H227.658V127.44H229.926C231.83 127.44 232.614 126.628 233.174 125.2L240.23 106.608Z" fill="#092D2E"/>
<path d="M84.748 195V192.956H75.676V175.4H73.492V195H84.748ZM93.6168 195.42C97.9008 195.42 100.645 192.284 100.645 187.804C100.645 183.324 97.9008 180.188 93.6168 180.188C89.3048 180.188 86.5608 183.324 86.5608 187.776C86.5608 192.256 89.3048 195.42 93.6168 195.42ZM93.6168 193.404C90.9568 193.404 88.8288 191.584 88.8288 187.804C88.8288 183.996 90.9568 182.176 93.6168 182.176C96.2768 182.176 98.4048 183.996 98.4048 187.804C98.4048 191.584 96.2768 193.404 93.6168 193.404ZM110.214 195.42C113.826 195.42 116.346 193.236 116.738 189.68H114.442C114.218 192.256 112.314 193.404 110.186 193.404C107.554 193.404 105.426 191.584 105.426 187.804C105.426 183.996 107.554 182.176 110.298 182.176C112.342 182.176 114.022 183.24 114.302 185.424H116.598C116.234 182.204 113.854 180.188 110.298 180.188C105.902 180.188 103.158 183.324 103.158 187.776C103.158 192.256 105.902 195.42 110.214 195.42ZM124.108 195.42C126.068 195.42 127.944 194.496 129.204 192.424H129.26L129.288 193.236C129.428 194.328 130.1 195 131.276 195H133.012V193.068H132.452C131.556 193.068 131.332 192.844 131.332 191.948V184.024C131.332 181.168 128.56 180.188 125.956 180.188C122.344 180.188 120.076 182.092 119.712 184.78H122.008C122.316 183.24 123.408 182.148 126.012 182.148C127.44 182.148 129.148 182.484 129.148 184.024C129.148 184.892 128.588 185.424 127.356 185.676L123.716 186.404C120.916 186.964 119.404 188.588 119.404 190.912C119.404 193.404 121.14 195.42 124.108 195.42ZM124.444 193.488C122.68 193.488 121.672 192.368 121.672 190.8C121.672 189.232 122.708 188.448 124.192 188.168L127.132 187.58C128.056 187.356 128.672 187.132 129.092 186.796H129.148V188.14C129.148 191.864 126.572 193.488 124.444 193.488ZM138.615 195V175.4H136.431V195H138.615ZM156.678 195.42C161.83 195.42 164.21 192.816 164.21 188.476V175.4H162.026V188.336C162.026 191.808 160.29 193.376 156.678 193.376C153.206 193.376 151.33 191.808 151.33 188.336V175.4H149.146V188.476C149.146 192.816 151.638 195.42 156.678 195.42ZM180.15 178.676H182.502V175.4H180.15V178.676ZM180.234 180.608H173.262V176.8H171.078V180.608H167.242V182.372H171.078V192.06C171.078 194.104 172.002 195 174.046 195H177.322V193.04H174.69C173.626 193.04 173.262 192.676 173.262 191.612V182.372H180.234V195H182.418V180.58H180.234V180.608ZM188.982 195V175.4H186.798V195H188.982ZM195.654 178.676V175.4H193.274V178.676H195.654ZM195.57 195V180.58H193.386V195H195.57ZM216.806 191.92H216.75L212.13 180.608H204.57V176.8H202.386V180.608H198.55V182.372H202.386V192.06C202.386 194.104 203.31 195 205.354 195H208.63V193.04H205.998C204.934 193.04 204.57 192.676 204.57 191.612V182.372H210.478L215.294 193.88C215.602 194.636 215.518 195.252 215.294 195.84L214.342 198.36C214.062 199.06 213.754 199.48 212.802 199.48H210.786V201.44H213.054C214.958 201.44 215.77 200.628 216.302 199.2L223.358 180.608H220.978L216.806 191.92Z" fill="#83939C"/>
<path d="M75.676 269V251.192H75.732L84.72 269H88.444V249.4H86.26V267.236H86.204L77.216 249.4H73.492V269H75.676ZM95.6096 269V258.864H102.078C104.122 258.864 104.738 260.096 104.906 261.412L105.914 269H108.098V268.832L107.006 260.74C106.838 259.564 106.39 258.696 105.522 258.136V258.08C106.558 257.632 107.79 256.344 107.79 253.964C107.79 251.248 106.138 249.4 102.806 249.4H93.4256V269H95.6096ZM95.6096 251.416H102.61C104.458 251.416 105.578 252.2 105.578 254.16C105.578 256.092 104.458 256.876 102.75 256.876H95.6096V251.416ZM129.102 269V257.492H119.89V259.564H126.918V260.068C126.918 264.324 124.034 267.376 120.002 267.376C115.69 267.376 113.03 263.848 113.03 259.172C113.03 254.468 115.69 251.024 120.338 251.024C123.138 251.024 125.322 252.34 126.162 254.776H128.57C127.618 251.164 124.566 248.98 120.282 248.98C114.206 248.98 110.818 253.376 110.818 259.256C110.818 265.136 114.206 269.42 119.694 269.42C123.082 269.42 125.63 267.768 126.974 265.276H127.03V269H129.102Z" fill="#83939C"/>
<path d="M87.044 343V340.956H75.676V332.304H84.384V330.26H75.676V325.444H86.764V323.4H73.492V343H87.044ZM92.81 343V335.636C92.81 332.304 94.938 330.232 97.402 330.232C99.306 330.232 100.258 331.492 100.258 333.34V343H102.442V332.78C102.442 329.672 100.482 328.188 97.962 328.188C95.834 328.188 93.818 329.28 92.782 331.156H92.726V328.608H90.626V343H92.81ZM109.795 338.1C110.523 338.1 111.251 338.38 112.567 338.38C116.067 338.38 118.251 336.28 118.251 333.172V332.024C118.251 331.184 118.531 330.904 119.343 330.904H120.323V328.608H118.727C117.579 328.608 117.047 329.056 116.963 330.064C116.095 329.056 114.555 328.188 112.343 328.188C108.899 328.188 106.575 330.344 106.575 333.228C106.575 334.824 107.275 336.084 108.003 336.784V336.84C106.939 337.12 106.071 337.988 106.071 339.248C106.071 340.312 106.659 341.096 107.387 341.46V341.516C106.267 342.16 105.483 343.28 105.483 344.904C105.483 347.788 107.499 349.44 110.355 349.44H114.751C117.467 349.44 119.511 347.816 119.511 344.904C119.511 341.992 117.579 340.452 114.751 340.452H109.795C108.899 340.452 108.339 339.948 108.339 339.248C108.339 338.52 108.899 338.1 109.795 338.1ZM112.427 330.064C114.443 330.064 116.039 331.212 116.039 333.284C116.039 335.384 114.443 336.504 112.427 336.504C110.383 336.504 108.787 335.384 108.787 333.284C108.787 331.212 110.383 330.064 112.427 330.064ZM114.415 342.384C116.207 342.384 117.299 343.224 117.299 344.904C117.299 346.556 116.123 347.508 114.415 347.508H110.691C108.843 347.508 107.695 346.528 107.695 344.904C107.695 343.224 108.871 342.384 110.691 342.384H114.415ZM125.244 326.676V323.4H122.864V326.676H125.244ZM125.16 343V328.58H122.976V343H125.16ZM140.18 337.904C139.788 340.284 137.912 341.404 135.868 341.404C133.068 341.404 130.884 339.416 130.772 335.832H141.86V334.936C141.86 330.68 139.172 328.188 135.42 328.188C131.584 328.188 128.588 330.876 128.588 335.524C128.588 339.92 131.332 343.42 135.812 343.42C139.144 343.42 141.832 341.516 142.42 337.904H140.18ZM135.42 330.12C137.52 330.12 139.452 331.184 139.564 333.984H130.912C131.416 331.38 133.18 330.12 135.42 330.12Z" fill="#83939C"/>
<path d="M82.116 417L89.732 397.4H87.352L80.576 415.096H80.464L73.716 397.4H71.336L78.952 417H82.116ZM97.0621 417.42C101.346 417.42 104.09 414.284 104.09 409.804C104.09 405.324 101.346 402.188 97.0621 402.188C92.7501 402.188 90.0061 405.324 90.0061 409.776C90.0061 414.256 92.7501 417.42 97.0621 417.42ZM97.0621 415.404C94.4021 415.404 92.2741 413.584 92.2741 409.804C92.2741 405.996 94.4021 404.176 97.0621 404.176C99.7221 404.176 101.85 405.996 101.85 409.804C101.85 413.584 99.7221 415.404 97.0621 415.404ZM109.74 417V397.4H107.556V417H109.74ZM134.976 409.944C134.976 413.276 132.904 415.376 130.468 415.376C128.592 415.376 127.64 414.116 127.64 412.24V402.608H118.82V398.8H116.636V402.608H112.8V404.372H116.636V414.06C116.636 416.104 117.56 417 119.604 417H122.88V415.04H120.248C119.184 415.04 118.82 414.676 118.82 413.612V404.372H125.456V412.828C125.456 415.908 127.416 417.42 129.852 417.42C132.064 417.42 133.94 416.244 135.004 414.452H135.06V417H137.16V402.608H134.976V409.944ZM146.503 417.42C149.779 417.42 151.963 415.572 151.963 412.884C151.963 411.036 150.955 409.468 148.435 408.992L144.935 408.32C143.535 408.04 143.059 407.228 143.059 406.304C143.059 404.848 144.319 404.12 146.111 404.12C148.043 404.12 149.415 405.016 149.499 406.668H151.767C151.543 403.588 148.939 402.188 146.139 402.188C143.059 402.188 140.819 403.868 140.819 406.388C140.819 408.124 141.911 409.72 144.403 410.196L147.847 410.84C149.191 411.092 149.751 411.848 149.751 412.912C149.751 414.732 148.183 415.488 146.559 415.488C144.459 415.488 142.863 414.396 142.611 412.408H140.343C140.651 415.432 142.975 417.42 146.503 417.42Z" fill="#83939C"/>
<path d="M346.627 29H337.267V16.4H346.447V18.668H339.787V20.846H344.917V23.114H339.787V26.732H346.627V29ZM352.829 29H350.309V16.4H354.107L358.319 25.994H358.355V16.4H360.875V29H357.077L352.865 19.424H352.829V29ZM374.521 29H365.161V16.4H374.341V18.668H367.681V20.846H372.811V23.114H367.681V26.732H374.521V29ZM378.202 29V16.4H384.718C385.834 16.4 386.692 16.688 387.292 17.264C387.904 17.84 388.21 18.644 388.21 19.676C388.21 20.384 388.072 20.96 387.796 21.404C387.532 21.836 387.19 22.148 386.77 22.34V22.376C387.238 22.7 387.52 23.192 387.616 23.852L388.354 28.856V29H385.834L385.15 24.392C385.042 23.576 384.592 23.168 383.8 23.168H380.722V29H378.202ZM384.34 21.08C385.204 21.08 385.636 20.678 385.636 19.874C385.636 19.058 385.204 18.65 384.34 18.65H380.722V21.08H384.34ZM400.982 29V27.38H400.946C400.514 27.98 399.944 28.448 399.236 28.784C398.54 29.108 397.754 29.27 396.878 29.27C395.762 29.27 394.784 29 393.944 28.46C393.104 27.908 392.45 27.14 391.982 26.156C391.526 25.172 391.298 24.032 391.298 22.736C391.298 21.428 391.538 20.276 392.018 19.28C392.51 18.284 393.224 17.51 394.16 16.958C395.096 16.406 396.212 16.13 397.508 16.13C398.996 16.13 400.232 16.484 401.216 17.192C402.2 17.888 402.818 18.848 403.07 20.072H400.208C400.004 19.556 399.674 19.154 399.218 18.866C398.762 18.578 398.198 18.434 397.526 18.434C396.386 18.434 395.498 18.818 394.862 19.586C394.226 20.342 393.908 21.356 393.908 22.628C393.908 23.924 394.226 24.974 394.862 25.778C395.498 26.57 396.368 26.966 397.472 26.966C398.084 26.966 398.642 26.834 399.146 26.57C399.65 26.306 400.052 25.934 400.352 25.454C400.652 24.974 400.814 24.416 400.838 23.78L400.856 23.672H397.256V21.548H403.376V29H400.982ZM412.135 29H409.615V23.42L405.133 16.4H408.157L410.857 20.828H410.893L413.593 16.4H416.599L412.135 23.384V29ZM333.935 49.27C332.951 49.27 332.075 49.09 331.307 48.73C330.539 48.37 329.927 47.86 329.471 47.2C329.015 46.528 328.757 45.748 328.697 44.86H331.307C331.355 45.568 331.613 46.126 332.081 46.534C332.561 46.93 333.191 47.128 333.971 47.128C334.619 47.128 335.141 46.984 335.537 46.696C335.945 46.408 336.149 45.97 336.149 45.382C336.149 44.542 335.687 44.026 334.763 43.834L331.883 43.204C330.935 43.012 330.221 42.616 329.741 42.016C329.273 41.404 329.039 40.69 329.039 39.874C329.039 39.13 329.231 38.476 329.615 37.912C329.999 37.336 330.533 36.898 331.217 36.598C331.913 36.286 332.717 36.13 333.629 36.13C334.577 36.13 335.417 36.298 336.149 36.634C336.893 36.97 337.475 37.444 337.895 38.056C338.315 38.656 338.543 39.346 338.579 40.126H335.987C335.951 39.514 335.723 39.052 335.303 38.74C334.883 38.428 334.337 38.272 333.665 38.272C333.077 38.272 332.597 38.392 332.225 38.632C331.865 38.872 331.685 39.238 331.685 39.73C331.685 40.414 332.051 40.84 332.783 41.008L335.609 41.656C336.593 41.872 337.361 42.262 337.913 42.826C338.477 43.378 338.759 44.17 338.759 45.202C338.759 46.078 338.549 46.822 338.129 47.434C337.709 48.046 337.133 48.508 336.401 48.82C335.681 49.12 334.859 49.27 333.935 49.27ZM347.184 49.27C345.468 49.27 344.172 48.862 343.296 48.046C342.42 47.23 341.982 46.096 341.982 44.644V36.4H344.502V44.446C344.502 45.298 344.718 45.934 345.15 46.354C345.582 46.762 346.26 46.966 347.184 46.966C348.12 46.966 348.798 46.762 349.218 46.354C349.65 45.946 349.866 45.31 349.866 44.446V36.4H352.386V44.644C352.386 46.108 351.954 47.248 351.09 48.064C350.226 48.868 348.924 49.27 347.184 49.27ZM356.487 49V36.4H363.021C364.125 36.4 364.989 36.73 365.613 37.39C366.249 38.038 366.567 38.908 366.567 40C366.567 41.08 366.255 41.92 365.631 42.52C365.007 43.108 364.137 43.402 363.021 43.402H359.007V49H356.487ZM362.661 41.206C363.561 41.206 364.011 40.786 364.011 39.946C364.011 39.514 363.891 39.196 363.651 38.992C363.423 38.776 363.093 38.668 362.661 38.668H359.007V41.206H362.661ZM370.073 49V36.4H376.607C377.711 36.4 378.575 36.73 379.199 37.39C379.835 38.038 380.153 38.908 380.153 40C380.153 41.08 379.841 41.92 379.217 42.52C378.593 43.108 377.723 43.402 376.607 43.402H372.593V49H370.073ZM376.247 41.206C377.147 41.206 377.597 40.786 377.597 39.946C377.597 39.514 377.477 39.196 377.237 38.992C377.009 38.776 376.679 38.668 376.247 38.668H372.593V41.206H376.247ZM391.616 49H383.66V36.4H386.18V46.732H391.616V49ZM397.534 49H395.014V36.4H397.534V49ZM411.193 49H401.833V36.4H411.013V38.668H404.353V40.846H409.483V43.114H404.353V46.732H411.193V49ZM414.874 49V36.4H421.39C422.506 36.4 423.364 36.688 423.964 37.264C424.576 37.84 424.882 38.644 424.882 39.676C424.882 40.384 424.744 40.96 424.468 41.404C424.204 41.836 423.862 42.148 423.442 42.34V42.376C423.91 42.7 424.192 43.192 424.288 43.852L425.026 48.856V49H422.506L421.822 44.392C421.714 43.576 421.264 43.168 420.472 43.168H417.394V49H414.874ZM421.012 41.08C421.876 41.08 422.308 40.678 422.308 39.874C422.308 39.058 421.876 38.65 421.012 38.65H417.394V41.08H421.012Z" fill="#25444A"/>
<path d="M514.252 29V16.4H520.426C521.602 16.4 522.502 16.676 523.126 17.228C523.75 17.768 524.062 18.494 524.062 19.406C524.062 20.018 523.936 20.534 523.684 20.954C523.444 21.374 523.126 21.698 522.73 21.926V21.962C523.198 22.214 523.588 22.58 523.9 23.06C524.224 23.54 524.386 24.17 524.386 24.95C524.386 25.706 524.218 26.39 523.882 27.002C523.546 27.614 523.036 28.1 522.352 28.46C521.668 28.82 520.828 29 519.832 29H514.252ZM520.264 21.026C520.696 21.026 521.02 20.936 521.236 20.756C521.464 20.564 521.578 20.246 521.578 19.802C521.578 19.37 521.464 19.064 521.236 18.884C521.02 18.692 520.696 18.596 520.264 18.596H516.772V21.026H520.264ZM519.472 26.804C521.008 26.804 521.776 26.18 521.776 24.932C521.776 23.732 521.086 23.132 519.706 23.132H516.772V26.804H519.472ZM530.517 29H527.997V16.4H530.517V29ZM542.772 29H534.816V16.4H537.336V26.732H542.772V29ZM554.108 29H546.152V16.4H548.672V26.732H554.108V29ZM560.027 29H557.507V16.4H560.027V29ZM566.845 29H564.325V16.4H568.123L572.335 25.994H572.371V16.4H574.891V29H571.093L566.881 19.424H566.845V29ZM588.159 29V27.38H588.123C587.691 27.98 587.121 28.448 586.413 28.784C585.717 29.108 584.931 29.27 584.055 29.27C582.939 29.27 581.961 29 581.121 28.46C580.281 27.908 579.627 27.14 579.159 26.156C578.703 25.172 578.475 24.032 578.475 22.736C578.475 21.428 578.715 20.276 579.195 19.28C579.687 18.284 580.401 17.51 581.337 16.958C582.273 16.406 583.389 16.13 584.685 16.13C586.173 16.13 587.409 16.484 588.393 17.192C589.377 17.888 589.995 18.848 590.247 20.072H587.385C587.181 19.556 586.851 19.154 586.395 18.866C585.939 18.578 585.375 18.434 584.703 18.434C583.563 18.434 582.675 18.818 582.039 19.586C581.403 20.342 581.085 21.356 581.085 22.628C581.085 23.924 581.403 24.974 582.039 25.778C582.675 26.57 583.545 26.966 584.649 26.966C585.261 26.966 585.819 26.834 586.323 26.57C586.827 26.306 587.229 25.934 587.529 25.454C587.829 24.974 587.991 24.416 588.015 23.78L588.033 23.672H584.433V21.548H590.553V29H588.159ZM499.416 49V36.4H505.95C507.054 36.4 507.918 36.73 508.542 37.39C509.178 38.038 509.496 38.908 509.496 40C509.496 41.08 509.184 41.92 508.56 42.52C507.936 43.108 507.066 43.402 505.95 43.402H501.936V49H499.416ZM505.59 41.206C506.49 41.206 506.94 40.786 506.94 39.946C506.94 39.514 506.82 39.196 506.58 38.992C506.352 38.776 506.022 38.668 505.59 38.668H501.936V41.206H505.59ZM520.959 49H513.003V36.4H515.523V46.732H520.959V49ZM535.985 49H533.249L532.133 45.94H526.895L525.797 49H523.079L527.795 36.4H531.233L535.985 49ZM529.469 38.848L527.723 43.672H531.305L529.541 38.848H529.469ZM543.502 49H540.982V38.668H536.986V36.4H547.498V38.668H543.502V49ZM553.224 49H550.704V36.4H559.506V38.668H553.224V40.954H558.12V43.24H553.224V49ZM568.445 49.27C567.161 49.27 566.045 49 565.097 48.46C564.161 47.908 563.441 47.14 562.937 46.156C562.445 45.16 562.199 44.014 562.199 42.718C562.199 41.422 562.445 40.282 562.937 39.298C563.441 38.302 564.161 37.528 565.097 36.976C566.045 36.412 567.161 36.13 568.445 36.13C569.729 36.13 570.845 36.406 571.793 36.958C572.741 37.51 573.467 38.284 573.971 39.28C574.475 40.264 574.727 41.404 574.727 42.7C574.727 43.996 574.475 45.142 573.971 46.138C573.467 47.122 572.741 47.89 571.793 48.442C570.845 48.994 569.729 49.27 568.445 49.27ZM568.463 46.966C569.579 46.966 570.461 46.582 571.109 45.814C571.769 45.046 572.099 44.002 572.099 42.682C572.099 41.374 571.769 40.342 571.109 39.586C570.461 38.818 569.579 38.434 568.463 38.434C567.347 38.434 566.459 38.818 565.799 39.586C565.151 40.342 564.827 41.374 564.827 42.682C564.827 44.002 565.151 45.046 565.799 45.814C566.459 46.582 567.347 46.966 568.463 46.966ZM578.316 49V36.4H584.832C585.948 36.4 586.806 36.688 587.406 37.264C588.018 37.84 588.324 38.644 588.324 39.676C588.324 40.384 588.186 40.96 587.91 41.404C587.646 41.836 587.304 42.148 586.884 42.34V42.376C587.352 42.7 587.634 43.192 587.73 43.852L588.468 48.856V49H585.948L585.264 44.392C585.156 43.576 584.706 43.168 583.914 43.168H580.836V49H578.316ZM584.454 41.08C585.318 41.08 585.75 40.678 585.75 39.874C585.75 39.058 585.318 38.65 584.454 38.65H580.836V41.08H584.454ZM594.756 49H592.236V36.4H596.52L599.418 45.094H599.454L602.298 36.4H606.582V49H604.062V38.866H604.026L600.588 49H598.284L594.792 38.866H594.756V49Z" fill="#25444A"/>
<path d="M692.009 29V16.4H696.347C698.339 16.4 699.887 16.958 700.991 18.074C702.095 19.178 702.647 20.72 702.647 22.7C702.647 24.68 702.095 26.228 700.991 27.344C699.887 28.448 698.339 29 696.347 29H692.009ZM696.275 26.732C697.475 26.732 698.399 26.396 699.047 25.724C699.707 25.04 700.037 24.032 700.037 22.7C700.037 21.368 699.707 20.366 699.047 19.694C698.399 19.01 697.475 18.668 696.275 18.668H694.529V26.732H696.275ZM715.589 29H706.229V16.4H715.409V18.668H708.749V20.846H713.879V23.114H708.749V26.732H715.589V29ZM726.074 29H722.654L718.01 16.4H720.746L724.328 26.498H724.4L728.018 16.4H730.754L726.074 29ZM736.309 29H733.789V16.4H736.309V29ZM746.151 29.27C744.855 29.27 743.739 29 742.803 28.46C741.867 27.92 741.147 27.158 740.643 26.174C740.151 25.19 739.905 24.038 739.905 22.718C739.905 21.41 740.151 20.258 740.643 19.262C741.147 18.266 741.867 17.498 742.803 16.958C743.751 16.406 744.867 16.13 746.151 16.13C747.687 16.13 748.965 16.52 749.985 17.3C751.017 18.068 751.665 19.16 751.929 20.576H749.175C749.019 19.88 748.671 19.352 748.131 18.992C747.591 18.62 746.931 18.434 746.151 18.434C745.035 18.434 744.153 18.812 743.505 19.568C742.857 20.312 742.533 21.35 742.533 22.682C742.533 24.026 742.857 25.076 743.505 25.832C744.153 26.588 745.041 26.966 746.169 26.966C747.189 26.966 747.987 26.654 748.563 26.03C749.139 25.394 749.481 24.542 749.589 23.474H752.235C752.163 24.626 751.881 25.64 751.389 26.516C750.897 27.38 750.207 28.058 749.319 28.55C748.431 29.03 747.375 29.27 746.151 29.27ZM765.153 29H755.793V16.4H764.973V18.668H758.313V20.846H763.443V23.114H758.313V26.732H765.153V29ZM658.769 49H656.249V36.4H660.533L663.431 45.094H663.467L666.311 36.4H670.595V49H668.075V38.866H668.039L664.601 49H662.297L658.805 38.866H658.769V49ZM686.526 49H683.79L682.674 45.94H677.436L676.338 49H673.62L678.336 36.4H681.774L686.526 49ZM680.01 38.848L678.264 43.672H681.846L680.082 38.848H680.01ZM692.076 49H689.556V36.4H693.354L697.566 45.994H697.602V36.4H700.122V49H696.324L692.112 39.424H692.076V49ZM716.054 49H713.318L712.202 45.94H706.964L705.866 49H703.148L707.864 36.4H711.302L716.054 49ZM709.538 38.848L707.792 43.672H711.374L709.61 38.848H709.538ZM727.399 49V47.38H727.363C726.931 47.98 726.361 48.448 725.653 48.784C724.957 49.108 724.171 49.27 723.295 49.27C722.179 49.27 721.201 49 720.361 48.46C719.521 47.908 718.867 47.14 718.399 46.156C717.943 45.172 717.715 44.032 717.715 42.736C717.715 41.428 717.955 40.276 718.435 39.28C718.927 38.284 719.641 37.51 720.577 36.958C721.513 36.406 722.629 36.13 723.925 36.13C725.413 36.13 726.649 36.484 727.633 37.192C728.617 37.888 729.235 38.848 729.487 40.072H726.625C726.421 39.556 726.091 39.154 725.635 38.866C725.179 38.578 724.615 38.434 723.943 38.434C722.803 38.434 721.915 38.818 721.279 39.586C720.643 40.342 720.325 41.356 720.325 42.628C720.325 43.924 720.643 44.974 721.279 45.778C721.915 46.57 722.785 46.966 723.889 46.966C724.501 46.966 725.059 46.834 725.563 46.57C726.067 46.306 726.469 45.934 726.769 45.454C727.069 44.974 727.231 44.416 727.255 43.78L727.273 43.672H723.673V41.548H729.793V49H727.399ZM743.191 49H733.831V36.4H743.011V38.668H736.351V40.846H741.481V43.114H736.351V46.732H743.191V49ZM749.393 49H746.873V36.4H751.157L754.055 45.094H754.091L756.935 36.4H761.219V49H758.699V38.866H758.663L755.225 49H752.921L749.429 38.866H749.393V49ZM774.864 49H765.504V36.4H774.684V38.668H768.024V40.846H773.154V43.114H768.024V46.732H774.864V49ZM781.066 49H778.546V36.4H782.344L786.556 45.994H786.592V36.4H789.112V49H785.314L781.102 39.424H781.066V49ZM798.834 49H796.314V38.668H792.318V36.4H802.83V38.668H798.834V49Z" fill="#25444A"/>
<path d="M861.602 29V16.4H865.94C867.932 16.4 869.48 16.958 870.584 18.074C871.688 19.178 872.24 20.72 872.24 22.7C872.24 24.68 871.688 26.228 870.584 27.344C869.48 28.448 867.932 29 865.94 29H861.602ZM865.868 26.732C867.068 26.732 867.992 26.396 868.64 25.724C869.3 25.04 869.63 24.032 869.63 22.7C869.63 21.368 869.3 20.366 868.64 19.694C867.992 19.01 867.068 18.668 865.868 18.668H864.122V26.732H865.868ZM885.181 29H875.821V16.4H885.001V18.668H878.341V20.846H883.471V23.114H878.341V26.732H885.181V29ZM891.383 29H888.863V16.4H893.147L896.045 25.094H896.081L898.925 16.4H903.209V29H900.689V18.866H900.653L897.215 29H894.911L891.419 18.866H891.383V29ZM919.14 29H916.404L915.288 25.94H910.05L908.952 29H906.234L910.95 16.4H914.388L919.14 29ZM912.624 18.848L910.878 23.672H914.46L912.696 18.848H912.624ZM924.691 29H922.171V16.4H925.969L930.181 25.994H930.217V16.4H932.737V29H928.939L924.727 19.424H924.691V29ZM937.023 29V16.4H941.361C943.353 16.4 944.901 16.958 946.005 18.074C947.109 19.178 947.661 20.72 947.661 22.7C947.661 24.68 947.109 26.228 946.005 27.344C944.901 28.448 943.353 29 941.361 29H937.023ZM941.289 26.732C942.489 26.732 943.413 26.396 944.061 25.724C944.721 25.04 945.051 24.032 945.051 22.7C945.051 21.368 944.721 20.366 944.061 19.694C943.413 19.01 942.489 18.668 941.289 18.668H939.543V26.732H941.289ZM852.541 49V36.4H859.057C860.173 36.4 861.031 36.688 861.631 37.264C862.243 37.84 862.549 38.644 862.549 39.676C862.549 40.384 862.411 40.96 862.135 41.404C861.871 41.836 861.529 42.148 861.109 42.34V42.376C861.577 42.7 861.859 43.192 861.955 43.852L862.693 48.856V49H860.173L859.489 44.392C859.381 43.576 858.931 43.168 858.139 43.168H855.061V49H852.541ZM858.679 41.08C859.543 41.08 859.975 40.678 859.975 39.874C859.975 39.058 859.543 38.65 858.679 38.65H855.061V41.08H858.679ZM875.822 49H866.462V36.4H875.642V38.668H868.982V40.846H874.112V43.114H868.982V46.732H875.822V49ZM883.949 49.27C882.965 49.27 882.089 49.09 881.321 48.73C880.553 48.37 879.941 47.86 879.485 47.2C879.029 46.528 878.771 45.748 878.711 44.86H881.321C881.369 45.568 881.627 46.126 882.095 46.534C882.575 46.93 883.205 47.128 883.985 47.128C884.633 47.128 885.155 46.984 885.551 46.696C885.959 46.408 886.163 45.97 886.163 45.382C886.163 44.542 885.701 44.026 884.777 43.834L881.897 43.204C880.949 43.012 880.235 42.616 879.755 42.016C879.287 41.404 879.053 40.69 879.053 39.874C879.053 39.13 879.245 38.476 879.629 37.912C880.013 37.336 880.547 36.898 881.231 36.598C881.927 36.286 882.731 36.13 883.643 36.13C884.591 36.13 885.431 36.298 886.163 36.634C886.907 36.97 887.489 37.444 887.909 38.056C888.329 38.656 888.557 39.346 888.593 40.126H886.001C885.965 39.514 885.737 39.052 885.317 38.74C884.897 38.428 884.351 38.272 883.679 38.272C883.091 38.272 882.611 38.392 882.239 38.632C881.879 38.872 881.699 39.238 881.699 39.73C881.699 40.414 882.065 40.84 882.797 41.008L885.623 41.656C886.607 41.872 887.375 42.262 887.927 42.826C888.491 43.378 888.773 44.17 888.773 45.202C888.773 46.078 888.563 46.822 888.143 47.434C887.723 48.046 887.147 48.508 886.415 48.82C885.695 49.12 884.873 49.27 883.949 49.27ZM892.176 49V36.4H898.71C899.814 36.4 900.678 36.73 901.302 37.39C901.938 38.038 902.256 38.908 902.256 40C902.256 41.08 901.944 41.92 901.32 42.52C900.696 43.108 899.826 43.402 898.71 43.402H894.696V49H892.176ZM898.35 41.206C899.25 41.206 899.7 40.786 899.7 39.946C899.7 39.514 899.58 39.196 899.34 38.992C899.112 38.776 898.782 38.668 898.35 38.668H894.696V41.206H898.35ZM911.306 49.27C910.022 49.27 908.906 49 907.958 48.46C907.022 47.908 906.302 47.14 905.798 46.156C905.306 45.16 905.06 44.014 905.06 42.718C905.06 41.422 905.306 40.282 905.798 39.298C906.302 38.302 907.022 37.528 907.958 36.976C908.906 36.412 910.022 36.13 911.306 36.13C912.59 36.13 913.706 36.406 914.654 36.958C915.602 37.51 916.328 38.284 916.832 39.28C917.336 40.264 917.588 41.404 917.588 42.7C917.588 43.996 917.336 45.142 916.832 46.138C916.328 47.122 915.602 47.89 914.654 48.442C913.706 48.994 912.59 49.27 911.306 49.27ZM911.324 46.966C912.44 46.966 913.322 46.582 913.97 45.814C914.63 45.046 914.96 44.002 914.96 42.682C914.96 41.374 914.63 40.342 913.97 39.586C913.322 38.818 912.44 38.434 911.324 38.434C910.208 38.434 909.32 38.818 908.66 39.586C908.012 40.342 907.688 41.374 907.688 42.682C907.688 44.002 908.012 45.046 908.66 45.814C909.32 46.582 910.208 46.966 911.324 46.966ZM923.697 49H921.177V36.4H924.975L929.187 45.994H929.223V36.4H931.743V49H927.945L923.733 39.424H923.697V49ZM940.475 49.27C939.491 49.27 938.615 49.09 937.847 48.73C937.079 48.37 936.467 47.86 936.011 47.2C935.555 46.528 935.297 45.748 935.237 44.86H937.847C937.895 45.568 938.153 46.126 938.621 46.534C939.101 46.93 939.731 47.128 940.511 47.128C941.159 47.128 941.681 46.984 942.077 46.696C942.485 46.408 942.689 45.97 942.689 45.382C942.689 44.542 942.227 44.026 941.303 43.834L938.423 43.204C937.475 43.012 936.761 42.616 936.281 42.016C935.813 41.404 935.579 40.69 935.579 39.874C935.579 39.13 935.771 38.476 936.155 37.912C936.539 37.336 937.073 36.898 937.757 36.598C938.453 36.286 939.257 36.13 940.169 36.13C941.117 36.13 941.957 36.298 942.689 36.634C943.433 36.97 944.015 37.444 944.435 38.056C944.855 38.656 945.083 39.346 945.119 40.126H942.527C942.491 39.514 942.263 39.052 941.843 38.74C941.423 38.428 940.877 38.272 940.205 38.272C939.617 38.272 939.137 38.392 938.765 38.632C938.405 38.872 938.225 39.238 938.225 39.73C938.225 40.414 938.591 40.84 939.323 41.008L942.149 41.656C943.133 41.872 943.901 42.262 944.453 42.826C945.017 43.378 945.299 44.17 945.299 45.202C945.299 46.078 945.089 46.822 944.669 47.434C944.249 48.046 943.673 48.508 942.941 48.82C942.221 49.12 941.399 49.27 940.475 49.27ZM958.061 49H948.701V36.4H957.881V38.668H951.221V40.846H956.351V43.114H951.221V46.732H958.061V49Z" fill="#25444A"/>
<circle cx="373" cy="113" r="16" fill="#56D690"/>
<circle cx="551.333" cy="113" r="16" fill="#56D690"/>
<circle cx="729.667" cy="113" r="16" fill="#56D690"/>
<circle cx="908" cy="113" r="16" fill="#56D690"/>
<circle cx="373" cy="190" r="16" fill="#C2F7AD"/>
<path fill-rule="evenodd" clip-rule="evenodd" d="M550.627 190L546.507 194.119L547.214 194.826L551.334 190.707L555.453 194.826L556.16 194.119L552.041 190L556.16 185.881L555.453 185.174L551.334 189.293L547.214 185.174L546.507 185.881L550.627 190Z" fill="#AEB9BF"/>
<rect x="535.833" y="174.5" width="31" height="31" rx="15.5" stroke="#AEB9BF"/>
<path fill-rule="evenodd" clip-rule="evenodd" d="M728.96 190L724.841 194.119L725.548 194.826L729.667 190.707L733.786 194.826L734.494 194.119L730.374 190L734.494 185.881L733.786 185.174L729.667 189.293L725.548 185.174L724.841 185.881L728.96 190Z" fill="#AEB9BF"/>
<rect x="714.167" y="174.5" width="31" height="31" rx="15.5" stroke="#AEB9BF"/>
<path fill-rule="evenodd" clip-rule="evenodd" d="M907.293 190L903.174 194.119L903.881 194.826L908 190.707L912.12 194.826L912.827 194.119L908.707 190L912.827 185.881L912.12 185.174L908 189.293L903.881 185.174L903.174 185.881L907.293 190Z" fill="#AEB9BF"/>
<rect x="892.5" y="174.5" width="31" height="31" rx="15.5" stroke="#AEB9BF"/>
<circle cx="373" cy="262" r="16" fill="#C2F7AD"/>
<path fill-rule="evenodd" clip-rule="evenodd" d="M550.627 262L546.507 266.119L547.214 266.826L551.334 262.707L555.453 266.826L556.16 266.119L552.041 262L556.16 257.881L555.453 257.174L551.334 261.293L547.214 257.174L546.507 257.881L550.627 262Z" fill="#AEB9BF"/>
<rect x="535.833" y="246.5" width="31" height="31" rx="15.5" stroke="#AEB9BF"/>
<path fill-rule="evenodd" clip-rule="evenodd" d="M728.96 262L724.841 266.119L725.548 266.826L729.667 262.707L733.786 266.826L734.494 266.119L730.374 262L734.494 257.881L733.786 257.174L729.667 261.293L725.548 257.174L724.841 257.881L728.96 262Z" fill="#AEB9BF"/>
<rect x="714.167" y="246.5" width="31" height="31" rx="15.5" stroke="#AEB9BF"/>
<circle cx="908" cy="262" r="16" fill="#C2F7AD"/>
<circle cx="373" cy="334" r="16" fill="#C2F7AD"/>
<circle cx="551.333" cy="334" r="16" fill="#C2F7AD"/>
<path fill-rule="evenodd" clip-rule="evenodd" d="M728.96 334L724.841 338.119L725.548 338.826L729.667 334.707L733.786 338.826L734.494 338.119L730.374 334L734.494 329.881L733.786 329.174L729.667 333.293L725.548 329.174L724.841 329.881L728.96 334Z" fill="#AEB9BF"/>
<rect x="714.167" y="318.5" width="31" height="31" rx="15.5" stroke="#AEB9BF"/>
<path fill-rule="evenodd" clip-rule="evenodd" d="M907.293 334L903.174 338.119L903.881 338.826L908 334.707L912.12 338.826L912.827 338.119L908.707 334L912.827 329.881L912.12 329.174L908 333.293L903.881 329.174L903.174 329.881L907.293 334Z" fill="#AEB9BF"/>
<rect x="892.5" y="318.5" width="31" height="31" rx="15.5" stroke="#AEB9BF"/>
<path fill-rule="evenodd" clip-rule="evenodd" d="M372.293 406L368.174 410.119L368.881 410.826L373 406.707L377.12 410.826L377.827 410.119L373.707 406L377.827 401.881L377.12 401.174L373 405.293L368.881 401.174L368.174 401.881L372.293 406Z" fill="#AEB9BF"/>
<rect x="357.5" y="390.5" width="31" height="31" rx="15.5" stroke="#AEB9BF"/>
<path fill-rule="evenodd" clip-rule="evenodd" d="M550.627 406L546.507 410.119L547.214 410.826L551.334 406.707L555.453 410.826L556.16 410.119L552.041 406L556.16 401.881L555.453 401.174L551.334 405.293L547.214 401.174L546.507 401.881L550.627 406Z" fill="#AEB9BF"/>
<rect x="535.833" y="390.5" width="31" height="31" rx="15.5" stroke="#AEB9BF"/>
<circle cx="729.667" cy="406" r="16" fill="#C2F7AD"/>
<circle cx="908" cy="406" r="16" fill="#C2F7AD"/>
<path d="M985 77H71" stroke="#AEB9BF"/>
<path d="M985 149H71" stroke="#AEB9BF"/>
<path d="M985 225H71" stroke="#AEB9BF"/>
<path d="M985 297H71" stroke="#AEB9BF"/>
<path d="M985 369H71" stroke="#AEB9BF"/>
<path d="M985 443H71" stroke="#AEB9BF"/>
</svg>
