<?xml version="1.0" encoding="utf-8"?>
<!-- Generator: Adobe Illustrator 24.0.2, SVG Export Plug-In . SVG Version: 6.00 Build 0)  -->
<svg version="1.1" id="Layer_1" xmlns="http://www.w3.org/2000/svg" xmlns:xlink="http://www.w3.org/1999/xlink" x="0px" y="0px"
	 viewBox="0 0 1128 534" style="enable-background:new 0 0 1128 534;" xml:space="preserve">
<style type="text/css">
	.st0{fill:none;stroke:#AEB9BF;}
	.st1{fill:#25444A;}
	.st2{font-family:'Gronland-Regular';}
	.st3{font-size:24px;}
	.st4{fill:#AEB9BF;}
	.st5{font-family:'Gronland-Demi';}
	.st6{font-size:15px;}
	.st7{font-size:12px;}
	.st8{fill:#56D690;}
	.st9{fill:#C2F7AD;}
	.st10{fill:none;stroke:#C2F7AD;stroke-width:1.5;}
	.st11{fill:none;stroke:#FF4545;}
	.st12{enable-background:new    ;}
	.st13{fill:#A5A5A5;}
	.st14{font-family:'MyriadPro-Regular';}
	.st15{font-size:118.2195px;}
</style>
<line class="st0" x1="1041.5" y1="68.5" x2="291.5" y2="68.5"/>
<line class="st0" x1="1041.5" y1="125.5" x2="291.5" y2="125.5"/>
<line class="st0" x1="1041.5" y1="182.5" x2="291.5" y2="182.5"/>
<line class="st0" x1="1041.5" y1="239.5" x2="291.5" y2="239.5"/>
<line class="st0" x1="1041.5" y1="296.5" x2="291.5" y2="296.5"/>
<line class="st0" x1="1041.5" y1="353.5" x2="291.5" y2="353.5"/>
<line class="st0" x1="1041.5" y1="410.5" x2="291.5" y2="410.5"/>
<line class="st0" x1="1041.5" y1="467.5" x2="291.5" y2="467.5"/>
<line class="st0" x1="1041.5" y1="524.5" x2="291.5" y2="524.5"/>
<text transform="matrix(1 0 0 1 0 106.5)" class="st1 st2 st3">David Energy</text>
<text transform="matrix(1 0 0 1 0 162.928)" class="st4 st2 st3">ConEd </text>
<text transform="matrix(1 0 0 1 77.7384 162.928)" class="st4 st5 st6">(GEO SPECIFIC)</text>
<text transform="matrix(1 0 0 1 0 219.357)" class="st4 st2 st3">NRG</text>
<text transform="matrix(1 0 0 1 0 275.786)" class="st4 st2 st3">Vistra</text>
<text transform="matrix(1 0 0 1 0 332.214)" class="st4 st2 st3">Schneider</text>
<text transform="matrix(1 0 0 1 0 388.643)" class="st4 st2 st3">Engie</text>
<text transform="matrix(1 0 0 1 0 445.071)" class="st4 st2 st3">Voltus</text>
<text transform="matrix(1 0 0 1 0 501.5)" class="st4 st2 st3">Johnson Controls</text>
<text transform="matrix(1 0 0 1 317 50.5)" class="st1 st5 st7">UTILITY</text>
<text transform="matrix(1 0 0 1 440.283 33.5)" class="st1 st5 st7">ENERGY </text>
<text transform="matrix(1 0 0 1 435.218 50.5)" class="st1 st5 st7">SUPPLIER</text>
<text transform="matrix(1 0 0 1 564.783 16.5)" class="st1 st5 st7">ENERGY </text>
<text transform="matrix(1 0 0 1 542.771 33.5)" class="st1 st5 st7">MANAGEMENT </text>
<text transform="matrix(1 0 0 1 565.436 50.5)" class="st1 st5 st7">SYSTEM</text>
<text transform="matrix(1 0 0 1 692.92 16.5)" class="st1 st5 st7">BILLING </text>
<text transform="matrix(1 0 0 1 669.771 33.5)" class="st1 st5 st7">MANAGEMENT </text>
<text transform="matrix(1 0 0 1 682.669 50.5)" class="st1 st5 st7">PLATFORM</text>
<text transform="matrix(1 0 0 1 820.611 33.5)" class="st1 st5 st7">DEVICE </text>
<text transform="matrix(1 0 0 1 797.131 50.5)" class="st1 st5 st7">MANAGEMENT</text>
<text transform="matrix(1 0 0 1 934.356 33.5)" class="st1 st5 st7">CONTROLS </text>
<text transform="matrix(1 0 0 1 936.904 50.5)" class="st1 st5 st7">COMPANY</text>
<circle class="st8" cx="342" cy="97" r="12"/>
<circle class="st9" cx="342" cy="154.1" r="12"/>
<circle class="st9" cx="342" cy="211.3" r="12"/>
<circle class="st9" cx="342" cy="268.4" r="12"/>
<circle class="st9" cx="342" cy="325.6" r="12"/>
<circle class="st9" cx="342" cy="382.7" r="12"/>
<circle class="st9" cx="342" cy="439.9" r="12"/>
<circle class="st9" cx="342" cy="497" r="12"/>
<circle class="st8" cx="467.2" cy="97" r="12"/>
<circle class="st9" cx="467.2" cy="153.1" r="12"/>
<circle class="st9" cx="467.2" cy="209.3" r="12"/>
<circle class="st9" cx="467.2" cy="265.4" r="12"/>
<circle class="st9" cx="467.2" cy="321.6" r="12"/>
<circle class="st10" cx="467.2" cy="377.7" r="11.2"/>
<circle class="st10" cx="467.2" cy="433.9" r="11.2"/>
<circle class="st10" cx="467.2" cy="490" r="11.2"/>
<circle class="st8" cx="592.4" cy="97" r="12"/>
<circle class="st9" cx="592.4" cy="153.1" r="12"/>
<circle class="st9" cx="592.4" cy="209.3" r="12"/>
<circle class="st10" cx="592.4" cy="265.4" r="11.2"/>
<circle class="st10" cx="592.4" cy="321.6" r="11.2"/>
<circle class="st10" cx="592.4" cy="377.7" r="11.2"/>
<circle class="st10" cx="592.4" cy="433.9" r="11.2"/>
<circle class="st10" cx="592.4" cy="490" r="11.2"/>
<circle class="st8" cx="717.6" cy="97" r="12"/>
<circle class="st9" cx="717.6" cy="153.1" r="12"/>
<circle class="st10" cx="717.6" cy="209.3" r="11.2"/>
<circle class="st10" cx="717.6" cy="265.4" r="11.2"/>
<circle class="st10" cx="717.6" cy="321.6" r="11.2"/>
<circle class="st10" cx="717.6" cy="377.7" r="11.2"/>
<circle class="st10" cx="717.6" cy="433.9" r="11.2"/>
<circle class="st10" cx="717.6" cy="490" r="11.2"/>
<circle class="st8" cx="842.8" cy="97" r="12"/>
<circle class="st10" cx="842.8" cy="153.1" r="11.2"/>
<circle class="st10" cx="842.8" cy="209.3" r="11.2"/>
<circle class="st10" cx="842.8" cy="265.4" r="11.2"/>
<circle class="st10" cx="842.8" cy="321.6" r="11.2"/>
<circle class="st10" cx="842.8" cy="377.7" r="11.2"/>
<circle class="st10" cx="842.8" cy="433.9" r="11.2"/>
<circle class="st10" cx="842.8" cy="490" r="11.2"/>
<circle class="st8" cx="968" cy="97" r="12"/>
<circle class="st10" cx="968" cy="153.1" r="11.2"/>
<circle class="st10" cx="968" cy="209.3" r="11.2"/>
<circle class="st10" cx="968" cy="265.4" r="11.2"/>
<circle class="st10" cx="968" cy="321.6" r="11.2"/>
<circle class="st10" cx="968" cy="377.7" r="11.2"/>
<circle class="st10" cx="968" cy="433.9" r="11.2"/>
<circle class="st10" cx="968" cy="490" r="11.2"/>
<rect x="5.5" y="0.5" class="st11" width="1122" height="533"/>
<text transform="matrix(1 0 0 1 173.9988 230.7663)" class="st12"><tspan x="0" y="0" class="st13 st14 st15">For Home Chart</tspan><tspan x="286.7" y="141.9" class="st13 st14 st15">FPO</tspan></text>
</svg>
