<?xml version="1.0" encoding="utf-8"?>
<!-- Generator: Adobe Illustrator 24.0.2, SVG Export Plug-In . SVG Version: 6.00 Build 0)  -->
<svg version="1.1" id="Layer_1" xmlns="http://www.w3.org/2000/svg" xmlns:xlink="http://www.w3.org/1999/xlink" x="0px" y="0px"
	 viewBox="0 0 1128 470" style="enable-background:new 0 0 1128 470;" xml:space="preserve">
<style type="text/css">
	.st0{fill:#092D2E;}
	.st1{fill:#83939C;}
	.st2{fill:#25444A;}
	.st3{fill:#56D690;}
	.st4{fill:#C2F7AD;}
	.st5{fill-rule:evenodd;clip-rule:evenodd;fill:#AEB9BF;}
	.st6{fill:none;stroke:#AEB9BF;}
</style>
<path class="st0" d="M79.1,121c6,0,9.5-3.7,9.5-9.8c0-6.1-3.5-9.8-9.5-9.8h-5.7V121H79.1z M75.7,103.4h3.2c4.7,0,7.5,2.7,7.5,7.8
	c0,5.1-2.8,7.8-7.5,7.8h-3.2V103.4z M96.2,121.4c2,0,3.8-0.9,5.1-3h0.1l0,0.8c0.1,1.1,0.8,1.8,2,1.8h1.7v-1.9h-0.6
	c-0.9,0-1.1-0.2-1.1-1.1V110c0-2.9-2.8-3.8-5.4-3.8c-3.6,0-5.9,1.9-6.2,4.6h2.3c0.3-1.5,1.4-2.6,4-2.6c1.4,0,3.1,0.3,3.1,1.9
	c0,0.9-0.6,1.4-1.8,1.7l-3.6,0.7c-2.8,0.6-4.3,2.2-4.3,4.5C91.5,119.4,93.2,121.4,96.2,121.4z M96.5,119.5c-1.8,0-2.8-1.1-2.8-2.7
	c0-1.6,1-2.4,2.5-2.6l2.9-0.6c0.9-0.2,1.5-0.4,2-0.8h0.1v1.3C101.2,117.9,98.6,119.5,96.5,119.5z M114.3,121l5.3-14.4h-2.4
	l-4.5,12.5h-0.1l-4.5-12.5h-2.4l5.3,14.4H114.3z M124.3,104.7v-3.3H122v3.3H124.3z M124.3,121v-14.4h-2.2V121H124.3z M133.9,121.4
	c2.1,0,3.8-1,4.8-2.7h0.1v2.3h2.1v-19.6h-2.2v7.4h-0.1c-0.9-1.6-2.6-2.6-4.7-2.6c-3.7,0-6.2,3-6.2,7.6
	C127.7,118.2,130,121.4,133.9,121.4z M134.4,119.4c-2.8,0-4.4-2.2-4.4-5.6c0-3.4,1.7-5.6,4.4-5.6c3.1,0,4.4,2.7,4.4,5.6
	C138.8,116.7,137.4,119.4,134.4,119.4z M165.2,121v-2h-11.4v-8.7h8.7v-2h-8.7v-4.8h11.1v-2h-13.3V121H165.2z M171,121v-7.4
	c0-3.3,2.1-5.4,4.6-5.4c1.9,0,2.9,1.3,2.9,3.1v9.7h2.2v-10.2c0-3.1-2-4.6-4.5-4.6c-2.1,0-4.1,1.1-5.2,3h-0.1v-2.5h-2.1V121H171z
	 M195.2,115.9c-0.4,2.4-2.3,3.5-4.3,3.5c-2.8,0-5-2-5.1-5.6h11.1v-0.9c0-4.3-2.7-6.7-6.4-6.7c-3.8,0-6.8,2.7-6.8,7.3
	c0,4.4,2.7,7.9,7.2,7.9c3.3,0,6-1.9,6.6-5.5H195.2z M190.5,108.1c2.1,0,4,1.1,4.1,3.9H186C186.5,109.4,188.2,108.1,190.5,108.1z
	 M202.8,121v-8.9c0-2.2,0.8-3.2,2.9-3.2h2.6v-2.3h-2.3c-1.8,0-2.7,0.8-3.2,1.8h-0.1v-1.8h-2.2V121H202.8z M214.1,116.1
	c0.7,0,1.5,0.3,2.8,0.3c3.5,0,5.7-2.1,5.7-5.2V110c0-0.8,0.3-1.1,1.1-1.1h1v-2.3H223c-1.1,0-1.7,0.4-1.8,1.5c-0.9-1-2.4-1.9-4.6-1.9
	c-3.4,0-5.8,2.2-5.8,5c0,1.6,0.7,2.9,1.4,3.6v0.1c-1.1,0.3-1.9,1.1-1.9,2.4c0,1.1,0.6,1.8,1.3,2.2v0.1c-1.1,0.6-1.9,1.8-1.9,3.4
	c0,2.9,2,4.5,4.9,4.5h4.4c2.7,0,4.8-1.6,4.8-4.5s-1.9-4.5-4.8-4.5h-5c-0.9,0-1.5-0.5-1.5-1.2C212.7,116.5,213.2,116.1,214.1,116.1z
	 M216.7,108.1c2,0,3.6,1.1,3.6,3.2c0,2.1-1.6,3.2-3.6,3.2c-2,0-3.6-1.1-3.6-3.2C213.1,109.2,214.7,108.1,216.7,108.1z M218.7,120.4
	c1.8,0,2.9,0.8,2.9,2.5c0,1.7-1.2,2.6-2.9,2.6H215c-1.8,0-3-1-3-2.6c0-1.7,1.2-2.5,3-2.5H218.7z M240.2,106.6h-2.4l-4.2,11.3h-0.1
	l-4.6-11.3h-2.4l5.5,13.3c0.3,0.8,0.2,1.4,0,2l-1,2.5c-0.3,0.7-0.6,1.1-1.5,1.1h-2v2h2.3c1.9,0,2.7-0.8,3.2-2.2L240.2,106.6z"/>
<path class="st1" d="M84.7,195v-2h-9.1v-17.6h-2.2V195H84.7z M93.6,195.4c4.3,0,7-3.1,7-7.6s-2.7-7.6-7-7.6c-4.3,0-7.1,3.1-7.1,7.6
	C86.6,192.3,89.3,195.4,93.6,195.4z M93.6,193.4c-2.7,0-4.8-1.8-4.8-5.6c0-3.8,2.1-5.6,4.8-5.6c2.7,0,4.8,1.8,4.8,5.6
	C98.4,191.6,96.3,193.4,93.6,193.4z M110.2,195.4c3.6,0,6.1-2.2,6.5-5.7h-2.3c-0.2,2.6-2.1,3.7-4.3,3.7c-2.6,0-4.8-1.8-4.8-5.6
	c0-3.8,2.1-5.6,4.9-5.6c2,0,3.7,1.1,4,3.2h2.3c-0.4-3.2-2.7-5.2-6.3-5.2c-4.4,0-7.1,3.1-7.1,7.6
	C103.2,192.3,105.9,195.4,110.2,195.4z M124.1,195.4c2,0,3.8-0.9,5.1-3h0.1l0,0.8c0.1,1.1,0.8,1.8,2,1.8h1.7v-1.9h-0.6
	c-0.9,0-1.1-0.2-1.1-1.1V184c0-2.9-2.8-3.8-5.4-3.8c-3.6,0-5.9,1.9-6.2,4.6h2.3c0.3-1.5,1.4-2.6,4-2.6c1.4,0,3.1,0.3,3.1,1.9
	c0,0.9-0.6,1.4-1.8,1.7l-3.6,0.7c-2.8,0.6-4.3,2.2-4.3,4.5C119.4,193.4,121.1,195.4,124.1,195.4z M124.4,193.5
	c-1.8,0-2.8-1.1-2.8-2.7c0-1.6,1-2.4,2.5-2.6l2.9-0.6c0.9-0.2,1.5-0.4,2-0.8h0.1v1.3C129.1,191.9,126.6,193.5,124.4,193.5z
	 M138.6,195v-19.6h-2.2V195H138.6z M156.7,195.4c5.2,0,7.5-2.6,7.5-6.9v-13.1H162v12.9c0,3.5-1.7,5-5.3,5c-3.5,0-5.3-1.6-5.3-5
	v-12.9h-2.2v13.1C149.1,192.8,151.6,195.4,156.7,195.4z M180.1,178.7h2.4v-3.3h-2.4V178.7z M180.2,180.6h-7v-3.8h-2.2v3.8h-3.8v1.8
	h3.8v9.7c0,2,0.9,2.9,3,2.9h3.3v-2h-2.6c-1.1,0-1.4-0.4-1.4-1.4v-9.2h7V195h2.2v-14.4L180.2,180.6L180.2,180.6z M189,195v-19.6h-2.2
	V195H189z M195.7,178.7v-3.3h-2.4v3.3H195.7z M195.6,195v-14.4h-2.2V195H195.6z M216.8,191.9L216.8,191.9l-4.7-11.3h-7.6v-3.8h-2.2
	v3.8h-3.8v1.8h3.8v9.7c0,2,0.9,2.9,3,2.9h3.3v-2H206c-1.1,0-1.4-0.4-1.4-1.4v-9.2h5.9l4.8,11.5c0.3,0.8,0.2,1.4,0,2l-1,2.5
	c-0.3,0.7-0.6,1.1-1.5,1.1h-2v2h2.3c1.9,0,2.7-0.8,3.2-2.2l7.1-18.6H221L216.8,191.9z"/>
<path class="st1" d="M75.7,269v-17.8h0.1l9,17.8h3.7v-19.6h-2.2v17.8h-0.1l-9-17.8h-3.7V269H75.7z M95.6,269v-10.1h6.5
	c2,0,2.7,1.2,2.8,2.5l1,7.6h2.2v-0.2l-1.1-8.1c-0.2-1.2-0.6-2-1.5-2.6v-0.1c1-0.4,2.3-1.7,2.3-4.1c0-2.7-1.7-4.6-5-4.6h-9.4V269
	H95.6z M95.6,251.4h7c1.8,0,3,0.8,3,2.7c0,1.9-1.1,2.7-2.8,2.7h-7.1V251.4z M129.1,269v-11.5h-9.2v2.1h7v0.5c0,4.3-2.9,7.3-6.9,7.3
	c-4.3,0-7-3.5-7-8.2c0-4.7,2.7-8.1,7.3-8.1c2.8,0,5,1.3,5.8,3.8h2.4c-1-3.6-4-5.8-8.3-5.8c-6.1,0-9.5,4.4-9.5,10.3
	c0,5.9,3.4,10.2,8.9,10.2c3.4,0,5.9-1.7,7.3-4.1h0.1v3.7H129.1z"/>
<path class="st1" d="M87,343v-2H75.7v-8.7h8.7v-2h-8.7v-4.8h11.1v-2H73.5V343H87z M92.8,343v-7.4c0-3.3,2.1-5.4,4.6-5.4
	c1.9,0,2.9,1.3,2.9,3.1v9.7h2.2v-10.2c0-3.1-2-4.6-4.5-4.6c-2.1,0-4.1,1.1-5.2,3h-0.1v-2.5h-2.1V343H92.8z M109.8,338.1
	c0.7,0,1.5,0.3,2.8,0.3c3.5,0,5.7-2.1,5.7-5.2V332c0-0.8,0.3-1.1,1.1-1.1h1v-2.3h-1.6c-1.1,0-1.7,0.4-1.8,1.5
	c-0.9-1-2.4-1.9-4.6-1.9c-3.4,0-5.8,2.2-5.8,5c0,1.6,0.7,2.9,1.4,3.6v0.1c-1.1,0.3-1.9,1.1-1.9,2.4c0,1.1,0.6,1.8,1.3,2.2v0.1
	c-1.1,0.6-1.9,1.8-1.9,3.4c0,2.9,2,4.5,4.9,4.5h4.4c2.7,0,4.8-1.6,4.8-4.5c0-2.9-1.9-4.5-4.8-4.5h-5c-0.9,0-1.5-0.5-1.5-1.2
	C108.3,338.5,108.9,338.1,109.8,338.1z M112.4,330.1c2,0,3.6,1.1,3.6,3.2c0,2.1-1.6,3.2-3.6,3.2c-2,0-3.6-1.1-3.6-3.2
	C108.8,331.2,110.4,330.1,112.4,330.1z M114.4,342.4c1.8,0,2.9,0.8,2.9,2.5c0,1.7-1.2,2.6-2.9,2.6h-3.7c-1.8,0-3-1-3-2.6
	c0-1.7,1.2-2.5,3-2.5H114.4z M125.2,326.7v-3.3h-2.4v3.3H125.2z M125.2,343v-14.4H123V343H125.2z M140.2,337.9
	c-0.4,2.4-2.3,3.5-4.3,3.5c-2.8,0-5-2-5.1-5.6h11.1v-0.9c0-4.3-2.7-6.7-6.4-6.7c-3.8,0-6.8,2.7-6.8,7.3c0,4.4,2.7,7.9,7.2,7.9
	c3.3,0,6-1.9,6.6-5.5H140.2z M135.4,330.1c2.1,0,4,1.1,4.1,3.9h-8.7C131.4,331.4,133.2,330.1,135.4,330.1z"/>
<path class="st1" d="M82.1,417l7.6-19.6h-2.4l-6.8,17.7h-0.1l-6.7-17.7h-2.4L79,417H82.1z M97.1,417.4c4.3,0,7-3.1,7-7.6
	c0-4.5-2.7-7.6-7-7.6c-4.3,0-7.1,3.1-7.1,7.6C90,414.3,92.8,417.4,97.1,417.4z M97.1,415.4c-2.7,0-4.8-1.8-4.8-5.6
	c0-3.8,2.1-5.6,4.8-5.6c2.7,0,4.8,1.8,4.8,5.6C101.8,413.6,99.7,415.4,97.1,415.4z M109.7,417v-19.6h-2.2V417H109.7z M135,409.9
	c0,3.3-2.1,5.4-4.5,5.4c-1.9,0-2.8-1.3-2.8-3.1v-9.6h-8.8v-3.8h-2.2v3.8h-3.8v1.8h3.8v9.7c0,2,0.9,2.9,3,2.9h3.3v-2h-2.6
	c-1.1,0-1.4-0.4-1.4-1.4v-9.2h6.6v8.5c0,3.1,2,4.6,4.4,4.6c2.2,0,4.1-1.2,5.2-3h0.1v2.5h2.1v-14.4H135V409.9z M146.5,417.4
	c3.3,0,5.5-1.8,5.5-4.5c0-1.8-1-3.4-3.5-3.9l-3.5-0.7c-1.4-0.3-1.9-1.1-1.9-2c0-1.5,1.3-2.2,3.1-2.2c1.9,0,3.3,0.9,3.4,2.5h2.3
	c-0.2-3.1-2.8-4.5-5.6-4.5c-3.1,0-5.3,1.7-5.3,4.2c0,1.7,1.1,3.3,3.6,3.8l3.4,0.6c1.3,0.3,1.9,1,1.9,2.1c0,1.8-1.6,2.6-3.2,2.6
	c-2.1,0-3.7-1.1-3.9-3.1h-2.3C140.7,415.4,143,417.4,146.5,417.4z"/>
<path class="st2" d="M346.6,29h-9.4V16.4h9.2v2.3h-6.7v2.2h5.1v2.3h-5.1v3.6h6.8V29z M352.8,29h-2.5V16.4h3.8l4.2,9.6h0v-9.6h2.5V29
	h-3.8l-4.2-9.6h0V29z M374.5,29h-9.4V16.4h9.2v2.3h-6.7v2.2h5.1v2.3h-5.1v3.6h6.8V29z M378.2,29V16.4h6.5c1.1,0,2,0.3,2.6,0.9
	c0.6,0.6,0.9,1.4,0.9,2.4c0,0.7-0.1,1.3-0.4,1.7c-0.3,0.4-0.6,0.7-1,0.9v0c0.5,0.3,0.8,0.8,0.8,1.5l0.7,5V29h-2.5l-0.7-4.6
	c-0.1-0.8-0.6-1.2-1.4-1.2h-3.1V29H378.2z M384.3,21.1c0.9,0,1.3-0.4,1.3-1.2c0-0.8-0.4-1.2-1.3-1.2h-3.6v2.4H384.3z M401,29v-1.6h0
	c-0.4,0.6-1,1.1-1.7,1.4c-0.7,0.3-1.5,0.5-2.4,0.5c-1.1,0-2.1-0.3-2.9-0.8c-0.8-0.6-1.5-1.3-2-2.3c-0.5-1-0.7-2.1-0.7-3.4
	c0-1.3,0.2-2.5,0.7-3.5c0.5-1,1.2-1.8,2.1-2.3s2.1-0.8,3.3-0.8c1.5,0,2.7,0.4,3.7,1.1c1,0.7,1.6,1.7,1.9,2.9h-2.9
	c-0.2-0.5-0.5-0.9-1-1.2c-0.5-0.3-1-0.4-1.7-0.4c-1.1,0-2,0.4-2.7,1.2c-0.6,0.8-1,1.8-1,3c0,1.3,0.3,2.3,1,3.1
	c0.6,0.8,1.5,1.2,2.6,1.2c0.6,0,1.2-0.1,1.7-0.4s0.9-0.6,1.2-1.1c0.3-0.5,0.5-1,0.5-1.7l0-0.1h-3.6v-2.1h6.1V29H401z M412.1,29h-2.5
	v-5.6l-4.5-7h3l2.7,4.4h0l2.7-4.4h3l-4.5,7V29z M333.9,49.3c-1,0-1.9-0.2-2.6-0.5s-1.4-0.9-1.8-1.5c-0.5-0.7-0.7-1.5-0.8-2.3h2.6
	c0,0.7,0.3,1.3,0.8,1.7c0.5,0.4,1.1,0.6,1.9,0.6c0.6,0,1.2-0.1,1.6-0.4c0.4-0.3,0.6-0.7,0.6-1.3c0-0.8-0.5-1.4-1.4-1.5l-2.9-0.6
	c-0.9-0.2-1.7-0.6-2.1-1.2c-0.5-0.6-0.7-1.3-0.7-2.1c0-0.7,0.2-1.4,0.6-2c0.4-0.6,0.9-1,1.6-1.3c0.7-0.3,1.5-0.5,2.4-0.5
	c0.9,0,1.8,0.2,2.5,0.5c0.7,0.3,1.3,0.8,1.7,1.4c0.4,0.6,0.6,1.3,0.7,2.1H336c0-0.6-0.3-1.1-0.7-1.4c-0.4-0.3-1-0.5-1.6-0.5
	c-0.6,0-1.1,0.1-1.4,0.4c-0.4,0.2-0.5,0.6-0.5,1.1c0,0.7,0.4,1.1,1.1,1.3l2.8,0.6c1,0.2,1.8,0.6,2.3,1.2c0.6,0.6,0.8,1.3,0.8,2.4
	c0,0.9-0.2,1.6-0.6,2.2c-0.4,0.6-1,1.1-1.7,1.4C335.7,49.1,334.9,49.3,333.9,49.3z M347.2,49.3c-1.7,0-3-0.4-3.9-1.2
	c-0.9-0.8-1.3-2-1.3-3.4v-8.2h2.5v8c0,0.9,0.2,1.5,0.6,1.9c0.4,0.4,1.1,0.6,2,0.6c0.9,0,1.6-0.2,2-0.6c0.4-0.4,0.6-1,0.6-1.9v-8h2.5
	v8.2c0,1.5-0.4,2.6-1.3,3.4C350.2,48.9,348.9,49.3,347.2,49.3z M356.5,49V36.4h6.5c1.1,0,2,0.3,2.6,1c0.6,0.6,1,1.5,1,2.6
	c0,1.1-0.3,1.9-0.9,2.5c-0.6,0.6-1.5,0.9-2.6,0.9h-4V49H356.5z M362.7,41.2c0.9,0,1.3-0.4,1.3-1.3c0-0.4-0.1-0.8-0.4-1
	c-0.2-0.2-0.6-0.3-1-0.3H359v2.5H362.7z M370.1,49V36.4h6.5c1.1,0,2,0.3,2.6,1c0.6,0.6,1,1.5,1,2.6c0,1.1-0.3,1.9-0.9,2.5
	c-0.6,0.6-1.5,0.9-2.6,0.9h-4V49H370.1z M376.2,41.2c0.9,0,1.3-0.4,1.3-1.3c0-0.4-0.1-0.8-0.4-1c-0.2-0.2-0.6-0.3-1-0.3h-3.7v2.5
	H376.2z M391.6,49h-8V36.4h2.5v10.3h5.4V49z M397.5,49H395V36.4h2.5V49z M411.2,49h-9.4V36.4h9.2v2.3h-6.7v2.2h5.1v2.3h-5.1v3.6h6.8
	V49z M414.9,49V36.4h6.5c1.1,0,2,0.3,2.6,0.9c0.6,0.6,0.9,1.4,0.9,2.4c0,0.7-0.1,1.3-0.4,1.7c-0.3,0.4-0.6,0.7-1,0.9v0
	c0.5,0.3,0.8,0.8,0.8,1.5l0.7,5V49h-2.5l-0.7-4.6c-0.1-0.8-0.6-1.2-1.4-1.2h-3.1V49H414.9z M421,41.1c0.9,0,1.3-0.4,1.3-1.2
	c0-0.8-0.4-1.2-1.3-1.2h-3.6v2.4H421z"/>
<path class="st2" d="M514.3,29V16.4h6.2c1.2,0,2.1,0.3,2.7,0.8c0.6,0.5,0.9,1.3,0.9,2.2c0,0.6-0.1,1.1-0.4,1.5c-0.2,0.4-0.6,0.7-1,1
	v0c0.5,0.3,0.9,0.6,1.2,1.1c0.3,0.5,0.5,1.1,0.5,1.9c0,0.8-0.2,1.4-0.5,2.1c-0.3,0.6-0.8,1.1-1.5,1.5c-0.7,0.4-1.5,0.5-2.5,0.5
	H514.3z M520.3,21c0.4,0,0.8-0.1,1-0.3c0.2-0.2,0.3-0.5,0.3-1c0-0.4-0.1-0.7-0.3-0.9c-0.2-0.2-0.5-0.3-1-0.3h-3.5V21H520.3z
	 M519.5,26.8c1.5,0,2.3-0.6,2.3-1.9c0-1.2-0.7-1.8-2.1-1.8h-2.9v3.7H519.5z M530.5,29H528V16.4h2.5V29z M542.8,29h-8V16.4h2.5v10.3
	h5.4V29z M554.1,29h-8V16.4h2.5v10.3h5.4V29z M560,29h-2.5V16.4h2.5V29z M566.8,29h-2.5V16.4h3.8l4.2,9.6h0v-9.6h2.5V29h-3.8
	l-4.2-9.6h0V29z M588.2,29v-1.6h0c-0.4,0.6-1,1.1-1.7,1.4c-0.7,0.3-1.5,0.5-2.4,0.5c-1.1,0-2.1-0.3-2.9-0.8c-0.8-0.6-1.5-1.3-2-2.3
	c-0.5-1-0.7-2.1-0.7-3.4c0-1.3,0.2-2.5,0.7-3.5c0.5-1,1.2-1.8,2.1-2.3c0.9-0.6,2.1-0.8,3.3-0.8c1.5,0,2.7,0.4,3.7,1.1
	c1,0.7,1.6,1.7,1.9,2.9h-2.9c-0.2-0.5-0.5-0.9-1-1.2s-1-0.4-1.7-0.4c-1.1,0-2,0.4-2.7,1.2c-0.6,0.8-1,1.8-1,3c0,1.3,0.3,2.3,1,3.1
	c0.6,0.8,1.5,1.2,2.6,1.2c0.6,0,1.2-0.1,1.7-0.4s0.9-0.6,1.2-1.1s0.5-1,0.5-1.7l0-0.1h-3.6v-2.1h6.1V29H588.2z M499.4,49V36.4h6.5
	c1.1,0,2,0.3,2.6,1c0.6,0.6,1,1.5,1,2.6c0,1.1-0.3,1.9-0.9,2.5c-0.6,0.6-1.5,0.9-2.6,0.9h-4V49H499.4z M505.6,41.2
	c0.9,0,1.4-0.4,1.4-1.3c0-0.4-0.1-0.8-0.4-1c-0.2-0.2-0.6-0.3-1-0.3h-3.7v2.5H505.6z M521,49h-8V36.4h2.5v10.3h5.4V49z M536,49h-2.7
	l-1.1-3.1h-5.2l-1.1,3.1h-2.7l4.7-12.6h3.4L536,49z M529.5,38.8l-1.7,4.8h3.6L529.5,38.8L529.5,38.8z M543.5,49H541V38.7h-4v-2.3
	h10.5v2.3h-4V49z M553.2,49h-2.5V36.4h8.8v2.3h-6.3V41h4.9v2.3h-4.9V49z M568.4,49.3c-1.3,0-2.4-0.3-3.3-0.8
	c-0.9-0.6-1.7-1.3-2.2-2.3c-0.5-1-0.7-2.1-0.7-3.4c0-1.3,0.2-2.4,0.7-3.4c0.5-1,1.2-1.8,2.2-2.3c0.9-0.6,2.1-0.8,3.3-0.8
	s2.4,0.3,3.3,0.8c0.9,0.6,1.7,1.3,2.2,2.3c0.5,1,0.8,2.1,0.8,3.4c0,1.3-0.3,2.4-0.8,3.4c-0.5,1-1.2,1.8-2.2,2.3
	C570.8,49,569.7,49.3,568.4,49.3z M568.5,47c1.1,0,2-0.4,2.6-1.2c0.7-0.8,1-1.8,1-3.1c0-1.3-0.3-2.3-1-3.1c-0.6-0.8-1.5-1.2-2.6-1.2
	c-1.1,0-2,0.4-2.7,1.2c-0.6,0.8-1,1.8-1,3.1c0,1.3,0.3,2.4,1,3.1C566.5,46.6,567.3,47,568.5,47z M578.3,49V36.4h6.5
	c1.1,0,2,0.3,2.6,0.9c0.6,0.6,0.9,1.4,0.9,2.4c0,0.7-0.1,1.3-0.4,1.7c-0.3,0.4-0.6,0.7-1,0.9v0c0.5,0.3,0.8,0.8,0.8,1.5l0.7,5V49
	h-2.5l-0.7-4.6c-0.1-0.8-0.6-1.2-1.3-1.2h-3.1V49H578.3z M584.5,41.1c0.9,0,1.3-0.4,1.3-1.2c0-0.8-0.4-1.2-1.3-1.2h-3.6v2.4H584.5z
	 M594.8,49h-2.5V36.4h4.3l2.9,8.7h0l2.8-8.7h4.3V49h-2.5V38.9h0L600.6,49h-2.3l-3.5-10.1h0V49z"/>
<path class="st2" d="M692,29V16.4h4.3c2,0,3.5,0.6,4.6,1.7c1.1,1.1,1.7,2.6,1.7,4.6s-0.6,3.5-1.7,4.6c-1.1,1.1-2.7,1.7-4.6,1.7H692z
	 M696.3,26.7c1.2,0,2.1-0.3,2.8-1c0.7-0.7,1-1.7,1-3c0-1.3-0.3-2.3-1-3c-0.6-0.7-1.6-1-2.8-1h-1.7v8.1H696.3z M715.6,29h-9.4V16.4
	h9.2v2.3h-6.7v2.2h5.1v2.3h-5.1v3.6h6.8V29z M726.1,29h-3.4L718,16.4h2.7l3.6,10.1h0.1l3.6-10.1h2.7L726.1,29z M736.3,29h-2.5V16.4
	h2.5V29z M746.2,29.3c-1.3,0-2.4-0.3-3.3-0.8c-0.9-0.5-1.7-1.3-2.2-2.3c-0.5-1-0.7-2.1-0.7-3.5c0-1.3,0.2-2.5,0.7-3.5
	c0.5-1,1.2-1.8,2.2-2.3c0.9-0.6,2.1-0.8,3.3-0.8c1.5,0,2.8,0.4,3.8,1.2c1,0.8,1.7,1.9,1.9,3.3h-2.8c-0.2-0.7-0.5-1.2-1-1.6
	c-0.5-0.4-1.2-0.6-2-0.6c-1.1,0-2,0.4-2.6,1.1c-0.6,0.7-1,1.8-1,3.1c0,1.3,0.3,2.4,1,3.2c0.6,0.8,1.5,1.1,2.7,1.1
	c1,0,1.8-0.3,2.4-0.9c0.6-0.6,0.9-1.5,1-2.6h2.6c-0.1,1.2-0.4,2.2-0.8,3c-0.5,0.9-1.2,1.5-2.1,2C748.4,29,747.4,29.3,746.2,29.3z
	 M765.2,29h-9.4V16.4h9.2v2.3h-6.7v2.2h5.1v2.3h-5.1v3.6h6.8V29z M658.8,49h-2.5V36.4h4.3l2.9,8.7h0l2.8-8.7h4.3V49h-2.5V38.9h0
	L664.6,49h-2.3l-3.5-10.1h0V49z M686.5,49h-2.7l-1.1-3.1h-5.2l-1.1,3.1h-2.7l4.7-12.6h3.4L686.5,49z M680,38.8l-1.7,4.8h3.6
	L680,38.8L680,38.8z M692.1,49h-2.5V36.4h3.8l4.2,9.6h0v-9.6h2.5V49h-3.8l-4.2-9.6h0V49z M716.1,49h-2.7l-1.1-3.1H707l-1.1,3.1h-2.7
	l4.7-12.6h3.4L716.1,49z M709.5,38.8l-1.7,4.8h3.6L709.5,38.8L709.5,38.8z M727.4,49v-1.6h0c-0.4,0.6-1,1.1-1.7,1.4
	c-0.7,0.3-1.5,0.5-2.4,0.5c-1.1,0-2.1-0.3-2.9-0.8c-0.8-0.6-1.5-1.3-2-2.3c-0.5-1-0.7-2.1-0.7-3.4c0-1.3,0.2-2.5,0.7-3.5
	c0.5-1,1.2-1.8,2.1-2.3c0.9-0.6,2.1-0.8,3.3-0.8c1.5,0,2.7,0.4,3.7,1.1c1,0.7,1.6,1.7,1.9,2.9h-2.9c-0.2-0.5-0.5-0.9-1-1.2
	c-0.5-0.3-1-0.4-1.7-0.4c-1.1,0-2,0.4-2.7,1.2c-0.6,0.8-1,1.8-1,3c0,1.3,0.3,2.3,1,3.2c0.6,0.8,1.5,1.2,2.6,1.2
	c0.6,0,1.2-0.1,1.7-0.4c0.5-0.3,0.9-0.6,1.2-1.1s0.5-1,0.5-1.7l0-0.1h-3.6v-2.1h6.1V49H727.4z M743.2,49h-9.4V36.4h9.2v2.3h-6.7v2.2
	h5.1v2.3h-5.1v3.6h6.8V49z M749.4,49h-2.5V36.4h4.3l2.9,8.7h0l2.8-8.7h4.3V49h-2.5V38.9h0L755.2,49h-2.3l-3.5-10.1h0V49z M774.9,49
	h-9.4V36.4h9.2v2.3H768v2.2h5.1v2.3H768v3.6h6.8V49z M781.1,49h-2.5V36.4h3.8l4.2,9.6h0v-9.6h2.5V49h-3.8l-4.2-9.6h0V49z M798.8,49
	h-2.5V38.7h-4v-2.3h10.5v2.3h-4V49z"/>
<path class="st2" d="M861.6,29V16.4h4.3c2,0,3.5,0.6,4.6,1.7c1.1,1.1,1.7,2.6,1.7,4.6s-0.6,3.5-1.7,4.6c-1.1,1.1-2.7,1.7-4.6,1.7
	H861.6z M865.9,26.7c1.2,0,2.1-0.3,2.8-1c0.7-0.7,1-1.7,1-3c0-1.3-0.3-2.3-1-3c-0.6-0.7-1.6-1-2.8-1h-1.7v8.1H865.9z M885.2,29h-9.4
	V16.4h9.2v2.3h-6.7v2.2h5.1v2.3h-5.1v3.6h6.8V29z M891.4,29h-2.5V16.4h4.3l2.9,8.7h0l2.8-8.7h4.3V29h-2.5V18.9h0L897.2,29h-2.3
	l-3.5-10.1h0V29z M919.1,29h-2.7l-1.1-3.1H910L909,29h-2.7l4.7-12.6h3.4L919.1,29z M912.6,18.8l-1.7,4.8h3.6L912.6,18.8L912.6,18.8z
	 M924.7,29h-2.5V16.4h3.8l4.2,9.6h0v-9.6h2.5V29h-3.8l-4.2-9.6h0V29z M937,29V16.4h4.3c2,0,3.5,0.6,4.6,1.7c1.1,1.1,1.7,2.6,1.7,4.6
	s-0.6,3.5-1.7,4.6c-1.1,1.1-2.7,1.7-4.6,1.7H937z M941.3,26.7c1.2,0,2.1-0.3,2.8-1c0.7-0.7,1-1.7,1-3c0-1.3-0.3-2.3-1-3
	c-0.6-0.7-1.6-1-2.8-1h-1.7v8.1H941.3z M852.5,49V36.4h6.5c1.1,0,2,0.3,2.6,0.9c0.6,0.6,0.9,1.4,0.9,2.4c0,0.7-0.1,1.3-0.4,1.7
	c-0.3,0.4-0.6,0.7-1,0.9v0c0.5,0.3,0.8,0.8,0.8,1.5l0.7,5V49h-2.5l-0.7-4.6c-0.1-0.8-0.6-1.2-1.4-1.2h-3.1V49H852.5z M858.7,41.1
	c0.9,0,1.3-0.4,1.3-1.2c0-0.8-0.4-1.2-1.3-1.2h-3.6v2.4H858.7z M875.8,49h-9.4V36.4h9.2v2.3H869v2.2h5.1v2.3H869v3.6h6.8V49z
	 M883.9,49.3c-1,0-1.9-0.2-2.6-0.5s-1.4-0.9-1.8-1.5c-0.5-0.7-0.7-1.5-0.8-2.3h2.6c0,0.7,0.3,1.3,0.8,1.7c0.5,0.4,1.1,0.6,1.9,0.6
	c0.6,0,1.2-0.1,1.6-0.4c0.4-0.3,0.6-0.7,0.6-1.3c0-0.8-0.5-1.4-1.4-1.5l-2.9-0.6c-0.9-0.2-1.7-0.6-2.1-1.2c-0.5-0.6-0.7-1.3-0.7-2.1
	c0-0.7,0.2-1.4,0.6-2c0.4-0.6,0.9-1,1.6-1.3c0.7-0.3,1.5-0.5,2.4-0.5c0.9,0,1.8,0.2,2.5,0.5c0.7,0.3,1.3,0.8,1.7,1.4
	c0.4,0.6,0.6,1.3,0.7,2.1H886c0-0.6-0.3-1.1-0.7-1.4c-0.4-0.3-1-0.5-1.6-0.5c-0.6,0-1.1,0.1-1.4,0.4c-0.4,0.2-0.5,0.6-0.5,1.1
	c0,0.7,0.4,1.1,1.1,1.3l2.8,0.6c1,0.2,1.8,0.6,2.3,1.2c0.6,0.6,0.8,1.3,0.8,2.4c0,0.9-0.2,1.6-0.6,2.2c-0.4,0.6-1,1.1-1.7,1.4
	C885.7,49.1,884.9,49.3,883.9,49.3z M892.2,49V36.4h6.5c1.1,0,2,0.3,2.6,1c0.6,0.6,1,1.5,1,2.6c0,1.1-0.3,1.9-0.9,2.5
	c-0.6,0.6-1.5,0.9-2.6,0.9h-4V49H892.2z M898.3,41.2c0.9,0,1.4-0.4,1.4-1.3c0-0.4-0.1-0.8-0.4-1c-0.2-0.2-0.6-0.3-1-0.3h-3.7v2.5
	H898.3z M911.3,49.3c-1.3,0-2.4-0.3-3.3-0.8c-0.9-0.6-1.7-1.3-2.2-2.3c-0.5-1-0.7-2.1-0.7-3.4c0-1.3,0.2-2.4,0.7-3.4
	c0.5-1,1.2-1.8,2.2-2.3c0.9-0.6,2.1-0.8,3.3-0.8c1.3,0,2.4,0.3,3.3,0.8c0.9,0.6,1.7,1.3,2.2,2.3c0.5,1,0.8,2.1,0.8,3.4
	c0,1.3-0.3,2.4-0.8,3.4c-0.5,1-1.2,1.8-2.2,2.3C913.7,49,912.6,49.3,911.3,49.3z M911.3,47c1.1,0,2-0.4,2.6-1.2c0.7-0.8,1-1.8,1-3.1
	c0-1.3-0.3-2.3-1-3.1c-0.6-0.8-1.5-1.2-2.6-1.2c-1.1,0-2,0.4-2.7,1.2c-0.6,0.8-1,1.8-1,3.1c0,1.3,0.3,2.4,1,3.1
	C909.3,46.6,910.2,47,911.3,47z M923.7,49h-2.5V36.4h3.8l4.2,9.6h0v-9.6h2.5V49h-3.8l-4.2-9.6h0V49z M940.5,49.3
	c-1,0-1.9-0.2-2.6-0.5s-1.4-0.9-1.8-1.5c-0.5-0.7-0.7-1.5-0.8-2.3h2.6c0,0.7,0.3,1.3,0.8,1.7c0.5,0.4,1.1,0.6,1.9,0.6
	c0.6,0,1.2-0.1,1.6-0.4c0.4-0.3,0.6-0.7,0.6-1.3c0-0.8-0.5-1.4-1.4-1.5l-2.9-0.6c-0.9-0.2-1.7-0.6-2.1-1.2c-0.5-0.6-0.7-1.3-0.7-2.1
	c0-0.7,0.2-1.4,0.6-2c0.4-0.6,0.9-1,1.6-1.3c0.7-0.3,1.5-0.5,2.4-0.5c0.9,0,1.8,0.2,2.5,0.5c0.7,0.3,1.3,0.8,1.7,1.4
	c0.4,0.6,0.6,1.3,0.7,2.1h-2.6c0-0.6-0.3-1.1-0.7-1.4c-0.4-0.3-1-0.5-1.6-0.5c-0.6,0-1.1,0.1-1.4,0.4c-0.4,0.2-0.5,0.6-0.5,1.1
	c0,0.7,0.4,1.1,1.1,1.3l2.8,0.6c1,0.2,1.8,0.6,2.3,1.2c0.6,0.6,0.8,1.3,0.8,2.4c0,0.9-0.2,1.6-0.6,2.2c-0.4,0.6-1,1.1-1.7,1.4
	C942.2,49.1,941.4,49.3,940.5,49.3z M958.1,49h-9.4V36.4h9.2v2.3h-6.7v2.2h5.1v2.3h-5.1v3.6h6.8V49z"/>
<circle class="st3" cx="373" cy="113" r="16"/>
<circle class="st3" cx="551.3" cy="113" r="16"/>
<circle class="st3" cx="729.7" cy="113" r="16"/>
<circle class="st3" cx="908" cy="113" r="16"/>
<circle class="st4" cx="373" cy="190" r="16"/>
<path class="st5" d="M550.6,190l-4.1,4.1l0.7,0.7l4.1-4.1l4.1,4.1l0.7-0.7L552,190l4.1-4.1l-0.7-0.7l-4.1,4.1l-4.1-4.1l-0.7,0.7
	L550.6,190z"/>
<path class="st6" d="M551.3,174.5L551.3,174.5c8.6,0,15.5,6.9,15.5,15.5l0,0c0,8.6-6.9,15.5-15.5,15.5l0,0
	c-8.6,0-15.5-6.9-15.5-15.5l0,0C535.8,181.4,542.8,174.5,551.3,174.5z"/>
<path class="st5" d="M729,190l-4.1,4.1l0.7,0.7l4.1-4.1l4.1,4.1l0.7-0.7l-4.1-4.1l4.1-4.1l-0.7-0.7l-4.1,4.1l-4.1-4.1l-0.7,0.7
	L729,190z"/>
<path class="st6" d="M729.7,174.5L729.7,174.5c8.6,0,15.5,6.9,15.5,15.5l0,0c0,8.6-6.9,15.5-15.5,15.5l0,0
	c-8.6,0-15.5-6.9-15.5-15.5l0,0C714.2,181.4,721.1,174.5,729.7,174.5z"/>
<path class="st5" d="M907.3,190l-4.1,4.1l0.7,0.7l4.1-4.1l4.1,4.1l0.7-0.7l-4.1-4.1l4.1-4.1l-0.7-0.7l-4.1,4.1l-4.1-4.1l-0.7,0.7
	L907.3,190z"/>
<path class="st6" d="M908,174.5L908,174.5c8.6,0,15.5,6.9,15.5,15.5l0,0c0,8.6-6.9,15.5-15.5,15.5l0,0c-8.6,0-15.5-6.9-15.5-15.5
	l0,0C892.5,181.4,899.4,174.5,908,174.5z"/>
<circle class="st4" cx="373" cy="262" r="16"/>
<path class="st5" d="M550.6,262l-4.1,4.1l0.7,0.7l4.1-4.1l4.1,4.1l0.7-0.7L552,262l4.1-4.1l-0.7-0.7l-4.1,4.1l-4.1-4.1l-0.7,0.7
	L550.6,262z"/>
<path class="st6" d="M551.3,246.5L551.3,246.5c8.6,0,15.5,6.9,15.5,15.5l0,0c0,8.6-6.9,15.5-15.5,15.5l0,0
	c-8.6,0-15.5-6.9-15.5-15.5l0,0C535.8,253.4,542.8,246.5,551.3,246.5z"/>
<path class="st5" d="M729,262l-4.1,4.1l0.7,0.7l4.1-4.1l4.1,4.1l0.7-0.7l-4.1-4.1l4.1-4.1l-0.7-0.7l-4.1,4.1l-4.1-4.1l-0.7,0.7
	L729,262z"/>
<path class="st6" d="M729.7,246.5L729.7,246.5c8.6,0,15.5,6.9,15.5,15.5l0,0c0,8.6-6.9,15.5-15.5,15.5l0,0
	c-8.6,0-15.5-6.9-15.5-15.5l0,0C714.2,253.4,721.1,246.5,729.7,246.5z"/>
<circle class="st4" cx="908" cy="262" r="16"/>
<circle class="st4" cx="373" cy="334" r="16"/>
<circle class="st4" cx="551.3" cy="334" r="16"/>
<path class="st5" d="M729,334l-4.1,4.1l0.7,0.7l4.1-4.1l4.1,4.1l0.7-0.7l-4.1-4.1l4.1-4.1l-0.7-0.7l-4.1,4.1l-4.1-4.1l-0.7,0.7
	L729,334z"/>
<path class="st6" d="M729.7,318.5L729.7,318.5c8.6,0,15.5,6.9,15.5,15.5l0,0c0,8.6-6.9,15.5-15.5,15.5l0,0
	c-8.6,0-15.5-6.9-15.5-15.5l0,0C714.2,325.4,721.1,318.5,729.7,318.5z"/>
<path class="st5" d="M907.3,334l-4.1,4.1l0.7,0.7l4.1-4.1l4.1,4.1l0.7-0.7l-4.1-4.1l4.1-4.1l-0.7-0.7l-4.1,4.1l-4.1-4.1l-0.7,0.7
	L907.3,334z"/>
<path class="st6" d="M908,318.5L908,318.5c8.6,0,15.5,6.9,15.5,15.5l0,0c0,8.6-6.9,15.5-15.5,15.5l0,0c-8.6,0-15.5-6.9-15.5-15.5
	l0,0C892.5,325.4,899.4,318.5,908,318.5z"/>
<path class="st5" d="M372.3,406l-4.1,4.1l0.7,0.7l4.1-4.1l4.1,4.1l0.7-0.7l-4.1-4.1l4.1-4.1l-0.7-0.7l-4.1,4.1l-4.1-4.1l-0.7,0.7
	L372.3,406z"/>
<path class="st6" d="M373,390.5L373,390.5c8.6,0,15.5,6.9,15.5,15.5l0,0c0,8.6-6.9,15.5-15.5,15.5l0,0c-8.6,0-15.5-6.9-15.5-15.5
	l0,0C357.5,397.4,364.4,390.5,373,390.5z"/>
<path class="st5" d="M550.6,406l-4.1,4.1l0.7,0.7l4.1-4.1l4.1,4.1l0.7-0.7L552,406l4.1-4.1l-0.7-0.7l-4.1,4.1l-4.1-4.1l-0.7,0.7
	L550.6,406z"/>
<path class="st6" d="M551.3,390.5L551.3,390.5c8.6,0,15.5,6.9,15.5,15.5l0,0c0,8.6-6.9,15.5-15.5,15.5l0,0
	c-8.6,0-15.5-6.9-15.5-15.5l0,0C535.8,397.4,542.8,390.5,551.3,390.5z"/>
<circle class="st4" cx="908" cy="406" r="16"/>
<path class="st6" d="M985,77H71"/>
<path class="st6" d="M985,149H71"/>
<path class="st6" d="M985,225H71"/>
<path class="st6" d="M985,297H71"/>
<path class="st6" d="M985,369H71"/>
<path class="st6" d="M985,443H71"/>
<path class="st5" d="M729,406l-4.1,4.1l0.7,0.7l4.1-4.1l4.1,4.1l0.7-0.7l-4.1-4.1l4.1-4.1l-0.7-0.7l-4.1,4.1l-4.1-4.1l-0.7,0.7
	L729,406z"/>
<path class="st6" d="M729.7,390.5L729.7,390.5c8.6,0,15.5,6.9,15.5,15.5l0,0c0,8.6-6.9,15.5-15.5,15.5l0,0
	c-8.6,0-15.5-6.9-15.5-15.5l0,0C714.2,397.4,721.1,390.5,729.7,390.5z"/>
</svg>
