<?xml version="1.0" encoding="utf-8"?>
<!-- Generator: Adobe Illustrator 24.0.2, SVG Export Plug-In . SVG Version: 6.00 Build 0)  -->
<svg data-st-draw_svg="" version="1.1" xmlns="http://www.w3.org/2000/svg" xmlns:xlink="http://www.w3.org/1999/xlink" x="0px" y="0px"
	 viewBox="0 0 840 760" style="enable-background:new 0 0 840 760;" xml:space="preserve">
<style type="text/css">
	.st0{fill:#AEB9BF;}
	.st1{opacity:0.1;fill:none;stroke:#AEB9BF;stroke-width:24;enable-background:new    ;}
	.st2{fill:#A4C7F0;}
	.st3{fill:#E4EBE6;}
	.st4{fill:#B3DFCF;}
	.st5{fill:#C2F7AD;}
	.st6{fill:#8CE79F;}
	.st7{fill:#56D690;}
	.st8{fill:#FFFFFF;}
	.st9{fill:#25444A;}
	.st10{fill:none;stroke:#D9D9D9;}
	.st11{fill:none;stroke:#56D690;stroke-width:24;}
	.st12{fill:none;stroke:#8CE79F;stroke-width:24;stroke-linecap:round;}
	.st13{fill:none;stroke:#C2F7AD;stroke-width:24;stroke-linecap:round;}
	.st14{fill:none;stroke:#B3DFCF;stroke-width:24;stroke-linecap:round;}
</style>
<g id="Layer_1">
	<path class="st0" d="M715.8,333.9v-9.1h4.5c0.8,0,1.5,0.2,2,0.6c0.5,0.4,0.7,0.9,0.7,1.6c0,0.4-0.1,0.8-0.3,1.1
		c-0.2,0.3-0.4,0.5-0.7,0.7v0c0.3,0.2,0.6,0.4,0.8,0.8c0.2,0.3,0.4,0.8,0.4,1.4c0,0.5-0.1,1-0.4,1.5c-0.2,0.4-0.6,0.8-1.1,1.1
		c-0.5,0.3-1.1,0.4-1.8,0.4H715.8z M720.1,328.1c0.3,0,0.5-0.1,0.7-0.2c0.2-0.1,0.2-0.4,0.2-0.7c0-0.3-0.1-0.5-0.2-0.7
		c-0.2-0.1-0.4-0.2-0.7-0.2h-2.5v1.8H720.1z M719.5,332.3c1.1,0,1.7-0.5,1.7-1.4c0-0.9-0.5-1.3-1.5-1.3h-2.1v2.7H719.5z
		 M727.1,333.9h-1.8v-9.1h1.8V333.9z M735.6,333.9h-5.7v-9.1h1.8v7.5h3.9V333.9z M743.4,333.9h-5.7v-9.1h1.8v7.5h3.9V333.9z
		 M747.3,333.9h-1.8v-9.1h1.8V333.9z M751.8,333.9H750v-9.1h2.7l3,6.9h0v-6.9h1.8v9.1h-2.7l-3-6.9h0V333.9z M766.8,333.9v-1.2h0
		c-0.3,0.4-0.7,0.8-1.2,1c-0.5,0.2-1.1,0.4-1.7,0.4c-0.8,0-1.5-0.2-2.1-0.6c-0.6-0.4-1.1-1-1.4-1.7c-0.3-0.7-0.5-1.5-0.5-2.5
		c0-0.9,0.2-1.8,0.5-2.5c0.4-0.7,0.9-1.3,1.5-1.7c0.7-0.4,1.5-0.6,2.4-0.6c1.1,0,2,0.3,2.7,0.8c0.7,0.5,1.2,1.2,1.3,2.1h-2.1
		c-0.1-0.4-0.4-0.7-0.7-0.9s-0.7-0.3-1.2-0.3c-0.8,0-1.5,0.3-1.9,0.8c-0.5,0.5-0.7,1.3-0.7,2.2c0,0.9,0.2,1.7,0.7,2.3
		c0.5,0.6,1.1,0.9,1.9,0.9c0.4,0,0.8-0.1,1.2-0.3c0.4-0.2,0.7-0.5,0.9-0.8c0.2-0.3,0.3-0.8,0.4-1.2l0-0.1h-2.6v-1.5h4.4v5.4H766.8z
		 M715.8,353.9v-9.1h4.7c0.8,0,1.4,0.2,1.9,0.7c0.5,0.5,0.7,1.1,0.7,1.9c0,0.8-0.2,1.4-0.7,1.8c-0.5,0.4-1.1,0.6-1.9,0.6h-2.9v4
		H715.8z M720.2,348.3c0.7,0,1-0.3,1-0.9c0-0.3-0.1-0.5-0.3-0.7c-0.2-0.2-0.4-0.2-0.7-0.2h-2.6v1.8H720.2z M730.9,353.9h-5.7v-9.1
		h1.8v7.5h3.9V353.9z M741.4,353.9h-2l-0.8-2.2h-3.8l-0.8,2.2h-2l3.4-9.1h2.5L741.4,353.9z M736.7,346.6l-1.3,3.5h2.6L736.7,346.6
		L736.7,346.6z M746.4,353.9h-1.8v-7.5h-2.9v-1.6h7.6v1.6h-2.9V353.9z M753.1,353.9h-1.8v-9.1h6.4v1.6h-4.5v1.7h3.5v1.7h-3.5V353.9z
		 M763.7,354.1c-0.9,0-1.7-0.2-2.4-0.6c-0.7-0.4-1.2-1-1.6-1.7c-0.4-0.7-0.5-1.5-0.5-2.5s0.2-1.8,0.5-2.5c0.4-0.7,0.9-1.3,1.6-1.7
		c0.7-0.4,1.5-0.6,2.4-0.6s1.7,0.2,2.4,0.6c0.7,0.4,1.2,1,1.6,1.7c0.4,0.7,0.5,1.5,0.5,2.5s-0.2,1.8-0.5,2.5
		c-0.4,0.7-0.9,1.3-1.6,1.7C765.4,353.9,764.6,354.1,763.7,354.1z M763.7,352.4c0.8,0,1.4-0.3,1.9-0.8c0.5-0.6,0.7-1.3,0.7-2.3
		c0-0.9-0.2-1.7-0.7-2.2c-0.5-0.6-1.1-0.8-1.9-0.8c-0.8,0-1.4,0.3-1.9,0.8c-0.5,0.5-0.7,1.3-0.7,2.2c0,1,0.2,1.7,0.7,2.3
		C762.2,352.1,762.9,352.4,763.7,352.4z M770.4,353.9v-9.1h4.7c0.8,0,1.4,0.2,1.9,0.6c0.4,0.4,0.7,1,0.7,1.7c0,0.5-0.1,0.9-0.3,1.2
		c-0.2,0.3-0.4,0.5-0.7,0.7v0c0.3,0.2,0.5,0.6,0.6,1.1l0.5,3.6v0.1h-1.8l-0.5-3.3c-0.1-0.6-0.4-0.9-1-0.9h-2.2v4.2H770.4z
		 M774.8,348.2c0.6,0,0.9-0.3,0.9-0.9c0-0.6-0.3-0.9-0.9-0.9h-2.6v1.8H774.8z M781.9,353.9h-1.8v-9.1h3.1l2.1,6.3h0l2.1-6.3h3.1v9.1
		h-1.8v-7.3h0l-2.5,7.3h-1.7l-2.5-7.3h0V353.9z"/>
	<path class="st0" d="M400.1,27.9h-6.8v-9.1h6.6v1.6h-4.8V22h3.7v1.6h-3.7v2.6h4.9V27.9z M404.1,27.9h-1.8v-9.1h2.7l3,6.9h0v-6.9
		h1.8v9.1h-2.7l-3-6.9h0V27.9z M419.4,27.9h-6.8v-9.1h6.6v1.6h-4.8V22h3.7v1.6h-3.7v2.6h4.9V27.9z M421.7,27.9v-9.1h4.7
		c0.8,0,1.4,0.2,1.9,0.6c0.4,0.4,0.7,1,0.7,1.7c0,0.5-0.1,0.9-0.3,1.2c-0.2,0.3-0.4,0.5-0.7,0.7v0c0.3,0.2,0.5,0.6,0.6,1.1l0.5,3.6
		v0.1h-1.8l-0.5-3.3c-0.1-0.6-0.4-0.9-1-0.9h-2.2v4.2H421.7z M426.1,22.2c0.6,0,0.9-0.3,0.9-0.9c0-0.6-0.3-0.9-0.9-0.9h-2.6v1.8
		H426.1z M437.8,27.9v-1.2h0c-0.3,0.4-0.7,0.8-1.2,1c-0.5,0.2-1.1,0.4-1.7,0.4c-0.8,0-1.5-0.2-2.1-0.6c-0.6-0.4-1.1-1-1.4-1.7
		c-0.3-0.7-0.5-1.5-0.5-2.5c0-0.9,0.2-1.8,0.5-2.5c0.4-0.7,0.9-1.3,1.5-1.7c0.7-0.4,1.5-0.6,2.4-0.6c1.1,0,2,0.3,2.7,0.8
		c0.7,0.5,1.2,1.2,1.3,2.1h-2.1c-0.1-0.4-0.4-0.7-0.7-0.9c-0.3-0.2-0.7-0.3-1.2-0.3c-0.8,0-1.5,0.3-1.9,0.8
		c-0.5,0.5-0.7,1.3-0.7,2.2c0,0.9,0.2,1.7,0.7,2.3c0.5,0.6,1.1,0.9,1.9,0.9c0.4,0,0.8-0.1,1.2-0.3c0.4-0.2,0.7-0.5,0.9-0.8
		c0.2-0.3,0.3-0.7,0.4-1.2l0-0.1h-2.6v-1.5h4.4v5.4H437.8z M445.4,27.9h-1.8v-4l-3.2-5.1h2.2l2,3.2h0l1.9-3.2h2.2l-3.2,5V27.9z
		 M398.4,48.1c-0.7,0-1.3-0.1-1.9-0.4c-0.6-0.3-1-0.6-1.3-1.1c-0.3-0.5-0.5-1-0.6-1.7h1.9c0,0.5,0.2,0.9,0.6,1.2
		c0.3,0.3,0.8,0.4,1.4,0.4c0.5,0,0.8-0.1,1.1-0.3c0.3-0.2,0.4-0.5,0.4-0.9c0-0.6-0.3-1-1-1.1l-2.1-0.5c-0.7-0.1-1.2-0.4-1.5-0.9
		c-0.3-0.4-0.5-1-0.5-1.5c0-0.5,0.1-1,0.4-1.4c0.3-0.4,0.7-0.7,1.2-0.9c0.5-0.2,1.1-0.3,1.7-0.3c0.7,0,1.3,0.1,1.8,0.4
		c0.5,0.2,1,0.6,1.3,1c0.3,0.4,0.5,0.9,0.5,1.5h-1.9c0-0.4-0.2-0.8-0.5-1c-0.3-0.2-0.7-0.3-1.2-0.3c-0.4,0-0.8,0.1-1,0.3
		c-0.3,0.2-0.4,0.4-0.4,0.8c0,0.5,0.3,0.8,0.8,0.9l2,0.5c0.7,0.2,1.3,0.4,1.7,0.8c0.4,0.4,0.6,1,0.6,1.7c0,0.6-0.2,1.2-0.5,1.6
		c-0.3,0.4-0.7,0.8-1.2,1C399.7,48,399.1,48.1,398.4,48.1z M407.6,48.1c-1.2,0-2.2-0.3-2.8-0.9c-0.6-0.6-0.9-1.4-0.9-2.5v-6h1.8v5.8
		c0,0.6,0.2,1.1,0.5,1.4c0.3,0.3,0.8,0.4,1.5,0.4c0.7,0,1.2-0.1,1.5-0.4c0.3-0.3,0.5-0.8,0.5-1.4v-5.8h1.8v6c0,1.1-0.3,1.9-0.9,2.5
		C409.8,47.8,408.9,48.1,407.6,48.1z M414,47.9v-9.1h4.7c0.8,0,1.4,0.2,1.9,0.7c0.5,0.5,0.7,1.1,0.7,1.9c0,0.8-0.2,1.4-0.7,1.8
		c-0.5,0.4-1.1,0.6-1.9,0.6h-2.9v4H414z M418.4,42.3c0.7,0,1-0.3,1-0.9c0-0.3-0.1-0.5-0.3-0.7c-0.2-0.2-0.4-0.2-0.7-0.2h-2.6v1.8
		H418.4z M423.4,47.9v-9.1h4.7c0.8,0,1.4,0.2,1.9,0.7c0.5,0.5,0.7,1.1,0.7,1.9c0,0.8-0.2,1.4-0.7,1.8c-0.5,0.4-1.1,0.6-1.9,0.6h-2.9
		v4H423.4z M427.8,42.3c0.6,0,1-0.3,1-0.9c0-0.3-0.1-0.5-0.3-0.7c-0.2-0.2-0.4-0.2-0.7-0.2h-2.6v1.8H427.8z M438.5,47.9h-5.7v-9.1
		h1.8v7.5h3.9V47.9z M443.5,47.9h-1.8v-4l-3.2-5.1h2.2l2,3.2h0l1.9-3.2h2.2l-3.2,5V47.9z"/>
	<path class="st0" d="M395,637v-9.1h3.1c1.4,0,2.6,0.4,3.4,1.2c0.8,0.8,1.2,1.9,1.2,3.3s-0.4,2.5-1.2,3.4c-0.8,0.8-1.9,1.2-3.4,1.2
		H395z M398,635.4c0.9,0,1.5-0.2,2-0.7c0.5-0.5,0.7-1.2,0.7-2.2c0-1-0.2-1.7-0.7-2.2c-0.5-0.5-1.1-0.7-2-0.7h-1.3v5.8H398z
		 M411.6,637h-6.8v-9.1h6.6v1.6h-4.8v1.6h3.7v1.6h-3.7v2.6h4.9V637z M418.8,637h-2.5l-3.4-9.1h2l2.6,7.3h0.1l2.6-7.3h2L418.8,637z
		 M425.8,637H424v-9.1h1.8V637z M432.5,637.2c-0.9,0-1.7-0.2-2.4-0.6c-0.7-0.4-1.2-0.9-1.6-1.7c-0.4-0.7-0.5-1.5-0.5-2.5
		c0-0.9,0.2-1.8,0.5-2.5c0.4-0.7,0.9-1.3,1.6-1.7c0.7-0.4,1.5-0.6,2.4-0.6c1.1,0,2,0.3,2.8,0.8c0.7,0.6,1.2,1.3,1.4,2.4h-2
		c-0.1-0.5-0.4-0.9-0.8-1.1c-0.4-0.3-0.9-0.4-1.4-0.4c-0.8,0-1.4,0.3-1.9,0.8c-0.5,0.5-0.7,1.3-0.7,2.2c0,1,0.2,1.7,0.7,2.3
		c0.5,0.5,1.1,0.8,1.9,0.8c0.7,0,1.3-0.2,1.7-0.7c0.4-0.5,0.7-1.1,0.7-1.8h1.9c-0.1,0.8-0.3,1.6-0.6,2.2c-0.4,0.6-0.9,1.1-1.5,1.5
		C434.1,637,433.4,637.2,432.5,637.2z M445.8,637h-6.8v-9.1h6.6v1.6h-4.8v1.6h3.7v1.6h-3.7v2.6h4.9V637z M371.5,657h-1.8v-9.1h3.1
		l2.1,6.3h0l2.1-6.3h3.1v9.1h-1.8v-7.3h0l-2.5,7.3h-1.7l-2.5-7.3h0V657z M391.2,657h-2l-0.8-2.2h-3.8l-0.8,2.2h-2l3.4-9.1h2.5
		L391.2,657z M386.5,649.7l-1.3,3.5h2.6L386.5,649.7L386.5,649.7z M394.8,657H393v-9.1h2.7l3,6.9h0v-6.9h1.8v9.1h-2.7l-3-6.9h0V657z
		 M411.7,657h-2l-0.8-2.2h-3.8l-0.8,2.2h-2l3.4-9.1h2.5L411.7,657z M407,649.7l-1.3,3.5h2.6L407,649.7L407,649.7z M419.5,657v-1.2h0
		c-0.3,0.4-0.7,0.8-1.2,1c-0.5,0.2-1.1,0.4-1.7,0.4c-0.8,0-1.5-0.2-2.1-0.6c-0.6-0.4-1.1-1-1.4-1.7c-0.3-0.7-0.5-1.5-0.5-2.5
		c0-0.9,0.2-1.8,0.5-2.5c0.4-0.7,0.9-1.3,1.5-1.7s1.5-0.6,2.4-0.6c1.1,0,2,0.3,2.7,0.8c0.7,0.5,1.2,1.2,1.3,2.1H419
		c-0.1-0.4-0.4-0.7-0.7-0.9c-0.3-0.2-0.7-0.3-1.2-0.3c-0.8,0-1.5,0.3-1.9,0.8c-0.5,0.5-0.7,1.3-0.7,2.2c0,0.9,0.2,1.7,0.7,2.3
		c0.5,0.6,1.1,0.9,1.9,0.9c0.4,0,0.8-0.1,1.2-0.3c0.4-0.2,0.7-0.5,0.9-0.8c0.2-0.3,0.3-0.8,0.4-1.2l0-0.1h-2.6v-1.5h4.4v5.4H419.5z
		 M430.6,657h-6.8v-9.1h6.6v1.6h-4.8v1.6h3.7v1.6h-3.7v2.6h4.9V657z M434.6,657h-1.8v-9.1h3.1l2.1,6.3h0l2.1-6.3h3.1v9.1h-1.8v-7.3
		h0l-2.5,7.3h-1.7l-2.5-7.3h0V657z M452.6,657h-6.8v-9.1h6.6v1.6h-4.8v1.6h3.7v1.6h-3.7v2.6h4.9V657z M456.7,657h-1.8v-9.1h2.7
		l3,6.9h0v-6.9h1.8v9.1h-2.7l-3-6.9h0V657z M469.2,657h-1.8v-7.5h-2.9v-1.6h7.6v1.6h-2.9V657z"/>
	<path class="st0" d="M64.3,333.9v-9.1h3.1c1.4,0,2.6,0.4,3.4,1.2c0.8,0.8,1.2,1.9,1.2,3.3c0,1.4-0.4,2.5-1.2,3.4
		c-0.8,0.8-1.9,1.2-3.4,1.2H64.3z M67.4,332.3c0.9,0,1.5-0.2,2-0.7c0.5-0.5,0.7-1.2,0.7-2.2s-0.2-1.7-0.7-2.2
		c-0.5-0.5-1.1-0.7-2-0.7h-1.3v5.8H67.4z M80.9,333.9h-6.8v-9.1h6.6v1.6H76v1.6h3.7v1.6H76v2.6h4.9V333.9z M85,333.9h-1.8v-9.1h3.1
		l2.1,6.3h0l2.1-6.3h3.1v9.1h-1.8v-7.3h0l-2.5,7.3h-1.7l-2.5-7.3h0V333.9z M104.7,333.9h-2l-0.8-2.2h-3.8l-0.8,2.2h-2l3.4-9.1h2.5
		L104.7,333.9z M100,326.6l-1.3,3.5h2.6L100,326.6L100,326.6z M108.3,333.9h-1.8v-9.1h2.7l3,6.9h0v-6.9h1.8v9.1h-2.7l-3-6.9h0V333.9
		z M116.8,333.9v-9.1h3.1c1.4,0,2.6,0.4,3.4,1.2c0.8,0.8,1.2,1.9,1.2,3.3c0,1.4-0.4,2.5-1.2,3.4c-0.8,0.8-1.9,1.2-3.4,1.2H116.8z
		 M119.9,332.3c0.9,0,1.5-0.2,2-0.7c0.5-0.5,0.7-1.2,0.7-2.2s-0.2-1.7-0.7-2.2c-0.5-0.5-1.1-0.7-2-0.7h-1.3v5.8H119.9z M50.9,353.9
		v-9.1h4.7c0.8,0,1.4,0.2,1.9,0.6c0.4,0.4,0.7,1,0.7,1.7c0,0.5-0.1,0.9-0.3,1.2c-0.2,0.3-0.4,0.5-0.7,0.7v0c0.3,0.2,0.5,0.6,0.6,1.1
		l0.5,3.6v0.1h-1.8l-0.5-3.3c-0.1-0.6-0.4-0.9-1-0.9h-2.2v4.2H50.9z M55.4,348.2c0.6,0,0.9-0.3,0.9-0.9c0-0.6-0.3-0.9-0.9-0.9h-2.6
		v1.8H55.4z M67.4,353.9h-6.8v-9.1h6.6v1.6h-4.8v1.6h3.7v1.6h-3.7v2.6h4.9V353.9z M72.8,354.1c-0.7,0-1.3-0.1-1.9-0.4
		c-0.6-0.3-1-0.6-1.3-1.1c-0.3-0.5-0.5-1-0.6-1.7h1.9c0,0.5,0.2,0.9,0.6,1.2c0.3,0.3,0.8,0.4,1.4,0.4c0.5,0,0.8-0.1,1.1-0.3
		c0.3-0.2,0.4-0.5,0.4-0.9c0-0.6-0.3-1-1-1.1l-2.1-0.5c-0.7-0.1-1.2-0.4-1.5-0.9c-0.3-0.4-0.5-1-0.5-1.5c0-0.5,0.1-1,0.4-1.4
		c0.3-0.4,0.7-0.7,1.2-0.9c0.5-0.2,1.1-0.3,1.7-0.3c0.7,0,1.3,0.1,1.8,0.4c0.5,0.2,1,0.6,1.3,1c0.3,0.4,0.5,0.9,0.5,1.5h-1.9
		c0-0.4-0.2-0.8-0.5-1c-0.3-0.2-0.7-0.3-1.2-0.3c-0.4,0-0.8,0.1-1,0.3c-0.3,0.2-0.4,0.4-0.4,0.8c0,0.5,0.3,0.8,0.8,0.9l2,0.5
		c0.7,0.2,1.3,0.4,1.7,0.8c0.4,0.4,0.6,1,0.6,1.7c0,0.6-0.2,1.2-0.5,1.6c-0.3,0.4-0.7,0.8-1.2,1C74.1,354,73.5,354.1,72.8,354.1z
		 M78.4,353.9v-9.1h4.7c0.8,0,1.4,0.2,1.9,0.7c0.5,0.5,0.7,1.1,0.7,1.9c0,0.8-0.2,1.4-0.7,1.8c-0.5,0.4-1.1,0.6-1.9,0.6h-2.9v4H78.4
		z M82.8,348.3c0.6,0,1-0.3,1-0.9c0-0.3-0.1-0.5-0.3-0.7c-0.2-0.2-0.4-0.2-0.7-0.2h-2.6v1.8H82.8z M91.8,354.1
		c-0.9,0-1.7-0.2-2.4-0.6c-0.7-0.4-1.2-1-1.6-1.7c-0.4-0.7-0.5-1.5-0.5-2.5s0.2-1.8,0.5-2.5c0.4-0.7,0.9-1.3,1.6-1.7
		c0.7-0.4,1.5-0.6,2.4-0.6s1.7,0.2,2.4,0.6c0.7,0.4,1.2,1,1.6,1.7c0.4,0.7,0.5,1.5,0.5,2.5s-0.2,1.8-0.5,2.5
		c-0.4,0.7-0.9,1.3-1.6,1.7C93.5,353.9,92.7,354.1,91.8,354.1z M91.8,352.4c0.8,0,1.4-0.3,1.9-0.8c0.5-0.6,0.7-1.3,0.7-2.3
		c0-0.9-0.2-1.7-0.7-2.2c-0.5-0.6-1.1-0.8-1.9-0.8s-1.4,0.3-1.9,0.8c-0.5,0.5-0.7,1.3-0.7,2.2c0,1,0.2,1.7,0.7,2.3
		C90.4,352.1,91,352.4,91.8,352.4z M100.4,353.9h-1.8v-9.1h2.7l3,6.9h0v-6.9h1.8v9.1h-2.7l-3-6.9h0V353.9z M112.1,354.1
		c-0.7,0-1.3-0.1-1.9-0.4c-0.6-0.3-1-0.6-1.3-1.1c-0.3-0.5-0.5-1-0.6-1.7h1.9c0,0.5,0.2,0.9,0.6,1.2c0.3,0.3,0.8,0.4,1.4,0.4
		c0.5,0,0.8-0.1,1.1-0.3c0.3-0.2,0.4-0.5,0.4-0.9c0-0.6-0.3-1-1-1.1l-2.1-0.5c-0.7-0.1-1.2-0.4-1.5-0.9c-0.3-0.4-0.5-1-0.5-1.5
		c0-0.5,0.1-1,0.4-1.4c0.3-0.4,0.7-0.7,1.2-0.9c0.5-0.2,1.1-0.3,1.7-0.3c0.7,0,1.3,0.1,1.8,0.4c0.5,0.2,1,0.6,1.3,1
		c0.3,0.4,0.5,0.9,0.5,1.5h-1.9c0-0.4-0.2-0.8-0.5-1c-0.3-0.2-0.7-0.3-1.2-0.3c-0.4,0-0.8,0.1-1,0.3c-0.3,0.2-0.4,0.4-0.4,0.8
		c0,0.5,0.3,0.8,0.8,0.9l2,0.5c0.7,0.2,1.3,0.4,1.7,0.8c0.4,0.4,0.6,1,0.6,1.7c0,0.6-0.2,1.2-0.5,1.6c-0.3,0.4-0.7,0.8-1.2,1
		C113.4,354,112.8,354.1,112.1,354.1z M124.4,353.9h-6.8v-9.1h6.6v1.6h-4.8v1.6h3.7v1.6h-3.7v2.6h4.9V353.9z"/>
	<circle class="st1" cx="420.1" cy="338.7" r="70"/>
	<circle class="st2" cx="420" cy="269" r="10"/>
	<circle class="st3" cx="420" cy="409" r="10"/>
	<circle class="st3" cx="350" cy="340.5" r="10"/>
	<circle class="st3" cx="490" cy="340.5" r="10"/>
	<circle class="st1" cx="420.3" cy="339.2" r="115"/>
	<circle class="st4" cx="420.4" cy="225" r="10"/>
	<circle class="st3" cx="420.4" cy="455.2" r="10"/>
	<circle class="st4" cx="304.9" cy="340.4" r="10"/>
	<circle class="st3" cx="535.1" cy="340.4" r="10"/>
	<circle class="st1" cx="419.4" cy="338.6" r="160"/>
	<circle class="st5" cx="420" cy="179" r="10"/>
	<circle class="st3" cx="420" cy="498" r="10"/>
	<circle class="st3" cx="260" cy="340.5" r="10"/>
	<circle class="st5" cx="579" cy="340.5" r="10"/>
	<path class="st1" d="M419.5,545c113.8,0,206-92.2,206-206c0-113.8-92.2-206-206-206c-113.8,0-206,92.2-206,206
		C213.5,452.8,305.8,545,419.5,545z"/>
	<circle class="st3" cx="420" cy="133" r="10"/>
	<circle class="st6" cx="420" cy="545" r="10"/>
	<circle class="st6" cx="214" cy="340" r="10"/>
	<circle class="st3" cx="626" cy="340" r="10"/>
	<circle class="st1" cx="419.7" cy="341.8" r="252"/>
	<circle class="st7" cx="420" cy="88" r="10"/>
	<circle class="st7" cx="420" cy="593.5" r="10"/>
	<circle class="st7" cx="167.2" cy="340.4" r="10"/>
	<circle class="st7" cx="672.7" cy="340.4" r="10"/>
	<path class="st8" d="M111,715.2h127c9.1,0,16.5,7.4,16.5,16.5l0,0c0,9.1-7.4,16.5-16.5,16.5H111c-9.1,0-16.5-7.4-16.5-16.5l0,0
		C94.5,722.6,101.9,715.2,111,715.2z"/>
	<circle class="st7" cx="113" cy="731.7" r="6"/>
	<path class="st9" d="M130.1,735.7v-9.8h3.4c1.5,0,2.8,0.4,3.6,1.3c0.9,0.9,1.3,2.1,1.3,3.6c0,1.5-0.4,2.7-1.3,3.6
		c-0.9,0.9-2.1,1.3-3.6,1.3H130.1z M133.4,734c0.9,0,1.7-0.3,2.2-0.8c0.5-0.5,0.8-1.3,0.8-2.4c0-1-0.3-1.8-0.8-2.3
		c-0.5-0.5-1.2-0.8-2.2-0.8h-1.4v6.3H133.4z M149.4,735.7h-2.1l-0.9-2.4h-4.1l-0.9,2.4h-2.1l3.7-9.8h2.7L149.4,735.7z M144.4,727.8
		l-1.4,3.8h2.8L144.4,727.8L144.4,727.8z M156.2,735.7h-2.7l-3.6-9.8h2.1l2.8,7.9h0.1l2.8-7.9h2.1L156.2,735.7z M163.9,735.7h-2
		v-9.8h2V735.7z M167,735.7v-9.8h3.4c1.5,0,2.8,0.4,3.6,1.3c0.9,0.9,1.3,2.1,1.3,3.6c0,1.5-0.4,2.7-1.3,3.6
		c-0.9,0.9-2.1,1.3-3.6,1.3H167z M170.3,734c0.9,0,1.7-0.3,2.2-0.8c0.5-0.5,0.8-1.3,0.8-2.4c0-1-0.3-1.8-0.8-2.3
		c-0.5-0.5-1.2-0.8-2.2-0.8h-1.4v6.3H170.3z M188.7,735.7h-7.3v-9.8h7.1v1.8h-5.2v1.7h4v1.8h-4v2.8h5.3V735.7z M193.3,735.7h-2v-9.8
		h3l3.3,7.5h0v-7.5h2v9.8h-3l-3.3-7.4h0V735.7z M209.9,735.7h-7.3v-9.8h7.1v1.8h-5.2v1.7h4v1.8h-4v2.8h5.3V735.7z M212.4,735.7v-9.8
		h5.1c0.9,0,1.5,0.2,2,0.7c0.5,0.4,0.7,1.1,0.7,1.9c0,0.6-0.1,1-0.3,1.3c-0.2,0.3-0.5,0.6-0.8,0.7v0c0.4,0.3,0.6,0.6,0.7,1.1
		l0.6,3.9v0.1h-2l-0.5-3.6c-0.1-0.6-0.4-1-1.1-1h-2.4v4.5H212.4z M217.2,729.6c0.7,0,1-0.3,1-0.9c0-0.6-0.3-1-1-1h-2.8v1.9H217.2z
		 M229.9,735.7v-1.3h0c-0.3,0.5-0.8,0.8-1.3,1.1c-0.5,0.3-1.2,0.4-1.8,0.4c-0.9,0-1.6-0.2-2.3-0.6c-0.7-0.4-1.2-1-1.5-1.8
		c-0.4-0.8-0.5-1.7-0.5-2.7c0-1,0.2-1.9,0.6-2.7c0.4-0.8,0.9-1.4,1.7-1.8c0.7-0.4,1.6-0.6,2.6-0.6c1.2,0,2.1,0.3,2.9,0.8
		c0.8,0.5,1.2,1.3,1.4,2.2h-2.2c-0.2-0.4-0.4-0.7-0.8-0.9c-0.4-0.2-0.8-0.3-1.3-0.3c-0.9,0-1.6,0.3-2.1,0.9
		c-0.5,0.6-0.7,1.4-0.7,2.4c0,1,0.2,1.8,0.7,2.5c0.5,0.6,1.2,0.9,2,0.9c0.5,0,0.9-0.1,1.3-0.3c0.4-0.2,0.7-0.5,0.9-0.9
		c0.2-0.4,0.4-0.8,0.4-1.3l0-0.1H227v-1.7h4.8v5.8H229.9z M238.3,735.7h-2v-4.3l-3.5-5.5h2.4l2.1,3.4h0l2.1-3.4h2.3l-3.5,5.4V735.7z
		"/>
	<path class="st10" d="M111,715.2h127c9.1,0,16.5,7.4,16.5,16.5l0,0c0,9.1-7.4,16.5-16.5,16.5H111c-9.1,0-16.5-7.4-16.5-16.5l0,0
		C94.5,722.6,101.9,715.2,111,715.2z"/>
	<path class="st8" d="M284,715.2h73c9.1,0,16.5,7.4,16.5,16.5l0,0c0,9.1-7.4,16.5-16.5,16.5h-73c-9.1,0-16.5-7.4-16.5-16.5l0,0
		C267.5,722.6,274.9,715.2,284,715.2z"/>
	<circle class="st6" cx="286" cy="731.7" r="6"/>
	<path class="st9" d="M308.4,735.7h-2.7l-3.6-9.8h2.1l2.8,7.9h0.1l2.8-7.9h2.1L308.4,735.7z M318,735.9c-1,0-1.9-0.2-2.6-0.6
		c-0.7-0.4-1.3-1-1.7-1.8c-0.4-0.8-0.6-1.7-0.6-2.7s0.2-1.9,0.6-2.7c0.4-0.8,1-1.4,1.7-1.8c0.7-0.4,1.6-0.7,2.6-0.7
		c1,0,1.9,0.2,2.6,0.6c0.7,0.4,1.3,1,1.7,1.8c0.4,0.8,0.6,1.7,0.6,2.7c0,1-0.2,1.9-0.6,2.7c-0.4,0.8-1,1.4-1.7,1.8
		C319.9,735.7,319,735.9,318,735.9z M318,734.1c0.9,0,1.6-0.3,2.1-0.9c0.5-0.6,0.8-1.4,0.8-2.4c0-1-0.3-1.8-0.8-2.4
		c-0.5-0.6-1.2-0.9-2.1-0.9s-1.6,0.3-2.1,0.9c-0.5,0.6-0.8,1.4-0.8,2.4c0,1,0.3,1.8,0.8,2.4C316.5,733.8,317.2,734.1,318,734.1z
		 M331.6,735.7h-6.2v-9.8h2v8h4.2V735.7z M336.8,735.7h-2v-8h-3.1v-1.8h8.2v1.8h-3.1V735.7z M346,735.9c-1.3,0-2.3-0.3-3-1
		c-0.7-0.6-1-1.5-1-2.6v-6.4h2v6.3c0,0.7,0.2,1.2,0.5,1.5c0.3,0.3,0.9,0.5,1.6,0.5c0.7,0,1.3-0.2,1.6-0.5c0.3-0.3,0.5-0.8,0.5-1.5
		v-6.3h2v6.4c0,1.1-0.3,2-1,2.7C348.4,735.6,347.4,735.9,346,735.9z M356.4,735.9c-0.8,0-1.4-0.1-2-0.4c-0.6-0.3-1.1-0.7-1.4-1.2
		c-0.4-0.5-0.6-1.1-0.6-1.8h2c0,0.5,0.2,1,0.6,1.3c0.4,0.3,0.9,0.5,1.5,0.5c0.5,0,0.9-0.1,1.2-0.3c0.3-0.2,0.5-0.6,0.5-1
		c0-0.7-0.4-1.1-1.1-1.2l-2.2-0.5c-0.7-0.2-1.3-0.5-1.7-0.9c-0.4-0.5-0.5-1-0.5-1.7c0-0.6,0.1-1.1,0.4-1.5c0.3-0.4,0.7-0.8,1.2-1
		c0.5-0.2,1.2-0.4,1.9-0.4c0.7,0,1.4,0.1,2,0.4c0.6,0.3,1,0.6,1.4,1.1c0.3,0.5,0.5,1,0.5,1.6h-2c0-0.5-0.2-0.8-0.5-1.1
		c-0.3-0.2-0.8-0.4-1.3-0.4c-0.5,0-0.8,0.1-1.1,0.3c-0.3,0.2-0.4,0.5-0.4,0.9c0,0.5,0.3,0.9,0.9,1l2.2,0.5c0.8,0.2,1.4,0.5,1.8,0.9
		c0.4,0.4,0.7,1,0.7,1.8c0,0.7-0.2,1.3-0.5,1.7c-0.3,0.5-0.8,0.8-1.3,1.1C357.8,735.8,357.2,735.9,356.4,735.9z"/>
	<path class="st10" d="M284,715.2h73c9.1,0,16.5,7.4,16.5,16.5l0,0c0,9.1-7.4,16.5-16.5,16.5h-73c-9.1,0-16.5-7.4-16.5-16.5l0,0
		C267.5,722.6,274.9,715.2,284,715.2z"/>
	<path class="st8" d="M403,715.2h61c9.1,0,16.5,7.4,16.5,16.5l0,0c0,9.1-7.4,16.5-16.5,16.5h-61c-9.1,0-16.5-7.4-16.5-16.5l0,0
		C386.5,722.6,393.9,715.2,403,715.2z"/>
	<circle class="st5" cx="405" cy="731.7" r="6"/>
	<path class="st9" d="M429.4,735.7h-7.3v-9.8h7.1v1.8h-5.2v1.7h4v1.8h-4v2.8h5.3V735.7z M433.9,735.7h-2v-9.8h3l3.3,7.5h0v-7.5h2
		v9.8h-3l-3.3-7.4h0V735.7z M450.2,735.7v-1.3h0c-0.3,0.5-0.8,0.8-1.3,1.1c-0.5,0.3-1.2,0.4-1.8,0.4c-0.9,0-1.6-0.2-2.3-0.6
		c-0.7-0.4-1.2-1-1.5-1.8c-0.4-0.8-0.5-1.7-0.5-2.7c0-1,0.2-1.9,0.6-2.7c0.4-0.8,0.9-1.4,1.7-1.8c0.7-0.4,1.6-0.6,2.6-0.6
		c1.2,0,2.1,0.3,2.9,0.8c0.8,0.5,1.2,1.3,1.4,2.2h-2.2c-0.2-0.4-0.4-0.7-0.8-0.9c-0.4-0.2-0.8-0.3-1.3-0.3c-0.9,0-1.6,0.3-2.1,0.9
		c-0.5,0.6-0.7,1.4-0.7,2.4c0,1,0.2,1.8,0.7,2.5c0.5,0.6,1.2,0.9,2,0.9c0.5,0,0.9-0.1,1.3-0.3c0.4-0.2,0.7-0.5,0.9-0.9
		c0.2-0.4,0.4-0.8,0.4-1.3l0-0.1h-2.8v-1.7h4.8v5.8H450.2z M456.9,735.7h-2v-9.8h2V735.7z M467.3,735.7H460v-9.8h7.1v1.8h-5.2v1.7h4
		v1.8h-4v2.8h5.3V735.7z"/>
	<path class="st10" d="M403,715.2h61c9.1,0,16.5,7.4,16.5,16.5l0,0c0,9.1-7.4,16.5-16.5,16.5h-61c-9.1,0-16.5-7.4-16.5-16.5l0,0
		C386.5,722.6,393.9,715.2,403,715.2z"/>
	<path class="st8" d="M510,715.2h47c9.1,0,16.5,7.4,16.5,16.5l0,0c0,9.1-7.4,16.5-16.5,16.5h-47c-9.1,0-16.5-7.4-16.5-16.5l0,0
		C493.5,722.6,500.9,715.2,510,715.2z"/>
	<circle class="st4" cx="512" cy="731.7" r="6"/>
	<path class="st9" d="M531.1,735.7h-2v-9.8h3l3.3,7.5h0v-7.5h2v9.8h-3l-3.3-7.4h0V735.7z M540.4,735.7v-9.8h5.1c0.9,0,1.5,0.2,2,0.7
		c0.5,0.4,0.7,1.1,0.7,1.9c0,0.6-0.1,1-0.3,1.3c-0.2,0.3-0.5,0.6-0.8,0.7v0c0.4,0.3,0.6,0.6,0.7,1.1l0.6,3.9v0.1h-2l-0.5-3.6
		c-0.1-0.6-0.4-1-1-1h-2.4v4.5H540.4z M545.2,729.6c0.7,0,1-0.3,1-0.9c0-0.6-0.3-1-1-1h-2.8v1.9H545.2z M557.8,735.7v-1.3h0
		c-0.3,0.5-0.8,0.8-1.3,1.1c-0.5,0.3-1.2,0.4-1.8,0.4c-0.9,0-1.6-0.2-2.3-0.6c-0.7-0.4-1.2-1-1.5-1.8c-0.4-0.8-0.5-1.7-0.5-2.7
		c0-1,0.2-1.9,0.6-2.7c0.4-0.8,0.9-1.4,1.7-1.8c0.7-0.4,1.6-0.6,2.6-0.6c1.2,0,2.1,0.3,2.9,0.8c0.8,0.5,1.2,1.3,1.4,2.2h-2.2
		c-0.2-0.4-0.4-0.7-0.8-0.9s-0.8-0.3-1.3-0.3c-0.9,0-1.6,0.3-2.1,0.9c-0.5,0.6-0.7,1.4-0.7,2.4c0,1,0.2,1.8,0.7,2.5
		c0.5,0.6,1.2,0.9,2,0.9c0.5,0,0.9-0.1,1.3-0.3c0.4-0.2,0.7-0.5,0.9-0.9c0.2-0.4,0.4-0.8,0.4-1.3l0-0.1h-2.8v-1.7h4.8v5.8H557.8z"/>
	<path class="st10" d="M510,715.2h47c9.1,0,16.5,7.4,16.5,16.5l0,0c0,9.1-7.4,16.5-16.5,16.5h-47c-9.1,0-16.5-7.4-16.5-16.5l0,0
		C493.5,722.6,500.9,715.2,510,715.2z"/>
	<path class="st8" d="M603,715.2h126c9.1,0,16.5,7.4,16.5,16.5l0,0c0,9.1-7.4,16.5-16.5,16.5H603c-9.1,0-16.5-7.4-16.5-16.5l0,0
		C586.5,722.6,593.9,715.2,603,715.2z"/>
	<circle class="st2" cx="605" cy="731.7" r="6"/>
	<path class="st9" d="M628.3,735.7h-6.2v-9.8h2v8h4.2V735.7z M634.5,735.9c-1,0-1.9-0.2-2.6-0.6c-0.7-0.4-1.3-1-1.7-1.8
		c-0.4-0.8-0.6-1.7-0.6-2.7s0.2-1.9,0.6-2.7c0.4-0.8,1-1.4,1.7-1.8c0.7-0.4,1.6-0.7,2.6-0.7c1,0,1.9,0.2,2.6,0.6
		c0.7,0.4,1.3,1,1.7,1.8c0.4,0.8,0.6,1.7,0.6,2.7c0,1-0.2,1.9-0.6,2.7c-0.4,0.8-1,1.4-1.7,1.8C636.4,735.7,635.5,735.9,634.5,735.9z
		 M634.5,734.1c0.9,0,1.6-0.3,2.1-0.9c0.5-0.6,0.8-1.4,0.8-2.4c0-1-0.3-1.8-0.8-2.4c-0.5-0.6-1.2-0.9-2.1-0.9
		c-0.9,0-1.6,0.3-2.1,0.9c-0.5,0.6-0.8,1.4-0.8,2.4c0,1,0.3,1.8,0.8,2.4C632.9,733.8,633.6,734.1,634.5,734.1z M646.2,735.9
		c-1,0-1.9-0.2-2.6-0.6c-0.7-0.4-1.3-1-1.7-1.8c-0.4-0.8-0.6-1.7-0.6-2.7c0-1,0.2-1.9,0.6-2.7c0.4-0.8,1-1.4,1.7-1.8
		c0.7-0.4,1.6-0.6,2.6-0.6c1.2,0,2.2,0.3,3,0.9c0.8,0.6,1.3,1.4,1.5,2.5h-2.1c-0.1-0.5-0.4-1-0.8-1.2c-0.4-0.3-0.9-0.4-1.5-0.4
		c-0.9,0-1.6,0.3-2.1,0.9c-0.5,0.6-0.8,1.4-0.8,2.4c0,1,0.3,1.9,0.8,2.5c0.5,0.6,1.2,0.9,2.1,0.9c0.8,0,1.4-0.2,1.9-0.7
		c0.4-0.5,0.7-1.2,0.8-2h2.1c-0.1,0.9-0.3,1.7-0.7,2.4c-0.4,0.7-0.9,1.2-1.6,1.6C648,735.8,647.2,735.9,646.2,735.9z M662,735.7
		h-2.1l-0.9-2.4h-4.1l-0.9,2.4h-2.1l3.7-9.8h2.7L662,735.7z M656.9,727.8l-1.4,3.8h2.8L656.9,727.8L656.9,727.8z M670.2,735.7H664
		v-9.8h2v8h4.2V735.7z M680.2,735.9c-1.3,0-2.3-0.3-3-1c-0.7-0.6-1-1.5-1-2.6v-6.4h2v6.3c0,0.7,0.2,1.2,0.5,1.5
		c0.3,0.3,0.9,0.5,1.6,0.5c0.7,0,1.3-0.2,1.6-0.5c0.3-0.3,0.5-0.8,0.5-1.5v-6.3h2v6.4c0,1.1-0.3,2-1,2.7
		C682.5,735.6,681.5,735.9,680.2,735.9z M691.3,735.7h-2v-8h-3.1v-1.8h8.2v1.8h-3.1V735.7z M698.6,735.7h-2v-9.8h2V735.7z
		 M707.9,735.7h-6.2v-9.8h2v8h4.2V735.7z M712.2,735.7h-2v-9.8h2V735.7z M719.5,735.7h-2v-8h-3.1v-1.8h8.2v1.8h-3.1V735.7z
		 M729.2,735.7h-2v-4.3l-3.5-5.5h2.4l2.1,3.4h0l2.1-3.4h2.3l-3.5,5.4V735.7z"/>
	<path class="st10" d="M603,715.2h126c9.1,0,16.5,7.4,16.5,16.5l0,0c0,9.1-7.4,16.5-16.5,16.5H603c-9.1,0-16.5-7.4-16.5-16.5l0,0
		C586.5,722.6,593.9,715.2,603,715.2z"/>
</g>
<g id="ring1">
	<circle class="st11 draw-svg" cx="420" cy="342" r="252"/>
</g>
<g id="ring2">
	<path class="st12 draw-svg" d="M420,545c-113.8,0-206-92.2-206-206"/>
</g>
<g id="ring3">
	<path class="st13 draw-svg" d="M419,178.1c88.4,0,160,72.1,160,161.1"/>
</g>
<g id="ring4">
	<path class="st14 draw-svg" d="M305.3,340.2c0-63.5,51.5-115,115-115"/>
</g>
</svg>
