<?xml version="1.0" encoding="utf-8"?>
<!-- Generator: Adobe Illustrator 24.0.2, SVG Export Plug-In . SVG Version: 6.00 Build 0)  -->
<svg data-st-draw_svg="" version="1.1" id="Layer_1" xmlns="http://www.w3.org/2000/svg" xmlns:xlink="http://www.w3.org/1999/xlink" x="0px" y="0px"
	 viewBox="0 0 840 760" style="enable-background:new 0 0 840 760;" xml:space="preserve">
<style type="text/css">
	.st0{fill:#AEB9BF;}
	.st1{opacity:0.1;fill:none;stroke:#AEB9BF;stroke-width:24;enable-background:new    ;}
	.st2{fill:#A4C7F0;}
	.st3{fill:#E4EBE6;}
	.st4{fill:#B3DFCF;}
	.st5{fill:#C2F7AD;}
	.st6{fill:#8CE79F;}
	.st7{fill:#56D690;}
	.st8{fill:#FFFFFF;}
	.st9{fill:#25444A;}
	.st10{fill:none;stroke:#D9D9D9;}
	.st11{fill:none;stroke:#56D690;stroke-width:24;}
	.st12{fill:none;stroke:#C2F7AD;stroke-width:24;stroke-linecap:round;}
	.st13{fill:none;stroke:#B3DFCF;stroke-width:24;stroke-linecap:round;}
</style>
<g id="Layer_1_1_">
	<path class="st0" d="M715.8,333.9v-9.1h4.5c0.8,0,1.5,0.2,2,0.6s0.7,0.9,0.7,1.6c0,0.4-0.1,0.8-0.3,1.1c-0.2,0.3-0.4,0.5-0.7,0.7
		l0,0c0.3,0.2,0.6,0.4,0.8,0.8c0.2,0.3,0.4,0.8,0.4,1.4c0,0.5-0.1,1-0.4,1.5c-0.2,0.4-0.6,0.8-1.1,1.1c-0.5,0.3-1.1,0.4-1.8,0.4
		h-4.1L715.8,333.9L715.8,333.9z M720.1,328.1c0.3,0,0.5-0.1,0.7-0.2s0.2-0.4,0.2-0.7c0-0.3-0.1-0.5-0.2-0.7
		c-0.2-0.1-0.4-0.2-0.7-0.2h-2.5v1.8L720.1,328.1L720.1,328.1z M719.5,332.3c1.1,0,1.7-0.5,1.7-1.4s-0.5-1.3-1.5-1.3h-2.1v2.7
		L719.5,332.3L719.5,332.3z M727.1,333.9h-1.8v-9.1h1.8V333.9z M735.6,333.9h-5.7v-9.1h1.8v7.5h3.9V333.9z M743.4,333.9h-5.7v-9.1
		h1.8v7.5h3.9V333.9z M747.3,333.9h-1.8v-9.1h1.8V333.9z M751.8,333.9H750v-9.1h2.7l3,6.9l0,0v-6.9h1.8v9.1h-2.7l-3-6.9l0,0V333.9z
		 M766.8,333.9v-1.2l0,0c-0.3,0.4-0.7,0.8-1.2,1s-1.1,0.4-1.7,0.4c-0.8,0-1.5-0.2-2.1-0.6s-1.1-1-1.4-1.7c-0.3-0.7-0.5-1.5-0.5-2.5
		c0-0.9,0.2-1.8,0.5-2.5c0.4-0.7,0.9-1.3,1.5-1.7c0.7-0.4,1.5-0.6,2.4-0.6c1.1,0,2,0.3,2.7,0.8s1.2,1.2,1.3,2.1h-2.1
		c-0.1-0.4-0.4-0.7-0.7-0.9s-0.7-0.3-1.2-0.3c-0.8,0-1.5,0.3-1.9,0.8c-0.5,0.5-0.7,1.3-0.7,2.2c0,0.9,0.2,1.7,0.7,2.3
		c0.5,0.6,1.1,0.9,1.9,0.9c0.4,0,0.8-0.1,1.2-0.3c0.4-0.2,0.7-0.5,0.9-0.8s0.3-0.8,0.4-1.2V330h-2.6v-1.5h4.4v5.4H766.8L766.8,333.9
		z M715.8,353.9v-9.1h4.7c0.8,0,1.4,0.2,1.9,0.7s0.7,1.1,0.7,1.9s-0.2,1.4-0.7,1.8s-1.1,0.6-1.9,0.6h-2.9v4h-1.8V353.9z
		 M720.2,348.3c0.7,0,1-0.3,1-0.9c0-0.3-0.1-0.5-0.3-0.7s-0.4-0.2-0.7-0.2h-2.6v1.8L720.2,348.3L720.2,348.3z M730.9,353.9h-5.7
		v-9.1h1.8v7.5h3.9V353.9z M741.4,353.9h-2l-0.8-2.2h-3.8l-0.8,2.2h-2l3.4-9.1h2.5L741.4,353.9z M736.7,346.6l-1.3,3.5h2.6
		L736.7,346.6L736.7,346.6z M746.4,353.9h-1.8v-7.5h-2.9v-1.6h7.6v1.6h-2.9L746.4,353.9L746.4,353.9z M753.1,353.9h-1.8v-9.1h6.4
		v1.6h-4.5v1.7h3.5v1.7h-3.5v4.1L753.1,353.9L753.1,353.9z M763.7,354.1c-0.9,0-1.7-0.2-2.4-0.6s-1.2-1-1.6-1.7
		c-0.4-0.7-0.5-1.5-0.5-2.5s0.2-1.8,0.5-2.5c0.4-0.7,0.9-1.3,1.6-1.7c0.7-0.4,1.5-0.6,2.4-0.6s1.7,0.2,2.4,0.6s1.2,1,1.6,1.7
		c0.4,0.7,0.5,1.5,0.5,2.5s-0.2,1.8-0.5,2.5c-0.4,0.7-0.9,1.3-1.6,1.7C765.4,353.9,764.6,354.1,763.7,354.1z M763.7,352.4
		c0.8,0,1.4-0.3,1.9-0.8c0.5-0.6,0.7-1.3,0.7-2.3c0-0.9-0.2-1.7-0.7-2.2c-0.5-0.6-1.1-0.8-1.9-0.8c-0.8,0-1.4,0.3-1.9,0.8
		s-0.7,1.3-0.7,2.2c0,1,0.2,1.7,0.7,2.3C762.2,352.1,762.9,352.4,763.7,352.4z M770.4,353.9v-9.1h4.7c0.8,0,1.4,0.2,1.9,0.6
		c0.4,0.4,0.7,1,0.7,1.7c0,0.5-0.1,0.9-0.3,1.2c-0.2,0.3-0.4,0.5-0.7,0.7l0,0c0.3,0.2,0.5,0.6,0.6,1.1l0.5,3.6v0.1H776l-0.5-3.3
		c-0.1-0.6-0.4-0.9-1-0.9h-2.2v4.2L770.4,353.9L770.4,353.9z M774.8,348.2c0.6,0,0.9-0.3,0.9-0.9s-0.3-0.9-0.9-0.9h-2.6v1.8H774.8z
		 M781.9,353.9h-1.8v-9.1h3.1l2.1,6.3l0,0l2.1-6.3h3.1v9.1h-1.8v-7.3l0,0l-2.5,7.3h-1.7l-2.5-7.3l0,0L781.9,353.9L781.9,353.9z"/>
	<path class="st0" d="M400.1,27.9h-6.8v-9.1h6.6v1.6h-4.8V22h3.7v1.6h-3.7v2.6h4.9L400.1,27.9L400.1,27.9z M404.1,27.9h-1.8v-9.1
		h2.7l3,6.9l0,0v-6.9h1.8v9.1h-2.7l-3-6.9l0,0V27.9z M419.4,27.9h-6.8v-9.1h6.6v1.6h-4.8V22h3.7v1.6h-3.7v2.6h4.9L419.4,27.9
		L419.4,27.9z M421.7,27.9v-9.1h4.7c0.8,0,1.4,0.2,1.9,0.6c0.4,0.4,0.7,1,0.7,1.7c0,0.5-0.1,0.9-0.3,1.2c-0.2,0.3-0.4,0.5-0.7,0.7
		l0,0c0.3,0.2,0.5,0.6,0.6,1.1l0.5,3.6v0.1h-1.8l-0.5-3.3c-0.1-0.6-0.4-0.9-1-0.9h-2.2v4.2L421.7,27.9L421.7,27.9z M426.1,22.2
		c0.6,0,0.9-0.3,0.9-0.9s-0.3-0.9-0.9-0.9h-2.6v1.8H426.1z M437.8,27.9v-1.2l0,0c-0.3,0.4-0.7,0.8-1.2,1s-1.1,0.4-1.7,0.4
		c-0.8,0-1.5-0.2-2.1-0.6s-1.1-1-1.4-1.7s-0.5-1.5-0.5-2.5c0-0.9,0.2-1.8,0.5-2.5c0.4-0.7,0.9-1.3,1.5-1.7c0.7-0.4,1.5-0.6,2.4-0.6
		c1.1,0,2,0.3,2.7,0.8s1.2,1.2,1.3,2.1h-2.1c-0.1-0.4-0.4-0.7-0.7-0.9c-0.3-0.2-0.7-0.3-1.2-0.3c-0.8,0-1.5,0.3-1.9,0.8
		c-0.5,0.5-0.7,1.3-0.7,2.2c0,0.9,0.2,1.7,0.7,2.3c0.5,0.6,1.1,0.9,1.9,0.9c0.4,0,0.8-0.1,1.2-0.3c0.4-0.2,0.7-0.5,0.9-0.8
		c0.2-0.3,0.3-0.7,0.4-1.2V24h-2.6v-1.5h4.4v5.4C439.6,27.9,437.8,27.9,437.8,27.9z M445.4,27.9h-1.8v-4l-3.2-5.1h2.2l2,3.2l0,0
		l1.9-3.2h2.2l-3.2,5v4.1H445.4z M398.4,48.1c-0.7,0-1.3-0.1-1.9-0.4c-0.6-0.3-1-0.6-1.3-1.1s-0.5-1-0.6-1.7h1.9
		c0,0.5,0.2,0.9,0.6,1.2c0.3,0.3,0.8,0.4,1.4,0.4c0.5,0,0.8-0.1,1.1-0.3c0.3-0.2,0.4-0.5,0.4-0.9c0-0.6-0.3-1-1-1.1l-2.1-0.5
		c-0.7-0.1-1.2-0.4-1.5-0.9c-0.3-0.4-0.5-1-0.5-1.5s0.1-1,0.4-1.4s0.7-0.7,1.2-0.9s1.1-0.3,1.7-0.3c0.7,0,1.3,0.1,1.8,0.4
		c0.5,0.2,1,0.6,1.3,1s0.5,0.9,0.5,1.5h-1.9c0-0.4-0.2-0.8-0.5-1s-0.7-0.3-1.2-0.3c-0.4,0-0.8,0.1-1,0.3c-0.3,0.2-0.4,0.4-0.4,0.8
		c0,0.5,0.3,0.8,0.8,0.9l2,0.5c0.7,0.2,1.3,0.4,1.7,0.8c0.4,0.4,0.6,1,0.6,1.7c0,0.6-0.2,1.2-0.5,1.6c-0.3,0.4-0.7,0.8-1.2,1
		C399.7,48,399.1,48.1,398.4,48.1z M407.6,48.1c-1.2,0-2.2-0.3-2.8-0.9c-0.6-0.6-0.9-1.4-0.9-2.5v-6h1.8v5.8c0,0.6,0.2,1.1,0.5,1.4
		c0.3,0.3,0.8,0.4,1.5,0.4s1.2-0.1,1.5-0.4c0.3-0.3,0.5-0.8,0.5-1.4v-5.8h1.8v6c0,1.1-0.3,1.9-0.9,2.5
		C409.8,47.8,408.9,48.1,407.6,48.1z M414,47.9v-9.1h4.7c0.8,0,1.4,0.2,1.9,0.7s0.7,1.1,0.7,1.9c0,0.8-0.2,1.4-0.7,1.8
		c-0.5,0.4-1.1,0.6-1.9,0.6h-2.9v4L414,47.9L414,47.9z M418.4,42.3c0.7,0,1-0.3,1-0.9c0-0.3-0.1-0.5-0.3-0.7
		c-0.2-0.2-0.4-0.2-0.7-0.2h-2.6v1.8C415.8,42.3,418.4,42.3,418.4,42.3z M423.4,47.9v-9.1h4.7c0.8,0,1.4,0.2,1.9,0.7
		s0.7,1.1,0.7,1.9c0,0.8-0.2,1.4-0.7,1.8c-0.5,0.4-1.1,0.6-1.9,0.6h-2.9v4L423.4,47.9L423.4,47.9z M427.8,42.3c0.6,0,1-0.3,1-0.9
		c0-0.3-0.1-0.5-0.3-0.7c-0.2-0.2-0.4-0.2-0.7-0.2h-2.6v1.8C425.2,42.3,427.8,42.3,427.8,42.3z M438.5,47.9h-5.7v-9.1h1.8v7.5h3.9
		L438.5,47.9L438.5,47.9z M443.5,47.9h-1.8v-4l-3.2-5.1h2.2l2,3.2l0,0l1.9-3.2h2.2l-3.2,5v4.1H443.5z"/>
	<path class="st0" d="M395,637v-9.1h3.1c1.4,0,2.6,0.4,3.4,1.2s1.2,1.9,1.2,3.3s-0.4,2.5-1.2,3.4c-0.8,0.8-1.9,1.2-3.4,1.2L395,637
		L395,637z M398,635.4c0.9,0,1.5-0.2,2-0.7s0.7-1.2,0.7-2.2s-0.2-1.7-0.7-2.2s-1.1-0.7-2-0.7h-1.3v5.8L398,635.4L398,635.4z
		 M411.6,637h-6.8v-9.1h6.6v1.6h-4.8v1.6h3.7v1.6h-3.7v2.6h4.9L411.6,637L411.6,637z M418.8,637h-2.5l-3.4-9.1h2l2.6,7.3h0.1
		l2.6-7.3h2L418.8,637z M425.8,637H424v-9.1h1.8V637z M432.5,637.2c-0.9,0-1.7-0.2-2.4-0.6c-0.7-0.4-1.2-0.9-1.6-1.7
		c-0.4-0.7-0.5-1.5-0.5-2.5c0-0.9,0.2-1.8,0.5-2.5c0.4-0.7,0.9-1.3,1.6-1.7s1.5-0.6,2.4-0.6c1.1,0,2,0.3,2.8,0.8
		c0.7,0.6,1.2,1.3,1.4,2.4h-2c-0.1-0.5-0.4-0.9-0.8-1.1c-0.4-0.3-0.9-0.4-1.4-0.4c-0.8,0-1.4,0.3-1.9,0.8s-0.7,1.3-0.7,2.2
		c0,1,0.2,1.7,0.7,2.3c0.5,0.5,1.1,0.8,1.9,0.8c0.7,0,1.3-0.2,1.7-0.7c0.4-0.5,0.7-1.1,0.7-1.8h1.9c-0.1,0.8-0.3,1.6-0.6,2.2
		c-0.4,0.6-0.9,1.1-1.5,1.5C434.1,637,433.4,637.2,432.5,637.2z M445.8,637H439v-9.1h6.6v1.6h-4.8v1.6h3.7v1.6h-3.7v2.6h4.9
		L445.8,637L445.8,637z M371.5,657h-1.8v-9.1h3.1l2.1,6.3l0,0l2.1-6.3h3.1v9.1h-1.8v-7.3l0,0l-2.5,7.3h-1.7l-2.5-7.3l0,0v7.3H371.5z
		 M391.2,657h-2l-0.8-2.2h-3.8l-0.8,2.2h-2l3.4-9.1h2.5L391.2,657z M386.5,649.7l-1.3,3.5h2.6L386.5,649.7L386.5,649.7z M394.8,657
		H393v-9.1h2.7l3,6.9l0,0v-6.9h1.8v9.1h-2.7l-3-6.9l0,0V657z M411.7,657h-2l-0.8-2.2h-3.8l-0.8,2.2h-2l3.4-9.1h2.5L411.7,657z
		 M407,649.7l-1.3,3.5h2.6L407,649.7L407,649.7z M419.5,657v-1.2l0,0c-0.3,0.4-0.7,0.8-1.2,1s-1.1,0.4-1.7,0.4
		c-0.8,0-1.5-0.2-2.1-0.6c-0.6-0.4-1.1-1-1.4-1.7s-0.5-1.5-0.5-2.5c0-0.9,0.2-1.8,0.5-2.5c0.4-0.7,0.9-1.3,1.5-1.7s1.5-0.6,2.4-0.6
		c1.1,0,2,0.3,2.7,0.8s1.2,1.2,1.3,2.1h-2c-0.1-0.4-0.4-0.7-0.7-0.9c-0.3-0.2-0.7-0.3-1.2-0.3c-0.8,0-1.5,0.3-1.9,0.8
		c-0.5,0.5-0.7,1.3-0.7,2.2s0.2,1.7,0.7,2.3s1.1,0.9,1.9,0.9c0.4,0,0.8-0.1,1.2-0.3c0.4-0.2,0.7-0.5,0.9-0.8
		c0.2-0.3,0.3-0.8,0.4-1.2v-0.1H417v-1.5h4.4v5.4L419.5,657L419.5,657z M430.6,657h-6.8v-9.1h6.6v1.6h-4.8v1.6h3.7v1.6h-3.7v2.6h4.9
		L430.6,657L430.6,657z M434.6,657h-1.8v-9.1h3.1l2.1,6.3l0,0l2.1-6.3h3.1v9.1h-1.8v-7.3l0,0l-2.5,7.3h-1.7l-2.5-7.3l0,0v7.3H434.6z
		 M452.6,657h-6.8v-9.1h6.6v1.6h-4.8v1.6h3.7v1.6h-3.7v2.6h4.9L452.6,657L452.6,657z M456.7,657h-1.8v-9.1h2.7l3,6.9l0,0v-6.9h1.8
		v9.1h-2.7l-3-6.9l0,0V657z M469.2,657h-1.8v-7.5h-2.9v-1.6h7.6v1.6h-2.9L469.2,657L469.2,657z"/>
	<path class="st0" d="M64.3,333.9v-9.1h3.1c1.4,0,2.6,0.4,3.4,1.2c0.8,0.8,1.2,1.9,1.2,3.3s-0.4,2.5-1.2,3.4
		c-0.8,0.8-1.9,1.2-3.4,1.2H64.3z M67.4,332.3c0.9,0,1.5-0.2,2-0.7s0.7-1.2,0.7-2.2s-0.2-1.7-0.7-2.2s-1.1-0.7-2-0.7h-1.3v5.8
		L67.4,332.3L67.4,332.3z M80.9,333.9h-6.8v-9.1h6.6v1.6H76v1.6h3.7v1.6H76v2.6h4.9V333.9z M85,333.9h-1.8v-9.1h3.1l2.1,6.3l0,0
		l2.1-6.3h3.1v9.1h-1.8v-7.3l0,0l-2.5,7.3h-1.7l-2.5-7.3l0,0L85,333.9L85,333.9z M104.7,333.9h-2l-0.8-2.2h-3.8l-0.8,2.2h-2l3.4-9.1
		h2.5L104.7,333.9z M100,326.6l-1.3,3.5h2.6L100,326.6L100,326.6z M108.3,333.9h-1.8v-9.1h2.7l3,6.9l0,0v-6.9h1.8v9.1h-2.7l-3-6.9
		l0,0V333.9z M116.8,333.9v-9.1h3.1c1.4,0,2.6,0.4,3.4,1.2c0.8,0.8,1.2,1.9,1.2,3.3s-0.4,2.5-1.2,3.4c-0.8,0.8-1.9,1.2-3.4,1.2
		H116.8z M119.9,332.3c0.9,0,1.5-0.2,2-0.7s0.7-1.2,0.7-2.2s-0.2-1.7-0.7-2.2s-1.1-0.7-2-0.7h-1.3v5.8L119.9,332.3L119.9,332.3z
		 M50.9,353.9v-9.1h4.7c0.8,0,1.4,0.2,1.9,0.6c0.4,0.4,0.7,1,0.7,1.7c0,0.5-0.1,0.9-0.3,1.2c-0.2,0.3-0.4,0.5-0.7,0.7l0,0
		c0.3,0.2,0.5,0.6,0.6,1.1l0.5,3.6v0.1h-1.8l-0.5-3.3c-0.1-0.6-0.4-0.9-1-0.9h-2.2v4.2L50.9,353.9L50.9,353.9z M55.4,348.2
		c0.6,0,0.9-0.3,0.9-0.9s-0.3-0.9-0.9-0.9h-2.6v1.8H55.4z M67.4,353.9h-6.8v-9.1h6.6v1.6h-4.8v1.6h3.7v1.6h-3.7v2.6h4.9L67.4,353.9
		L67.4,353.9z M72.8,354.1c-0.7,0-1.3-0.1-1.9-0.4s-1-0.6-1.3-1.1s-0.5-1-0.6-1.7h1.9c0,0.5,0.2,0.9,0.6,1.2
		c0.3,0.3,0.8,0.4,1.4,0.4c0.5,0,0.8-0.1,1.1-0.3c0.3-0.2,0.4-0.5,0.4-0.9c0-0.6-0.3-1-1-1.1l-2.1-0.5c-0.7-0.1-1.2-0.4-1.5-0.9
		c-0.3-0.4-0.5-1-0.5-1.5s0.1-1,0.4-1.4s0.7-0.7,1.2-0.9c0.5-0.2,1.1-0.3,1.7-0.3c0.7,0,1.3,0.1,1.8,0.4c0.5,0.2,1,0.6,1.3,1
		s0.5,0.9,0.5,1.5h-1.9c0-0.4-0.2-0.8-0.5-1s-0.7-0.3-1.2-0.3c-0.4,0-0.8,0.1-1,0.3c-0.3,0.2-0.4,0.4-0.4,0.8c0,0.5,0.3,0.8,0.8,0.9
		l2,0.5c0.7,0.2,1.3,0.4,1.7,0.8c0.4,0.4,0.6,1,0.6,1.7c0,0.6-0.2,1.2-0.5,1.6s-0.7,0.8-1.2,1C74.1,354,73.5,354.1,72.8,354.1z
		 M78.4,353.9v-9.1h4.7c0.8,0,1.4,0.2,1.9,0.7s0.7,1.1,0.7,1.9s-0.2,1.4-0.7,1.8s-1.1,0.6-1.9,0.6h-2.9v4h-1.8
		C78.4,353.8,78.4,353.9,78.4,353.9z M82.8,348.3c0.6,0,1-0.3,1-0.9c0-0.3-0.1-0.5-0.3-0.7c-0.2-0.2-0.4-0.2-0.7-0.2h-2.6v1.8
		L82.8,348.3L82.8,348.3z M91.8,354.1c-0.9,0-1.7-0.2-2.4-0.6c-0.7-0.4-1.2-1-1.6-1.7s-0.5-1.5-0.5-2.5s0.2-1.8,0.5-2.5
		c0.4-0.7,0.9-1.3,1.6-1.7c0.7-0.4,1.5-0.6,2.4-0.6s1.7,0.2,2.4,0.6c0.7,0.4,1.2,1,1.6,1.7s0.5,1.5,0.5,2.5s-0.2,1.8-0.5,2.5
		c-0.4,0.7-0.9,1.3-1.6,1.7C93.5,353.9,92.7,354.1,91.8,354.1z M91.8,352.4c0.8,0,1.4-0.3,1.9-0.8c0.5-0.6,0.7-1.3,0.7-2.3
		c0-0.9-0.2-1.7-0.7-2.2c-0.5-0.6-1.1-0.8-1.9-0.8s-1.4,0.3-1.9,0.8s-0.7,1.3-0.7,2.2c0,1,0.2,1.7,0.7,2.3
		C90.4,352.1,91,352.4,91.8,352.4z M100.4,353.9h-1.8v-9.1h2.7l3,6.9l0,0v-6.9h1.8v9.1h-2.7l-3-6.9l0,0V353.9z M112.1,354.1
		c-0.7,0-1.3-0.1-1.9-0.4s-1-0.6-1.3-1.1s-0.5-1-0.6-1.7h1.9c0,0.5,0.2,0.9,0.6,1.2c0.3,0.3,0.8,0.4,1.4,0.4c0.5,0,0.8-0.1,1.1-0.3
		c0.3-0.2,0.4-0.5,0.4-0.9c0-0.6-0.3-1-1-1.1l-2.1-0.5c-0.7-0.1-1.2-0.4-1.5-0.9c-0.3-0.4-0.5-1-0.5-1.5s0.1-1,0.4-1.4
		s0.7-0.7,1.2-0.9c0.5-0.2,1.1-0.3,1.7-0.3c0.7,0,1.3,0.1,1.8,0.4c0.5,0.2,1,0.6,1.3,1s0.5,0.9,0.5,1.5h-1.9c0-0.4-0.2-0.8-0.5-1
		s-0.7-0.3-1.2-0.3c-0.4,0-0.8,0.1-1,0.3c-0.3,0.2-0.4,0.4-0.4,0.8c0,0.5,0.3,0.8,0.8,0.9l2,0.5c0.7,0.2,1.3,0.4,1.7,0.8
		c0.4,0.4,0.6,1,0.6,1.7c0,0.6-0.2,1.2-0.5,1.6s-0.7,0.8-1.2,1C113.4,354,112.8,354.1,112.1,354.1z M124.4,353.9h-6.8v-9.1h6.6v1.6
		h-4.8v1.6h3.7v1.6h-3.7v2.6h4.9v1.7L124.4,353.9L124.4,353.9z"/>
	<circle class="st1" cx="420.1" cy="338.7" r="70"/>
	<circle class="st2" cx="420" cy="269" r="10"/>
	<circle class="st3" cx="420" cy="409" r="10"/>
	<circle class="st3" cx="350" cy="340.5" r="10"/>
	<circle class="st3" cx="490" cy="340.5" r="10"/>
	<circle class="st1" cx="420.3" cy="339.2" r="115"/>
	<circle class="st4" cx="420.4" cy="225" r="10"/>
	<circle class="st3" cx="420.4" cy="455.2" r="10"/>
	<circle class="st4" cx="304.9" cy="340.4" r="10"/>
	<circle class="st3" cx="535.1" cy="340.4" r="10"/>
	<circle class="st1" cx="419.4" cy="338.6" r="160"/>
	<circle class="st5" cx="420" cy="179" r="10"/>
	<circle class="st3" cx="420" cy="498" r="10"/>
	<circle class="st3" cx="260" cy="340.5" r="10"/>
	<circle class="st5" cx="579" cy="340.5" r="10"/>
	<path class="st1" d="M419.5,545c113.8,0,206-92.2,206-206s-92.2-206-206-206s-206,92.2-206,206S305.8,545,419.5,545z"/>
	<circle class="st3" cx="420" cy="133" r="10"/>
	<circle class="st3" cx="420" cy="545" r="10"/>
	<circle class="st6" cx="214" cy="340" r="10"/>
	<circle class="st3" cx="626" cy="340" r="10"/>
	<circle class="st1" cx="419.7" cy="341.8" r="252"/>
	<circle class="st7" cx="420" cy="88" r="10"/>
	<circle class="st7" cx="420" cy="593.5" r="10"/>
	<circle class="st7" cx="167.2" cy="340.4" r="10"/>
	<circle class="st7" cx="672.7" cy="340.4" r="10"/>
	<path class="st8" d="M111,715.2h127c9.1,0,16.5,7.4,16.5,16.5l0,0c0,9.1-7.4,16.5-16.5,16.5H111c-9.1,0-16.5-7.4-16.5-16.5l0,0
		C94.5,722.6,101.9,715.2,111,715.2z"/>
	<circle class="st7" cx="113" cy="731.7" r="6"/>
	<path class="st9" d="M130.1,735.7v-9.8h3.4c1.5,0,2.8,0.4,3.6,1.3c0.9,0.9,1.3,2.1,1.3,3.6s-0.4,2.7-1.3,3.6
		c-0.9,0.9-2.1,1.3-3.6,1.3L130.1,735.7L130.1,735.7z M133.4,734c0.9,0,1.7-0.3,2.2-0.8s0.8-1.3,0.8-2.4c0-1-0.3-1.8-0.8-2.3
		s-1.2-0.8-2.2-0.8H132v6.3H133.4z M149.4,735.7h-2.1l-0.9-2.4h-4.1l-0.9,2.4h-2.1l3.7-9.8h2.7L149.4,735.7z M144.4,727.8l-1.4,3.8
		h2.8L144.4,727.8L144.4,727.8z M156.2,735.7h-2.7l-3.6-9.8h2.1l2.8,7.9h0.1l2.8-7.9h2.1L156.2,735.7z M163.9,735.7h-2v-9.8h2V735.7
		z M167,735.7v-9.8h3.4c1.5,0,2.8,0.4,3.6,1.3c0.9,0.9,1.3,2.1,1.3,3.6s-0.4,2.7-1.3,3.6c-0.9,0.9-2.1,1.3-3.6,1.3L167,735.7
		L167,735.7z M170.3,734c0.9,0,1.7-0.3,2.2-0.8s0.8-1.3,0.8-2.4c0-1-0.3-1.8-0.8-2.3s-1.2-0.8-2.2-0.8h-1.4v6.3H170.3z M188.7,735.7
		h-7.3v-9.8h7.1v1.8h-5.2v1.7h4v1.8h-4v2.8h5.3L188.7,735.7L188.7,735.7z M193.3,735.7h-2v-9.8h3l3.3,7.5l0,0v-7.5h2v9.8h-3
		l-3.3-7.4l0,0V735.7z M209.9,735.7h-7.3v-9.8h7.1v1.8h-5.2v1.7h4v1.8h-4v2.8h5.3L209.9,735.7L209.9,735.7z M212.4,735.7v-9.8h5.1
		c0.9,0,1.5,0.2,2,0.7c0.5,0.4,0.7,1.1,0.7,1.9c0,0.6-0.1,1-0.3,1.3s-0.5,0.6-0.8,0.7l0,0c0.4,0.3,0.6,0.6,0.7,1.1l0.6,3.9v0.1h-2
		l-0.5-3.6c-0.1-0.6-0.4-1-1.1-1h-2.4v4.5h-2V735.7z M217.2,729.6c0.7,0,1-0.3,1-0.9c0-0.6-0.3-1-1-1h-2.8v1.9H217.2z M229.9,735.7
		v-1.3l0,0c-0.3,0.5-0.8,0.8-1.3,1.1s-1.2,0.4-1.8,0.4c-0.9,0-1.6-0.2-2.3-0.6c-0.7-0.4-1.2-1-1.5-1.8c-0.4-0.8-0.5-1.7-0.5-2.7
		s0.2-1.9,0.6-2.7c0.4-0.8,0.9-1.4,1.7-1.8c0.7-0.4,1.6-0.6,2.6-0.6c1.2,0,2.1,0.3,2.9,0.8c0.8,0.5,1.2,1.3,1.4,2.2h-2.2
		c-0.2-0.4-0.4-0.7-0.8-0.9c-0.4-0.2-0.8-0.3-1.3-0.3c-0.9,0-1.6,0.3-2.1,0.9c-0.5,0.6-0.7,1.4-0.7,2.4s0.2,1.8,0.7,2.5
		c0.5,0.6,1.2,0.9,2,0.9c0.5,0,0.9-0.1,1.3-0.3c0.4-0.2,0.7-0.5,0.9-0.9s0.4-0.8,0.4-1.3v-0.1H227v-1.7h4.8v5.8L229.9,735.7
		L229.9,735.7z M238.3,735.7h-2v-4.3l-3.5-5.5h2.4l2.1,3.4l0,0l2.1-3.4h2.3l-3.5,5.4L238.3,735.7L238.3,735.7z"/>
	<path class="st10" d="M111,715.2h127c9.1,0,16.5,7.4,16.5,16.5l0,0c0,9.1-7.4,16.5-16.5,16.5H111c-9.1,0-16.5-7.4-16.5-16.5l0,0
		C94.5,722.6,101.9,715.2,111,715.2z"/>
	<path class="st8" d="M284,715.2h73c9.1,0,16.5,7.4,16.5,16.5l0,0c0,9.1-7.4,16.5-16.5,16.5h-73c-9.1,0-16.5-7.4-16.5-16.5l0,0
		C267.5,722.6,274.9,715.2,284,715.2z"/>
	<circle class="st6" cx="286" cy="731.7" r="6"/>
	<path class="st9" d="M308.4,735.7h-2.7l-3.6-9.8h2.1l2.8,7.9h0.1l2.8-7.9h2.1L308.4,735.7z M318,735.9c-1,0-1.9-0.2-2.6-0.6
		c-0.7-0.4-1.3-1-1.7-1.8c-0.4-0.8-0.6-1.7-0.6-2.7s0.2-1.9,0.6-2.7s1-1.4,1.7-1.8c0.7-0.4,1.6-0.7,2.6-0.7s1.9,0.2,2.6,0.6
		c0.7,0.4,1.3,1,1.7,1.8c0.4,0.8,0.6,1.7,0.6,2.7s-0.2,1.9-0.6,2.7s-1,1.4-1.7,1.8C319.9,735.7,319,735.9,318,735.9z M318,734.1
		c0.9,0,1.6-0.3,2.1-0.9c0.5-0.6,0.8-1.4,0.8-2.4s-0.3-1.8-0.8-2.4c-0.5-0.6-1.2-0.9-2.1-0.9s-1.6,0.3-2.1,0.9
		c-0.5,0.6-0.8,1.4-0.8,2.4s0.3,1.8,0.8,2.4C316.5,733.8,317.2,734.1,318,734.1z M331.6,735.7h-6.2v-9.8h2v8h4.2V735.7z
		 M336.8,735.7h-2v-8h-3.1v-1.8h8.2v1.8h-3.1V735.7z M346,735.9c-1.3,0-2.3-0.3-3-1c-0.7-0.6-1-1.5-1-2.6v-6.4h2v6.3
		c0,0.7,0.2,1.2,0.5,1.5s0.9,0.5,1.6,0.5s1.3-0.2,1.6-0.5c0.3-0.3,0.5-0.8,0.5-1.5v-6.3h2v6.4c0,1.1-0.3,2-1,2.7
		C348.4,735.6,347.4,735.9,346,735.9z M356.4,735.9c-0.8,0-1.4-0.1-2-0.4c-0.6-0.3-1.1-0.7-1.4-1.2c-0.4-0.5-0.6-1.1-0.6-1.8h2
		c0,0.5,0.2,1,0.6,1.3s0.9,0.5,1.5,0.5c0.5,0,0.9-0.1,1.2-0.3c0.3-0.2,0.5-0.6,0.5-1c0-0.7-0.4-1.1-1.1-1.2l-2.2-0.5
		c-0.7-0.2-1.3-0.5-1.7-0.9c-0.4-0.5-0.5-1-0.5-1.7c0-0.6,0.1-1.1,0.4-1.5s0.7-0.8,1.2-1s1.2-0.4,1.9-0.4c0.7,0,1.4,0.1,2,0.4
		c0.6,0.3,1,0.6,1.4,1.1c0.3,0.5,0.5,1,0.5,1.6h-2c0-0.5-0.2-0.8-0.5-1.1c-0.3-0.2-0.8-0.4-1.3-0.4s-0.8,0.1-1.1,0.3
		c-0.3,0.2-0.4,0.5-0.4,0.9c0,0.5,0.3,0.9,0.9,1l2.2,0.5c0.8,0.2,1.4,0.5,1.8,0.9s0.7,1,0.7,1.8c0,0.7-0.2,1.3-0.5,1.7
		c-0.3,0.5-0.8,0.8-1.3,1.1C357.8,735.8,357.2,735.9,356.4,735.9z"/>
	<path class="st10" d="M284,715.2h73c9.1,0,16.5,7.4,16.5,16.5l0,0c0,9.1-7.4,16.5-16.5,16.5h-73c-9.1,0-16.5-7.4-16.5-16.5l0,0
		C267.5,722.6,274.9,715.2,284,715.2z"/>
	<path class="st8" d="M403,715.2h61c9.1,0,16.5,7.4,16.5,16.5l0,0c0,9.1-7.4,16.5-16.5,16.5h-61c-9.1,0-16.5-7.4-16.5-16.5l0,0
		C386.5,722.6,393.9,715.2,403,715.2z"/>
	<circle class="st5" cx="405" cy="731.7" r="6"/>
	<path class="st9" d="M429.4,735.7h-7.3v-9.8h7.1v1.8H424v1.7h4v1.8h-4v2.8h5.3v1.7H429.4z M433.9,735.7h-2v-9.8h3l3.3,7.5l0,0v-7.5
		h2v9.8h-3l-3.3-7.4l0,0V735.7z M450.2,735.7v-1.3l0,0c-0.3,0.5-0.8,0.8-1.3,1.1s-1.2,0.4-1.8,0.4c-0.9,0-1.6-0.2-2.3-0.6
		c-0.7-0.4-1.2-1-1.5-1.8c-0.4-0.8-0.5-1.7-0.5-2.7s0.2-1.9,0.6-2.7s0.9-1.4,1.7-1.8c0.7-0.4,1.6-0.6,2.6-0.6c1.2,0,2.1,0.3,2.9,0.8
		s1.2,1.3,1.4,2.2h-2.2c-0.2-0.4-0.4-0.7-0.8-0.9s-0.8-0.3-1.3-0.3c-0.9,0-1.6,0.3-2.1,0.9c-0.5,0.6-0.7,1.4-0.7,2.4
		s0.2,1.8,0.7,2.5c0.5,0.6,1.2,0.9,2,0.9c0.5,0,0.9-0.1,1.3-0.3s0.7-0.5,0.9-0.9c0.2-0.4,0.4-0.8,0.4-1.3v-0.1h-2.8v-1.7h4.8v5.8
		L450.2,735.7L450.2,735.7z M456.9,735.7h-2v-9.8h2V735.7z M467.3,735.7H460v-9.8h7.1v1.8h-5.2v1.7h4v1.8h-4v2.8h5.3v1.7H467.3z"/>
	<path class="st10" d="M403,715.2h61c9.1,0,16.5,7.4,16.5,16.5l0,0c0,9.1-7.4,16.5-16.5,16.5h-61c-9.1,0-16.5-7.4-16.5-16.5l0,0
		C386.5,722.6,393.9,715.2,403,715.2z"/>
	<path class="st8" d="M510,715.2h47c9.1,0,16.5,7.4,16.5,16.5l0,0c0,9.1-7.4,16.5-16.5,16.5h-47c-9.1,0-16.5-7.4-16.5-16.5l0,0
		C493.5,722.6,500.9,715.2,510,715.2z"/>
	<circle class="st4" cx="512" cy="731.7" r="6"/>
	<path class="st9" d="M531.1,735.7h-2v-9.8h3l3.3,7.5l0,0v-7.5h2v9.8h-3l-3.3-7.4l0,0V735.7z M540.4,735.7v-9.8h5.1
		c0.9,0,1.5,0.2,2,0.7c0.5,0.4,0.7,1.1,0.7,1.9c0,0.6-0.1,1-0.3,1.3s-0.5,0.6-0.8,0.7l0,0c0.4,0.3,0.6,0.6,0.7,1.1l0.6,3.9v0.1h-2
		l-0.5-3.6c-0.1-0.6-0.4-1-1-1h-2.4v4.5h-2.1V735.7z M545.2,729.6c0.7,0,1-0.3,1-0.9c0-0.6-0.3-1-1-1h-2.8v1.9H545.2z M557.8,735.7
		v-1.3l0,0c-0.3,0.5-0.8,0.8-1.3,1.1s-1.2,0.4-1.8,0.4c-0.9,0-1.6-0.2-2.3-0.6c-0.7-0.4-1.2-1-1.5-1.8c-0.4-0.8-0.5-1.7-0.5-2.7
		s0.2-1.9,0.6-2.7c0.4-0.8,0.9-1.4,1.7-1.8c0.7-0.4,1.6-0.6,2.6-0.6c1.2,0,2.1,0.3,2.9,0.8c0.8,0.5,1.2,1.3,1.4,2.2h-2.2
		c-0.2-0.4-0.4-0.7-0.8-0.9s-0.8-0.3-1.3-0.3c-0.9,0-1.6,0.3-2.1,0.9c-0.5,0.6-0.7,1.4-0.7,2.4s0.2,1.8,0.7,2.5
		c0.5,0.6,1.2,0.9,2,0.9c0.5,0,0.9-0.1,1.3-0.3c0.4-0.2,0.7-0.5,0.9-0.9s0.4-0.8,0.4-1.3v-0.1H555v-1.7h4.8v5.8L557.8,735.7
		L557.8,735.7z"/>
	<path class="st10" d="M510,715.2h47c9.1,0,16.5,7.4,16.5,16.5l0,0c0,9.1-7.4,16.5-16.5,16.5h-47c-9.1,0-16.5-7.4-16.5-16.5l0,0
		C493.5,722.6,500.9,715.2,510,715.2z"/>
	<path class="st8" d="M603,715.2h126c9.1,0,16.5,7.4,16.5,16.5l0,0c0,9.1-7.4,16.5-16.5,16.5H603c-9.1,0-16.5-7.4-16.5-16.5l0,0
		C586.5,722.6,593.9,715.2,603,715.2z"/>
	<circle class="st2" cx="605" cy="731.7" r="6"/>
	<path class="st9" d="M628.3,735.7h-6.2v-9.8h2v8h4.2V735.7z M634.5,735.9c-1,0-1.9-0.2-2.6-0.6c-0.7-0.4-1.3-1-1.7-1.8
		s-0.6-1.7-0.6-2.7s0.2-1.9,0.6-2.7c0.4-0.8,1-1.4,1.7-1.8c0.7-0.4,1.6-0.7,2.6-0.7s1.9,0.2,2.6,0.6c0.7,0.4,1.3,1,1.7,1.8
		s0.6,1.7,0.6,2.7s-0.2,1.9-0.6,2.7c-0.4,0.8-1,1.4-1.7,1.8C636.4,735.7,635.5,735.9,634.5,735.9z M634.5,734.1
		c0.9,0,1.6-0.3,2.1-0.9c0.5-0.6,0.8-1.4,0.8-2.4s-0.3-1.8-0.8-2.4c-0.5-0.6-1.2-0.9-2.1-0.9c-0.9,0-1.6,0.3-2.1,0.9
		c-0.5,0.6-0.8,1.4-0.8,2.4s0.3,1.8,0.8,2.4S633.6,734.1,634.5,734.1z M646.2,735.9c-1,0-1.9-0.2-2.6-0.6c-0.7-0.4-1.3-1-1.7-1.8
		s-0.6-1.7-0.6-2.7s0.2-1.9,0.6-2.7c0.4-0.8,1-1.4,1.7-1.8c0.7-0.4,1.6-0.6,2.6-0.6c1.2,0,2.2,0.3,3,0.9c0.8,0.6,1.3,1.4,1.5,2.5
		h-2.1c-0.1-0.5-0.4-1-0.8-1.2c-0.4-0.3-0.9-0.4-1.5-0.4c-0.9,0-1.6,0.3-2.1,0.9c-0.5,0.6-0.8,1.4-0.8,2.4s0.3,1.9,0.8,2.5
		s1.2,0.9,2.1,0.9c0.8,0,1.4-0.2,1.9-0.7c0.4-0.5,0.7-1.2,0.8-2h2.1c-0.1,0.9-0.3,1.7-0.7,2.4s-0.9,1.2-1.6,1.6
		C648,735.8,647.2,735.9,646.2,735.9z M662,735.7h-2.1l-0.9-2.4h-4.1l-0.9,2.4h-2.1l3.7-9.8h2.7L662,735.7z M656.9,727.8l-1.4,3.8
		h2.8L656.9,727.8L656.9,727.8z M670.2,735.7H664v-9.8h2v8h4.2V735.7z M680.2,735.9c-1.3,0-2.3-0.3-3-1c-0.7-0.6-1-1.5-1-2.6v-6.4h2
		v6.3c0,0.7,0.2,1.2,0.5,1.5s0.9,0.5,1.6,0.5c0.7,0,1.3-0.2,1.6-0.5s0.5-0.8,0.5-1.5v-6.3h2v6.4c0,1.1-0.3,2-1,2.7
		C682.5,735.6,681.5,735.9,680.2,735.9z M691.3,735.7h-2v-8h-3.1v-1.8h8.2v1.8h-3.1L691.3,735.7L691.3,735.7z M698.6,735.7h-2v-9.8
		h2V735.7z M707.9,735.7h-6.2v-9.8h2v8h4.2V735.7z M712.2,735.7h-2v-9.8h2V735.7z M719.5,735.7h-2v-8h-3.1v-1.8h8.2v1.8h-3.1
		L719.5,735.7L719.5,735.7z M729.2,735.7h-2v-4.3l-3.5-5.5h2.4l2.1,3.4l0,0l2.1-3.4h2.3l-3.5,5.4v4.4L729.2,735.7L729.2,735.7z"/>
	<path class="st10" d="M603,715.2h126c9.1,0,16.5,7.4,16.5,16.5l0,0c0,9.1-7.4,16.5-16.5,16.5H603c-9.1,0-16.5-7.4-16.5-16.5l0,0
		C586.5,722.6,593.9,715.2,603,715.2z"/>
</g>
<g id="david-energy">
	<circle class="st11 draw-svg" cx="420" cy="342" r="252"/>
</g>
<g id="engie">
	<path class="st12 draw-svg" d="M419,178.1c88.4,0,160,72.1,160,161.1"/>
</g>
<g id="nrg">
	<path class="st13 draw-svg" d="M305.3,340.2c0-63.5,51.5-115,115-115"/>
</g>
</svg>
