<?xml version="1.0" encoding="utf-8"?>
<!-- Generator: Adobe Illustrator 24.0.2, SVG Export Plug-In . SVG Version: 6.00 Build 0)  -->
<svg version="1.1" id="Layer_1" xmlns="http://www.w3.org/2000/svg" xmlns:xlink="http://www.w3.org/1999/xlink" x="0px" y="0px"
	 viewBox="0 0 378 555" style="enable-background:new 0 0 378 555;" xml:space="preserve">
<style type="text/css">
	.st0{opacity:0.1;fill:none;stroke:#AEB9BF;stroke-width:12.3429;enable-background:new    ;}
	.st1{fill:#A4C7F0;}
	.st2{fill:#E4EBE6;}
	.st3{fill:#B3DFCF;}
	.st4{fill:#C2F7AD;}
	.st5{fill:#8CE79F;}
	.st6{fill:#56D690;}
	.st7{fill:#AEB9BF;}
	.st8{fill:#FFFFFF;}
	.st9{fill:#25444A;}
	.st10{fill:none;stroke:#D9D9D9;}
	.st11{fill:none;stroke:#56D690;stroke-width:12.3429;}
	.st12{fill:none;stroke:#8CE79F;stroke-width:12.3429;stroke-linecap:round;}
	.st13{fill:none;stroke:#C2F7AD;stroke-width:12.3429;stroke-linecap:round;}
</style>
<g id="Layer_1_1_">
	<circle class="st0" cx="186.2" cy="194.1" r="36"/>
	<circle class="st1" cx="186.1" cy="158.2" r="5.1"/>
	<circle class="st2" cx="186.1" cy="230.2" r="5.1"/>
	<circle class="st2" cx="150.1" cy="195" r="5.1"/>
	<circle class="st2" cx="222.1" cy="195" r="5.1"/>
	<circle class="st0" cx="186.3" cy="194.3" r="59.1"/>
	<circle class="st2" cx="186.4" cy="135.6" r="5.1"/>
	<circle class="st3" cx="186.4" cy="254" r="5.1"/>
	<circle class="st2" cx="126.9" cy="194.9" r="5.1"/>
	<circle class="st2" cx="245.3" cy="194.9" r="5.1"/>
	<circle class="st0" cx="185.8" cy="194" r="82.3"/>
	<circle class="st4" cx="186.1" cy="111.9" r="5.1"/>
	<circle class="st2" cx="186.1" cy="276" r="5.1"/>
	<circle class="st4" cx="103.9" cy="195" r="5.1"/>
	<circle class="st2" cx="267.9" cy="195" r="5.1"/>
	<path class="st0" d="M185.9,300.2c58.5,0,105.9-47.4,105.9-105.9S244.4,88.4,185.9,88.4S80,135.7,80,194.2
		C80,252.8,127.4,300.2,185.9,300.2z"/>
	<circle class="st5" cx="186.1" cy="88.3" r="5.1"/>
	<circle class="st2" cx="186.1" cy="300.2" r="5.1"/>
	<circle class="st5" cx="80.2" cy="194.7" r="5.1"/>
	<circle class="st2" cx="292.1" cy="194.7" r="5.1"/>
	<circle class="st0" cx="186" cy="195.7" r="129.6"/>
	<circle class="st6" cx="186.1" cy="65.1" r="5.1"/>
	<circle class="st6" cx="186.1" cy="325.1" r="5.1"/>
	<circle class="st6" cx="56.1" cy="195" r="5.1"/>
	<circle class="st6" cx="316.1" cy="195" r="5.1"/>
	<path class="st7" d="M166.1,13h-6.8V3.9h6.6v1.6h-4.8v1.6h3.7v1.6h-3.7v2.6h4.9V13H166.1z M170.1,13h-1.8V3.9h2.7l3,6.9l0,0V3.9
		h1.8V13h-2.7l-3-6.9l0,0V13z M185.4,13h-6.8V3.9h6.6v1.6h-4.8v1.6h3.7v1.6h-3.7v2.6h4.9V13H185.4z M187.7,13V3.9h4.7
		c0.8,0,1.4,0.2,1.9,0.6c0.4,0.4,0.7,1,0.7,1.7c0,0.5-0.1,0.9-0.3,1.2c-0.2,0.3-0.4,0.5-0.7,0.7l0,0c0.3,0.2,0.5,0.6,0.6,1.1
		l0.5,3.6V13h-1.8l-0.5-3.3c-0.1-0.6-0.4-0.9-1-0.9h-2.2V13H187.7z M192.1,7.3c0.6,0,0.9-0.3,0.9-0.9s-0.3-0.9-0.9-0.9h-2.6v1.8
		H192.1z M203.8,13v-1.2l0,0c-0.3,0.4-0.7,0.8-1.2,1s-1.1,0.4-1.7,0.4c-0.8,0-1.5-0.2-2.1-0.6c-0.6-0.4-1.1-1-1.4-1.7
		c-0.3-0.7-0.5-1.5-0.5-2.5c0-0.9,0.2-1.8,0.5-2.5c0.4-0.7,0.9-1.3,1.5-1.7c0.7-0.4,1.5-0.6,2.4-0.6c1.1,0,2,0.3,2.7,0.8
		s1.2,1.2,1.3,2.1h-2.1c-0.1-0.4-0.4-0.7-0.7-0.9c-0.3-0.2-0.7-0.3-1.2-0.3c-0.8,0-1.5,0.3-1.9,0.8c-0.5,0.5-0.7,1.3-0.7,2.2
		c0,0.9,0.2,1.7,0.7,2.3s1.1,0.9,1.9,0.9c0.4,0,0.8-0.1,1.2-0.3s0.7-0.5,0.9-0.8s0.3-0.7,0.4-1.2V9.1h-2.6V7.6h4.4V13H203.8z
		 M211.4,13h-1.8V9l-3.2-5.1h2.2l1.9,3.2l0,0l2-3.2h2.2l-3.2,5L211.4,13L211.4,13z M164.4,33.2c-0.7,0-1.3-0.1-1.9-0.4
		c-0.6-0.3-1-0.6-1.3-1.1c-0.3-0.5-0.5-1-0.6-1.7h1.9c0,0.5,0.2,0.9,0.6,1.2c0.3,0.3,0.8,0.4,1.4,0.4c0.5,0,0.8-0.1,1.1-0.3
		c0.3-0.2,0.4-0.5,0.4-0.9c0-0.6-0.3-1-1-1.1l-2.1-0.5c-0.7-0.1-1.2-0.4-1.5-0.9c-0.3-0.4-0.5-1-0.5-1.5s0.1-1,0.4-1.4
		c0.3-0.4,0.7-0.7,1.2-0.9c0.5-0.2,1.1-0.3,1.7-0.3c0.7,0,1.3,0.1,1.8,0.4c0.5,0.2,1,0.6,1.3,1s0.5,0.9,0.5,1.5h-1.9
		c0-0.4-0.2-0.8-0.5-1s-0.7-0.3-1.2-0.3c-0.4,0-0.8,0.1-1,0.3c-0.3,0.2-0.4,0.4-0.4,0.8c0,0.5,0.3,0.8,0.8,0.9l2,0.5
		c0.7,0.2,1.3,0.4,1.7,0.8s0.6,1,0.6,1.7c0,0.6-0.2,1.2-0.5,1.6c-0.3,0.4-0.7,0.8-1.2,1C165.7,33.1,165.1,33.2,164.4,33.2z
		 M173.6,33.2c-1.2,0-2.2-0.3-2.8-0.9c-0.6-0.6-0.9-1.4-0.9-2.5v-6h1.8v5.8c0,0.6,0.2,1.1,0.5,1.4s0.8,0.4,1.5,0.4s1.2-0.1,1.5-0.4
		s0.5-0.8,0.5-1.4v-5.8h1.8v6c0,1.1-0.3,1.9-0.9,2.5C175.8,32.9,174.9,33.2,173.6,33.2z M180,33v-9.1h4.7c0.8,0,1.4,0.2,1.9,0.7
		s0.7,1.1,0.7,1.9s-0.2,1.4-0.7,1.8s-1.1,0.6-1.9,0.6h-2.9v4L180,33L180,33z M184.4,27.4c0.6,0,1-0.3,1-0.9c0-0.3-0.1-0.5-0.3-0.7
		s-0.4-0.2-0.7-0.2h-2.6v1.8C181.8,27.4,184.4,27.4,184.4,27.4z M189.4,33v-9.1h4.7c0.8,0,1.4,0.2,1.9,0.7s0.7,1.1,0.7,1.9
		s-0.2,1.4-0.7,1.8c-0.4,0.4-1.1,0.6-1.9,0.6h-2.9v4L189.4,33L189.4,33z M193.8,27.4c0.6,0,1-0.3,1-0.9c0-0.3-0.1-0.5-0.3-0.7
		s-0.4-0.2-0.7-0.2h-2.6v1.8C191.2,27.4,193.8,27.4,193.8,27.4z M204.5,33h-5.7v-9.1h1.8v7.5h3.9V33z M209.5,33h-1.8v-4l-3.2-5.1
		h2.2l2,3.2l0,0l1.9-3.2h2.2l-3.2,5L209.5,33L209.5,33z"/>
	<path class="st7" d="M365,166.6h9.1v4.5c0,0.8-0.2,1.5-0.6,1.9c-0.4,0.5-0.9,0.7-1.6,0.7c-0.4,0-0.8-0.1-1.1-0.3
		c-0.3-0.2-0.5-0.4-0.7-0.7l0,0c-0.2,0.3-0.4,0.6-0.8,0.8c-0.3,0.2-0.8,0.4-1.4,0.4c-0.5,0-1-0.1-1.5-0.4c-0.4-0.2-0.8-0.6-1.1-1.1
		c-0.3-0.5-0.4-1.1-0.4-1.8v-4H365z M370.8,170.9c0,0.3,0.1,0.5,0.2,0.7s0.4,0.2,0.7,0.2c0.3,0,0.5-0.1,0.7-0.2
		c0.1-0.2,0.2-0.4,0.2-0.7v-2.5h-1.8L370.8,170.9L370.8,170.9z M366.6,170.3c0,1.1,0.5,1.7,1.4,1.7s1.3-0.5,1.3-1.5v-2.1h-2.7
		L366.6,170.3L366.6,170.3z M365,177.9v-1.8h9.1v1.8H365z M365,186.4v-5.7h9.1v1.8h-7.5v3.9H365z M365,194.2v-5.7h9.1v1.8h-7.5v3.9
		H365z M365,198.1v-1.8h9.1v1.8H365z M365,202.6v-1.8h9.1v2.7l-6.9,3l0,0h6.9v1.8H365v-2.7l6.9-3l0,0H365z M365,217.6h1.2l0,0
		c-0.4-0.3-0.8-0.7-1-1.2s-0.4-1.1-0.4-1.7c0-0.8,0.2-1.5,0.6-2.1s1-1.1,1.7-1.4c0.7-0.3,1.5-0.5,2.5-0.5c0.9,0,1.8,0.2,2.5,0.5
		c0.7,0.4,1.3,0.9,1.7,1.5c0.4,0.7,0.6,1.5,0.6,2.4c0,1.1-0.3,2-0.8,2.7s-1.2,1.2-2.1,1.3V217c0.4-0.1,0.7-0.4,0.9-0.7
		c0.2-0.3,0.3-0.7,0.3-1.2c0-0.8-0.3-1.5-0.8-1.9c-0.5-0.5-1.3-0.7-2.2-0.7c-0.9,0-1.7,0.2-2.3,0.7c-0.6,0.5-0.9,1.1-0.9,1.9
		c0,0.4,0.1,0.8,0.3,1.2s0.5,0.7,0.8,0.9s0.8,0.3,1.2,0.4h0.1V215h1.5v4.4H365V217.6z M345,157.2h9.1v4.7c0,0.8-0.2,1.4-0.7,1.9
		s-1.1,0.7-1.9,0.7s-1.4-0.2-1.8-0.7s-0.6-1.1-0.6-1.9V159h-4v-1.8H345z M350.6,161.6c0,0.6,0.3,1,0.9,1c0.3,0,0.5-0.1,0.7-0.3
		s0.2-0.4,0.2-0.7V159h-1.8L350.6,161.6L350.6,161.6z M345,172.3v-5.7h9.1v1.8h-7.5v3.9H345z M345,182.8v-2l2.2-0.8v-3.8l-2.2-0.8
		v-2l9.1,3.4v2.5L345,182.8z M352.3,178.1l-3.5-1.3v2.6L352.3,178.1L352.3,178.1z M345,187.8V186h7.5v-2.9h1.6v7.6h-1.6v-2.9
		L345,187.8L345,187.8z M345,194.5v-1.8h9.1v6.4h-1.6v-4.5h-1.7v3.5h-1.7v-3.5L345,194.5L345,194.5z M344.8,205.1
		c0-0.9,0.2-1.7,0.6-2.4s1-1.2,1.7-1.6c0.7-0.4,1.5-0.5,2.5-0.5c0.9,0,1.8,0.2,2.5,0.5c0.7,0.4,1.3,0.9,1.7,1.6
		c0.4,0.7,0.6,1.5,0.6,2.4s-0.2,1.7-0.6,2.4s-1,1.2-1.7,1.6c-0.7,0.4-1.5,0.5-2.5,0.5c-0.9,0-1.8-0.2-2.5-0.5
		c-0.7-0.4-1.3-0.9-1.7-1.6C345,206.8,344.8,206,344.8,205.1z M346.5,205.1c0,0.8,0.3,1.4,0.8,1.9c0.6,0.5,1.3,0.7,2.3,0.7
		c0.9,0,1.7-0.2,2.2-0.7c0.6-0.5,0.8-1.1,0.8-1.9c0-0.8-0.3-1.4-0.8-1.9s-1.3-0.7-2.2-0.7c-1,0-1.7,0.2-2.3,0.7
		C346.7,203.6,346.5,204.3,346.5,205.1z M345,211.8h9.1v4.7c0,0.8-0.2,1.4-0.6,1.9c-0.4,0.4-1,0.7-1.7,0.7c-0.5,0-0.9-0.1-1.2-0.3
		c-0.3-0.2-0.5-0.4-0.7-0.7l0,0c-0.2,0.3-0.6,0.5-1.1,0.6l-3.6,0.5H345v-1.8l3.3-0.5c0.6-0.1,0.9-0.4,0.9-1v-2.2H345V211.8z
		 M350.7,216.2c0,0.6,0.3,0.9,0.9,0.9s0.9-0.3,0.9-0.9v-2.6h-1.8V216.2z M345,223.3v-1.8h9.1v3.1l-6.3,2.1l0,0l6.3,2.1v3.1H345V230
		h7.3l0,0l-7.3-2.5v-1.7l7.3-2.5l0,0H345z"/>
	<path class="st7" d="M13,223.8H3.9v-3.1c0-1.4,0.4-2.6,1.2-3.4c0.8-0.8,1.9-1.2,3.3-1.2s2.5,0.4,3.4,1.2c0.8,0.8,1.2,1.9,1.2,3.4
		C13,220.7,13,223.8,13,223.8z M11.4,220.8c0-0.9-0.2-1.5-0.7-2s-1.2-0.7-2.2-0.7s-1.7,0.2-2.2,0.7s-0.7,1.1-0.7,2v1.3h5.8
		C11.4,222.1,11.4,220.8,11.4,220.8z M13,207.2v6.8H3.9v-6.6h1.6v4.8h1.6v-3.7h1.6v3.7h2.6v-4.9H13V207.2z M13,203.1v1.8H3.9v-3.1
		l6.3-2.1l0,0l-6.3-2.1v-3.1H13v1.8H5.7l0,0l7.3,2.5v1.7L5.7,203l0,0H13V203.1z M13,183.5v2l-2.2,0.8v3.8l2.2,0.8v2l-9.1-3.4V187
		L13,183.5z M5.7,188.2l3.5,1.3v-2.6L5.7,188.2L5.7,188.2z M13,179.8v1.8H3.9v-2.7l6.9-3l0,0H3.9V174H13v2.7l-6.9,3l0,0H13V179.8z
		 M13,171.3H3.9v-3.1c0-1.4,0.4-2.6,1.2-3.4c0.8-0.8,1.9-1.2,3.3-1.2s2.5,0.4,3.4,1.2c0.8,0.8,1.2,1.9,1.2,3.4
		C13,168.2,13,171.3,13,171.3z M11.4,168.2c0-0.9-0.2-1.5-0.7-2s-1.2-0.7-2.2-0.7s-1.7,0.2-2.2,0.7s-0.7,1.1-0.7,2v1.3h5.8
		C11.4,169.5,11.4,168.2,11.4,168.2z M33,230.5h-9.1v-4.7c0-0.8,0.2-1.4,0.6-1.9c0.4-0.4,1-0.7,1.7-0.7c0.5,0,0.9,0.1,1.2,0.3
		c0.3,0.2,0.5,0.4,0.7,0.7l0,0c0.2-0.3,0.6-0.5,1.1-0.6l3.6-0.5H33v1.8l-3.3,0.5c-0.6,0.1-0.9,0.4-0.9,1v2.2H33V230.5z M27.3,226.1
		c0-0.6-0.3-0.9-0.9-0.9s-0.9,0.3-0.9,0.9v2.6h1.8V226.1z M33,214.1v6.8h-9.1v-6.6h1.6v4.8h1.6v-3.7h1.6v3.7h2.6v-4.9H33V214.1z
		 M33.2,208.6c0,0.7-0.1,1.3-0.4,1.9c-0.3,0.6-0.6,1-1.1,1.3c-0.5,0.3-1,0.5-1.7,0.6v-1.9c0.5,0,0.9-0.2,1.2-0.6
		c0.3-0.3,0.4-0.8,0.4-1.4c0-0.5-0.1-0.8-0.3-1.1c-0.2-0.3-0.5-0.4-0.9-0.4c-0.6,0-1,0.3-1.1,1l-0.5,2.1c-0.1,0.7-0.4,1.2-0.9,1.5
		c-0.4,0.3-1,0.5-1.5,0.5s-1-0.1-1.4-0.4c-0.4-0.3-0.7-0.7-0.9-1.2c-0.2-0.5-0.3-1.1-0.3-1.7c0-0.7,0.1-1.3,0.4-1.8
		c0.2-0.5,0.6-1,1-1.3s0.9-0.5,1.5-0.5v1.9c-0.4,0-0.8,0.2-1,0.5s-0.3,0.7-0.3,1.2c0,0.4,0.1,0.8,0.3,1c0.2,0.3,0.4,0.4,0.8,0.4
		c0.5,0,0.8-0.3,0.9-0.8l0.5-2c0.2-0.7,0.4-1.3,0.8-1.7s1-0.6,1.7-0.6c0.6,0,1.2,0.2,1.6,0.5c0.4,0.3,0.8,0.7,1,1.2
		C33.1,207.4,33.2,208,33.2,208.6z M33,203.1h-9.1v-4.7c0-0.8,0.2-1.4,0.7-1.9s1.1-0.7,1.9-0.7s1.4,0.2,1.8,0.7s0.6,1.1,0.6,1.9v2.9
		h4L33,203.1L33,203.1z M27.4,198.6c0-0.7-0.3-1-0.9-1c-0.3,0-0.5,0.1-0.7,0.3s-0.2,0.4-0.2,0.7v2.6h1.8
		C27.4,201.2,27.4,198.6,27.4,198.6z M33.2,189.6c0,0.9-0.2,1.7-0.6,2.4c-0.4,0.7-1,1.2-1.7,1.6c-0.7,0.4-1.5,0.5-2.5,0.5
		c-0.9,0-1.8-0.2-2.5-0.5c-0.7-0.4-1.3-0.9-1.7-1.6c-0.4-0.7-0.6-1.5-0.6-2.4s0.2-1.7,0.6-2.4s1-1.2,1.7-1.6
		c0.7-0.4,1.5-0.5,2.5-0.5c0.9,0,1.8,0.2,2.5,0.5c0.7,0.4,1.3,0.9,1.7,1.6C33,187.9,33.2,188.7,33.2,189.6z M31.5,189.6
		c0-0.8-0.3-1.4-0.8-1.9c-0.6-0.5-1.3-0.7-2.3-0.7c-0.9,0-1.7,0.2-2.2,0.7c-0.6,0.5-0.8,1.1-0.8,1.9s0.3,1.4,0.8,1.9
		s1.3,0.7,2.2,0.7c1,0,1.7-0.2,2.3-0.7C31.3,191.1,31.5,190.4,31.5,189.6z M33,181.1v1.8h-9.1v-2.7l6.9-3l0,0h-6.9v-1.8H33v2.7
		l-6.9,3l0,0H33z M33.2,169.4c0,0.7-0.1,1.3-0.4,1.9c-0.3,0.6-0.6,1-1.1,1.3c-0.5,0.3-1,0.5-1.7,0.6v-1.9c0.5,0,0.9-0.2,1.2-0.6
		c0.3-0.3,0.4-0.8,0.4-1.4c0-0.5-0.1-0.8-0.3-1.1c-0.2-0.3-0.5-0.4-0.9-0.4c-0.6,0-1,0.3-1.1,1l-0.5,2.1c-0.1,0.7-0.4,1.2-0.9,1.5
		c-0.4,0.3-1,0.5-1.5,0.5s-1-0.1-1.4-0.4c-0.4-0.3-0.7-0.7-0.9-1.2c-0.2-0.5-0.3-1.1-0.3-1.7c0-0.7,0.1-1.3,0.4-1.8
		c0.2-0.5,0.6-1,1-1.3s0.9-0.5,1.5-0.5v1.9c-0.4,0-0.8,0.2-1,0.5s-0.3,0.7-0.3,1.2c0,0.4,0.1,0.8,0.3,1c0.2,0.3,0.4,0.4,0.8,0.4
		c0.5,0,0.8-0.3,0.9-0.8l0.5-2c0.2-0.7,0.4-1.3,0.8-1.7s1-0.6,1.7-0.6c0.6,0,1.2,0.2,1.6,0.5c0.4,0.3,0.8,0.7,1,1.2
		C33.1,168.1,33.2,168.7,33.2,169.4z M33,157v6.8h-9.1v-6.6h1.6v4.8h1.6v-3.7h1.6v3.7h2.6v-5H33z"/>
	<path class="st7" d="M161,364v-9.1h3.1c1.4,0,2.6,0.4,3.4,1.2c0.8,0.8,1.2,1.9,1.2,3.3s-0.4,2.5-1.2,3.4c-0.8,0.8-1.9,1.2-3.4,1.2
		H161z M164,362.4c0.9,0,1.5-0.2,2-0.7s0.7-1.2,0.7-2.2s-0.2-1.7-0.7-2.2s-1.1-0.7-2-0.7h-1.3v5.8L164,362.4L164,362.4z M177.6,364
		h-6.8v-9.1h6.6v1.6h-4.8v1.6h3.7v1.6h-3.7v2.6h4.9v1.7H177.6z M184.8,364h-2.5l-3.4-9.1h2l2.6,7.3h0.1l2.6-7.3h2L184.8,364z
		 M191.8,364H190v-9.1h1.8V364z M198.5,364.2c-0.9,0-1.7-0.2-2.4-0.6s-1.2-0.9-1.6-1.7c-0.4-0.7-0.5-1.5-0.5-2.5
		c0-0.9,0.2-1.8,0.5-2.5c0.4-0.7,0.9-1.3,1.6-1.7c0.7-0.4,1.5-0.6,2.4-0.6c1.1,0,2,0.3,2.8,0.8c0.7,0.6,1.2,1.3,1.4,2.4h-2
		c-0.1-0.5-0.4-0.9-0.8-1.1c-0.4-0.3-0.9-0.4-1.4-0.4c-0.8,0-1.4,0.3-1.9,0.8s-0.7,1.3-0.7,2.2c0,1,0.2,1.7,0.7,2.3
		c0.5,0.5,1.1,0.8,1.9,0.8c0.7,0,1.3-0.2,1.7-0.7s0.7-1.1,0.7-1.8h1.9c-0.1,0.8-0.3,1.6-0.6,2.2c-0.4,0.6-0.9,1.1-1.5,1.5
		C200.1,364,199.4,364.2,198.5,364.2z M211.8,364H205v-9.1h6.6v1.6h-4.8v1.6h3.7v1.6h-3.7v2.6h4.9v1.7H211.8z M137.5,384h-1.8v-9.1
		h3.1l2.1,6.3l0,0l2.1-6.3h3.1v9.1h-1.8v-7.3l0,0l-2.5,7.3h-1.7l-2.5-7.3l0,0v7.3H137.5z M157.2,384h-2l-0.8-2.2h-3.8l-0.8,2.2h-2
		l3.4-9.1h2.5L157.2,384z M152.5,376.7l-1.3,3.5h2.6L152.5,376.7L152.5,376.7z M160.8,384H159v-9.1h2.7l3,6.9l0,0v-6.9h1.8v9.1h-2.7
		l-3-6.9l0,0V384z M177.7,384h-2l-0.8-2.2h-3.8l-0.8,2.2h-2l3.4-9.1h2.5L177.7,384z M173,376.7l-1.3,3.5h2.6L173,376.7L173,376.7z
		 M185.5,384v-1.2l0,0c-0.3,0.4-0.7,0.8-1.2,1s-1.1,0.4-1.7,0.4c-0.8,0-1.5-0.2-2.1-0.6s-1.1-1-1.4-1.7c-0.3-0.7-0.5-1.5-0.5-2.5
		c0-0.9,0.2-1.8,0.5-2.5c0.4-0.7,0.9-1.3,1.5-1.7c0.7-0.4,1.5-0.6,2.4-0.6c1.1,0,2,0.3,2.7,0.8s1.2,1.2,1.3,2.1h-2
		c-0.1-0.4-0.4-0.7-0.7-0.9c-0.3-0.2-0.7-0.3-1.2-0.3c-0.8,0-1.5,0.3-1.9,0.8c-0.5,0.5-0.7,1.3-0.7,2.2c0,0.9,0.2,1.7,0.7,2.3
		c0.5,0.6,1.1,0.9,1.9,0.9c0.4,0,0.8-0.1,1.2-0.3s0.7-0.5,0.9-0.8s0.3-0.8,0.4-1.2v-0.1H183v-1.5h4.4v5.4L185.5,384L185.5,384z
		 M196.6,384h-6.8v-9.1h6.6v1.6h-4.8v1.6h3.7v1.6h-3.7v2.6h4.9v1.7H196.6z M200.6,384h-1.8v-9.1h3.1l2.1,6.3l0,0l2.1-6.3h3.1v9.1
		h-1.8v-7.3l0,0l-2.5,7.3h-1.7l-2.5-7.3l0,0v7.3H200.6z M218.6,384h-6.8v-9.1h6.6v1.6h-4.8v1.6h3.7v1.6h-3.7v2.6h4.9v1.7H218.6z
		 M222.7,384h-1.8v-9.1h2.7l3,6.9l0,0v-6.9h1.8v9.1h-2.7l-3-6.9l0,0V384z M235.2,384h-1.8v-7.5h-2.9v-1.6h7.6v1.6h-2.9L235.2,384
		L235.2,384z"/>
	<path class="st8" d="M79,422.2h127c9.1,0,16.5,7.4,16.5,16.5l0,0c0,9.1-7.4,16.5-16.5,16.5H79c-9.1,0-16.5-7.4-16.5-16.5l0,0
		C62.5,429.6,69.9,422.2,79,422.2z"/>
	<circle class="st6" cx="81" cy="438.7" r="6"/>
	<path class="st9" d="M101.5,442.7c3.1,0,4.9-1.8,4.9-4.9s-1.8-4.9-4.9-4.9h-3.4v9.8H101.5z M100.1,434.7h1.4c1.8,0,2.9,1,2.9,3.1
		s-1.1,3.1-2.9,3.1h-1.4V434.7z M117.4,442.7l-3.7-9.8H111l-3.7,9.8h2.1l0.9-2.4h4.1l0.9,2.4H117.4z M112.4,434.8L112.4,434.8
		l1.4,3.8H111L112.4,434.8z M124.2,442.7l3.6-9.8h-2.1l-2.8,7.9h-0.1l-2.8-7.9h-2l3.6,9.8H124.2z M131.9,442.7v-9.8h-2v9.8H131.9z
		 M138.4,442.7c3.1,0,4.9-1.8,4.9-4.9s-1.8-4.9-4.9-4.9H135v9.8H138.4z M136.9,434.7h1.4c1.8,0,2.9,1,2.9,3.1s-1.1,3.1-2.9,3.1h-1.4
		V434.7z M156.7,442.7V441h-5.3v-2.8h4v-1.8h-4v-1.7h5.2v-1.8h-7.1v9.8H156.7z M161.3,442.7v-7.4l0,0l3.3,7.4h3v-9.8h-2v7.5l0,0
		l-3.3-7.5h-3v9.8H161.3z M177.9,442.7V441h-5.3v-2.8h4v-1.8h-4v-1.7h5.2v-1.8h-7.1v9.8H177.9z M182.4,442.7v-4.5h2.4
		c0.7,0,1,0.4,1.1,1l0.5,3.6h2v-0.1l-0.6-3.9c-0.1-0.5-0.3-0.9-0.7-1.1l0,0c0.6-0.3,1.1-0.9,1.1-2.1c0-1.6-1-2.5-2.7-2.5h-5.1v9.8h2
		V442.7z M182.4,434.7h2.8c0.6,0,1,0.3,1,1s-0.4,0.9-1,0.9h-2.8V434.7z M199.7,442.7v-5.8H195v1.7h2.8v0.1c-0.1,1.5-1.2,2.5-2.6,2.5
		c-1.7,0-2.8-1.4-2.8-3.4c0-1.9,1-3.3,2.8-3.3c1.1,0,1.8,0.5,2.1,1.3h2.2c-0.4-1.9-2-3.1-4.3-3.1c-3.1,0-4.8,2.1-4.8,5.1
		s1.7,5.1,4.3,5.1c1.4,0,2.5-0.5,3.2-1.5l0,0v1.3L199.7,442.7L199.7,442.7z M206.3,442.7v-4.4l3.5-5.4h-2.3l-2.1,3.4l0,0l-2.1-3.4
		h-2.4l3.5,5.5v4.3H206.3z"/>
	<path class="st10" d="M79,422.2h127c9.1,0,16.5,7.4,16.5,16.5l0,0c0,9.1-7.4,16.5-16.5,16.5H79c-9.1,0-16.5-7.4-16.5-16.5l0,0
		C62.5,429.6,69.9,422.2,79,422.2z"/>
	<path class="st8" d="M252,422.2h47c9.1,0,16.5,7.4,16.5,16.5l0,0c0,9.1-7.4,16.5-16.5,16.5h-47c-9.1,0-16.5-7.4-16.5-16.5l0,0
		C235.5,429.6,242.9,422.2,252,422.2z"/>
	<circle class="st5" cx="254" cy="438.7" r="6"/>
	<path class="st9" d="M273.1,442.7v-7.4l0,0l3.3,7.4h3v-9.8h-2v7.5l0,0l-3.3-7.5h-3v9.8H273.1z M284.3,442.7v-4.5h2.4
		c0.7,0,1,0.4,1.1,1l0.5,3.6h2v-0.1l-0.6-3.9c-0.1-0.5-0.3-0.9-0.7-1.1l0,0c0.6-0.3,1.1-0.9,1.1-2.1c0-1.6-1-2.5-2.7-2.5h-5.1v9.8h2
		V442.7z M284.3,434.7h2.8c0.6,0,1,0.3,1,1s-0.4,0.9-1,0.9h-2.8V434.7z M301.7,442.7v-5.8h-4.8v1.7h2.8v0.1
		c-0.1,1.5-1.2,2.5-2.6,2.5c-1.7,0-2.8-1.4-2.8-3.4c0-1.9,1-3.3,2.8-3.3c1.1,0,1.8,0.5,2.1,1.3h2.2c-0.4-1.9-2-3.1-4.3-3.1
		c-3.1,0-4.8,2.1-4.8,5.1s1.7,5.1,4.3,5.1c1.4,0,2.5-0.5,3.2-1.5l0,0v1.3L301.7,442.7L301.7,442.7z"/>
	<path class="st10" d="M252,422.2h47c9.1,0,16.5,7.4,16.5,16.5l0,0c0,9.1-7.4,16.5-16.5,16.5h-47c-9.1,0-16.5-7.4-16.5-16.5l0,0
		C235.5,429.6,242.9,422.2,252,422.2z"/>
	<path class="st8" d="M37.5,468.2h127c9.1,0,16.5,7.4,16.5,16.5l0,0c0,9.1-7.4,16.5-16.5,16.5h-127c-9.1,0-16.5-7.4-16.5-16.5l0,0
		C21,475.6,28.4,468.2,37.5,468.2z"/>
	<circle class="st4" cx="39.5" cy="484.7" r="6"/>
	<path class="st9" d="M60.9,488.9c3,0,4.9-2.1,4.9-5.1s-1.8-5.1-4.9-5.1s-4.9,2.1-4.9,5.1C56.1,486.9,57.9,488.9,60.9,488.9z
		 M60.9,487.1c-1.7,0-2.8-1.3-2.8-3.3s1.1-3.3,2.8-3.3s2.8,1.3,2.8,3.3C63.8,485.9,62.7,487.1,60.9,487.1z M70.3,488.7V484h4.3v4.7
		h2v-9.8h-2v3.3h-4.3v-3.3h-2v9.8H70.3z M81.5,488.7v-7.9l0,0l2.7,7.9H86l2.7-7.9l0,0v7.9h2v-9.8h-3.3l-2.2,6.8l0,0l-2.3-6.8h-3.3
		v9.8H81.5z M98.1,488.9c2.9,0,4.6-1.9,4.7-4.5h-2.1c-0.2,1.6-1,2.7-2.7,2.7s-2.8-1.2-2.8-3.3c0-2.1,1.1-3.3,2.8-3.3
		c1.2,0,2.1,0.6,2.4,1.7h2.1c-0.4-2.2-2.1-3.5-4.5-3.5c-3.1,0-4.9,2.1-4.9,5.1C93.3,486.9,95.1,488.9,98.1,488.9z M109.6,488.9
		c3,0,4.9-2.1,4.9-5.1s-1.8-5.1-4.9-5.1s-4.9,2.1-4.9,5.1C104.8,486.9,106.6,488.9,109.6,488.9z M109.7,487.1
		c-1.7,0-2.8-1.3-2.8-3.3s1.1-3.3,2.8-3.3s2.8,1.3,2.8,3.3C112.5,485.9,111.4,487.1,109.7,487.1z M119,488.7v-7.4l0,0l3.3,7.4h3
		v-9.8h-2v7.5l0,0l-3.3-7.5h-3v9.8H119z M130.3,488.7v-7.4l0,0l3.3,7.4h3v-9.8h-2v7.5l0,0l-3.3-7.5h-3v9.8H130.3z M146.9,488.7V487
		h-5.3v-2.8h4v-1.8h-4v-1.7h5.2v-1.8h-7.1v9.8H146.9z M153.4,488.9c2.9,0,4.6-1.9,4.7-4.5H156c-0.2,1.6-1,2.7-2.7,2.7
		s-2.8-1.2-2.8-3.3c0-2.1,1.1-3.3,2.8-3.3c1.2,0,2.1,0.6,2.4,1.7h2.1c-0.4-2.2-2.1-3.5-4.5-3.5c-3.1,0-4.9,2.1-4.9,5.1
		C148.5,486.9,150.3,488.9,153.4,488.9z M164.6,488.7v-8h3.1v-1.8h-8.2v1.8h3.1v8H164.6z"/>
	<path class="st10" d="M37.5,468.2h127c9.1,0,16.5,7.4,16.5,16.5l0,0c0,9.1-7.4,16.5-16.5,16.5h-127c-9.1,0-16.5-7.4-16.5-16.5l0,0
		C21,475.6,28.4,468.2,37.5,468.2z"/>
	<path class="st8" d="M210.5,468.2h130c9.1,0,16.5,7.4,16.5,16.5l0,0c0,9.1-7.4,16.5-16.5,16.5h-130c-9.1,0-16.5-7.4-16.5-16.5l0,0
		C194,475.6,201.4,468.2,210.5,468.2z"/>
	<circle class="st3" cx="212.5" cy="484.7" r="6"/>
	<path class="st9" d="M238.5,488.7v-5.8h-4.8v1.7h2.8v0.1c-0.1,1.5-1.2,2.5-2.6,2.5c-1.7,0-2.8-1.4-2.8-3.4c0-1.9,1-3.3,2.8-3.3
		c1.1,0,1.8,0.5,2.1,1.3h2.2c-0.4-1.9-2-3.1-4.3-3.1c-3.1,0-4.8,2.1-4.8,5.1s1.7,5.1,4.3,5.1c1.4,0,2.5-0.5,3.2-1.5l0,0v1.3
		L238.5,488.7L238.5,488.7z M245.6,488.9c3,0,4.9-2.1,4.9-5.1s-1.8-5.1-4.9-5.1c-3.1,0-4.9,2.1-4.9,5.1
		C240.8,486.9,242.6,488.9,245.6,488.9z M245.6,487.1c-1.7,0-2.8-1.3-2.8-3.3s1.1-3.3,2.8-3.3s2.8,1.3,2.8,3.3
		C248.5,485.9,247.4,487.1,245.6,487.1z M257.3,488.9c3,0,4.9-2.1,4.9-5.1s-1.8-5.1-4.9-5.1s-4.9,2.1-4.9,5.1
		C252.5,486.9,254.3,488.9,257.3,488.9z M257.4,487.1c-1.7,0-2.8-1.3-2.8-3.3s1.1-3.3,2.8-3.3c1.7,0,2.8,1.3,2.8,3.3
		C260.2,485.9,259.1,487.1,257.4,487.1z M273.6,488.7v-5.8h-4.8v1.7h2.8v0.1c-0.1,1.5-1.2,2.5-2.6,2.5c-1.7,0-2.8-1.4-2.8-3.4
		c0-1.9,1-3.3,2.8-3.3c1.1,0,1.8,0.5,2.1,1.3h2.2c-0.4-1.9-2-3.1-4.3-3.1c-3.1,0-4.8,2.1-4.8,5.1s1.7,5.1,4.3,5.1
		c1.4,0,2.5-0.5,3.2-1.5l0,0v1.3L273.6,488.7L273.6,488.7z M282.6,488.7V487h-4.2v-8h-2v9.8L282.6,488.7L282.6,488.7z M292.3,488.7
		V487H287v-2.8h4v-1.8h-4v-1.7h5.2v-1.8H285v9.8H292.3z M300.5,488.7V484h4.3v4.7h2v-9.8h-2v3.3h-4.3v-3.3h-2v9.8H300.5z
		 M314.1,488.9c3,0,4.9-2.1,4.9-5.1s-1.8-5.1-4.9-5.1s-4.9,2.1-4.9,5.1C309.3,486.9,311.1,488.9,314.1,488.9z M314.1,487.1
		c-1.7,0-2.8-1.3-2.8-3.3s1.1-3.3,2.8-3.3s2.8,1.3,2.8,3.3C317,485.9,315.8,487.1,314.1,487.1z M323.5,488.7v-7.9l0,0l2.7,7.9h1.8
		l2.7-7.9l0,0v7.9h2v-9.8h-3.3l-2.2,6.8l0,0l-2.3-6.8h-3.3v9.8H323.5z M343,488.7V487h-5.3v-2.8h4v-1.8h-4v-1.7h5.2v-1.8h-7.1v9.8
		H343z"/>
	<path class="st10" d="M210.5,468.2h130c9.1,0,16.5,7.4,16.5,16.5l0,0c0,9.1-7.4,16.5-16.5,16.5h-130c-9.1,0-16.5-7.4-16.5-16.5l0,0
		C194,475.6,201.4,468.2,210.5,468.2z"/>
	<path class="st8" d="M126,514.2h126c9.1,0,16.5,7.4,16.5,16.5l0,0c0,9.1-7.4,16.5-16.5,16.5H126c-9.1,0-16.5-7.4-16.5-16.5l0,0
		C109.5,521.6,116.9,514.2,126,514.2z"/>
	<circle class="st1" cx="128" cy="530.7" r="6"/>
	<path class="st9" d="M151.3,534.7V533h-4.2v-8h-2v9.8L151.3,534.7L151.3,534.7z M157.5,534.9c3,0,4.9-2.1,4.9-5.1s-1.8-5.1-4.9-5.1
		c-3.1,0-4.9,2.1-4.9,5.1C152.6,532.9,154.4,534.9,157.5,534.9z M157.5,533.1c-1.7,0-2.8-1.3-2.8-3.3s1.1-3.3,2.8-3.3
		s2.8,1.3,2.8,3.3C160.3,531.9,159.2,533.1,157.5,533.1z M169.2,534.9c2.9,0,4.6-1.9,4.7-4.5h-2.1c-0.2,1.6-1,2.7-2.7,2.7
		s-2.8-1.2-2.8-3.3s1.1-3.3,2.8-3.3c1.2,0,2.1,0.6,2.4,1.7h2.1c-0.4-2.2-2.1-3.5-4.5-3.5c-3.1,0-4.9,2.1-4.9,5.1
		C164.3,532.9,166.1,534.9,169.2,534.9z M185,534.7l-3.7-9.8h-2.7l-3.7,9.8h2.1l0.9-2.4h4.1l0.9,2.4H185z M179.9,526.8L179.9,526.8
		l1.4,3.8h-2.8L179.9,526.8z M193.2,534.7V533H189v-8h-2v9.8L193.2,534.7L193.2,534.7z M203.2,534.9c2.8,0,4-1.4,4-3.6v-6.4h-2v6.3
		c0,1.3-0.6,2-2.1,2s-2.1-0.6-2.1-2v-6.3h-2v6.4C199.1,533.5,200.4,534.9,203.2,534.9z M214.3,534.7v-8h3.1v-1.8h-8.2v1.8h3.1v8
		H214.3z M221.6,534.7v-9.8h-2v9.8H221.6z M230.9,534.7V533h-4.2v-8h-2v9.8L230.9,534.7L230.9,534.7z M235.2,534.7v-9.8h-2v9.8
		H235.2z M242.5,534.7v-8h3.1v-1.8h-8.2v1.8h3.1v8H242.5z M252.2,534.7v-4.4l3.5-5.4h-2.3l-2.1,3.4l0,0l-2.1-3.4h-2.4l3.5,5.5v4.3
		L252.2,534.7L252.2,534.7z"/>
	<path class="st10" d="M126,514.2h126c9.1,0,16.5,7.4,16.5,16.5l0,0c0,9.1-7.4,16.5-16.5,16.5H126c-9.1,0-16.5-7.4-16.5-16.5l0,0
		C109.5,521.6,116.9,514.2,126,514.2z"/>
</g>
<g id="ring1">
	<circle class="st11" cx="186.1" cy="195.8" r="129.6"/>
</g>
<g id="ring2">
	<path class="st12" d="M80,194.2c0-58.5,47.4-105.9,105.9-105.9"/>
</g>
<g id="ring3">
	<path class="st13" d="M103.6,194c0-45.4,37.1-82.3,82.8-82.3"/>
</g>
</svg>
