<?xml version="1.0" encoding="utf-8"?>
<!-- Generator: Adobe Illustrator 24.0.2, SVG Export Plug-In . SVG Version: 6.00 Build 0)  -->
<svg data-st-draw_svg="" version="1.1" id="Layer_1" xmlns="http://www.w3.org/2000/svg" xmlns:xlink="http://www.w3.org/1999/xlink" x="0px" y="0px"
	 viewBox="0 0 378 502" style="enable-background:new 0 0 378 502;" xml:space="preserve">
<style type="text/css">
	.st0{opacity:0.1;fill:none;stroke:#AEB9BF;stroke-width:12.3429;enable-background:new    ;}
	.st1{fill:#A4C7F0;}
	.st2{fill:#E4EBE6;}
	.st3{fill:#B3DFCF;}
	.st4{fill:#C2F7AD;}
	.st5{fill:#8CE79F;}
	.st6{fill:#56D690;}
	.st7{fill:#AEB9BF;}
	.st8{fill:#FFFFFF;}
	.st9{fill:#25444A;}
	.st10{fill:none;stroke:#D9D9D9;}
	.st11{fill:none;stroke:#56D690;stroke-width:12.3429;}
	.st12{fill:none;stroke:#C2F7AD;stroke-width:12.3429;stroke-linecap:round;}
	.st13{fill:none;stroke:#B3DFCF;stroke-width:12.3429;stroke-linecap:round;}
</style>
<g id="Layer_1_1_">
	<circle class="st0" cx="189.1" cy="194" r="36"/>
	<circle class="st1" cx="189" cy="158.1" r="5.1"/>
	<circle class="st2" cx="189" cy="230.1" r="5.1"/>
	<circle class="st2" cx="153.1" cy="194.9" r="5.1"/>
	<circle class="st2" cx="225" cy="194.9" r="5.1"/>
	<circle class="st0" cx="189.2" cy="194.2" r="59.1"/>
	<circle class="st3" cx="189.2" cy="135.5" r="5.1"/>
	<circle class="st2" cx="189.2" cy="253.8" r="5.1"/>
	<circle class="st3" cx="129.9" cy="194.8" r="5.1"/>
	<circle class="st2" cx="248.1" cy="194.8" r="5.1"/>
	<circle class="st0" cx="188.7" cy="193.9" r="82.2"/>
	<circle class="st4" cx="189" cy="111.9" r="5.1"/>
	<circle class="st2" cx="189" cy="275.8" r="5.1"/>
	<circle class="st2" cx="106.8" cy="194.9" r="5.1"/>
	<circle class="st4" cx="270.7" cy="194.9" r="5.1"/>
	<path class="st0" d="M188.8,300c58.5,0,105.8-47.4,105.8-105.8S247.2,88.3,188.8,88.3S82.9,135.7,82.9,194.1S130.3,300,188.8,300z"
		/>
	<circle class="st2" cx="189" cy="88.3" r="5.1"/>
	<circle class="st2" cx="189" cy="299.9" r="5.1"/>
	<circle class="st5" cx="83.2" cy="194.6" r="5.1"/>
	<circle class="st2" cx="294.8" cy="194.6" r="5.1"/>
	<circle class="st0" cx="188.8" cy="195.6" r="129.5"/>
	<circle class="st6" cx="189" cy="65.1" r="5.1"/>
	<circle class="st6" cx="189" cy="324.9" r="5.1"/>
	<circle class="st6" cx="59.1" cy="194.8" r="5.1"/>
	<circle class="st6" cx="318.9" cy="194.8" r="5.1"/>
	<path class="st7" d="M169.1,13h-6.8V3.9h6.6v1.6h-4.8v1.6h3.7v1.6h-3.7v2.6h4.9V13H169.1z M173.1,13h-1.8V3.9h2.7l3,6.9l0,0V3.9
		h1.8V13h-2.7l-3-6.9l0,0V13z M188.4,13h-6.8V3.9h6.6v1.6h-4.8v1.6h3.7v1.6h-3.7v2.6h4.9V13H188.4z M190.7,13V3.9h4.7
		c0.8,0,1.4,0.2,1.9,0.6c0.4,0.4,0.7,1,0.7,1.7c0,0.5-0.1,0.9-0.3,1.2c-0.2,0.3-0.4,0.5-0.7,0.7l0,0c0.3,0.2,0.5,0.6,0.6,1.1
		l0.5,3.6V13h-1.8l-0.5-3.3c-0.1-0.6-0.4-0.9-1-0.9h-2.2V13H190.7z M195.1,7.3c0.6,0,0.9-0.3,0.9-0.9s-0.3-0.9-0.9-0.9h-2.6v1.8
		H195.1z M206.8,13v-1.2l0,0c-0.3,0.4-0.7,0.8-1.2,1s-1.1,0.4-1.7,0.4c-0.8,0-1.5-0.2-2.1-0.6c-0.6-0.4-1.1-1-1.4-1.7
		c-0.3-0.7-0.5-1.5-0.5-2.5c0-0.9,0.2-1.8,0.5-2.5c0.4-0.7,0.9-1.3,1.5-1.7c0.7-0.4,1.5-0.6,2.4-0.6c1.1,0,2,0.3,2.7,0.8
		s1.2,1.2,1.3,2.1h-2.1c-0.1-0.4-0.4-0.7-0.7-0.9c-0.3-0.2-0.7-0.3-1.2-0.3c-0.8,0-1.5,0.3-1.9,0.8c-0.5,0.5-0.7,1.3-0.7,2.2
		c0,0.9,0.2,1.7,0.7,2.3s1.1,0.9,1.9,0.9c0.4,0,0.8-0.1,1.2-0.3s0.7-0.5,0.9-0.8s0.3-0.7,0.4-1.2V9.1h-2.6V7.6h4.4V13H206.8z
		 M214.4,13h-1.8V9l-3.2-5.1h2.2l1.9,3.2l0,0l2-3.2h2.2l-3.2,5L214.4,13L214.4,13z M167.4,33.2c-0.7,0-1.3-0.1-1.9-0.4
		c-0.6-0.3-1-0.6-1.3-1.1c-0.3-0.5-0.5-1-0.6-1.7h1.9c0,0.5,0.2,0.9,0.6,1.2c0.3,0.3,0.8,0.4,1.4,0.4c0.5,0,0.8-0.1,1.1-0.3
		c0.3-0.2,0.4-0.5,0.4-0.9c0-0.6-0.3-1-1-1.1l-2.1-0.5c-0.7-0.1-1.2-0.4-1.5-0.9c-0.3-0.4-0.5-1-0.5-1.5s0.1-1,0.4-1.4
		c0.3-0.4,0.7-0.7,1.2-0.9c0.5-0.2,1.1-0.3,1.7-0.3c0.7,0,1.3,0.1,1.8,0.4c0.5,0.2,1,0.6,1.3,1s0.5,0.9,0.5,1.5h-1.9
		c0-0.4-0.2-0.8-0.5-1s-0.7-0.3-1.2-0.3c-0.4,0-0.8,0.1-1,0.3c-0.3,0.2-0.4,0.4-0.4,0.8c0,0.5,0.3,0.8,0.8,0.9l2,0.5
		c0.7,0.2,1.3,0.4,1.7,0.8s0.6,1,0.6,1.7c0,0.6-0.2,1.2-0.5,1.6c-0.3,0.4-0.7,0.8-1.2,1C168.7,33.1,168.1,33.2,167.4,33.2z
		 M176.6,33.2c-1.2,0-2.2-0.3-2.8-0.9c-0.6-0.6-0.9-1.4-0.9-2.5v-6h1.8v5.8c0,0.6,0.2,1.1,0.5,1.4s0.8,0.4,1.5,0.4s1.2-0.1,1.5-0.4
		s0.5-0.8,0.5-1.4v-5.8h1.8v6c0,1.1-0.3,1.9-0.9,2.5C178.8,32.9,177.9,33.2,176.6,33.2z M183,33v-9.1h4.7c0.8,0,1.4,0.2,1.9,0.7
		s0.7,1.1,0.7,1.9s-0.2,1.4-0.7,1.8s-1.1,0.6-1.9,0.6h-2.9v4L183,33L183,33z M187.4,27.4c0.6,0,1-0.3,1-0.9c0-0.3-0.1-0.5-0.3-0.7
		s-0.4-0.2-0.7-0.2h-2.6v1.8C184.8,27.4,187.4,27.4,187.4,27.4z M192.4,33v-9.1h4.7c0.8,0,1.4,0.2,1.9,0.7s0.7,1.1,0.7,1.9
		s-0.2,1.4-0.7,1.8c-0.4,0.4-1.1,0.6-1.9,0.6h-2.9v4L192.4,33L192.4,33z M196.8,27.4c0.6,0,1-0.3,1-0.9c0-0.3-0.1-0.5-0.3-0.7
		s-0.4-0.2-0.7-0.2h-2.6v1.8C194.2,27.4,196.8,27.4,196.8,27.4z M207.5,33h-5.7v-9.1h1.8v7.5h3.9V33z M212.5,33h-1.8v-4l-3.2-5.1
		h2.2l2,3.2l0,0l1.9-3.2h2.2l-3.2,5L212.5,33L212.5,33z"/>
	<path class="st7" d="M365,165.6h9.1v4.5c0,0.8-0.2,1.5-0.6,1.9c-0.4,0.5-0.9,0.7-1.6,0.7c-0.4,0-0.8-0.1-1.1-0.3
		c-0.3-0.2-0.5-0.4-0.7-0.7l0,0c-0.2,0.3-0.4,0.6-0.8,0.8c-0.3,0.2-0.8,0.4-1.4,0.4c-0.5,0-1-0.1-1.5-0.4c-0.4-0.2-0.8-0.6-1.1-1.1
		c-0.3-0.5-0.4-1.1-0.4-1.8v-4L365,165.6L365,165.6z M370.8,169.9c0,0.3,0.1,0.5,0.2,0.7s0.4,0.2,0.7,0.2c0.3,0,0.5-0.1,0.7-0.2
		c0.1-0.2,0.2-0.4,0.2-0.7v-2.5h-1.8L370.8,169.9L370.8,169.9z M366.6,169.3c0,1.1,0.5,1.7,1.4,1.7s1.3-0.5,1.3-1.5v-2.1h-2.7
		L366.6,169.3L366.6,169.3z M365,176.9v-1.8h9.1v1.8H365z M365,185.4v-5.7h9.1v1.8h-7.5v3.9H365z M365,193.2v-5.7h9.1v1.8h-7.5v3.9
		H365z M365,197.1v-1.8h9.1v1.8H365z M365,201.6v-1.8h9.1v2.7l-6.9,3l0,0h6.9v1.8H365v-2.7l6.9-3l0,0H365z M365,216.6h1.2l0,0
		c-0.4-0.3-0.8-0.7-1-1.2s-0.4-1.1-0.4-1.7c0-0.8,0.2-1.5,0.6-2.1s1-1.1,1.7-1.4c0.7-0.3,1.5-0.5,2.5-0.5c0.9,0,1.8,0.2,2.5,0.5
		c0.7,0.4,1.3,0.9,1.7,1.5c0.4,0.7,0.6,1.5,0.6,2.4c0,1.1-0.3,2-0.8,2.7s-1.2,1.2-2.1,1.3V216c0.4-0.1,0.7-0.4,0.9-0.7
		c0.2-0.3,0.3-0.7,0.3-1.2c0-0.8-0.3-1.5-0.8-1.9c-0.5-0.5-1.3-0.7-2.2-0.7c-0.9,0-1.7,0.2-2.3,0.7c-0.6,0.5-0.9,1.1-0.9,1.9
		c0,0.4,0.1,0.8,0.3,1.2s0.5,0.7,0.8,0.9s0.8,0.3,1.2,0.4h0.1V214h1.5v4.4H365V216.6z M345,156.2h9.1v4.7c0,0.8-0.2,1.4-0.7,1.9
		s-1.1,0.7-1.9,0.7s-1.4-0.2-1.8-0.7s-0.6-1.1-0.6-1.9V158h-4v-1.8H345z M350.6,160.6c0,0.6,0.3,1,0.9,1c0.3,0,0.5-0.1,0.7-0.3
		s0.2-0.4,0.2-0.7V158h-1.8L350.6,160.6L350.6,160.6z M345,171.3v-5.7h9.1v1.8h-7.5v3.9H345z M345,181.8v-2l2.2-0.8v-3.8l-2.2-0.8
		v-2l9.1,3.4v2.5L345,181.8z M352.3,177.1l-3.5-1.3v2.6L352.3,177.1L352.3,177.1z M345,186.8V185h7.5v-2.9h1.6v7.6h-1.6v-2.9
		L345,186.8L345,186.8z M345,193.5v-1.8h9.1v6.4h-1.6v-4.5h-1.7v3.5h-1.7v-3.5L345,193.5L345,193.5z M344.8,204.1
		c0-0.9,0.2-1.7,0.6-2.4s1-1.2,1.7-1.6c0.7-0.4,1.5-0.5,2.5-0.5c0.9,0,1.8,0.2,2.5,0.5c0.7,0.4,1.3,0.9,1.7,1.6
		c0.4,0.7,0.6,1.5,0.6,2.4s-0.2,1.7-0.6,2.4s-1,1.2-1.7,1.6c-0.7,0.4-1.5,0.5-2.5,0.5c-0.9,0-1.8-0.2-2.5-0.5
		c-0.7-0.4-1.3-0.9-1.7-1.6C345,205.8,344.8,205,344.8,204.1z M346.5,204.1c0,0.8,0.3,1.4,0.8,1.9c0.6,0.5,1.3,0.7,2.3,0.7
		c0.9,0,1.7-0.2,2.2-0.7c0.6-0.5,0.8-1.1,0.8-1.9c0-0.8-0.3-1.4-0.8-1.9s-1.3-0.7-2.2-0.7c-1,0-1.7,0.2-2.3,0.7
		C346.7,202.6,346.5,203.3,346.5,204.1z M345,210.8h9.1v4.7c0,0.8-0.2,1.4-0.6,1.9c-0.4,0.4-1,0.7-1.7,0.7c-0.5,0-0.9-0.1-1.2-0.3
		c-0.3-0.2-0.5-0.4-0.7-0.7l0,0c-0.2,0.3-0.6,0.5-1.1,0.6l-3.6,0.5H345v-1.8l3.3-0.5c0.6-0.1,0.9-0.4,0.9-1v-2.2H345V210.8z
		 M350.7,215.2c0,0.6,0.3,0.9,0.9,0.9s0.9-0.3,0.9-0.9v-2.6h-1.8V215.2z M345,222.3v-1.8h9.1v3.1l-6.3,2.1l0,0l6.3,2.1v3.1H345V229
		h7.3l0,0l-7.3-2.5v-1.7l7.3-2.5l0,0H345z"/>
	<path class="st7" d="M13,222.8H3.9v-3.1c0-1.4,0.4-2.6,1.2-3.4c0.8-0.8,1.9-1.2,3.3-1.2s2.5,0.4,3.4,1.2c0.8,0.8,1.2,1.9,1.2,3.4
		C13,219.7,13,222.8,13,222.8z M11.4,219.8c0-0.9-0.2-1.5-0.7-2s-1.2-0.7-2.2-0.7s-1.7,0.2-2.2,0.7s-0.7,1.1-0.7,2v1.3h5.8
		C11.4,221.1,11.4,219.8,11.4,219.8z M13,206.2v6.8H3.9v-6.6h1.6v4.8h1.6v-3.7h1.6v3.7h2.6v-4.9H13V206.2z M13,202.1v1.8H3.9v-3.1
		l6.3-2.1l0,0l-6.3-2.1v-3.1H13v1.8H5.7l0,0l7.3,2.5v1.7L5.7,202l0,0H13V202.1z M13,182.5v2l-2.2,0.8v3.8l2.2,0.8v2l-9.1-3.4V186
		L13,182.5z M5.7,187.2l3.5,1.3v-2.6L5.7,187.2L5.7,187.2z M13,178.8v1.8H3.9v-2.7l6.9-3l0,0H3.9V173H13v2.7l-6.9,3l0,0H13V178.8z
		 M13,170.3H3.9v-3.1c0-1.4,0.4-2.6,1.2-3.4c0.8-0.8,1.9-1.2,3.3-1.2s2.5,0.4,3.4,1.2c0.8,0.8,1.2,1.9,1.2,3.4
		C13,167.2,13,170.3,13,170.3z M11.4,167.2c0-0.9-0.2-1.5-0.7-2s-1.2-0.7-2.2-0.7s-1.7,0.2-2.2,0.7s-0.7,1.1-0.7,2v1.3h5.8
		C11.4,168.5,11.4,167.2,11.4,167.2z M33,229.5h-9.1v-4.7c0-0.8,0.2-1.4,0.6-1.9c0.4-0.4,1-0.7,1.7-0.7c0.5,0,0.9,0.1,1.2,0.3
		c0.3,0.2,0.5,0.4,0.7,0.7l0,0c0.2-0.3,0.6-0.5,1.1-0.6l3.6-0.5H33v1.8l-3.3,0.5c-0.6,0.1-0.9,0.4-0.9,1v2.2H33V229.5z M27.3,225.1
		c0-0.6-0.3-0.9-0.9-0.9s-0.9,0.3-0.9,0.9v2.6h1.8V225.1z M33,213.1v6.8h-9.1v-6.6h1.6v4.8h1.6v-3.7h1.6v3.7h2.6v-4.9H33V213.1z
		 M33.2,207.6c0,0.7-0.1,1.3-0.4,1.9c-0.3,0.6-0.6,1-1.1,1.3c-0.5,0.3-1,0.5-1.7,0.6v-1.9c0.5,0,0.9-0.2,1.2-0.6
		c0.3-0.3,0.4-0.8,0.4-1.4c0-0.5-0.1-0.8-0.3-1.1c-0.2-0.3-0.5-0.4-0.9-0.4c-0.6,0-1,0.3-1.1,1l-0.5,2.1c-0.1,0.7-0.4,1.2-0.9,1.5
		c-0.4,0.3-1,0.5-1.5,0.5s-1-0.1-1.4-0.4c-0.4-0.3-0.7-0.7-0.9-1.2c-0.2-0.5-0.3-1.1-0.3-1.7c0-0.7,0.1-1.3,0.4-1.8
		c0.2-0.5,0.6-1,1-1.3s0.9-0.5,1.5-0.5v1.9c-0.4,0-0.8,0.2-1,0.5s-0.3,0.7-0.3,1.2c0,0.4,0.1,0.8,0.3,1c0.2,0.3,0.4,0.4,0.8,0.4
		c0.5,0,0.8-0.3,0.9-0.8l0.5-2c0.2-0.7,0.4-1.3,0.8-1.7s1-0.6,1.7-0.6c0.6,0,1.2,0.2,1.6,0.5c0.4,0.3,0.8,0.7,1,1.2
		C33.1,206.4,33.2,207,33.2,207.6z M33,202.1h-9.1v-4.7c0-0.8,0.2-1.4,0.7-1.9s1.1-0.7,1.9-0.7s1.4,0.2,1.8,0.7s0.6,1.1,0.6,1.9v2.9
		h4L33,202.1L33,202.1z M27.4,197.6c0-0.7-0.3-1-0.9-1c-0.3,0-0.5,0.1-0.7,0.3s-0.2,0.4-0.2,0.7v2.6h1.8
		C27.4,200.2,27.4,197.6,27.4,197.6z M33.2,188.6c0,0.9-0.2,1.7-0.6,2.4c-0.4,0.7-1,1.2-1.7,1.6c-0.7,0.4-1.5,0.5-2.5,0.5
		c-0.9,0-1.8-0.2-2.5-0.5c-0.7-0.4-1.3-0.9-1.7-1.6c-0.4-0.7-0.6-1.5-0.6-2.4s0.2-1.7,0.6-2.4s1-1.2,1.7-1.6
		c0.7-0.4,1.5-0.5,2.5-0.5c0.9,0,1.8,0.2,2.5,0.5c0.7,0.4,1.3,0.9,1.7,1.6C33,186.9,33.2,187.7,33.2,188.6z M31.5,188.6
		c0-0.8-0.3-1.4-0.8-1.9c-0.6-0.5-1.3-0.7-2.3-0.7c-0.9,0-1.7,0.2-2.2,0.7c-0.6,0.5-0.8,1.1-0.8,1.9s0.3,1.4,0.8,1.9
		s1.3,0.7,2.2,0.7c1,0,1.7-0.2,2.3-0.7C31.3,190.1,31.5,189.4,31.5,188.6z M33,180.1v1.8h-9.1v-2.7l6.9-3l0,0h-6.9v-1.8H33v2.7
		l-6.9,3l0,0H33z M33.2,168.4c0,0.7-0.1,1.3-0.4,1.9c-0.3,0.6-0.6,1-1.1,1.3c-0.5,0.3-1,0.5-1.7,0.6v-1.9c0.5,0,0.9-0.2,1.2-0.6
		c0.3-0.3,0.4-0.8,0.4-1.4c0-0.5-0.1-0.8-0.3-1.1c-0.2-0.3-0.5-0.4-0.9-0.4c-0.6,0-1,0.3-1.1,1l-0.5,2.1c-0.1,0.7-0.4,1.2-0.9,1.5
		c-0.4,0.3-1,0.5-1.5,0.5s-1-0.1-1.4-0.4c-0.4-0.3-0.7-0.7-0.9-1.2c-0.2-0.5-0.3-1.1-0.3-1.7c0-0.7,0.1-1.3,0.4-1.8
		c0.2-0.5,0.6-1,1-1.3s0.9-0.5,1.5-0.5v1.9c-0.4,0-0.8,0.2-1,0.5s-0.3,0.7-0.3,1.2c0,0.4,0.1,0.8,0.3,1c0.2,0.3,0.4,0.4,0.8,0.4
		c0.5,0,0.8-0.3,0.9-0.8l0.5-2c0.2-0.7,0.4-1.3,0.8-1.7s1-0.6,1.7-0.6c0.6,0,1.2,0.2,1.6,0.5c0.4,0.3,0.8,0.7,1,1.2
		C33.1,167.1,33.2,167.7,33.2,168.4z M33,156v6.8h-9.1v-6.6h1.6v4.8h1.6v-3.7h1.6v3.7h2.6v-5H33z"/>
	<path class="st7" d="M164,364v-9.1h3.1c1.4,0,2.6,0.4,3.4,1.2c0.8,0.8,1.2,1.9,1.2,3.3s-0.4,2.5-1.2,3.4c-0.8,0.8-1.9,1.2-3.4,1.2
		H164z M167,362.4c0.9,0,1.5-0.2,2-0.7s0.7-1.2,0.7-2.2s-0.2-1.7-0.7-2.2s-1.1-0.7-2-0.7h-1.3v5.8L167,362.4L167,362.4z M180.6,364
		h-6.8v-9.1h6.6v1.6h-4.8v1.6h3.7v1.6h-3.7v2.6h4.9v1.7L180.6,364L180.6,364z M187.8,364h-2.5l-3.4-9.1h2l2.6,7.3h0.1l2.6-7.3h2
		L187.8,364z M194.8,364H193v-9.1h1.8V364z M201.5,364.2c-0.9,0-1.7-0.2-2.4-0.6s-1.2-0.9-1.6-1.7c-0.4-0.7-0.5-1.5-0.5-2.5
		c0-0.9,0.2-1.8,0.5-2.5c0.4-0.7,0.9-1.3,1.6-1.7c0.7-0.4,1.5-0.6,2.4-0.6c1.1,0,2,0.3,2.8,0.8c0.7,0.6,1.2,1.3,1.4,2.4h-2
		c-0.1-0.5-0.4-0.9-0.8-1.1c-0.4-0.3-0.9-0.4-1.4-0.4c-0.8,0-1.4,0.3-1.9,0.8s-0.7,1.3-0.7,2.2c0,1,0.2,1.7,0.7,2.3
		c0.5,0.5,1.1,0.8,1.9,0.8c0.7,0,1.3-0.2,1.7-0.7s0.7-1.1,0.7-1.8h1.9c-0.1,0.8-0.3,1.6-0.6,2.2c-0.4,0.6-0.9,1.1-1.5,1.5
		C203.1,364,202.4,364.2,201.5,364.2z M214.8,364H208v-9.1h6.6v1.6h-4.8v1.6h3.7v1.6h-3.7v2.6h4.9v1.7L214.8,364L214.8,364z
		 M140.5,384h-1.8v-9.1h3.1l2.1,6.3l0,0l2.1-6.3h3.1v9.1h-1.8v-7.3l0,0l-2.5,7.3h-1.7l-2.5-7.3l0,0v7.3H140.5z M160.2,384h-2
		l-0.8-2.2h-3.8l-0.8,2.2h-2l3.4-9.1h2.5L160.2,384z M155.5,376.7l-1.3,3.5h2.6L155.5,376.7L155.5,376.7z M163.8,384H162v-9.1h2.7
		l3,6.9l0,0v-6.9h1.8v9.1h-2.7l-3-6.9l0,0V384z M180.7,384h-2l-0.8-2.2h-3.8l-0.8,2.2h-2l3.4-9.1h2.5L180.7,384z M176,376.7
		l-1.3,3.5h2.6L176,376.7L176,376.7z M188.5,384v-1.2l0,0c-0.3,0.4-0.7,0.8-1.2,1s-1.1,0.4-1.7,0.4c-0.8,0-1.5-0.2-2.1-0.6
		s-1.1-1-1.4-1.7c-0.3-0.7-0.5-1.5-0.5-2.5c0-0.9,0.2-1.8,0.5-2.5c0.4-0.7,0.9-1.3,1.5-1.7c0.7-0.4,1.5-0.6,2.4-0.6
		c1.1,0,2,0.3,2.7,0.8s1.2,1.2,1.3,2.1h-2c-0.1-0.4-0.4-0.7-0.7-0.9c-0.3-0.2-0.7-0.3-1.2-0.3c-0.8,0-1.5,0.3-1.9,0.8
		c-0.5,0.5-0.7,1.3-0.7,2.2c0,0.9,0.2,1.7,0.7,2.3c0.5,0.6,1.1,0.9,1.9,0.9c0.4,0,0.8-0.1,1.2-0.3s0.7-0.5,0.9-0.8s0.3-0.8,0.4-1.2
		v-0.1H186v-1.5h4.4v5.4L188.5,384L188.5,384z M199.6,384h-6.8v-9.1h6.6v1.6h-4.8v1.6h3.7v1.6h-3.7v2.6h4.9v1.7L199.6,384L199.6,384
		z M203.6,384h-1.8v-9.1h3.1l2.1,6.3l0,0l2.1-6.3h3.1v9.1h-1.8v-7.3l0,0l-2.5,7.3h-1.7l-2.5-7.3l0,0v7.3H203.6z M221.6,384h-6.8
		v-9.1h6.6v1.6h-4.8v1.6h3.7v1.6h-3.7v2.6h4.9v1.7L221.6,384L221.6,384z M225.7,384h-1.8v-9.1h2.7l3,6.9l0,0v-6.9h1.8v9.1h-2.7
		l-3-6.9l0,0V384z M238.2,384h-1.8v-7.5h-2.9v-1.6h7.6v1.6h-2.9L238.2,384L238.2,384z"/>
	<path class="st8" d="M66,422.2h127c9.1,0,16.5,7.4,16.5,16.5l0,0c0,9.1-7.4,16.5-16.5,16.5H66c-9.1,0-16.5-7.4-16.5-16.5l0,0
		C49.5,429.6,56.9,422.2,66,422.2z"/>
	<circle class="st6" cx="68" cy="438.7" r="6"/>
	<path class="st9" d="M88.5,442.7c3.1,0,4.9-1.8,4.9-4.9s-1.8-4.9-4.9-4.9h-3.4v9.8H88.5z M87.1,434.7h1.4c1.8,0,2.9,1,2.9,3.1
		s-1.1,3.1-2.9,3.1h-1.4V434.7z M104.4,442.7l-3.7-9.8H98l-3.7,9.8h2.1l0.9-2.4h4.1l0.9,2.4H104.4z M99.4,434.8L99.4,434.8l1.4,3.8
		H98L99.4,434.8z M111.2,442.7l3.6-9.8h-2.1l-2.8,7.9h-0.1l-2.8-7.9h-2l3.6,9.8H111.2z M118.9,442.7v-9.8h-2v9.8H118.9z
		 M125.3,442.7c3.1,0,4.9-1.8,4.9-4.9s-1.8-4.9-4.9-4.9H122v9.8H125.3z M123.9,434.7h1.4c1.8,0,2.9,1,2.9,3.1s-1.1,3.1-2.9,3.1h-1.4
		C123.9,440.9,123.9,434.7,123.9,434.7z M143.7,442.7V441h-5.3v-2.8h4v-1.8h-4v-1.7h5.2v-1.8h-7.1v9.8H143.7z M148.3,442.7v-7.4l0,0
		l3.3,7.4h3v-9.8h-2v7.5l0,0l-3.3-7.5h-3v9.8H148.3z M164.9,442.7V441h-5.3v-2.8h4v-1.8h-4v-1.7h5.2v-1.8h-7.1v9.8H164.9z
		 M169.4,442.7v-4.5h2.4c0.7,0,1,0.4,1.1,1l0.5,3.6h2v-0.1l-0.6-3.9c-0.1-0.5-0.3-0.9-0.7-1.1l0,0c0.6-0.3,1.1-0.9,1.1-2.1
		c0-1.6-1-2.5-2.7-2.5h-5.1v9.8h2V442.7z M169.4,434.7h2.8c0.6,0,1,0.3,1,1s-0.4,0.9-1,0.9h-2.8V434.7z M186.7,442.7v-5.8H182v1.7
		h2.8v0.1c-0.1,1.5-1.2,2.5-2.6,2.5c-1.7,0-2.8-1.4-2.8-3.4c0-1.9,1-3.3,2.8-3.3c1.1,0,1.8,0.5,2.1,1.3h2.2c-0.4-1.9-2-3.1-4.3-3.1
		c-3.1,0-4.8,2.1-4.8,5.1s1.7,5.1,4.3,5.1c1.4,0,2.5-0.5,3.2-1.5l0,0v1.3L186.7,442.7L186.7,442.7z M193.3,442.7v-4.4l3.5-5.4h-2.3
		l-2.1,3.4l0,0l-2.1-3.4h-2.4l3.5,5.5v4.3H193.3z"/>
	<path class="st10" d="M66,422.2h127c9.1,0,16.5,7.4,16.5,16.5l0,0c0,9.1-7.4,16.5-16.5,16.5H66c-9.1,0-16.5-7.4-16.5-16.5l0,0
		C49.5,429.6,56.9,422.2,66,422.2z"/>
	<path class="st8" d="M239,422.2h73c9.1,0,16.5,7.4,16.5,16.5l0,0c0,9.1-7.4,16.5-16.5,16.5h-73c-9.1,0-16.5-7.4-16.5-16.5l0,0
		C222.5,429.6,229.9,422.2,239,422.2z"/>
	<circle class="st5" cx="241" cy="438.7" r="6"/>
	<path class="st9" d="M263.4,442.7l3.6-9.8h-2.1l-2.8,7.9H262l-2.8-7.9h-2.1l3.6,9.8H263.4z M273,442.9c3,0,4.9-2.1,4.9-5.1
		s-1.8-5.1-4.9-5.1s-4.9,2.1-4.9,5.1C268.2,440.9,270,442.9,273,442.9z M273,441.1c-1.7,0-2.8-1.3-2.8-3.3s1.1-3.3,2.8-3.3
		s2.8,1.3,2.8,3.3C275.9,439.9,274.8,441.1,273,441.1z M286.6,442.7V441h-4.2v-8h-2v9.8L286.6,442.7L286.6,442.7z M291.8,442.7v-8
		h3.1v-1.8h-8.2v1.8h3.1v8H291.8z M301,442.9c2.8,0,4-1.4,4-3.6v-6.4h-2v6.3c0,1.3-0.6,2-2.1,2s-2.1-0.6-2.1-2v-6.3h-2v6.4
		C297,441.5,298.3,442.9,301,442.9z M311.4,442.9c2.1,0,3.8-1.1,3.8-3.2c0-1.7-1.1-2.4-2.5-2.8l-2.2-0.5c-0.7-0.2-0.9-0.6-0.9-1
		c0-0.8,0.7-1.1,1.5-1.1c1,0,1.8,0.5,1.8,1.4h2c-0.1-1.8-1.6-3.1-3.8-3.1c-2.1,0-3.6,1.1-3.6,2.9c0,1.2,0.7,2.3,2.2,2.6l2.2,0.5
		c0.9,0.2,1.1,0.7,1.1,1.2c0,1-0.8,1.4-1.7,1.4c-1.2,0-2-0.7-2.1-1.8h-2C307.5,441.6,309.1,442.9,311.4,442.9z"/>
	<path class="st10" d="M239,422.2h73c9.1,0,16.5,7.4,16.5,16.5l0,0c0,9.1-7.4,16.5-16.5,16.5h-73c-9.1,0-16.5-7.4-16.5-16.5l0,0
		C222.5,429.6,229.9,422.2,239,422.2z"/>
	<path class="st8" d="M26,468.2h61c9.1,0,16.5,7.4,16.5,16.5l0,0c0,9.1-7.4,16.5-16.5,16.5H26c-9.1,0-16.5-7.4-16.5-16.5l0,0
		C9.5,475.6,16.9,468.2,26,468.2z"/>
	<circle class="st4" cx="28" cy="484.7" r="6"/>
	<path class="st9" d="M52.4,488.7V487h-5.3v-2.8h4v-1.8h-4v-1.7h5.2v-1.8h-7.1v9.8H52.4z M56.9,488.7v-7.4l0,0l3.3,7.4h3v-9.8h-2
		v7.5l0,0l-3.3-7.5h-3v9.8H56.9z M75.1,488.7v-5.8h-4.8v1.7h2.8v0.1c-0.1,1.5-1.2,2.5-2.6,2.5c-1.7,0-2.8-1.4-2.8-3.4
		c0-1.9,1-3.3,2.8-3.3c1.1,0,1.8,0.5,2.1,1.3h2.2c-0.4-1.9-2-3.1-4.3-3.1c-3.1,0-4.8,2.1-4.8,5.1s1.7,5.1,4.3,5.1
		c1.4,0,2.5-0.5,3.2-1.5l0,0v1.3L75.1,488.7L75.1,488.7z M79.9,488.7v-9.8h-2v9.8H79.9z M90.3,488.7V487H85v-2.8h4v-1.8h-4v-1.7h5.2
		v-1.8H83v9.8H90.3z"/>
	<path class="st10" d="M26,468.2h61c9.1,0,16.5,7.4,16.5,16.5l0,0c0,9.1-7.4,16.5-16.5,16.5H26c-9.1,0-16.5-7.4-16.5-16.5l0,0
		C9.5,475.6,16.9,468.2,26,468.2z"/>
	<path class="st8" d="M133,468.2h47c9.1,0,16.5,7.4,16.5,16.5l0,0c0,9.1-7.4,16.5-16.5,16.5h-47c-9.1,0-16.5-7.4-16.5-16.5l0,0
		C116.5,475.6,123.9,468.2,133,468.2z"/>
	<circle class="st3" cx="135" cy="484.7" r="6"/>
	<path class="st9" d="M154.1,488.7v-7.4l0,0l3.3,7.4h3v-9.8h-2v7.5l0,0l-3.3-7.5h-3v9.8H154.1z M165.3,488.7v-4.5h2.4
		c0.7,0,1,0.4,1.1,1l0.5,3.6h2v-0.1l-0.6-3.9c-0.1-0.5-0.3-0.9-0.7-1.1l0,0c0.6-0.3,1.1-0.9,1.1-2.1c0-1.6-1-2.5-2.7-2.5h-5.1v9.8h2
		V488.7z M165.3,480.7h2.8c0.6,0,1,0.3,1,1s-0.4,0.9-1,0.9h-2.8V480.7z M182.7,488.7v-5.8h-4.8v1.7h2.8v0.1
		c-0.1,1.5-1.2,2.5-2.6,2.5c-1.7,0-2.8-1.4-2.8-3.4c0-1.9,1-3.3,2.8-3.3c1.1,0,1.8,0.5,2.1,1.3h2.2c-0.4-1.9-2-3.1-4.3-3.1
		c-3.1,0-4.8,2.1-4.8,5.1s1.7,5.1,4.3,5.1c1.4,0,2.5-0.5,3.2-1.5l0,0v1.3L182.7,488.7L182.7,488.7z"/>
	<path class="st10" d="M133,468.2h47c9.1,0,16.5,7.4,16.5,16.5l0,0c0,9.1-7.4,16.5-16.5,16.5h-47c-9.1,0-16.5-7.4-16.5-16.5l0,0
		C116.5,475.6,123.9,468.2,133,468.2z"/>
	<path class="st8" d="M226,468.2h126c9.1,0,16.5,7.4,16.5,16.5l0,0c0,9.1-7.4,16.5-16.5,16.5H226c-9.1,0-16.5-7.4-16.5-16.5l0,0
		C209.5,475.6,216.9,468.2,226,468.2z"/>
	<circle class="st1" cx="228" cy="484.7" r="6"/>
	<path class="st9" d="M251.3,488.7V487h-4.2v-8h-2v9.8L251.3,488.7L251.3,488.7z M257.5,488.9c3,0,4.9-2.1,4.9-5.1s-1.8-5.1-4.9-5.1
		s-4.9,2.1-4.9,5.1C252.6,486.9,254.4,488.9,257.5,488.9z M257.5,487.1c-1.7,0-2.8-1.3-2.8-3.3s1.1-3.3,2.8-3.3
		c1.7,0,2.8,1.3,2.8,3.3C260.3,485.9,259.2,487.1,257.5,487.1z M269.2,488.9c2.9,0,4.6-1.9,4.7-4.5h-2.1c-0.2,1.6-1,2.7-2.7,2.7
		s-2.8-1.2-2.8-3.3c0-2.1,1.1-3.3,2.8-3.3c1.2,0,2.1,0.6,2.4,1.7h2.1c-0.4-2.2-2.1-3.5-4.5-3.5c-3.1,0-4.9,2.1-4.9,5.1
		C264.3,486.9,266.1,488.9,269.2,488.9z M285,488.7l-3.7-9.8h-2.7l-3.7,9.8h2.1l0.9-2.4h4.1l0.9,2.4H285z M279.9,480.8L279.9,480.8
		l1.4,3.8h-2.8L279.9,480.8z M293.2,488.7V487H289v-8h-2v9.8L293.2,488.7L293.2,488.7z M303.2,488.9c2.8,0,4-1.4,4-3.6v-6.4h-2v6.3
		c0,1.3-0.6,2-2.1,2s-2.1-0.6-2.1-2v-6.3h-2v6.4C299.1,487.5,300.4,488.9,303.2,488.9z M314.3,488.7v-8h3.1v-1.8h-8.2v1.8h3.1v8
		H314.3z M321.6,488.7v-9.8h-2v9.8H321.6z M330.9,488.7V487h-4.2v-8h-2v9.8L330.9,488.7L330.9,488.7z M335.2,488.7v-9.8h-2v9.8
		H335.2z M342.5,488.7v-8h3.1v-1.8h-8.2v1.8h3.1v8H342.5z M352.2,488.7v-4.4l3.5-5.4h-2.3l-2.1,3.4l0,0l-2.1-3.4h-2.4l3.5,5.5v4.3
		H352.2z"/>
	<path class="st10" d="M226,468.2h126c9.1,0,16.5,7.4,16.5,16.5l0,0c0,9.1-7.4,16.5-16.5,16.5H226c-9.1,0-16.5-7.4-16.5-16.5l0,0
		C209.5,475.6,216.9,468.2,226,468.2z"/>
</g>
<g id="david-energy">
	<circle class="st11 draw-svg" cx="189" cy="195.6" r="129.5"/>
</g>
<g id="engie">
	<path class="st12 draw-svg" d="M188.5,111.4c45.4,0,82.2,37,82.2,82.7"/>
</g>
<g id="nrg">
	<path class="st13 draw-svg" d="M130.1,194.7c0-32.6,26.5-59.1,59.1-59.1"/>
</g>
</svg>
