<svg width="160" height="160" viewBox="0 0 160 160" fill="none" xmlns="http://www.w3.org/2000/svg">
<circle cx="80" cy="80" r="80" fill="#C2F7AD"/>
<path d="M39.257 132.165C41.545 132.165 42.843 130.702 42.975 128.623H41.358C41.237 129.877 40.566 130.757 39.268 130.757C37.904 130.757 37.046 129.8 37.046 128.139C37.046 126.489 37.904 125.543 39.257 125.543C40.181 125.543 40.907 125.983 41.105 126.852H42.788C42.458 125.092 41.105 124.135 39.257 124.135C36.859 124.135 35.44 125.752 35.44 128.161C35.44 130.581 36.859 132.165 39.257 132.165ZM48.3174 132.165C50.7044 132.165 52.1564 130.526 52.1564 128.15C52.1564 125.774 50.7044 124.135 48.3174 124.135C45.9194 124.135 44.5004 125.796 44.5004 128.161C44.5004 130.537 45.9194 132.165 48.3174 132.165ZM48.3284 130.757C46.9644 130.757 46.1064 129.756 46.1064 128.139C46.1064 126.533 46.9644 125.543 48.3284 125.543C49.6924 125.543 50.5504 126.533 50.5504 128.139C50.5504 129.756 49.6814 130.757 48.3284 130.757ZM55.6694 132V125.807H55.6914L57.8254 132H59.2334L61.3344 125.807H61.3564V132H62.8964V124.3H60.2784L58.5404 129.613H58.5184L56.7474 124.3H54.1294V132H55.6694ZM66.8463 132V124.3H65.3063V132H66.8463ZM70.7931 132V126.148H70.8151L73.3891 132H75.7101V124.3H74.1701V130.163H74.1481L71.5741 124.3H69.2531V132H70.7931ZM85.0614 132V127.446H81.3214V128.744H83.5214L83.5104 128.81C83.4554 129.987 82.5864 130.757 81.4534 130.757C80.0894 130.757 79.2754 129.668 79.2754 128.106C79.2754 126.577 80.0674 125.543 81.4864 125.543C82.3224 125.543 82.8834 125.917 83.1254 126.544H84.8744C84.5664 125.059 83.3124 124.135 81.4754 124.135C79.0554 124.135 77.6804 125.774 77.6804 128.172C77.6804 130.559 79.0224 132.165 81.0904 132.165C82.1684 132.165 83.0484 131.736 83.5764 131.01H83.5984V132H85.0614ZM92.9208 132.165C94.5708 132.165 95.8688 131.329 95.8688 129.679C95.8688 128.337 95.0328 127.754 93.9438 127.512L92.2168 127.116C91.6888 126.995 91.5458 126.665 91.5458 126.335C91.5458 125.708 92.0848 125.444 92.7558 125.444C93.5478 125.444 94.1308 125.807 94.1748 126.577H95.7588C95.6928 125.147 94.5048 124.135 92.7338 124.135C91.0508 124.135 89.9288 125.037 89.9288 126.423C89.9288 127.358 90.4568 128.205 91.6668 128.458L93.4268 128.843C94.0978 128.986 94.2738 129.382 94.2738 129.789C94.2738 130.548 93.6798 130.856 92.9428 130.856C91.9858 130.856 91.3698 130.339 91.3148 129.47H89.7198C89.8298 131.131 91.1168 132.165 92.9208 132.165ZM101.116 132.165C103.503 132.165 104.955 130.526 104.955 128.15C104.955 125.774 103.503 124.135 101.116 124.135C98.7181 124.135 97.2991 125.796 97.2991 128.161C97.2991 130.537 98.7181 132.165 101.116 132.165ZM101.127 130.757C99.7631 130.757 98.9051 129.756 98.9051 128.139C98.9051 126.533 99.7631 125.543 101.127 125.543C102.491 125.543 103.349 126.533 103.349 128.139C103.349 129.756 102.48 130.757 101.127 130.757ZM110.316 132.165C112.703 132.165 114.155 130.526 114.155 128.15C114.155 125.774 112.703 124.135 110.316 124.135C107.918 124.135 106.499 125.796 106.499 128.161C106.499 130.537 107.918 132.165 110.316 132.165ZM110.327 130.757C108.963 130.757 108.105 129.756 108.105 128.139C108.105 126.533 108.963 125.543 110.327 125.543C111.691 125.543 112.549 126.533 112.549 128.139C112.549 129.756 111.68 130.757 110.327 130.757ZM117.668 132V126.148H117.69L120.264 132H122.585V124.3H121.045V130.163H121.023L118.449 124.3H116.128V132H117.668Z" fill="#AEB9BF"/>
<path d="M100.381 76.5178C100.131 75.4001 99.9796 74.4073 99.6883 73.46C98.7406 70.3889 97.231 67.6286 95.1407 65.1637C92.5643 62.1268 89.3428 60.0522 85.671 58.6711C83.0889 57.6992 80.3724 57.362 77.6087 57.4321C73.4054 57.5381 69.5672 58.8397 66.0714 61.1056C62.9842 63.1063 60.5704 65.7795 58.832 69.0457C58.4234 69.813 57.9013 70.4571 57.0633 70.8039C55.7845 71.3343 54.4338 71.0577 53.4312 70.0214C52.5876 69.1499 52.3643 67.6627 52.9451 66.5032C54.9767 62.4545 57.8918 59.1599 61.52 56.481C65.1596 53.7945 69.2608 52.1822 73.6816 51.4036C75.2857 51.1194 76.9372 50.9697 78.5602 51.0057C82.7843 51.0985 86.8325 52.0117 90.6726 53.8513C94.2498 55.5678 97.3199 57.9303 99.9267 60.8915C101.321 62.4754 102.482 64.2316 103.504 66.0902C104.682 68.231 105.543 70.4894 106.097 72.8538C106.455 74.3789 106.599 75.9533 106.831 77.5068C106.977 78.473 107.102 79.4355 106.846 80.4093C106.51 81.6976 105.458 82.6543 104.128 82.8135C103.786 82.8551 103.436 82.8532 103.09 82.8532C86.8874 82.8532 70.6852 82.8513 54.4849 82.8627C53.2648 82.8627 52.1714 82.6657 51.3655 81.6407C50.571 80.6328 50.3951 79.5453 50.9134 78.3707C51.4128 77.2359 52.2925 76.5652 53.541 76.5311C55.147 76.4875 56.7549 76.5178 58.3628 76.5178C71.9167 76.5178 85.4705 76.5178 99.0243 76.5178C99.4254 76.5178 99.8245 76.5178 100.383 76.5178H100.381Z" fill="#092D2E"/>
<path d="M79.0163 108.973C74.9586 108.811 71.268 108.178 67.7438 106.689C64.789 105.44 62.1425 103.735 59.7439 101.607C56.878 99.0649 54.6553 96.0602 53.0001 92.6083C52.0902 90.7099 52.9925 88.2906 55.5122 87.9571C56.687 87.8018 57.7066 88.2508 58.3705 89.2492C58.9588 90.1378 59.4166 91.1135 59.9728 92.0267C61.8077 95.0428 64.2726 97.428 67.2728 99.2715C69.3574 100.552 71.5877 101.463 73.9768 101.977C78.4298 102.932 82.7826 102.627 87.0237 100.924C91.8096 99.0005 95.4795 95.7893 98.0635 91.3295C98.4097 90.7308 98.7313 90.1169 99.0585 89.5069C99.6809 88.3493 101.158 87.6805 102.428 87.9856C103.966 88.3569 104.892 89.4425 104.944 90.8842C104.968 91.5947 104.855 92.2635 104.527 92.8944C102.744 96.3368 100.475 99.3851 97.5225 101.937C93.7921 105.162 89.5207 107.244 84.7329 108.28C83.4201 108.564 82.0618 108.646 80.7225 108.807C80.0699 108.886 79.4116 108.936 79.0163 108.972V108.973Z" fill="#092D2E"/>
</svg>
