<svg width="125" height="115" viewBox="0 0 125 115" fill="none" xmlns="http://www.w3.org/2000/svg">
<path d="M65.5354 44.0999L80.7766 54.774C81.1461 55.0992 81.442 55.4993 81.6448 55.9477C81.8475 56.3962 81.9526 56.8828 81.9526 57.3749C81.9526 57.8671 81.8475 58.3537 81.6448 58.8021C81.442 59.2506 81.1461 59.6507 80.7766 59.9759L65.5354 70.6396C64.6455 71.2882 63.5729 71.6377 62.4717 71.6377C61.3705 71.6377 60.2974 71.2882 59.4075 70.6396L44.1662 59.9759C43.7967 59.6507 43.5008 59.2506 43.2981 58.8021C43.0953 58.3537 42.9902 57.8671 42.9902 57.3749C42.9902 56.8828 43.0953 56.3962 43.2981 55.9477C43.5008 55.4993 43.7967 55.0992 44.1662 54.774L59.4075 44.0999C60.2974 43.4513 61.3705 43.1018 62.4717 43.1018C63.5729 43.1018 64.6455 43.4513 65.5354 44.0999Z" fill="#25444A"/>
<path d="M62.4769 99.6351C59.1077 99.5906 55.8356 98.4999 53.1136 96.514L8.8874 65.5527C7.68717 64.539 6.72259 63.2756 6.06094 61.8507C5.39928 60.4258 5.05664 58.8736 5.05664 57.3025C5.05664 55.7315 5.39928 54.1794 6.06094 52.7545C6.72259 51.3296 7.68717 50.0662 8.8874 49.0525L53.1136 18.0912C55.8155 16.0998 59.0837 15.0254 62.4403 15.0254C65.7968 15.0254 69.0651 16.0998 71.767 18.0912L116.003 49.0525C117.2 50.0682 118.162 51.3323 118.822 52.7569C119.481 54.1816 119.823 55.7326 119.823 57.3025C119.823 58.8725 119.481 60.4236 118.822 61.8483C118.162 63.2729 117.2 64.537 116.003 65.5527L71.767 96.514C69.0667 98.4887 65.8217 99.579 62.4769 99.6351ZM62.4769 16.6451C59.4445 16.6741 56.4962 17.6448 54.0396 19.4229L9.83429 50.3426C8.84036 51.2116 8.04383 52.2833 7.49804 53.4855C6.95226 54.6877 6.67002 55.9926 6.67002 57.313C6.67002 58.6333 6.95226 59.9383 7.49804 61.1405C8.04383 62.3428 8.84036 63.4144 9.83429 64.2835L54.06 95.2447C56.5033 97.0437 59.4584 98.0141 62.4926 98.0141C65.5268 98.0141 68.4814 97.0437 70.9248 95.2447L115.161 64.2835C116.152 63.4125 116.945 62.3403 117.489 61.1384C118.033 59.9364 118.315 58.6322 118.315 57.313C118.315 55.9937 118.033 54.6896 117.489 53.4877C116.945 52.2857 116.152 51.2135 115.161 50.3426L70.9248 19.3813C68.4623 17.6122 65.5089 16.6556 62.4769 16.6451Z" fill="#56D690"/>
<path d="M24.9094 46.9093L9.66768 36.2455C9.29817 35.9204 9.00228 35.5203 8.79952 35.0718C8.59677 34.6233 8.49219 34.1368 8.49219 33.6446C8.49219 33.1524 8.59677 32.666 8.79952 32.2175C9.00228 31.769 9.29817 31.3688 9.66768 31.0437L24.9094 20.3695C25.7993 19.7209 26.8719 19.3716 27.9731 19.3716C29.0743 19.3716 30.1469 19.7209 31.0368 20.3695L46.2781 31.0437C46.6476 31.3688 46.944 31.769 47.1467 32.2175C47.3495 32.666 47.4541 33.1524 47.4541 33.6446C47.4541 34.1368 47.3495 34.6233 47.1467 35.0718C46.944 35.5203 46.6476 35.9204 46.2781 36.2455L31.0368 46.9093C30.1469 47.5578 29.0743 47.9073 27.9731 47.9073C26.8719 47.9073 25.7993 47.5578 24.9094 46.9093Z" fill="#56D690"/>
<path d="M91.1497 94.3806L75.9079 83.7064C75.5384 83.3813 75.2425 82.9812 75.0398 82.5327C74.837 82.0843 74.7324 81.5977 74.7324 81.1055C74.7324 80.6134 74.837 80.1269 75.0398 79.6785C75.2425 79.23 75.5384 78.8297 75.9079 78.5046L91.1497 67.8306C92.0396 67.182 93.1122 66.8325 94.2134 66.8325C95.3145 66.8325 96.3871 67.182 97.2771 67.8306L112.519 78.4319C112.888 78.757 113.184 79.1571 113.387 79.6056C113.59 80.054 113.694 80.5406 113.694 81.0328C113.694 81.5249 113.59 82.0115 113.387 82.46C113.184 82.9084 112.888 83.3086 112.519 83.6337L97.2771 94.3078C96.3949 94.9671 95.3262 95.3293 94.225 95.3424C93.1238 95.3554 92.0473 95.0187 91.1497 94.3806Z" fill="#56D690"/>
<path d="M24.4915 94.1309L9.25022 83.4672C8.88071 83.142 8.58482 82.7419 8.38206 82.2935C8.17931 81.845 8.07422 81.3584 8.07422 80.8663C8.07422 80.3741 8.17931 79.8875 8.38206 79.4391C8.58482 78.9906 8.88071 78.5905 9.25022 78.2653L24.4915 67.5912C25.3804 66.945 26.4511 66.5969 27.5501 66.5969C28.6491 66.5969 29.7203 66.945 30.6092 67.5912L45.8504 78.2653C46.223 78.5886 46.5215 78.9882 46.7262 79.4369C46.931 79.8856 47.0371 80.373 47.0371 80.8663C47.0371 81.3595 46.931 81.847 46.7262 82.2957C46.5215 82.7445 46.223 83.1439 45.8504 83.4672L30.6402 94.1309C29.7483 94.7843 28.6714 95.1366 27.5658 95.1366C26.4602 95.1366 25.3833 94.7843 24.4915 94.1309Z" fill="#56D690"/>
<path d="M95.2903 46.909L80.049 36.2452C79.6795 35.9201 79.3831 35.52 79.1804 35.0715C78.9776 34.6231 78.873 34.1365 78.873 33.6443C78.873 33.1522 78.9776 32.6657 79.1804 32.2173C79.3831 31.7688 79.6795 31.3685 80.049 31.0434L95.2903 20.3693C96.1792 19.7231 97.2499 19.375 98.3489 19.375C99.4479 19.375 100.519 19.7231 101.408 20.3693L116.659 31.0434C117.029 31.3685 117.325 31.7688 117.528 32.2173C117.73 32.6657 117.835 33.1522 117.835 33.6443C117.835 34.1365 117.73 34.6231 117.528 35.0715C117.325 35.52 117.029 35.9201 116.659 36.2452L101.387 46.909C100.5 47.5504 99.4328 47.8958 98.3382 47.8958C97.2436 47.8958 96.1773 47.5504 95.2903 46.909Z" fill="#56D690"/>
</svg>
