<svg width="125" height="125" viewBox="0 0 125 125" fill="none" xmlns="http://www.w3.org/2000/svg">
<path d="M52.847 76.5151L4.64325 47.1254C-0.435772 44.0218 -0.435772 35.7456 4.64325 32.6421L52.847 3.2523C55.7522 1.43716 59.109 0.474731 62.5347 0.474731C65.9604 0.474731 69.3173 1.43716 72.2225 3.2523L120.426 32.6421C125.493 35.7456 125.493 44.0218 120.426 47.1254L72.2225 76.5151C69.3153 78.325 65.9593 79.2843 62.5347 79.2843C59.1102 79.2843 55.7541 78.325 52.847 76.5151V76.5151Z" fill="#092D2E"/>
<path d="M62.5353 101.485C58.7288 101.468 55.0014 100.398 51.766 98.3928L0.411212 67.0398C0.218968 66.9205 0.0808821 66.7311 0.0260096 66.5116C-0.0288628 66.2921 0.00379456 66.0599 0.117287 65.8642C0.23857 65.6743 0.428217 65.538 0.646869 65.4833C0.86552 65.4286 1.09658 65.4598 1.29299 65.5703L52.6478 96.9233C55.6031 98.7672 59.0165 99.7448 62.5 99.7448C65.9835 99.7448 69.3972 98.7672 72.3525 96.9233L123.707 65.5703C123.903 65.4598 124.135 65.4286 124.353 65.4833C124.572 65.538 124.761 65.6743 124.883 65.8642C124.996 66.0599 125.029 66.2921 124.974 66.5116C124.919 66.7311 124.781 66.9205 124.589 67.0398L73.2343 98.3928C70.0198 100.387 66.3179 101.456 62.5353 101.485V101.485Z" fill="#56D690"/>
<path d="M62.5353 124.385C58.7299 124.373 55.0023 123.307 51.766 121.305L0.411212 89.9522C0.218968 89.8329 0.0808821 89.6434 0.0260096 89.4239C-0.0288628 89.2045 0.00379456 88.9723 0.117287 88.7766C0.236573 88.5843 0.426231 88.4461 0.645721 88.3913C0.865211 88.3364 1.09727 88.3692 1.29299 88.4827L52.6478 119.836C55.6031 121.68 59.0165 122.657 62.5 122.657C65.9835 122.657 69.3972 121.68 72.3525 119.836L123.707 88.4827C123.903 88.3692 124.135 88.3364 124.354 88.3913C124.574 88.4461 124.763 88.5843 124.883 88.7766C124.996 88.9723 125.029 89.2045 124.974 89.4239C124.919 89.6434 124.781 89.8329 124.589 89.9522L73.2343 121.305C70.0189 123.295 66.3169 124.361 62.5353 124.385V124.385Z" fill="#56D690"/>
<path d="M74.6335 36.5568L66.4036 37.462C66.1735 37.5038 65.9371 37.4968 65.7098 37.4415C65.4826 37.3861 65.2695 37.2837 65.0844 37.1407C64.8993 36.9977 64.7461 36.8174 64.6352 36.6115C64.5242 36.4056 64.4576 36.1787 64.44 35.9455L65.6157 15.6195C65.698 14.1853 63.4055 13.4917 62.5473 14.7025L46.4167 37.3915C45.7113 38.3672 46.7812 39.6603 48.1685 39.5075L56.3984 38.5905C56.6292 38.5505 56.8657 38.5592 57.093 38.616C57.3203 38.6729 57.5333 38.7765 57.7182 38.9204C57.903 39.0643 58.0557 39.2452 58.1665 39.4516C58.2774 39.658 58.3439 39.8852 58.3617 40.1188L57.186 60.4448C57.1037 61.879 59.3965 62.5608 60.2547 61.3617L76.3853 38.6728C77.0907 37.6971 76.0208 36.4039 74.6335 36.5568Z" fill="#56D690"/>
</svg>
