<svg width="125" height="126" viewBox="0 0 125 126" fill="none" xmlns="http://www.w3.org/2000/svg">
<path d="M44.4696 44.2252C44.4426 44.3116 44.4363 44.4032 44.4513 44.4924C44.4663 44.5817 44.5023 44.6662 44.5561 44.739C44.6098 44.8119 44.68 44.871 44.7608 44.9117C44.8417 44.9524 44.9307 44.9735 45.0212 44.9732H61.0576C61.2104 44.9732 61.3569 44.9125 61.4649 44.8044C61.573 44.6963 61.6338 44.5497 61.6338 44.3969V29.3014C61.6356 29.2231 61.6211 29.1453 61.5912 29.0729C61.5614 29.0005 61.517 28.9351 61.4604 28.8809C61.4039 28.8267 61.3368 28.7848 61.2632 28.758C61.1896 28.7312 61.1112 28.72 61.033 28.7251C57.3353 28.8487 53.7988 30.268 51.0411 32.735C47.8351 35.8871 45.561 39.8632 44.4696 44.2252Z" fill="#092D2E"/>
<path d="M43.6243 47.5728C42.6877 52.2237 42.2073 56.9551 42.19 61.6994C42.1867 61.7771 42.199 61.8547 42.2265 61.9275C42.254 62.0003 42.296 62.0667 42.3498 62.1229C42.4037 62.179 42.4683 62.2237 42.5399 62.2542C42.6114 62.2847 42.6884 62.3003 42.7662 62.3003H61.0582C61.211 62.3003 61.3575 62.2395 61.4656 62.1315C61.5736 62.0234 61.6344 61.8768 61.6344 61.7239V47.6954C61.6312 47.5446 61.5691 47.4012 61.4614 47.2957C61.3536 47.1903 61.2089 47.1312 61.0582 47.1313H44.1882C44.0582 47.1304 43.9317 47.1736 43.8294 47.2537C43.727 47.3339 43.6547 47.4463 43.6243 47.5728Z" fill="#092D2E"/>
<path d="M61.0584 98.0218C61.1361 98.0251 61.2137 98.0127 61.2865 97.9852C61.3592 97.9577 61.4258 97.9158 61.4819 97.8619C61.5381 97.8081 61.5826 97.7434 61.613 97.6718C61.6435 97.6003 61.6592 97.5233 61.6591 97.4455V81.2587C61.6591 81.1058 61.5984 80.9592 61.4903 80.8511C61.3822 80.743 61.2358 80.6823 61.0829 80.6823H44.7278C44.6398 80.6845 44.5536 80.7068 44.4755 80.7476C44.3974 80.7884 44.3294 80.8466 44.2773 80.9177C44.2252 80.9887 44.1904 81.0708 44.175 81.1575C44.1595 81.2443 44.1641 81.3334 44.1884 81.4181C45.6351 86.875 47.8665 91.0443 50.9192 93.8525C53.6909 96.4115 57.2886 97.8909 61.0584 98.0218Z" fill="#092D2E"/>
<path d="M63.7814 44.409C63.7814 44.5619 63.8421 44.7084 63.9502 44.8165C64.0583 44.9246 64.2048 44.9853 64.3576 44.9853H80.3939C80.4844 44.9856 80.5738 44.9645 80.6546 44.9239C80.7355 44.8832 80.8056 44.824 80.8594 44.7512C80.9131 44.6783 80.9488 44.5938 80.9638 44.5045C80.9788 44.4153 80.9725 44.3238 80.9456 44.2373C79.8501 39.8742 77.5721 35.8981 74.362 32.7471C71.6055 30.2783 68.068 28.8588 64.3699 28.7372C64.2927 28.7339 64.2157 28.7464 64.1436 28.774C64.0715 28.8016 64.006 28.8437 63.9508 28.8977C63.8956 28.9518 63.8521 29.0165 63.823 29.0881C63.7939 29.1596 63.7796 29.2364 63.7814 29.3136V44.409Z" fill="#092D2E"/>
<path d="M85.9353 64.4464C85.7867 64.4496 85.645 64.51 85.5399 64.6151C85.4348 64.7202 85.3745 64.8619 85.3713 65.0105C85.3453 69.3569 84.9803 73.6948 84.28 77.9845C84.2698 78.0663 84.2765 78.1494 84.2998 78.2285C84.3231 78.3076 84.3624 78.3811 84.4153 78.4444C84.4682 78.5077 84.5337 78.5594 84.6075 78.5963C84.6812 78.6332 84.7616 78.6545 84.8439 78.6589C87.9971 78.6534 91.1279 79.1885 94.1004 80.2408C94.236 80.3067 94.3919 80.318 94.5356 80.2724C94.6793 80.2267 94.8001 80.1276 94.8729 79.9956C97.2795 75.3614 98.6592 70.2629 98.9186 65.0473C98.9202 64.97 98.9068 64.8931 98.8787 64.8211C98.8507 64.7491 98.8086 64.6833 98.7551 64.6275C98.7016 64.5717 98.6376 64.527 98.5669 64.4959C98.4961 64.4648 98.4196 64.448 98.3424 64.4464H85.9353Z" fill="#092D2E"/>
<path d="M83.2124 44.4458C83.2526 44.5794 83.3356 44.6962 83.4486 44.7782C83.5615 44.8601 83.6982 44.9027 83.8377 44.8995C86.7726 44.9013 89.6948 44.5179 92.5299 43.7591C92.6128 43.7289 92.688 43.6805 92.7496 43.6173C92.8113 43.5542 92.8579 43.4781 92.8861 43.3945C92.9144 43.3109 92.9235 43.222 92.9128 43.1344C92.902 43.0468 92.8718 42.9627 92.8242 42.8884C88.4253 36.3117 82.0105 31.3413 74.5444 28.725C74.4164 28.689 74.2798 28.6985 74.158 28.7517C74.0361 28.805 73.9364 28.8988 73.8757 29.0171C73.8151 29.1355 73.7975 29.2712 73.8255 29.4012C73.8535 29.5312 73.9256 29.6476 74.0296 29.7305C77.5605 32.2076 81.0546 36.6099 83.2124 44.4458Z" fill="#092D2E"/>
<path d="M83.9969 47.7201C84.8854 52.3357 85.3452 57.0237 85.3702 61.7241C85.3702 61.8748 85.4291 62.0196 85.5345 62.1274C85.64 62.2351 85.7834 62.2972 85.9341 62.3004H98.3535C98.4324 62.3006 98.5107 62.2846 98.5831 62.2533C98.6555 62.2221 98.7206 62.1763 98.7746 62.1189C98.8287 62.0614 98.8704 61.9934 98.8971 61.9192C98.9238 61.8449 98.9347 61.766 98.9297 61.6873C98.7207 56.1309 97.2359 50.6972 94.5899 45.8071C94.5175 45.6811 94.4008 45.5863 94.2627 45.541C94.1246 45.4957 93.9748 45.5031 93.8419 45.5618C90.8399 46.5346 87.7041 47.0311 84.5486 47.0334C84.4647 47.0354 84.3825 47.0557 84.3073 47.0928C84.2321 47.13 84.1659 47.1831 84.1134 47.2485C84.0608 47.3139 84.0233 47.39 84.0032 47.4714C83.9831 47.5529 83.9809 47.6377 83.9969 47.7201Z" fill="#092D2E"/>
<path d="M43.3911 78.0826C43.417 78.2156 43.4889 78.3353 43.5943 78.4205C43.6997 78.5057 43.8317 78.5511 43.9672 78.5486H61.0578C61.1335 78.5486 61.2085 78.5337 61.2784 78.5047C61.3483 78.4757 61.4117 78.4333 61.4652 78.3797C61.5187 78.3262 61.5613 78.2627 61.5903 78.1928C61.6192 78.1229 61.634 78.0479 61.634 77.9722V65.0228C61.634 64.8699 61.5732 64.7233 61.4652 64.6152C61.3571 64.5072 61.2106 64.4464 61.0578 64.4464H42.7658C42.6891 64.4464 42.6129 64.4617 42.5422 64.4914C42.4715 64.5212 42.4076 64.5647 42.3539 64.6195C42.3002 64.6744 42.2579 64.7394 42.2297 64.8107C42.2015 64.882 42.188 64.9583 42.1896 65.0351C42.2179 69.4105 42.6198 73.7755 43.3911 78.0826Z" fill="#092D2E"/>
<path d="M41.2096 77.9599C40.4639 73.6831 40.0744 69.3517 40.0449 65.0105C40.0418 64.8618 39.9812 64.7202 39.8761 64.6151C39.771 64.51 39.6293 64.4495 39.4807 64.4464H26.7303C26.6504 64.4445 26.571 64.4593 26.4971 64.4898C26.4232 64.5203 26.3564 64.5658 26.301 64.6234C26.2457 64.6811 26.2031 64.7496 26.1756 64.8247C26.1482 64.8998 26.1367 64.9797 26.1418 65.0595C26.4009 70.3179 27.8026 75.4566 30.2491 80.1181C30.322 80.2502 30.4418 80.35 30.5849 80.3977C30.728 80.4454 30.8838 80.4376 31.0213 80.3757C32.8236 79.4437 36.0601 78.8674 40.6822 78.6466C40.7632 78.6394 40.842 78.6153 40.9132 78.5761C40.9845 78.5369 41.0469 78.4834 41.0964 78.4188C41.146 78.3543 41.1814 78.2802 41.2009 78.2012C41.2203 78.1222 41.2234 78.0401 41.2096 77.9599Z" fill="#092D2E"/>
<path d="M42.0074 81.6141C41.9457 81.3713 41.8024 81.1571 41.6015 81.0075C41.4006 80.8579 41.1543 80.782 40.9041 80.7925C38.1554 80.8132 35.4216 81.2009 32.7755 81.9452C32.6251 81.9945 32.4883 82.0778 32.3753 82.1887C32.2623 82.2995 32.1763 82.435 32.1241 82.5844C32.072 82.7339 32.0547 82.8933 32.0742 83.0504C32.0936 83.2076 32.1491 83.358 32.2361 83.4903C36.5709 89.9346 42.8448 94.8309 50.1483 97.4698C50.2738 97.5079 50.4084 97.5021 50.5302 97.4532C50.652 97.4043 50.7535 97.3153 50.8179 97.2009C50.8822 97.0865 50.9058 96.9536 50.8843 96.8241C50.8628 96.6946 50.7977 96.5763 50.6999 96.4888C47.2793 93.8523 44.0058 89.3396 42.0074 81.6141Z" fill="#092D2E"/>
<path d="M40.866 47.0211C36.3624 46.8086 33.1665 46.2731 31.2785 45.4147C31.1479 45.3491 30.9971 45.3367 30.8576 45.3801C30.7181 45.4236 30.601 45.5195 30.5308 45.6477C27.822 50.5804 26.2982 56.076 26.0802 61.6996C26.0786 61.7779 26.0927 61.8558 26.1215 61.9286C26.1504 62.0015 26.1933 62.0678 26.2481 62.1238C26.3029 62.1797 26.3684 62.2242 26.4406 62.2545C26.5128 62.2849 26.5903 62.3005 26.6687 62.3005H39.4804C39.6311 62.2973 39.7746 62.2351 39.88 62.1274C39.9855 62.0196 40.0447 61.8749 40.0447 61.7241C40.0703 57.0197 40.5299 52.3277 41.4176 47.7078C41.4316 47.6257 41.4281 47.5416 41.4072 47.4611C41.3862 47.3805 41.3483 47.3052 41.2961 47.2403C41.244 47.1754 41.1787 47.1223 41.1046 47.0845C41.0304 47.0468 40.9491 47.0251 40.866 47.0211Z" fill="#092D2E"/>
<path d="M81.3992 81.4181C81.4192 81.3334 81.42 81.2453 81.4019 81.1602C81.3838 81.0751 81.3469 80.995 81.2941 80.9258C81.2414 80.8566 81.1742 80.8 81.0969 80.76C81.0196 80.72 80.9342 80.6977 80.8473 80.6946H64.3574C64.2046 80.6946 64.0581 80.7553 63.9501 80.8634C63.842 80.9715 63.7812 81.118 63.7812 81.2709V97.4945C63.7812 97.6474 63.842 97.794 63.9501 97.902C64.0581 98.0101 64.2046 98.0709 64.3574 98.0709C68.5872 97.9973 77.525 97.0653 81.3992 81.4181Z" fill="#092D2E"/>
<path d="M84.3529 80.7804C84.1938 80.7755 84.0379 80.8251 83.9108 80.921C83.7837 81.0169 83.693 81.1533 83.654 81.3076C81.9499 88.5672 79.1915 93.0431 76.2001 95.7899C76.0926 95.8791 76.0219 96.0051 76.0019 96.1433C75.9819 96.2816 76.0139 96.4224 76.0917 96.5384C76.1695 96.6544 76.2876 96.7374 76.423 96.7713C76.5585 96.8052 76.7021 96.7876 76.8253 96.7219C83.5411 93.8524 89.2452 89.0395 93.2047 82.9018C93.2523 82.8285 93.2826 82.7453 93.2933 82.6585C93.304 82.5717 93.295 82.4837 93.2667 82.401C93.2383 82.3182 93.1916 82.2431 93.1299 82.1811C93.0682 82.1192 92.993 82.0721 92.9105 82.0434C90.1352 81.2053 87.2519 80.7797 84.3529 80.7804Z" fill="#092D2E"/>
<path d="M82.0978 78.0826C82.824 73.7708 83.2014 69.4075 83.2259 65.0351C83.226 64.881 83.1655 64.7331 83.0577 64.6231C82.95 64.5131 82.8037 64.4496 82.6498 64.4464H64.3574C64.2046 64.4464 64.0581 64.5072 63.9501 64.6152C63.842 64.7233 63.7813 64.8699 63.7812 65.0228V77.96C63.7812 78.1128 63.842 78.2594 63.9501 78.3675C64.0581 78.4756 64.2046 78.5363 64.3574 78.5363H81.5216C81.656 78.5418 81.788 78.4991 81.8937 78.4159C81.9993 78.3327 82.0716 78.2145 82.0978 78.0826Z" fill="#092D2E"/>
<path d="M41.5766 44.8995C41.715 44.9043 41.8508 44.862 41.9621 44.7796C42.0734 44.6972 42.1537 44.5796 42.1896 44.4458C44.4332 36.3401 48.0865 31.901 51.7768 29.473C51.886 29.3928 51.9635 29.2767 51.9956 29.145C52.0277 29.0134 52.0125 28.8747 51.9525 28.7532C51.8925 28.6317 51.7916 28.5352 51.6676 28.4807C51.5435 28.4262 51.4043 28.4172 51.2743 28.4552C43.5283 30.979 36.8454 36.015 32.2833 42.7658C32.2352 42.8375 32.2038 42.9192 32.1914 43.0047C32.1791 43.0902 32.1862 43.1774 32.2121 43.2598C32.238 43.3422 32.2821 43.4178 32.3411 43.4809C32.4001 43.5439 32.4725 43.5929 32.553 43.6242C35.4823 44.4884 38.5226 44.918 41.5766 44.8995Z" fill="#092D2E"/>
<path d="M81.7913 47.5605C81.7634 47.4351 81.6935 47.3229 81.5932 47.2427C81.4928 47.1624 81.3681 47.1188 81.2397 47.1191H64.3574C64.2067 47.119 64.062 47.1781 63.9543 47.2835C63.8465 47.389 63.7845 47.5325 63.7812 47.6832V61.7117C63.7812 61.8646 63.842 62.0112 63.9501 62.1193C64.0581 62.2274 64.2046 62.2881 64.3574 62.2881H82.6498C82.727 62.2865 82.8032 62.2697 82.8739 62.2386C82.9447 62.2076 83.0087 62.1628 83.0622 62.107C83.1157 62.0512 83.1578 61.9854 83.1858 61.9134C83.2139 61.8414 83.2276 61.7645 83.2259 61.6872C83.2016 56.9432 82.721 52.2126 81.7913 47.5605Z" fill="#092D2E"/>
<path d="M115.433 95.471C115.269 95.4723 115.108 95.43 114.967 95.3484C114.764 95.2258 114.617 95.0299 114.556 94.8016C114.494 94.5732 114.523 94.3299 114.636 94.1221C122.713 80.6052 125.182 64.4641 121.517 49.1498C117.851 33.8354 108.341 20.5631 95.0195 12.1703C83.4892 4.7617 69.7785 1.50557 56.1492 2.93901C42.5199 4.37245 29.7863 10.4099 20.0489 20.0553C19.8765 20.2275 19.6428 20.3242 19.3991 20.3242C19.1554 20.3242 18.9217 20.2275 18.7493 20.0553C18.5771 19.8828 18.4805 19.6491 18.4805 19.4053C18.4805 19.1616 18.5771 18.9279 18.7493 18.7554C28.7831 8.82177 41.9012 2.60361 55.9415 1.12572C69.9818 -0.352166 84.1066 2.99839 95.9881 10.6252C109.707 19.2692 119.504 32.9357 123.286 48.7062C127.068 64.4767 124.536 81.1013 116.23 95.0296C116.147 95.166 116.029 95.2785 115.89 95.3559C115.75 95.4333 115.592 95.473 115.433 95.471Z" fill="#56D690"/>
<path d="M111.768 85.5261L113.558 85.0846L115.703 93.9015L124.334 91.1056L124.898 92.8592L114.391 96.256L111.768 85.5261Z" fill="#56D690"/>
<path d="M62.3832 125.686C50.551 125.67 38.9708 122.266 29.0111 115.876C15.285 107.226 5.48587 93.5484 1.70811 77.7674C-2.06964 61.9863 0.473687 45.3533 8.79421 31.4228C8.91874 31.2226 9.1153 31.0779 9.34346 31.0186C9.57162 30.9592 9.81396 30.9898 10.0202 31.104C10.2228 31.2264 10.3692 31.4232 10.4288 31.6523C10.4883 31.8814 10.456 32.1247 10.3387 32.3303C2.26421 45.8499 -0.203874 61.9918 3.46153 77.3073C7.12693 92.6227 16.6351 105.897 29.9549 114.294C36.6841 118.606 44.205 121.532 52.0779 122.903C59.9508 124.273 68.0181 124.061 75.808 122.277C76.0453 122.222 76.2949 122.264 76.5018 122.392C76.7087 122.521 76.8558 122.727 76.9113 122.964C76.9384 123.082 76.9419 123.205 76.9214 123.325C76.9009 123.445 76.8568 123.559 76.7918 123.662C76.7269 123.764 76.6422 123.853 76.5428 123.923C76.4434 123.992 76.3312 124.042 76.2126 124.068C71.677 125.118 67.0387 125.661 62.3832 125.686Z" fill="#56D690"/>
<path d="M13.2453 40.9632L11.4676 41.3923L9.32205 32.5877L0.690909 35.3714L0.126953 33.6178L10.6339 30.221L13.2453 40.9632Z" fill="#56D690"/>
<path d="M98.6611 122.817V125.784H95.069V122.817C93.1281 122.656 91.3119 121.794 89.9587 120.393C88.6054 118.992 87.8073 117.147 87.7129 115.202H92.2859C92.4453 117.654 94.2108 119.187 96.9571 119.187C99.0781 119.187 100.782 118.304 100.782 116.121C100.812 115.438 100.572 114.77 100.113 114.263C99.6538 113.755 99.0131 113.449 98.3301 113.411L93.279 112.308C91.8722 112.12 90.5841 111.42 89.663 110.34C88.7418 109.26 88.2525 107.877 88.2891 106.458C88.2891 102.78 90.9373 100.327 95.0812 99.9591V97.0651H98.6734V100.131C102.425 100.891 104.804 103.479 105.012 106.924H100.476C100.341 104.705 98.6736 103.662 96.4054 103.662C94.4806 103.662 92.9234 104.423 92.9234 106.225C92.9014 106.773 93.0878 107.31 93.4449 107.726C93.802 108.142 94.3034 108.408 94.8484 108.469L99.7524 109.598C102.866 110.297 105.269 111.964 105.269 115.815C105.319 119.862 102.511 122.228 98.6611 122.817Z" fill="#092D2E"/>
</svg>
