<svg width="129" height="116" viewBox="0 0 129 116" fill="none" xmlns="http://www.w3.org/2000/svg">
<path d="M114.969 78.9073H13.818C12.1634 78.9105 10.5664 78.2939 9.33727 77.1772C8.10809 76.0605 7.33425 74.5232 7.1658 72.8638L0.590395 9.22603C0.493794 8.28657 0.59371 7.33708 0.883902 6.43903C1.17409 5.54098 1.64795 4.71435 2.27491 4.01252C2.90188 3.31068 3.66804 2.74937 4.5237 2.36472C5.37937 1.98008 6.30571 1.78069 7.24259 1.77954H121.545C122.482 1.78069 123.408 1.98008 124.264 2.36472C125.119 2.74937 125.886 3.31068 126.512 4.01252C127.139 4.71435 127.613 5.54098 127.903 6.43903C128.194 7.33708 128.294 8.28657 128.197 9.22603L121.622 72.8638C121.453 74.5232 120.679 76.0605 119.45 77.1772C118.221 78.2939 116.624 78.9105 114.969 78.9073ZM7.24259 3.43677C6.53655 3.43966 5.83858 3.59045 5.19339 3.87954C4.5482 4.16863 3.96967 4.58973 3.49442 5.11613C3.02277 5.64614 2.667 6.27018 2.44989 6.94774C2.23279 7.62531 2.15929 8.34121 2.23425 9.04923L8.80965 72.6982C8.93483 73.9484 9.5168 75.1068 10.4425 75.9482C11.3683 76.7896 12.5716 77.2536 13.818 77.25H114.969C116.216 77.2536 117.419 76.7896 118.345 75.9482C119.271 75.1068 119.853 73.9484 119.978 72.6982L126.553 9.04923C126.628 8.34121 126.555 7.62531 126.337 6.94774C126.12 6.27018 125.765 5.64614 125.293 5.11613C124.818 4.58973 124.239 4.16863 123.594 3.87954C122.949 3.59045 122.251 3.43966 121.545 3.43677H7.24259Z" fill="#56D690"/>
<path d="M95.9781 113.112H32.8103C28.3281 113.112 24.8213 109.511 25.2377 105.378L30.8925 49.3309C31.2239 46.9196 32.428 44.717 34.273 43.1466C36.118 41.5762 38.4737 40.7488 40.8872 40.8236H87.9561C90.3696 40.7488 92.7253 41.5762 94.5703 43.1466C96.4152 44.717 97.6194 46.9196 97.9508 49.3309L103.606 105.378C103.967 109.511 100.46 113.112 95.9781 113.112Z" fill="#56D690"/>
<path d="M88.5691 86.6413H39.8345C39.1185 86.6524 38.408 86.5137 37.7478 86.2342C37.0877 85.9546 36.4922 85.5402 35.9988 85.0171C35.6113 84.6009 35.3136 84.1081 35.125 83.5699C34.9363 83.0317 34.8608 82.4598 34.9029 81.8905L37.0947 51.762C37.2625 50.5784 37.8618 49.5003 38.7758 48.7383C39.6897 47.9763 40.8526 47.585 42.0373 47.641H86.4103C87.5921 47.585 88.7521 47.9751 89.664 48.7351C90.5759 49.495 91.1741 50.5702 91.3418 51.7509L93.5336 81.8905C93.5784 82.46 93.5038 83.0326 93.315 83.5712C93.1262 84.1099 92.8275 84.6025 92.4377 85.0171C91.9414 85.5455 91.3406 85.963 90.6743 86.2428C90.0079 86.5225 89.2908 86.6584 88.5691 86.6413ZM42.0153 49.2983C41.2482 49.2477 40.4894 49.4831 39.8832 49.9598C39.277 50.4365 38.8657 51.1211 38.7276 51.8835L36.5358 82.012C36.5123 82.3564 36.5594 82.702 36.6744 83.0271C36.7894 83.3521 36.9698 83.6497 37.2042 83.9013C37.5427 84.2591 37.9514 84.5421 38.4041 84.7323C38.8569 84.9225 39.3441 85.0157 39.8345 85.0061H88.5691C89.0578 85.0148 89.543 84.9211 89.9939 84.7309C90.4447 84.5408 90.8513 84.2582 91.1882 83.9013C91.4254 83.6534 91.6084 83.3584 91.7255 83.0349C91.8425 82.7114 91.891 82.3667 91.8678 82.0231L89.676 51.8725C89.54 51.1098 89.1288 50.425 88.5218 49.9497C87.9148 49.4744 87.1549 49.2424 86.3883 49.2983H42.0153Z" fill="#092D2E"/>
<path d="M76.6571 105.003H52.131C51.7114 105.003 51.309 104.836 51.0113 104.538C50.7136 104.24 50.5449 103.835 50.542 103.412V102.307C50.542 101.882 50.7093 101.475 51.0073 101.175C51.3053 100.874 51.7096 100.705 52.131 100.705H76.6571C77.0786 100.705 77.4828 100.874 77.7808 101.175C78.0788 101.475 78.2461 101.882 78.2461 102.307V103.412C78.2432 103.835 78.0745 104.24 77.7768 104.538C77.4791 104.836 77.0767 105.003 76.6571 105.003ZM76.6023 102.274H52.131L52.1858 103.379L76.6023 103.313V102.274Z" fill="#092D2E"/>
<path d="M65.576 75.5597V77.7694H62.9457V75.5597C61.5215 75.4483 60.1867 74.8166 59.1919 73.7831C58.1971 72.7497 57.6108 71.3856 57.543 69.9471H60.8855C60.9022 70.3723 61.0059 70.7895 61.1903 71.1723C61.3747 71.555 61.6359 71.8951 61.9571 72.1712C62.2783 72.4473 62.6527 72.6533 63.0567 72.7764C63.4608 72.8994 63.8855 72.9367 64.3046 72.886C65.8498 72.886 67.0992 72.2342 67.0992 70.6764C67.1203 70.1755 66.9466 69.686 66.6149 69.3125C66.2833 68.9389 65.8201 68.7108 65.324 68.6767L61.6307 67.8591C60.6025 67.7254 59.66 67.2119 58.9859 66.418C58.3117 65.624 57.9537 64.6061 57.9812 63.5614C57.9812 60.8766 59.921 59.0648 62.9457 58.7554V56.623H65.576V58.8327C66.8069 58.9922 67.9442 59.5791 68.7923 60.4925C69.6403 61.4059 70.1461 62.5888 70.2226 63.8376H66.9349C66.8472 62.2135 65.6199 61.4401 63.9651 61.4401C62.5514 61.4401 61.4225 62.0035 61.4225 63.3293C61.4035 63.7324 61.5384 64.1276 61.7992 64.4337C62.0601 64.7398 62.4272 64.9336 62.8253 64.9754L66.4525 65.8151C68.7429 66.3344 70.4966 67.5608 70.4966 70.4002C70.4199 73.4163 68.3925 75.162 65.576 75.5597Z" fill="#092D2E"/>
</svg>
