<svg width="125" height="125" viewBox="0 0 125 125" fill="none" xmlns="http://www.w3.org/2000/svg">
<path d="M52.847 76.8225L4.64325 47.4328C-0.435772 44.3292 -0.435772 36.053 4.64325 32.9495L52.847 3.55971C55.7522 1.74457 59.109 0.782104 62.5347 0.782104C65.9604 0.782104 69.3173 1.74457 72.2225 3.55971L120.426 32.9495C125.493 36.053 125.493 44.3292 120.426 47.4328L72.2225 76.8225C69.3153 78.6324 65.9593 79.5917 62.5347 79.5917C59.1101 79.5917 55.7541 78.6324 52.847 76.8225Z" fill="#56D690"/>
<path d="M62.5353 101.792C58.7288 101.776 55.0014 100.706 51.766 98.7003L0.411212 67.3473C0.218968 67.228 0.0808821 67.0385 0.0260096 66.8191C-0.0288628 66.5996 0.00379456 66.3674 0.117287 66.1717C0.23857 65.9818 0.428217 65.8454 0.646869 65.7908C0.86552 65.7361 1.09658 65.7673 1.29299 65.8778L52.6478 97.2308C55.6031 99.0747 59.0165 100.052 62.5 100.052C65.9835 100.052 69.3972 99.0747 72.3525 97.2308L123.707 65.8778C123.903 65.7673 124.135 65.7361 124.353 65.7908C124.572 65.8454 124.761 65.9818 124.883 66.1717C124.996 66.3674 125.029 66.5996 124.974 66.8191C124.919 67.0385 124.781 67.228 124.589 67.3473L73.2343 98.7003C70.0198 100.694 66.3179 101.764 62.5353 101.792Z" fill="#56D690"/>
<path d="M62.5353 124.693C58.7299 124.68 55.0023 123.614 51.766 121.613L0.411212 90.2596C0.218968 90.1403 0.0808821 89.9508 0.0260096 89.7314C-0.0288628 89.5119 0.00379456 89.2797 0.117287 89.084C0.236573 88.8918 0.426231 88.7536 0.645721 88.6987C0.865211 88.6438 1.09727 88.6766 1.29299 88.7901L52.6478 120.143C55.6031 121.987 59.0165 122.965 62.5 122.965C65.9835 122.965 69.3972 121.987 72.3525 120.143L123.707 88.7901C123.903 88.6766 124.135 88.6438 124.354 88.6987C124.574 88.7536 124.763 88.8918 124.883 89.084C124.996 89.2797 125.029 89.5119 124.974 89.7314C124.919 89.9508 124.781 90.1403 124.589 90.2596L73.2343 121.613C70.0189 123.603 66.3169 124.669 62.5353 124.693Z" fill="#56D690"/>
<path d="M74.6335 36.8642L66.4036 37.7693C66.1735 37.8112 65.9371 37.8042 65.7098 37.7489C65.4826 37.6935 65.2695 37.591 65.0844 37.448C64.8993 37.3051 64.7461 37.1248 64.6352 36.9189C64.5242 36.713 64.4576 36.4861 64.44 36.2529L65.6157 15.9269C65.698 14.4927 63.4055 13.7991 62.5473 15.0099L46.4167 37.6988C45.7113 38.6745 46.7812 39.9678 48.1685 39.8149L56.3984 38.8979C56.6292 38.8579 56.8657 38.8666 57.093 38.9234C57.3203 38.9802 57.5333 39.0839 57.7182 39.2278C57.903 39.3717 58.0557 39.5527 58.1665 39.759C58.2774 39.9654 58.3439 40.1926 58.3617 40.4262L57.186 60.7522C57.1037 62.1864 59.3965 62.8682 60.2547 61.6691L76.3853 38.9802C77.0907 38.0045 76.0208 36.7114 74.6335 36.8642Z" fill="#092D2E"/>
</svg>
