<svg width="130" height="134" viewBox="0 0 130 134" fill="none" xmlns="http://www.w3.org/2000/svg">
<path d="M28.4521 125.52C25.9239 125.516 23.4757 124.632 21.5287 123.019C19.5816 121.407 18.2572 119.166 17.7831 116.683L1.12351 29.2024C0.596973 26.3768 1.21063 23.4577 2.82975 21.0829C4.44888 18.7082 6.94182 17.0711 9.76442 16.529L52.151 8.46419C54.9765 7.93765 57.8957 8.55088 60.2704 10.17C62.6451 11.7891 64.2823 14.2825 64.8243 17.1051L81.4958 104.586C82.022 107.413 81.4071 110.333 79.7856 112.708C78.1641 115.083 75.6677 116.719 72.843 117.259L30.4683 125.324C29.8041 125.454 29.1289 125.519 28.4521 125.52ZM54.1903 9.9388C53.6141 9.93588 53.0394 9.98992 52.4739 10.1001L10.0986 18.165C8.91593 18.3861 7.78869 18.839 6.78173 19.4975C5.77478 20.156 4.9084 21.0071 4.23165 22.0019C3.55491 22.9967 3.08144 24.1154 2.83876 25.2938C2.59607 26.4723 2.58876 27.687 2.81738 28.8682L19.4883 116.337C19.7095 117.519 20.1621 118.645 20.8198 119.651C21.4776 120.657 22.3275 121.523 23.321 122.2C24.3145 122.876 25.432 123.35 26.6091 123.594C27.7862 123.837 28.9999 123.846 30.1802 123.619L72.5668 115.554C74.9436 115.085 77.0401 113.699 78.4028 111.696C79.7655 109.693 80.2845 107.233 79.848 104.85L63.1771 17.347C62.7608 15.2665 61.6392 13.3934 60.0021 12.0437C58.3649 10.6941 56.312 9.95059 54.1903 9.9388Z" fill="#56D690"/>
<path d="M43.441 91.4859C43.2689 91.4822 43.1014 91.4303 42.9572 91.3361C42.7716 91.2044 42.6437 91.0065 42.6 90.7832L41.8169 86.6931H41.6667C34.5581 86.6931 29.1202 82.6492 27.3805 75.9784C27.3489 75.8642 27.3418 75.7445 27.3597 75.6274C27.3776 75.5102 27.4204 75.3983 27.4846 75.2987C27.5464 75.1978 27.6282 75.1109 27.7254 75.0435C27.8226 74.976 27.9327 74.9294 28.0488 74.9069L35.4684 73.5013C35.6851 73.4562 35.9109 73.4972 36.0979 73.6154C36.285 73.7336 36.4187 73.92 36.4709 74.1351C37.3811 77.6836 40.2268 79.2734 44.2708 78.5015C46.264 78.1213 49.5016 76.9462 48.8219 73.3746C48.5915 72.1419 47.923 70.4943 44.8699 70.4251L36.3443 70.1948C30.6529 70.0911 26.6434 66.8651 25.6411 61.5654C24.489 55.4937 27.8531 50.4244 34.4778 48.1893L33.729 44.2374C33.7073 44.1254 33.7076 44.0102 33.7307 43.8985C33.7537 43.7868 33.7992 43.6808 33.8634 43.5866C33.9277 43.4923 34.0098 43.4117 34.1053 43.3494C34.2009 43.2872 34.3082 43.2443 34.4204 43.2236L40.2496 42.0714C40.3609 42.0505 40.4758 42.0519 40.5866 42.0757C40.6974 42.0994 40.8019 42.1449 40.8949 42.2097C40.989 42.2726 41.0692 42.3542 41.1306 42.4493C41.192 42.5445 41.2335 42.6512 41.2521 42.7628L42.0701 47.0487C48.4528 47.3598 53.2112 51.0235 54.5707 56.7265C54.5982 56.8399 54.6023 56.9576 54.5825 57.0725C54.5627 57.1874 54.5192 57.2971 54.4554 57.3947C54.3909 57.4921 54.3081 57.5759 54.2112 57.6411C54.1143 57.7064 54.0056 57.7518 53.8911 57.7749L46.5289 59.1806C46.3109 59.2223 46.0854 59.1785 45.8988 59.0583C45.7122 58.9382 45.5787 58.751 45.5264 58.5353C44.5586 54.6872 40.9756 54.7793 38.9248 55.1711C37.687 55.3395 36.5239 55.8593 35.5725 56.6689C35.2121 57.0069 34.9483 57.435 34.8085 57.9089C34.6688 58.3828 34.6577 58.8853 34.777 59.3648C34.8801 60.0623 35.2505 60.6926 35.8093 61.1225C36.3682 61.5524 37.072 61.7483 37.7727 61.669L46.1486 61.9801C52.7963 62.1875 56.7365 65.2406 57.8425 71.0588C59.0638 77.4646 55.8959 82.6953 49.3518 85.1954L50.1236 89.2739C50.1677 89.4985 50.1206 89.7312 49.9931 89.9213C49.8657 90.1114 49.668 90.2433 49.4435 90.2878L43.6025 91.4399L43.441 91.4859ZM42.5308 84.942C42.732 84.9433 42.9268 85.0138 43.0821 85.1418C43.2374 85.2698 43.3439 85.4475 43.3836 85.6447L44.1324 89.608L48.2683 88.8131L47.5083 84.8612C47.4697 84.6559 47.5065 84.4437 47.6124 84.2637C47.7183 84.0836 47.8862 83.948 48.0844 83.882C54.3058 81.7736 57.2437 77.2342 56.1492 71.4505C55.193 66.3927 52.0013 63.9618 46.1025 63.7775L37.7153 63.4664C36.6219 63.5227 35.5463 63.1725 34.6955 62.4833C33.8447 61.7942 33.2788 60.8148 33.1068 59.7336C32.9441 58.9719 32.9768 58.1812 33.2024 57.4358C33.4281 56.6903 33.8395 56.0142 34.3973 55.4706C35.5907 54.4182 37.0629 53.734 38.6368 53.5005C42.7613 52.7171 45.8263 54.1572 47.0014 57.3716L52.681 56.2887C51.1833 51.6802 46.9204 48.846 41.3787 48.7884C41.1794 48.7845 40.9876 48.7127 40.8347 48.5849C40.6818 48.4571 40.5769 48.281 40.5376 48.0856L39.7546 43.9725L35.6181 44.756L36.3556 48.6156C36.396 48.8256 36.3571 49.0431 36.2464 49.2261C36.1358 49.4091 35.9612 49.5446 35.7565 49.6064C29.558 51.4382 26.3439 55.8969 27.3693 61.2428C28.2218 65.7476 31.5283 68.3744 36.4248 68.4666L44.9504 68.6969C48.0841 68.7661 50.0201 70.2754 50.5501 73.052C51.2529 76.6927 49.0291 79.3657 44.628 80.1952C40.0195 81.0824 36.4246 79.2274 35.0651 75.3447L29.3045 76.4278C31.1709 82.0847 35.9873 85.2646 42.4852 84.942H42.5308Z" fill="#56D690"/>
<path d="M69.5054 14.2041L39.0454 97.8924C37.1542 103.088 39.8332 108.834 45.0292 110.725L85.574 125.482C90.7699 127.373 96.5152 124.694 98.4064 119.498L128.866 35.8097C130.758 30.6137 128.079 24.8685 122.883 22.9773L82.3377 8.22024C77.1418 6.32906 71.3966 9.00808 69.5054 14.2041Z" fill="#092D2E"/>
<path d="M80.8731 85.7829L79.191 90.3914L73.6144 88.3636L75.297 83.7552C69.0755 80.4371 66.2065 74.4576 68.1305 67.7983L75.2278 70.3791C74.0757 74.3308 75.965 77.6259 80.2278 79.1813C83.4998 80.3334 86.6453 79.9647 87.878 76.589C88.5348 74.7687 88.3966 72.7293 85.643 71.0011L78.4304 66.3926C73.4648 63.3049 72.4854 58.6735 73.9947 54.5259C76.0454 48.892 81.5414 46.5762 88.1891 48.2698L89.8251 43.7651L95.4011 45.8042L93.673 50.5396C99.0649 53.8346 101.381 59.2266 99.6755 64.6415L92.6362 62.0837C93.6846 58.6273 91.6797 56.0236 88.1543 54.7447C85.1703 53.6617 82.3937 53.9612 81.3338 56.7494C80.9722 57.5909 80.9488 58.5395 81.2685 59.3978C81.5883 60.2561 82.2267 60.958 83.0507 61.3579L90.09 65.9663C94.5487 68.8121 97.3255 72.7524 95.148 78.7204C92.8322 85.034 87.1406 87.1194 80.8731 85.7829Z" fill="#56D690"/>
</svg>
