<svg width="125" height="134" viewBox="0 0 125 134" fill="none" xmlns="http://www.w3.org/2000/svg">
<path d="M74.7101 25.1793H27.0769C16.9887 25.1793 8.81055 33.3619 8.81055 43.4557V107.047C8.81055 117.141 16.9887 125.324 27.0769 125.324H74.7101C84.7983 125.324 92.9765 117.141 92.9765 107.047V43.4557C92.9765 33.3619 84.7983 25.1793 74.7101 25.1793Z" fill="#56D690"/>
<path d="M66.4534 73.9998L56.3762 75.115C56.0933 75.1669 55.8026 75.1588 55.5231 75.0908C55.2437 75.0228 54.9817 74.8965 54.7542 74.7205C54.5267 74.5444 54.3389 74.3222 54.2029 74.0687C54.0669 73.8151 53.9858 73.5358 53.9649 73.2488L55.3526 48.2127C55.3526 46.4374 52.6456 45.5953 51.5765 47.0747L31.7179 75.0469C30.8535 76.2532 32.1729 77.8465 33.879 77.6644L43.9333 76.5264C44.218 76.4743 44.5105 76.4831 44.7915 76.5525C45.0725 76.6218 45.3355 76.7499 45.5633 76.9284C45.7912 77.1069 45.9786 77.3317 46.1133 77.588C46.2479 77.8443 46.3268 78.1264 46.3446 78.4154L44.957 103.451C44.957 105.227 47.6866 106.069 48.733 104.589L68.5917 76.64C69.4561 75.3882 68.1595 73.7949 66.4534 73.9998Z" fill="#25444A"/>
<path d="M88.5 3.71237C93.6344 3.71237 98.6535 5.23501 102.923 8.08754C107.192 10.9401 110.519 14.9945 112.484 19.738C114.449 24.4816 114.963 29.7012 113.961 34.737C112.96 39.7727 110.487 44.3984 106.857 48.029C103.226 51.6596 98.6003 54.1321 93.5646 55.1338C88.5288 56.1354 83.3091 55.6213 78.5655 53.6565C73.822 51.6916 69.7676 48.3643 66.9151 44.0952C64.0625 39.8261 62.54 34.8068 62.54 29.6724C62.54 22.7874 65.2751 16.1843 70.1435 11.3158C75.0119 6.44738 81.615 3.71237 88.5 3.71237ZM88.5 0.172363C82.6655 0.172363 76.9619 1.90265 72.1107 5.14416C67.2594 8.38566 63.4783 12.9927 61.2455 18.3832C59.0128 23.7736 58.4286 29.7051 59.5669 35.4275C60.7051 41.15 63.5148 46.4065 67.6405 50.5322C71.7661 54.6578 77.0225 57.4672 82.7449 58.6055C88.4674 59.7438 94.3988 59.1596 99.7892 56.9268C105.18 54.694 109.787 50.9129 113.028 46.0616C116.27 41.2104 118 35.507 118 29.6724C117.988 21.8523 114.876 14.3561 109.346 8.82648C103.816 3.29685 96.3201 0.184845 88.5 0.172363Z" fill="white"/>
<path d="M114.156 29.7314C114.156 43.9494 102.636 55.4745 88.4276 55.4745C74.2187 55.4745 62.6992 43.9494 62.6992 29.7314C62.6992 15.5133 74.2187 3.98828 88.4276 3.98828C102.636 3.98828 114.156 15.5133 114.156 29.7314Z" fill="white" stroke="#56D690" stroke-width="2"/>
<path d="M86.1519 38.2891C85.9272 38.2942 85.7039 38.2523 85.4963 38.1661C85.2887 38.0798 85.1013 37.9513 84.9462 37.7885L78.1219 30.9605C77.8206 30.6369 77.6565 30.2088 77.6643 29.7666C77.6721 29.3244 77.8513 28.9025 78.1639 28.5897C78.4765 28.277 78.8981 28.0977 79.3401 28.0899C79.7821 28.0821 80.2099 28.2462 80.5333 28.5478L86.1519 34.2833L98.6175 21.8109C98.7743 21.6498 98.9619 21.5218 99.169 21.4344C99.376 21.347 99.5985 21.3019 99.8232 21.3019C100.048 21.3019 100.27 21.347 100.477 21.4344C100.684 21.5218 100.872 21.6498 101.029 21.8109C101.348 22.1309 101.528 22.5649 101.528 23.0172C101.528 23.4696 101.348 23.9032 101.029 24.2233L87.3802 37.8793C87.2126 38.0254 87.0179 38.1369 86.8071 38.2072C86.5963 38.2775 86.3735 38.3054 86.1519 38.2891Z" fill="#25444A"/>
</svg>
