<svg width="125" height="117" viewBox="0 0 125 117" fill="none" xmlns="http://www.w3.org/2000/svg">
<path d="M65.5959 44.8589L80.8372 55.5331C81.2067 55.8582 81.5028 56.2583 81.7056 56.7068C81.9083 57.1553 82.0132 57.6418 82.0132 58.134C82.0132 58.6262 81.9083 59.1127 81.7056 59.5612C81.5028 60.0097 81.2067 60.4098 80.8372 60.7349L65.5959 71.3986C64.706 72.0472 63.6332 72.3967 62.532 72.3967C61.4308 72.3967 60.3579 72.0472 59.468 71.3986L44.2268 60.7349C43.8573 60.4098 43.5614 60.0097 43.3586 59.5612C43.1559 59.1127 43.0508 58.6262 43.0508 58.134C43.0508 57.6418 43.1559 57.1553 43.3586 56.7068C43.5614 56.2583 43.8573 55.8582 44.2268 55.5331L59.468 44.8589C60.3579 44.2103 61.4308 43.8608 62.532 43.8608C63.6332 43.8608 64.706 44.2103 65.5959 44.8589Z" fill="#56D690"/>
<path d="M62.5374 100.394C59.1682 100.35 55.8962 99.2589 53.1741 97.273L8.9482 66.3117C7.74797 65.298 6.78339 64.0347 6.12174 62.6097C5.46008 61.1848 5.11719 59.6326 5.11719 58.0616C5.11719 56.4905 5.46008 54.9384 6.12174 53.5135C6.78339 52.0886 7.74797 50.8253 8.9482 49.8116L53.1741 18.8503C55.876 16.8588 59.1443 15.7844 62.5008 15.7844C65.8574 15.7844 69.1259 16.8588 71.8278 18.8503L116.064 49.8116C117.261 50.8273 118.223 52.0913 118.882 53.5159C119.542 54.9406 119.884 56.4917 119.884 58.0616C119.884 59.6315 119.542 61.1827 118.882 62.6073C118.223 64.032 117.261 65.296 116.064 66.3117L71.8278 97.273C69.1275 99.2477 65.8822 100.338 62.5374 100.394ZM62.5374 17.4042C59.505 17.4331 56.5564 18.4038 54.0999 20.182L9.89484 51.1016C8.9009 51.9707 8.10437 53.0423 7.55859 54.2445C7.01281 55.4468 6.73031 56.7517 6.73031 58.072C6.73031 59.3923 7.01281 60.6974 7.55859 61.8996C8.10437 63.1018 8.9009 64.1734 9.89484 65.0425L54.1208 96.0038C56.5641 97.8028 59.5187 98.7731 62.5529 98.7731C65.5871 98.7731 68.5417 97.8028 70.985 96.0038L115.221 65.0425C116.212 64.1716 117.006 63.0994 117.55 61.8974C118.094 60.6954 118.375 59.3913 118.375 58.072C118.375 56.7527 118.094 55.4487 117.55 54.2467C117.006 53.0447 116.212 51.9725 115.221 51.1016L70.985 20.1403C68.5226 18.3712 65.5695 17.4147 62.5374 17.4042Z" fill="#56D690"/>
<path d="M24.97 47.6683L9.72873 37.0045C9.35923 36.6794 9.06308 36.2793 8.86032 35.8308C8.65757 35.3824 8.55273 34.8958 8.55273 34.4036C8.55273 33.9115 8.65757 33.425 8.86032 32.9766C9.06308 32.5281 9.35923 32.1278 9.72873 31.8027L24.97 21.1286C25.8599 20.48 26.9327 20.1306 28.0339 20.1306C29.1351 20.1306 30.2077 20.48 31.0976 21.1286L46.3391 31.8027C46.7086 32.1278 47.0045 32.5281 47.2073 32.9766C47.41 33.425 47.5149 33.9115 47.5149 34.4036C47.5149 34.8958 47.41 35.3824 47.2073 35.8308C47.0045 36.2793 46.7086 36.6794 46.3391 37.0045L31.0976 47.6683C30.2077 48.3169 29.1351 48.6664 28.0339 48.6664C26.9327 48.6664 25.8599 48.3169 24.97 47.6683Z" fill="#25444A"/>
<path d="M91.2102 95.1396L75.969 84.4655C75.5995 84.1404 75.3036 83.7402 75.1008 83.2918C74.8981 82.8433 74.793 82.3567 74.793 81.8646C74.793 81.3724 74.8981 80.886 75.1008 80.4375C75.3036 79.989 75.5995 79.5888 75.969 79.2637L91.2102 68.5896C92.1001 67.941 93.173 67.5916 94.2742 67.5916C95.3753 67.5916 96.4482 67.941 97.3381 68.5896L112.579 79.1909C112.949 79.516 113.245 79.9161 113.448 80.3646C113.651 80.8131 113.755 81.2996 113.755 81.7918C113.755 82.284 113.651 82.7705 113.448 83.219C113.245 83.6675 112.949 84.0676 112.579 84.3927L97.3381 95.0669C96.4559 95.7261 95.3873 96.0883 94.2861 96.1014C93.1849 96.1145 92.1078 95.7777 91.2102 95.1396Z" fill="#25444A"/>
<path d="M24.554 94.8899L9.31246 84.2262C8.94296 83.9011 8.64706 83.501 8.44431 83.0525C8.24155 82.604 8.13672 82.1175 8.13672 81.6253C8.13672 81.1331 8.24155 80.6466 8.44431 80.1981C8.64706 79.7496 8.94296 79.3495 9.31246 79.0244L24.554 68.3502C25.4429 67.704 26.5136 67.356 27.6126 67.356C28.7116 67.356 29.7823 67.704 30.6712 68.3502L45.9127 79.0244C46.2852 79.3476 46.5837 79.7472 46.7885 80.1959C46.9932 80.6447 47.0994 81.1321 47.0994 81.6253C47.0994 82.1185 46.9932 82.6061 46.7885 83.0548C46.5837 83.5035 46.2852 83.9029 45.9127 84.2262L30.7024 94.8899C29.8106 95.5434 28.7337 95.8956 27.6281 95.8956C26.5225 95.8956 25.4458 95.5434 24.554 94.8899Z" fill="#25444A"/>
<path d="M95.3506 47.668L80.1093 37.0043C79.7398 36.6791 79.4439 36.279 79.2412 35.8306C79.0384 35.3821 78.9336 34.8955 78.9336 34.4034C78.9336 33.9112 79.0384 33.4248 79.2412 32.9763C79.4439 32.5278 79.7398 32.1276 80.1093 31.8025L95.3506 21.1283C96.2395 20.4821 97.3105 20.134 98.4095 20.134C99.5084 20.134 100.579 20.4821 101.468 21.1283L116.72 31.8025C117.089 32.1276 117.385 32.5278 117.588 32.9763C117.791 33.4248 117.896 33.9112 117.896 34.4034C117.896 34.8955 117.791 35.3821 117.588 35.8306C117.385 36.279 117.089 36.6791 116.72 37.0043L101.447 47.668C100.56 48.3095 99.4936 48.6548 98.399 48.6548C97.3044 48.6548 96.2375 48.3095 95.3506 47.668Z" fill="#25444A"/>
</svg>
