<?xml version="1.0" encoding="utf-8"?>
<!-- Generator: Adobe Illustrator 24.0.2, SVG Export Plug-In . SVG Version: 6.00 Build 0)  -->
<svg version="1.1" id="Layer_1" xmlns="http://www.w3.org/2000/svg" xmlns:xlink="http://www.w3.org/1999/xlink" x="0px" y="0px"
	 viewBox="0 0 22 23" style="enable-background:new 0 0 22 23;" xml:space="preserve">
<style type="text/css">
	.st0{fill:#FFFFFF;}
</style>
<g>
	<rect x="3.6" y="9" class="st0" width="3.2" height="10.2"/>
	<path class="st0" d="M5.2,7.5c-0.4,0-0.7-0.1-1-0.3S3.7,6.7,3.5,6.4C3.4,6.1,3.3,5.7,3.4,5.3C3.5,5,3.7,4.7,3.9,4.4
		C4.2,4.1,4.5,4,4.9,3.9c0.4-0.1,0.7,0,1.1,0.1c0.3,0.1,0.6,0.4,0.8,0.7c0.2,0.3,0.3,0.7,0.3,1c0,0.2,0,0.5-0.1,0.7
		C6.8,6.6,6.7,6.8,6.5,7C6.3,7.2,6.1,7.3,5.9,7.4C5.7,7.5,5.5,7.5,5.2,7.5z"/>
	<path class="st0" d="M18.6,19.1h-3.2v-5.6c0-1.6-0.7-2.1-1.6-2.1c-1,0-1.9,0.7-1.9,2.2v5.5H8.7V9h3.1v1.4h0c0.3-0.5,0.8-1,1.3-1.3
		c0.5-0.3,1.1-0.4,1.7-0.4c1.8,0,3.7,1.1,3.7,4.2V19.1z"/>
</g>
</svg>
