<?xml version="1.0" encoding="utf-8"?>
<!-- Generator: Adobe Illustrator 24.0.2, SVG Export Plug-In . SVG Version: 6.00 Build 0)  -->
<svg version="1.1" id="Layer_2" xmlns="http://www.w3.org/2000/svg" xmlns:xlink="http://www.w3.org/1999/xlink" x="0px" y="0px"
	 viewBox="0 0 122 133" style="enable-background:new 0 0 122 133;" xml:space="preserve">
<style type="text/css">
	.st0{fill:#56D690;}
	.st1{fill:none;stroke:#56D690;stroke-width:2.9156;stroke-linecap:round;stroke-linejoin:round;}
	.st2{fill:#092D2E;}
</style>
<g>
	<path class="st0" d="M22.1,44.9v64.6c0,6.9,5.2,12.5,11.7,12.5h56c6.4,0,11.7-5.6,11.7-12.5V44.9L67.1,15.1c-1.3-1.3-3.1-2.1-5-2.1
		c-1.9,0-3.7,0.7-5,2.1L22.1,44.9z"/>
	<path class="st1" d="M2.2,62.3l52.5-46.5c2-1.6,4.5-2.4,7.1-2.4c2.6,0,5.1,0.9,7.1,2.4l50.9,45.3"/>
	<path class="st2" d="M71.1,71.7l-6.5,0.7c-0.2,0-0.4,0-0.6,0c-0.2,0-0.4-0.1-0.5-0.2c-0.1-0.1-0.3-0.3-0.4-0.4
		c-0.1-0.2-0.1-0.3-0.2-0.5L64,55.1c0-1.2-1.8-1.7-2.4-0.7l-12.8,18c-0.6,0.8,0.3,1.8,1.4,1.7l6.5-0.7c0.2,0,0.4,0,0.5,0
		c0.2,0,0.3,0.1,0.5,0.2c0.1,0.1,0.3,0.2,0.4,0.4c0.1,0.2,0.1,0.3,0.2,0.5l-0.9,16.2c0,0.3,0.1,0.5,0.3,0.7c0.2,0.2,0.4,0.4,0.7,0.4
		c0.3,0.1,0.5,0.1,0.8,0c0.3-0.1,0.5-0.2,0.7-0.4l12.8-18C73.1,72.6,72.2,71.6,71.1,71.7z"/>
</g>
</svg>
