<svg width="130" height="133" viewBox="0 0 130 133" fill="none" xmlns="http://www.w3.org/2000/svg">
<path d="M28.0419 124.825C25.5137 124.822 23.0655 123.938 21.1185 122.325C19.1715 120.712 17.847 118.472 17.373 115.988L0.713357 28.5078C0.186817 25.6823 0.800472 22.7631 2.4196 20.3884C4.03872 18.0137 6.53166 16.3765 9.35426 15.8345L51.7408 7.76963C54.5664 7.24309 57.4855 7.85632 59.8602 9.47545C62.235 11.0946 63.8721 13.5879 64.4142 16.4105L81.0856 103.891C81.6119 106.718 80.9969 109.639 79.3754 112.014C77.7539 114.389 75.2576 116.025 72.4329 116.564L30.0581 124.629C29.3939 124.759 28.7187 124.825 28.0419 124.825ZM53.7801 9.24424C53.204 9.24132 52.6292 9.29536 52.0637 9.40555L9.68842 17.4704C8.50578 17.6915 7.37853 18.1445 6.37157 18.803C5.36462 19.4614 4.49824 20.3126 3.82149 21.3073C3.14475 22.3021 2.67128 23.4209 2.4286 24.5993C2.18591 25.7777 2.1786 26.9924 2.40722 28.1736L19.0781 115.643C19.2993 116.824 19.7519 117.95 20.4097 118.956C21.0674 119.962 21.9173 120.829 22.9108 121.505C23.9043 122.182 25.0219 122.656 26.199 122.899C27.3761 123.142 28.5897 123.151 29.7701 122.924L72.1567 114.859C74.5334 114.39 76.63 113.004 77.9926 111.001C79.3553 108.998 79.8744 106.539 79.4379 104.156L62.767 16.6524C62.3506 14.5719 61.2291 12.6988 59.5919 11.3492C57.9547 9.99957 55.9018 9.25603 53.7801 9.24424Z" fill="#56D690"/>
<path d="M43.0309 90.7911C42.8587 90.7873 42.6912 90.7355 42.5471 90.6413C42.3615 90.5096 42.2335 90.3116 42.1898 90.0883L41.4067 85.9982H41.2565C34.148 85.9982 28.7101 81.9544 26.9704 75.2836C26.9388 75.1694 26.9317 75.0497 26.9495 74.9326C26.9674 74.8154 27.0102 74.7035 27.0744 74.6039C27.1362 74.503 27.218 74.4161 27.3152 74.3486C27.4124 74.2812 27.5226 74.2346 27.6387 74.2121L35.0583 72.8065C35.2749 72.7614 35.5007 72.8023 35.6878 72.9206C35.8748 73.0388 36.0086 73.2252 36.0607 73.4402C36.9709 76.9888 39.8052 78.5786 43.8606 77.8067C45.8538 77.4265 49.0915 76.2514 48.4117 72.6798C48.1813 71.447 47.5129 69.7994 44.4598 69.7303L35.9342 69.4999C30.2427 69.3962 26.2333 66.1703 25.2309 60.8706C24.0788 54.7989 27.4429 49.7296 34.0676 47.4944L33.3188 43.5426C33.2972 43.4306 33.2975 43.3154 33.3205 43.2037C33.3436 43.0919 33.389 42.986 33.4533 42.8917C33.5176 42.7975 33.5996 42.7169 33.6952 42.6546C33.7908 42.5923 33.898 42.5495 34.0102 42.5287L39.8395 41.3766C40.0643 41.3355 40.2964 41.3852 40.4847 41.5149C40.5788 41.5778 40.659 41.6594 40.7204 41.7545C40.7818 41.8496 40.8233 41.9563 40.8419 42.068L41.6599 46.3539C48.0426 46.6649 52.801 50.3287 54.1605 56.0317C54.188 56.145 54.1922 56.2627 54.1723 56.3777C54.1525 56.4926 54.1091 56.6023 54.0452 56.6999C53.9808 56.7973 53.8979 56.881 53.801 56.9463C53.7042 57.0115 53.5954 57.0569 53.4809 57.08L46.1187 58.4857C45.9008 58.5275 45.6753 58.4836 45.4887 58.3635C45.3021 58.2434 45.1685 58.0562 45.1163 57.8405C44.1485 53.9924 40.5654 54.0845 38.5146 54.4762C37.2769 54.6447 36.1137 55.1645 35.1623 55.974C34.8019 56.312 34.5381 56.7401 34.3984 57.2141C34.2586 57.688 34.2475 58.1905 34.3669 58.67C34.47 59.3675 34.8403 59.9978 35.3992 60.4277C35.9581 60.8576 36.6619 61.0535 37.3625 60.9742L45.7385 61.2853C52.3862 61.4927 56.3263 64.5458 57.4324 70.364C58.6536 76.7698 55.4857 82.0005 48.9417 84.5006L49.7135 88.5791C49.7575 88.8037 49.7104 89.0364 49.583 89.2265C49.4555 89.4166 49.2578 89.5485 49.0334 89.593L43.1923 90.7451L43.0309 90.7911Z" fill="#092D2E"/>
<path d="M122.471 22.2874L81.9257 7.53016C76.7297 5.63898 70.9845 8.318 69.0933 13.514L38.6333 97.2021C36.7422 102.398 39.4212 108.143 44.6172 110.034L85.1622 124.792C90.3582 126.683 96.1034 124.004 97.9946 118.808L128.455 35.1197C130.346 29.9237 127.667 24.1785 122.471 22.2874Z" fill="#56D690"/>
<path d="M80.4629 85.0884L78.7809 89.6969L73.2042 87.6691L74.8868 83.0606C68.6654 79.7425 65.7963 73.763 67.7204 67.1038L74.8176 69.6845C73.6655 73.6363 75.5548 76.9314 79.8176 78.4867C83.0897 79.6389 86.2351 79.2702 87.4679 75.8945C88.1246 74.0741 87.9864 72.0347 85.2328 70.3066L78.0203 65.6981C73.0546 62.6104 72.0752 57.979 73.5845 53.8313C75.6353 48.1975 81.1312 45.8816 87.779 47.5752L89.4149 43.0706L94.991 45.1097L93.2628 49.845C98.6547 53.1401 100.97 58.532 99.2653 63.947L92.226 61.3892C93.2744 57.9328 91.2696 55.329 87.7441 54.0502C84.7601 52.9672 81.9836 53.2667 80.9236 56.0548C80.562 56.8963 80.5387 57.8449 80.8584 58.7032C81.1781 59.5615 81.8165 60.2635 82.6406 60.6633L89.6799 65.2718C94.1386 68.1175 96.9153 72.0579 94.7378 78.0259C92.4221 84.3395 86.7304 86.4248 80.4629 85.0884Z" fill="#092D2E"/>
</svg>
