<svg width="125" height="135" viewBox="0 0 125 135" fill="none" xmlns="http://www.w3.org/2000/svg">
<path d="M74.7101 25.8721H27.0769C16.9887 25.8721 8.81055 34.0547 8.81055 44.1484V107.74C8.81055 117.834 16.9887 126.016 27.0769 126.016H74.7101C84.7983 126.016 92.9765 117.834 92.9765 107.74V44.1484C92.9765 34.0547 84.7983 25.8721 74.7101 25.8721Z" fill="#25444A"/>
<path d="M66.4534 74.6924L56.3762 75.8076C56.0933 75.8595 55.8026 75.8514 55.5231 75.7834C55.2437 75.7154 54.9817 75.5892 54.7542 75.4131C54.5267 75.237 54.3389 75.0149 54.2029 74.7613C54.0669 74.5077 53.9858 74.2284 53.9649 73.9414L55.3526 48.9053C55.3526 47.13 52.6456 46.2879 51.5765 47.7673L31.7179 75.7395C30.8535 76.9458 32.1729 78.5391 33.879 78.357L43.9333 77.219C44.218 77.167 44.5105 77.1758 44.7915 77.2451C45.0725 77.3144 45.3355 77.4425 45.5633 77.621C45.7912 77.7995 45.9786 78.0243 46.1133 78.2806C46.2479 78.5369 46.3268 78.819 46.3446 79.108L44.957 104.144C44.957 105.919 47.6866 106.761 48.733 105.282L68.5917 77.3326C69.4561 76.0808 68.1595 74.4875 66.4534 74.6924Z" fill="#56D690"/>
<path d="M88.5 4.405C93.6344 4.405 98.6535 5.92764 102.923 8.78016C107.192 11.6327 110.519 15.6871 112.484 20.4307C114.449 25.1742 114.963 30.3938 113.961 35.4296C112.96 40.4654 110.487 45.091 106.857 48.7216C103.226 52.3522 98.6003 54.8247 93.5646 55.8264C88.5288 56.8281 83.3091 56.3139 78.5655 54.3491C73.822 52.3842 69.7676 49.0569 66.9151 44.7878C64.0625 40.5187 62.54 35.4994 62.54 30.365C62.54 23.48 65.2751 16.8769 70.1435 12.0085C75.0119 7.14001 81.615 4.405 88.5 4.405ZM88.5 0.86499C82.6655 0.86499 76.9619 2.59528 72.1107 5.83679C67.2594 9.07829 63.4783 13.6854 61.2455 19.0758C59.0128 24.4662 58.4286 30.3977 59.5669 36.1201C60.7051 41.8426 63.5148 47.0991 67.6405 51.2248C71.7661 55.3505 77.0225 58.1599 82.7449 59.2981C88.4674 60.4364 94.3988 59.8522 99.7892 57.6194C105.18 55.3867 109.787 51.6055 113.028 46.7543C116.27 41.903 118 36.1996 118 30.365C117.988 22.545 114.876 15.0487 109.346 9.5191C103.816 3.98948 96.3201 0.877472 88.5 0.86499Z" fill="white"/>
<path d="M88.4276 57.1671C103.189 57.1671 115.156 45.1938 115.156 30.424C115.156 15.6542 103.189 3.68091 88.4276 3.68091C73.6659 3.68091 61.6992 15.6542 61.6992 30.424C61.6992 45.1938 73.6659 57.1671 88.4276 57.1671Z" fill="#56D690"/>
<path d="M86.1519 38.9816C85.9272 38.9867 85.7039 38.9448 85.4963 38.8586C85.2887 38.7723 85.1013 38.6438 84.9462 38.481L78.1219 31.653C77.8206 31.3294 77.6565 30.9014 77.6643 30.4591C77.6721 30.0169 77.8513 29.595 78.1639 29.2822C78.4765 28.9695 78.8981 28.7902 79.3401 28.7824C79.7821 28.7746 80.2099 28.9387 80.5333 29.2403L86.1519 34.9759L98.6175 22.5034C98.7743 22.3423 98.9619 22.2143 99.169 22.1269C99.376 22.0395 99.5985 21.9944 99.8232 21.9944C100.048 21.9944 100.27 22.0395 100.477 22.1269C100.684 22.2143 100.872 22.3423 101.029 22.5034C101.348 22.8234 101.528 23.2574 101.528 23.7097C101.528 24.1621 101.348 24.5957 101.029 24.9158L87.3802 38.5718C87.2126 38.7179 87.0179 38.8294 86.8071 38.8997C86.5963 38.97 86.3735 38.9979 86.1519 38.9816Z" fill="#25444A"/>
</svg>
