<svg width="125" height="126" viewBox="0 0 125 126" fill="none" xmlns="http://www.w3.org/2000/svg">
<path d="M44.4715 43.9994C44.4446 44.0858 44.4383 44.1774 44.4533 44.2666C44.4683 44.3559 44.5043 44.4404 44.558 44.5133C44.6118 44.5861 44.6819 44.6452 44.7628 44.6859C44.8436 44.7266 44.9327 44.7477 45.0232 44.7475H61.0595C61.1352 44.7475 61.2102 44.7326 61.2801 44.7036C61.35 44.6746 61.4134 44.6321 61.4669 44.5786C61.5204 44.5251 61.5631 44.4616 61.592 44.3916C61.621 44.3217 61.6357 44.2468 61.6357 44.1711V29.0757C61.6376 28.9974 61.6231 28.9196 61.5932 28.8472C61.5634 28.7748 61.5189 28.7094 61.4624 28.6551C61.4059 28.6009 61.3387 28.5591 61.2652 28.5322C61.1916 28.5054 61.1131 28.4943 61.035 28.4994C57.3373 28.623 53.8007 30.0422 51.0431 32.5092C47.837 35.6613 45.5629 39.6374 44.4715 43.9994Z" fill="#56D690"/>
<path d="M43.6243 47.347C42.6877 51.9979 42.2073 56.7292 42.19 61.4735C42.1867 61.5513 42.199 61.6289 42.2265 61.7017C42.254 61.7745 42.296 61.841 42.3498 61.8971C42.4037 61.9532 42.4683 61.9979 42.5399 62.0284C42.6114 62.0589 42.6884 62.0745 42.7662 62.0745H61.0582C61.211 62.0745 61.3575 62.0137 61.4656 61.9056C61.5736 61.7975 61.6344 61.6509 61.6344 61.4981V47.4696C61.6312 47.3188 61.5691 47.1754 61.4614 47.07C61.3537 46.9645 61.2089 46.9055 61.0582 46.9055H44.1882C44.0582 46.9047 43.9317 46.9478 43.8294 47.028C43.727 47.1081 43.6547 47.2205 43.6243 47.347Z" fill="#56D690"/>
<path d="M61.0584 97.7958C61.1361 97.7991 61.2137 97.7866 61.2865 97.7591C61.3592 97.7316 61.4258 97.6897 61.4819 97.6358C61.5381 97.582 61.5826 97.5174 61.613 97.4458C61.6435 97.3742 61.6592 97.2972 61.6591 97.2194V81.0326C61.6591 80.8798 61.5984 80.7332 61.4903 80.6251C61.3823 80.517 61.2358 80.4563 61.0829 80.4563H44.7278C44.6398 80.4585 44.5536 80.4808 44.4755 80.5216C44.3974 80.5624 44.3294 80.6206 44.2773 80.6916C44.2252 80.7627 44.1904 80.8447 44.175 80.9315C44.1595 81.0182 44.1641 81.1074 44.1884 81.192C45.6351 86.6489 47.8665 90.8183 50.9192 93.6264C53.691 96.1854 57.2886 97.6649 61.0584 97.7958Z" fill="#56D690"/>
<path d="M63.7814 44.183C63.7814 44.3358 63.8421 44.4824 63.9502 44.5905C64.0583 44.6986 64.2048 44.7594 64.3576 44.7594H80.3939C80.4844 44.7596 80.5738 44.7385 80.6546 44.6978C80.7355 44.6571 80.8056 44.5979 80.8594 44.5251C80.9131 44.4522 80.9488 44.3678 80.9638 44.2786C80.9788 44.1893 80.9725 44.0977 80.9456 44.0113C79.8501 39.6482 77.5721 35.6721 74.362 32.5211C71.6055 30.0523 68.068 28.6328 64.3699 28.5113C64.2927 28.5079 64.2157 28.5203 64.1436 28.548C64.0715 28.5756 64.006 28.6177 63.9508 28.6718C63.8956 28.7258 63.8521 28.7906 63.823 28.8621C63.7939 28.9336 63.7796 29.0104 63.7814 29.0876V44.183Z" fill="#56D690"/>
<path d="M85.9353 64.2205C85.7867 64.2236 85.645 64.284 85.5399 64.3891C85.4348 64.4942 85.3745 64.6359 85.3713 64.7845C85.3453 69.1309 84.9803 73.4687 84.28 77.7585C84.2698 77.8403 84.2765 77.9234 84.2998 78.0025C84.3231 78.0816 84.3624 78.1551 84.4153 78.2184C84.4682 78.2816 84.5337 78.3333 84.6075 78.3702C84.6812 78.4071 84.7616 78.4285 84.8439 78.4329C87.9971 78.4274 91.1279 78.9625 94.1004 80.0148C94.2361 80.0807 94.3919 80.092 94.5356 80.0463C94.6793 80.0007 94.8001 79.9016 94.873 79.7696C97.2795 75.1354 98.6592 70.0369 98.9186 64.8213C98.9202 64.744 98.9068 64.6671 98.8787 64.5951C98.8507 64.523 98.8086 64.4572 98.7551 64.4014C98.7016 64.3456 98.6376 64.3009 98.5669 64.2699C98.4961 64.2388 98.4197 64.2221 98.3424 64.2205H85.9353Z" fill="#56D690"/>
<path d="M83.2124 44.2199C83.2526 44.3536 83.3356 44.4703 83.4486 44.5522C83.5615 44.6342 83.6982 44.6769 83.8377 44.6736C86.7726 44.6755 89.6948 44.2921 92.5299 43.5332C92.6128 43.503 92.688 43.4546 92.7496 43.3914C92.8113 43.3283 92.8579 43.2521 92.8861 43.1685C92.9144 43.0849 92.9235 42.996 92.9128 42.9085C92.902 42.8209 92.8718 42.7368 92.8242 42.6625C88.4253 36.0858 82.0105 31.1155 74.5444 28.4991C74.4164 28.4632 74.2798 28.4726 74.158 28.5258C74.0361 28.5791 73.9364 28.6729 73.8757 28.7912C73.8151 28.9096 73.7975 29.0453 73.8255 29.1753C73.8535 29.3054 73.9256 29.4217 74.0296 29.5047C77.5605 31.9817 81.0546 36.384 83.2124 44.2199Z" fill="#56D690"/>
<path d="M83.9969 47.4941C84.8854 52.1098 85.3452 56.7977 85.3702 61.4981C85.3702 61.6489 85.4291 61.7936 85.5345 61.9014C85.64 62.0091 85.7835 62.0713 85.9341 62.0745H98.3535C98.4324 62.0746 98.5107 62.0586 98.5831 62.0273C98.6555 61.9961 98.7206 61.9503 98.7747 61.8928C98.8287 61.8354 98.8704 61.7675 98.8971 61.6932C98.9238 61.619 98.9347 61.5401 98.9297 61.4614C98.7207 55.9049 97.2359 50.4712 94.5899 45.5811C94.5175 45.4551 94.4008 45.3603 94.2627 45.3151C94.1246 45.2698 93.9748 45.2772 93.8419 45.3359C90.8399 46.3086 87.7041 46.8052 84.5486 46.8074C84.4647 46.8094 84.3825 46.8297 84.3073 46.8668C84.2321 46.904 84.1659 46.9572 84.1134 47.0226C84.0608 47.088 84.0233 47.164 84.0032 47.2455C83.9831 47.3269 83.9809 47.4118 83.9969 47.4941Z" fill="#56D690"/>
<path d="M43.3911 77.8566C43.417 77.9896 43.4889 78.1093 43.5943 78.1945C43.6997 78.2797 43.8317 78.3251 43.9672 78.3226H61.0578C61.2106 78.3226 61.3571 78.2618 61.4652 78.1537C61.5732 78.0456 61.634 77.899 61.634 77.7462V64.7968C61.634 64.6439 61.5732 64.4973 61.4652 64.3892C61.3571 64.2811 61.2106 64.2205 61.0578 64.2205H42.7658C42.6891 64.2204 42.6129 64.2357 42.5422 64.2654C42.4715 64.2952 42.4076 64.3388 42.3539 64.3936C42.3002 64.4484 42.2579 64.5134 42.2297 64.5847C42.2015 64.6561 42.188 64.7323 42.1896 64.809C42.2179 69.1845 42.6198 73.5496 43.3911 77.8566Z" fill="#56D690"/>
<path d="M41.2096 77.7338C40.4639 73.4569 40.0744 69.1256 40.0449 64.7843C40.0418 64.6357 39.9812 64.4941 39.8761 64.3889C39.771 64.2838 39.6293 64.2234 39.4807 64.2203H26.7303C26.6504 64.2184 26.571 64.2332 26.4971 64.2636C26.4232 64.2941 26.3564 64.3397 26.301 64.3973C26.2457 64.455 26.2031 64.5235 26.1756 64.5986C26.1482 64.6737 26.1367 64.7537 26.1418 64.8334C26.4009 70.0918 27.8026 75.2305 30.2491 79.892C30.322 80.0241 30.4418 80.1239 30.5849 80.1716C30.728 80.2193 30.8838 80.2114 31.0213 80.1495C32.8236 79.2176 36.0601 78.6412 40.6822 78.4205C40.7632 78.4132 40.842 78.3892 40.9132 78.35C40.9845 78.3108 41.0469 78.2572 41.0964 78.1927C41.146 78.1282 41.1814 78.0541 41.2009 77.9751C41.2203 77.8961 41.2234 77.8139 41.2096 77.7338Z" fill="#56D690"/>
<path d="M42.0074 81.3882C41.9457 81.1454 41.8024 80.9312 41.6015 80.7815C41.4006 80.6319 41.1544 80.556 40.9041 80.5665C38.1554 80.5872 35.4216 80.9749 32.7755 81.7192C32.6251 81.7685 32.4883 81.8519 32.3753 81.9628C32.2623 82.0736 32.1763 82.209 32.1241 82.3585C32.072 82.5079 32.0547 82.6674 32.0742 82.8245C32.0936 82.9816 32.1491 83.1321 32.2361 83.2643C36.5709 89.7086 42.8448 94.605 50.1483 97.2438C50.2738 97.282 50.4084 97.2761 50.5302 97.2272C50.652 97.1783 50.7535 97.0893 50.8179 96.9749C50.8822 96.8605 50.9058 96.7276 50.8843 96.5981C50.8628 96.4686 50.7977 96.3503 50.6999 96.2628C47.2793 93.6264 44.0058 89.1137 42.0074 81.3882Z" fill="#56D690"/>
<path d="M40.866 46.795C36.3624 46.5825 33.1665 46.047 31.2785 45.1886C31.1479 45.123 30.9971 45.1106 30.8576 45.1541C30.7181 45.1975 30.601 45.2935 30.5308 45.4216C27.822 50.3543 26.2982 55.8499 26.0802 61.4735C26.0786 61.5518 26.0927 61.6296 26.1215 61.7025C26.1504 61.7753 26.1933 61.8417 26.2481 61.8977C26.3029 61.9536 26.3684 61.9981 26.4406 62.0284C26.5128 62.0588 26.5903 62.0744 26.6687 62.0744H39.4804C39.6311 62.0712 39.7746 62.009 39.88 61.9013C39.9855 61.7935 40.0447 61.6488 40.0447 61.498C40.0704 56.7936 40.5299 52.1016 41.4176 47.4818C41.4316 47.3997 41.4281 47.3156 41.4072 47.235C41.3862 47.1544 41.3483 47.0792 41.2961 47.0143C41.244 46.9494 41.1787 46.8962 41.1046 46.8584C41.0304 46.8206 40.9491 46.7991 40.866 46.795Z" fill="#56D690"/>
<path d="M81.3992 81.1919C81.4192 81.1072 81.42 81.0192 81.4019 80.9341C81.3838 80.8489 81.3469 80.7689 81.2941 80.6997C81.2414 80.6305 81.1742 80.5739 81.0969 80.5339C81.0196 80.4939 80.9342 80.4716 80.8473 80.4684H64.3574C64.2046 80.4684 64.0581 80.5291 63.9501 80.6372C63.842 80.7453 63.7812 80.8919 63.7812 81.0448V97.2683C63.7812 97.4211 63.842 97.5677 63.9501 97.6758C64.0581 97.7839 64.2046 97.8447 64.3574 97.8447C68.5872 97.7711 77.525 96.8391 81.3992 81.1919Z" fill="#56D690"/>
<path d="M84.3529 80.5543C84.1938 80.5494 84.0379 80.5991 83.9108 80.695C83.7838 80.7909 83.693 80.9273 83.654 81.0816C81.9499 88.3412 79.1915 92.817 76.2001 95.5639C76.0926 95.6531 76.0219 95.779 76.0019 95.9172C75.9819 96.0555 76.0139 96.1963 76.0917 96.3123C76.1695 96.4283 76.2876 96.5113 76.423 96.5452C76.5585 96.5791 76.7021 96.5615 76.8253 96.4958C83.5411 93.6263 89.2452 88.8134 93.2047 82.6758C93.2523 82.6025 93.2826 82.5192 93.2933 82.4325C93.304 82.3457 93.295 82.2576 93.2667 82.1749C93.2383 82.0922 93.1916 82.017 93.1299 81.9551C93.0682 81.8931 92.9931 81.8461 92.9105 81.8174C90.1352 80.9793 87.2519 80.5536 84.3529 80.5543Z" fill="#56D690"/>
<path d="M82.0978 77.8566C82.824 73.5448 83.2014 69.1815 83.226 64.809C83.226 64.655 83.1655 64.5071 83.0577 64.3971C82.95 64.2871 82.8037 64.2237 82.6498 64.2205H64.3574C64.2046 64.2205 64.0581 64.2811 63.9501 64.3892C63.842 64.4973 63.7813 64.6439 63.7812 64.7968V77.7339C63.7812 77.8868 63.842 78.0333 63.9501 78.1414C64.0581 78.2495 64.2046 78.3103 64.3574 78.3103H81.5216C81.656 78.3158 81.788 78.2731 81.8937 78.1899C81.9993 78.1067 82.0716 77.9885 82.0978 77.8566Z" fill="#56D690"/>
<path d="M41.5766 44.6736C41.715 44.6783 41.8508 44.6361 41.9621 44.5537C42.0734 44.4713 42.1537 44.3536 42.1896 44.2199C44.4332 36.1142 48.0865 31.6751 51.7768 29.2471C51.886 29.1669 51.9635 29.0508 51.9956 28.9191C52.0278 28.7875 52.0125 28.6487 51.9525 28.5272C51.8925 28.4057 51.7916 28.3093 51.6676 28.2548C51.5435 28.2003 51.4043 28.1912 51.2743 28.2293C43.5283 30.7531 36.8454 35.789 32.2833 42.5398C32.2352 42.6115 32.2038 42.6932 32.1914 42.7787C32.1791 42.8642 32.1862 42.9514 32.2121 43.0339C32.238 43.1163 32.2821 43.1918 32.3411 43.2549C32.4001 43.318 32.4725 43.3669 32.553 43.3982C35.4823 44.2624 38.5226 44.6921 41.5766 44.6736Z" fill="#56D690"/>
<path d="M81.7913 47.3348C81.7634 47.2094 81.6935 47.0972 81.5932 47.0169C81.4928 46.9367 81.3681 46.8931 81.2397 46.8934H64.3574C64.2067 46.8933 64.062 46.9524 63.9543 47.0578C63.8465 47.1633 63.7845 47.3067 63.7812 47.4574V61.4859C63.7812 61.6388 63.842 61.7854 63.9501 61.8935C64.0581 62.0016 64.2046 62.0623 64.3574 62.0623H82.6498C82.727 62.0607 82.8032 62.0439 82.874 62.0129C82.9447 61.9818 83.0087 61.9371 83.0622 61.8813C83.1157 61.8255 83.1578 61.7597 83.1858 61.6876C83.2139 61.6156 83.2276 61.5388 83.226 61.4615C83.2016 56.7175 82.721 51.9868 81.7913 47.3348Z" fill="#56D690"/>
<path d="M115.433 95.2449C115.269 95.2462 115.108 95.2038 114.967 95.1223C114.765 94.9997 114.617 94.8039 114.556 94.5755C114.494 94.3471 114.523 94.1037 114.636 93.896C122.713 80.3791 125.182 64.2381 121.517 48.9238C117.851 33.6094 108.341 20.3372 95.0195 11.9444C83.4892 4.53587 69.7786 1.27971 56.1493 2.71315C42.5199 4.14658 29.7863 10.184 20.0489 19.8294C19.8765 20.0016 19.6428 20.0983 19.3991 20.0983C19.1554 20.0983 18.9217 20.0016 18.7493 19.8294C18.5771 19.6569 18.4805 19.4231 18.4805 19.1794C18.4805 18.9357 18.5771 18.702 18.7493 18.5295C28.7831 8.59589 41.9012 2.37775 55.9415 0.899863C69.9818 -0.578024 84.1066 2.77253 95.9881 10.3993C109.708 19.0432 119.504 32.7097 123.286 48.4802C127.068 64.2507 124.536 80.8753 116.23 94.8035C116.147 94.94 116.029 95.0524 115.89 95.1298C115.75 95.2072 115.593 95.2469 115.433 95.2449Z" fill="#56D690"/>
<path d="M111.768 85.3001L113.558 84.8586L115.703 93.6755L124.334 90.8797L124.898 92.6332L114.391 96.0299L111.768 85.3001Z" fill="#56D690"/>
<path d="M62.3832 125.46C50.551 125.444 38.9708 122.04 29.0112 115.65C15.285 107 5.48587 93.3224 1.70811 77.5414C-2.06964 61.7604 0.473687 45.1274 8.79421 31.1969C8.91874 30.9967 9.1153 30.852 9.34346 30.7927C9.57162 30.7334 9.81396 30.764 10.0202 30.8782C10.2228 31.0006 10.3692 31.1973 10.4288 31.4264C10.4883 31.6555 10.456 31.8988 10.3387 32.1045C2.26421 45.624 -0.203874 61.7659 3.46153 77.0813C7.12693 92.3967 16.6351 105.671 29.9549 114.068C36.6841 118.379 44.205 121.306 52.0779 122.677C59.9509 124.047 68.0181 123.835 75.808 122.051C76.0453 121.996 76.2949 122.038 76.5018 122.166C76.7087 122.295 76.8559 122.501 76.9113 122.738C76.9384 122.856 76.942 122.979 76.9215 123.099C76.901 123.218 76.8568 123.333 76.7918 123.435C76.7269 123.538 76.6423 123.627 76.5428 123.697C76.4434 123.766 76.3313 123.816 76.2127 123.842C71.677 124.892 67.0387 125.435 62.3832 125.46Z" fill="#56D690"/>
<path d="M13.2453 40.7374L11.4676 41.1665L9.32205 32.3619L0.690909 35.1456L0.126953 33.392L10.6339 30.0075L13.2453 40.7374Z" fill="#56D690"/>
<path d="M98.6611 122.591V125.559H95.069V122.591C93.1281 122.43 91.3119 121.568 89.9587 120.168C88.6054 118.767 87.8073 116.922 87.7129 114.976H92.2859C92.4453 117.428 94.2108 118.961 96.9571 118.961C99.0781 118.961 100.782 118.078 100.782 115.896C100.812 115.212 100.572 114.544 100.113 114.037C99.6538 113.529 99.0131 113.224 98.3301 113.186L93.279 112.082C91.8722 111.895 90.5841 111.194 89.663 110.114C88.7418 109.034 88.2525 107.652 88.2891 106.233C88.2891 102.554 90.9373 100.101 95.0812 99.7333V96.8394H98.6734V99.905C102.425 100.665 104.804 103.253 105.012 106.699H100.476C100.341 104.479 98.6736 103.437 96.4054 103.437C94.4806 103.437 92.9234 104.197 92.9234 106C92.9014 106.548 93.0878 107.084 93.4449 107.5C93.802 107.916 94.3034 108.182 94.8484 108.244L99.7524 109.372C102.866 110.071 105.269 111.739 105.269 115.589C105.319 119.636 102.511 122.002 98.6611 122.591Z" fill="#092D2E"/>
</svg>
