<svg width="129" height="116" viewBox="0 0 129 116" fill="none" xmlns="http://www.w3.org/2000/svg">
<path d="M114.865 79.1034H13.7135C12.0589 79.1066 10.4619 78.495 9.23277 77.3873C8.0036 76.2796 7.22975 74.7547 7.06131 73.1087L0.485903 9.98487C0.389302 9.05299 0.489218 8.11117 0.77941 7.22037C1.0696 6.32957 1.54346 5.50962 2.17042 4.81346C2.79739 4.11729 3.56355 3.56051 4.41921 3.17897C5.27488 2.79743 6.20122 2.59965 7.13809 2.59851H121.44C122.377 2.59965 123.304 2.79743 124.159 3.17897C125.015 3.56051 125.781 4.11729 126.408 4.81346C127.035 5.50962 127.509 6.32957 127.799 7.22037C128.089 8.11117 128.189 9.05299 128.092 9.98487L121.517 73.1087C121.349 74.7547 120.575 76.2796 119.346 77.3873C118.116 78.495 116.52 79.1066 114.865 79.1034ZM7.13809 4.24236C6.43205 4.24523 5.73409 4.3948 5.0889 4.68155C4.44371 4.9683 3.86518 5.386 3.38993 5.90815C2.91828 6.43388 2.56251 7.05288 2.3454 7.72498C2.12829 8.39707 2.0548 9.10719 2.12975 9.80949L8.70516 72.9444C8.83034 74.1845 9.41231 75.3336 10.338 76.1682C11.2638 77.0028 12.4671 77.4631 13.7135 77.4595H114.865C116.111 77.4631 117.315 77.0028 118.24 76.1682C119.166 75.3336 119.748 74.1845 119.873 72.9444L126.449 9.80949C126.524 9.10719 126.45 8.39707 126.233 7.72498C126.016 7.05288 125.66 6.43388 125.188 5.90815C124.713 5.386 124.135 4.9683 123.49 4.68155C122.844 4.3948 122.146 4.24523 121.44 4.24236H7.13809Z" fill="#56D690"/>
<path d="M95.8727 113.032H32.7048C28.2226 113.032 24.7158 109.459 25.1322 105.361L30.787 49.7657C31.1184 47.3739 32.3225 45.189 34.1675 43.6313C36.0125 42.0736 38.3682 41.2529 40.7817 41.3271H87.8506C90.2641 41.2529 92.6198 42.0736 94.4648 43.6313C96.3098 45.189 97.5139 47.3739 97.8453 49.7657L103.5 105.361C103.862 109.459 100.355 113.032 95.8727 113.032Z" fill="#092D2E"/>
<path d="M88.4647 86.7749H39.73C39.0141 86.7859 38.3035 86.6483 37.6433 86.3711C36.9832 86.0938 36.3877 85.6827 35.8943 85.1639C35.5068 84.751 35.2092 84.2622 35.0205 83.7283C34.8319 83.1944 34.7563 82.6272 34.7984 82.0625L36.9902 52.1773C37.158 51.0032 37.7573 49.9339 38.6713 49.178C39.5852 48.4221 40.7481 48.0341 41.9328 48.0896H86.3058C87.4876 48.034 88.6476 48.421 89.5595 49.1748C90.4714 49.9286 91.0696 50.9952 91.2373 52.1663L93.4291 82.0625C93.4739 82.6274 93.3993 83.1954 93.2105 83.7296C93.0217 84.2639 92.723 84.7526 92.3332 85.1639C91.8369 85.688 91.2361 86.1021 90.5698 86.3796C89.9034 86.6571 89.1863 86.7918 88.4647 86.7749ZM41.9108 49.7335C41.1437 49.6833 40.3849 49.9168 39.7787 50.3896C39.1725 50.8624 38.7613 51.5416 38.6231 52.2978L36.4313 82.1831C36.4078 82.5246 36.4549 82.8674 36.5699 83.1899C36.6849 83.5123 36.8653 83.8074 37.0997 84.057C37.4382 84.4119 37.8469 84.6927 38.2996 84.8813C38.7524 85.07 39.2396 85.1624 39.73 85.1529H88.4647C88.9533 85.1616 89.4385 85.0686 89.8894 84.88C90.3402 84.6913 90.7469 84.4111 91.0837 84.057C91.3209 83.8112 91.504 83.5185 91.621 83.1976C91.738 82.8767 91.7866 82.5348 91.7633 82.194L89.5715 52.2869C89.4355 51.5304 89.0243 50.851 88.4173 50.3796C87.8103 49.9082 87.0504 49.678 86.2838 49.7335H41.9108Z" fill="#56D690"/>
<path d="M76.5516 104.989H52.0255C51.606 104.989 51.2035 104.823 50.9058 104.527C50.6081 104.231 50.4394 103.83 50.4365 103.41V102.315C50.4365 101.893 50.6038 101.489 50.9018 101.191C51.1998 100.893 51.6041 100.726 52.0255 100.726H76.5516C76.9731 100.726 77.3774 100.893 77.6754 101.191C77.9734 101.489 78.1406 101.893 78.1406 102.315V103.41C78.1378 103.83 77.9691 104.231 77.6714 104.527C77.3737 104.823 76.9712 104.989 76.5516 104.989ZM76.4968 102.282H52.0255L52.0804 103.378L76.4968 103.312V102.282Z" fill="#56D690"/>
<path d="M65.4725 75.783V77.9748H62.8422V75.783C61.418 75.6725 60.0832 75.0459 59.0884 74.0208C58.0936 72.9957 57.5073 71.6426 57.4395 70.2158H60.782C60.7987 70.6375 60.9023 71.0513 61.0867 71.431C61.2712 71.8107 61.5324 72.148 61.8536 72.4219C62.1747 72.6957 62.5492 72.9001 62.9532 73.0221C63.3573 73.1442 63.782 73.1811 64.2011 73.1309C65.7463 73.1309 66.9957 72.4843 66.9957 70.9391C67.0168 70.4422 66.8431 69.9568 66.5114 69.5862C66.1797 69.2157 65.7166 68.9894 65.2205 68.9556L61.5271 68.1446C60.499 68.012 59.5565 67.5026 58.8824 66.7151C58.2082 65.9275 57.8502 64.9179 57.8777 63.8816C57.8777 61.2185 59.8175 59.4213 62.8422 59.1144V56.9993H65.4725V59.1911C66.7034 59.3493 67.8407 59.9314 68.6888 60.8375C69.5368 61.7435 70.0426 62.9169 70.1191 64.1555H66.8314C66.7437 62.5446 65.5164 61.7774 63.8615 61.7774C62.4478 61.7774 61.319 62.3362 61.319 63.6513C61.3 64.0512 61.4349 64.4432 61.6957 64.7468C61.9565 65.0505 62.3236 65.2427 62.7218 65.2842L66.349 66.1171C68.6394 66.6322 70.3931 67.8487 70.3931 70.6651C70.3164 73.6569 68.289 75.3885 65.4725 75.783Z" fill="#56D690"/>
</svg>
