<svg width="201" height="20" viewBox="0 0 201 20" fill="none" xmlns="http://www.w3.org/2000/svg">
<path fill-rule="evenodd" clip-rule="evenodd" d="M162.761 10.0692C162.761 4.04828 166.532 0 172.71 0C177.655 0 181.349 2.86921 182.196 7.30305H176.892C176.345 5.58152 174.87 4.48763 172.683 4.48763C169.921 4.48763 168.016 6.26745 168.016 9.96157C168.016 13.3015 169.571 15.5969 172.494 15.5969C174.651 15.5969 176.076 14.364 176.52 12.6694L176.605 12.369H172.723V8.89009H181.739V19.56H176.596V15.6731H175.915C175.529 18.354 173.499 19.968 170.562 19.968C165.662 19.968 162.761 15.4041 162.761 10.0692ZM106.82 19.56V0.412416L106.815 0.407942H114.522L118.292 7.90378C119.238 10.1005 119.951 11.8803 120.328 12.8218L120.619 12.7635V0.407942H125.564V19.5555H117.884L114.199 12.0372C113.276 9.74635 112.487 7.94412 112.083 7.04749L111.796 7.11025V19.56H106.82ZM90.9092 0.417075H103.978V4.79264H96.0469V7.80083H103.216V11.9522H96.0469V15.1846H104.031V19.5602H90.9092V0.417075ZM9.11152 0.610673H1.21216V19.7582H9.11152C14.8769 19.7582 18.2707 15.8175 18.2707 10.1822C18.2707 4.54688 14.8814 0.606192 9.11152 0.606192V0.610673ZM8.34042 15.2706H6.3454V5.09383H8.34042C11.4293 5.09383 13.0164 6.98123 13.0164 10.1822C13.0164 13.3832 11.4338 15.2706 8.34042 15.2706ZM29.963 0.610976H24.5518L17.2846 19.7585H22.7585L23.9914 16.4455H30.5503L31.7787 19.7585H37.2437L29.963 0.610976ZM25.5784 12.191V12.182C26.2464 10.2632 26.8651 7.78403 27.1251 6.71704H27.3762C27.6362 7.77954 28.2639 10.2453 28.9319 12.191H25.5784ZM33.3061 0.610976H38.659L38.668 0.615457L41.183 7.80644C42.0079 10.2408 42.6311 12.2268 42.8866 13.0517H43.1377C43.3888 12.2268 44.0029 10.2453 44.8413 7.74816L47.3564 0.610976H52.7093L45.711 19.7585H40.3043L33.3061 0.610976ZM59.6221 0.610976H54.4888V19.7585H59.6221V0.610976ZM62.6662 0.610673H70.5655V0.606192C76.3354 0.606192 79.7247 4.54688 79.7247 10.1822C79.7247 15.8175 76.3309 19.7582 70.5655 19.7582H62.6662V0.610673ZM67.7994 15.2706H69.7944C72.8923 15.2706 74.4749 13.3832 74.4749 10.1822C74.4749 6.98123 72.8833 5.09383 69.7944 5.09383H67.7994V15.2706ZM128.927 0.417075H141.986V4.79264H134.06V7.80083H141.224V11.9522H134.06V15.1846H142.04V19.5601H128.918V0.417075H128.927ZM161.604 15.5072H161.609L161.604 15.5049C161.443 12.4487 160.397 10.4995 156.659 10.4457L156.059 10.4188V9.9212C158.623 9.81808 161.116 8.12345 161.116 5.16905C161.116 2.54192 159.287 0.407942 155.265 0.407942H145.044V19.5555H150.181V12.5752H153.49C155.731 12.5752 156.364 13.4225 156.44 15.5027L156.659 19.5555H161.824L161.6 15.5027L161.604 15.5049L161.604 15.5072ZM150.186 8.29381H153.548C155.077 8.29381 155.763 7.63479 155.763 6.4602C155.763 5.34389 155.162 4.71176 153.606 4.71176H150.186V8.29381ZM199.47 0.417075L193.05 13.3555H193.054V19.5646H187.916V13.2434L181.519 0.417075H187.208L189.064 4.35328C189.53 5.44717 190.113 7.49149 190.364 8.41502H190.615C190.857 7.48701 191.418 5.45166 191.893 4.35328L193.776 0.417075H199.47Z" fill="#092D2E"/>
</svg>
