<svg width="180" height="50" viewBox="0 0 180 50" fill="none" xmlns="http://www.w3.org/2000/svg">
<path d="M38.071 19.9947L25.38 7.50464V0H12.691V7.50464L0 19.9947V37.7352H6.52678V49.4417H12.7136V37.7352H25.3574V49.4417H31.5423V37.7352H38.071V19.9947Z" fill="#092D2E"/>
<path d="M38.0709 37.7349H25.38L25.3573 19.9945L12.6909 7.50439H25.38L38.0709 19.9945V37.7349Z" fill="#2CAA7C"/>
<path fill-rule="evenodd" clip-rule="evenodd" d="M51.3626 0.0927734H60.7259C67.5662 0.0927734 71.5793 4.77158 71.5793 11.4642C71.5793 18.1569 67.5586 22.8357 60.7259 22.8357H51.3626V0.0927734ZM57.4512 17.5077H59.8137C63.4813 17.5077 65.3566 15.2686 65.3566 11.4642C65.3566 7.66176 63.4737 5.42268 59.8137 5.42268H57.4512V17.5077ZM86.561 41.4449L86.2154 41.5131C85.7716 40.3926 84.9218 38.2841 83.8038 35.6702L79.3336 26.7688H70.2025V49.5117L76.1004 49.5193V34.7277L76.4423 34.6538C76.922 35.7194 77.8587 37.8582 78.9484 40.5818L83.3165 49.5136H92.4193V26.7688H86.561V41.4449ZM135.123 44.7004C134.932 41.0683 133.695 38.7516 129.265 38.691L128.551 38.6588V38.0664C131.591 37.9415 134.545 35.9333 134.545 32.4242C134.545 29.3031 132.375 26.7707 127.612 26.7707H115.501V49.5136H121.591V41.2254H125.514C128.169 41.2254 128.917 42.2323 129.011 44.7042L129.272 49.5155H135.395L135.132 44.7042H135.123V44.7004ZM125.576 36.1339H121.593V31.881H125.646C127.491 31.881 128.203 32.6324 128.203 33.9554C128.201 35.3523 127.391 36.1339 125.576 36.1339ZM145.802 11.4642C145.802 4.77158 141.787 0.0927734 134.949 0.0927734H125.586V22.8357H134.949C141.78 22.8357 145.802 18.1569 145.802 11.4642ZM131.674 5.42268H134.037C137.697 5.42268 139.582 7.66176 139.582 11.4642C139.582 15.2667 137.704 17.5058 134.037 17.5058H131.674V5.42268ZM65.9326 40.4796H57.4398V44.3143H66.8976V49.5117H51.3512V26.7763H66.8372V31.9738H57.4398V35.5453H65.9326V40.4796ZM173.25 26.7726L171.02 31.4514C170.457 32.7536 169.793 35.1743 169.504 36.274H169.203C168.903 35.1743 168.218 32.7479 167.662 31.4514L165.46 26.7763H158.72L166.303 42.0127V49.5193H172.393V42.1452L180 26.7782V26.7745H173.25V26.7726ZM115.501 0.0927734H121.586V22.8357H115.501V0.0927734ZM148.256 31.6104C150.849 31.6104 152.594 32.9126 153.243 34.9567H159.526C158.524 29.6893 154.146 26.2824 148.288 26.2824C140.97 26.2824 136.5 31.0937 136.5 38.2425C136.5 44.5774 139.935 50.0001 145.742 50.0001C149.151 50.0001 151.791 48.6373 152.586 45.1301H152.896V49.5155H158.988V36.8419H148.305V40.9718H152.905L152.805 41.3276C152.282 43.3415 150.592 44.8064 148.035 44.8064C144.569 44.8064 142.724 42.079 142.724 38.1138C142.722 33.7264 144.981 31.6104 148.256 31.6104ZM102.27 14.8692C102.568 13.8888 103.297 11.5343 104.291 8.56838L107.271 0.094668H113.616L105.324 22.8376H98.9177L90.6252 0.094668H96.9706L99.9507 8.63841C100.929 11.5324 101.667 13.8888 101.97 14.8692H102.27ZM102.485 40.4796H110.978V35.5453H102.485V31.9738H111.881V26.7763H96.4003H96.3927V49.5117H111.941V44.3143H102.485V40.4796ZM71.0411 22.8357L79.6547 0.0927734H86.0719L94.6987 22.8357H88.2211L86.7631 18.9007H78.988L77.5282 22.8357H71.0411ZM80.869 13.8339V13.8453H84.8462C84.0587 11.5343 83.3146 8.60812 83.0049 7.34379H82.7046C82.3949 8.61191 81.6584 11.5551 80.869 13.8339Z" fill="#092D2E"/>
</svg>
