<?xml version="1.0" encoding="utf-8"?>
<!-- Generator: Adobe Illustrator 24.0.2, SVG Export Plug-In . SVG Version: 6.00 Build 0)  -->
<svg version="1.1" id="Layer_1" xmlns="http://www.w3.org/2000/svg" xmlns:xlink="http://www.w3.org/1999/xlink" x="0px" y="0px"
	 viewBox="0 0 130 50" style="enable-background:new 0 0 130 50;" xml:space="preserve">
<style type="text/css">
	.st0{fill-rule:evenodd;clip-rule:evenodd;fill:#092D2E;}
</style>
<path class="st0" d="M0.7,0h9.4c6.8,0,10.9,4.7,10.9,11.4c0,6.7-4,11.4-10.9,11.4H0.7V0z M6.8,17.5h2.4c3.7,0,5.5-2.2,5.5-6
	c0-3.8-1.9-6-5.5-6H6.8V17.5z M35.9,41.4l-0.3,0.1c-0.4-1.1-1.3-3.2-2.4-5.8l-4.5-8.9h-9.1v22.7l5.9,0V34.7l0.3-0.1
	c0.5,1.1,1.4,3.2,2.5,5.9l4.4,8.9h9.1V26.7h-5.9V41.4z M84.4,44.7c-0.2-3.6-1.4-5.9-5.9-6l-0.7,0V38c3-0.1,6-2.1,6-5.6
	c0-3.1-2.2-5.7-6.9-5.7H64.8v22.7h6.1v-8.3h3.9c2.7,0,3.4,1,3.5,3.5l0.3,4.8h6.1L84.4,44.7L84.4,44.7L84.4,44.7z M74.9,36.1h-4v-4.3
	H75c1.8,0,2.6,0.8,2.6,2.1C77.5,35.3,76.7,36.1,74.9,36.1z M95.1,11.4c0-6.7-4-11.4-10.9-11.4h-9.4v22.7h9.4
	C91.1,22.8,95.1,18.1,95.1,11.4z M81,5.4h2.4c3.7,0,5.5,2.2,5.5,6c0,3.8-1.9,6-5.5,6H81V5.4z M15.3,40.4H6.8v3.8h9.5v5.2H0.7V26.7
	h15.5v5.2H6.8v3.6h8.5V40.4z M122.6,26.7l-2.2,4.7c-0.6,1.3-1.2,3.7-1.5,4.8h-0.3c-0.3-1.1-1-3.5-1.5-4.8l-2.2-4.7H108l7.6,15.2v7.5
	h6.1v-7.4l7.6-15.4v0L122.6,26.7L122.6,26.7z M64.8,0h6.1v22.7h-6.1V0z M97.6,31.6c2.6,0,4.3,1.3,5,3.3h6.3c-1-5.3-5.4-8.7-11.2-8.7
	c-7.3,0-11.8,4.8-11.8,12c0,6.3,3.4,11.8,9.2,11.8c3.4,0,6-1.4,6.8-4.9h0.3v4.4h6.1V36.8H97.6v4.1h4.6l-0.1,0.4
	c-0.5,2-2.2,3.5-4.8,3.5c-3.5,0-5.3-2.7-5.3-6.7C92,33.7,94.3,31.6,97.6,31.6z M51.6,14.8c0.3-1,1-3.3,2-6.3l3-8.5h6.3l-8.3,22.7
	h-6.4L39.9,0h6.3l3,8.5c1,2.9,1.7,5.3,2,6.2H51.6z M51.8,40.4h8.5v-4.9h-8.5v-3.6h9.4v-5.2H45.7h0v22.7h15.5v-5.2h-9.5V40.4z
	 M20.4,22.8L29,0h6.4L44,22.8h-6.5l-1.5-3.9h-7.8l-1.5,3.9H20.4z M30.2,13.8L30.2,13.8l4,0c-0.8-2.3-1.5-5.2-1.8-6.5H32
	C31.7,8.6,31,11.5,30.2,13.8z"/>
</svg>
