<svg width="130" height="52" viewBox="0 0 130 52" fill="none" xmlns="http://www.w3.org/2000/svg">
<path fill-rule="evenodd" clip-rule="evenodd" d="M10.3728 1.37054H1.01599V24.0508H10.3728C17.2018 24.0508 21.2218 19.383 21.2218 12.708C21.2218 6.03297 17.2072 1.36523 10.3728 1.36523V1.37054ZM9.4594 18.7352H7.09631V6.68083H9.4594C13.1182 6.68083 14.9981 8.91645 14.9981 12.708C14.9981 16.4995 13.1235 18.7352 9.4594 18.7352ZM35.0713 1.37085H28.6617L20.0537 24.0511H26.5376L27.998 20.1268H35.7669L37.222 24.0511H43.6953L35.0713 1.37085ZM29.8778 15.0873V15.0767C30.669 12.8039 31.4019 9.86731 31.7099 8.60347H32.0072C32.3152 9.862 33.0587 12.7827 33.8499 15.0873H29.8778ZM40.0312 1.37085H46.3718L46.3824 1.37616L49.3615 9.89386C50.3386 12.7773 51.0767 15.1298 51.3794 16.1069H51.6768C51.9742 15.1298 52.7017 12.7827 53.6947 9.82483L56.6738 1.37085H63.0143L54.7249 24.0511H48.3207L40.0312 1.37085ZM71.2025 1.37085H65.1222V24.0511H71.2025V1.37085ZM74.8081 1.37054H84.1649V1.36523C90.9993 1.36523 95.0139 6.03297 95.0139 12.708C95.0139 19.383 90.994 24.0508 84.1649 24.0508H74.8081V1.37054ZM80.8884 18.7352H83.2515C86.9209 18.7352 88.7955 16.4995 88.7955 12.708C88.7955 8.91645 86.9103 6.68083 83.2515 6.68083H80.8884V18.7352ZM1 27.9805H16.4796V33.1633H7.08563V36.7265H15.5768V41.6438H7.08563V45.4726H16.5433V50.6554H1V27.9805ZM19.8461 50.6553V27.975L19.8408 27.9697H28.9693L33.4352 36.8485C34.5557 39.4506 35.4001 41.5588 35.8461 42.6739L36.1913 42.6049V27.9697H42.0486V50.65H32.952L28.5869 41.7446C27.493 39.0311 26.5584 36.8963 26.0804 35.8343L25.7406 35.9086V50.6553H19.8461ZM46.0315 27.9805H61.5005V33.1633H52.1118V36.7265H60.5977V41.6438H52.1118V45.4726H61.5642V50.6554H46.0209V27.9805H46.0315ZM84.7385 45.8548H84.7438L84.7384 45.852C84.5467 42.232 83.3089 39.9232 78.8812 39.8595L78.1697 39.8276V39.2382C81.2072 39.116 84.1597 37.1087 84.1597 33.6092C84.1597 30.4974 81.9931 27.9697 77.2297 27.9697H65.1222V50.65H71.2078V42.3818H75.1268C77.782 42.3818 78.5307 43.3855 78.621 45.8495L78.8812 50.65H84.9987L84.7332 45.8495L84.7384 45.852L84.7385 45.8548ZM71.2131 37.3105H75.1959C77.0067 37.3105 77.8192 36.5299 77.8192 35.1386C77.8192 33.8164 77.1076 33.0676 75.2649 33.0676H71.2131V37.3105ZM86.1084 39.4135C86.1084 32.2818 90.5744 27.4866 97.892 27.4866C103.749 27.4866 108.125 30.8851 109.129 36.137H102.847C102.199 34.0979 100.452 32.8022 97.8601 32.8022C94.589 32.8022 92.3321 34.9104 92.3321 39.286C92.3321 43.2422 94.1748 45.961 97.6371 45.961C100.191 45.961 101.88 44.5007 102.406 42.4934L102.507 42.1377H97.9079V38.0169H108.587V50.6554H102.496V46.0513H101.689C101.232 49.2269 98.8266 51.1386 95.3484 51.1386C89.5442 51.1386 86.1084 45.7327 86.1084 39.4135ZM129.59 27.9805L121.985 43.306H121.99V50.6607H115.905V43.1732L108.327 27.9805H115.066L117.264 32.6429C117.817 33.9386 118.507 36.3601 118.804 37.454H119.102C119.388 36.3548 120.052 33.9439 120.615 32.6429L122.845 27.9805H129.59Z" fill="#092D2E"/>
</svg>
