<svg width="200" height="200" viewBox="0 0 200 200" fill="none" xmlns="http://www.w3.org/2000/svg">
<circle cx="100" cy="100" r="98.8889" fill="white" stroke="#56D690" stroke-width="2.22222"/>
<path d="M102.315 64.6091C100.63 64.7407 98.4267 65.3992 98.0379 67.7695L88.4467 111.621V130.914C88.4467 133.35 91.2981 134.272 93.1127 134.798V139.473L76.9113 137.366V132.955C78.337 132.889 81.4477 132.362 81.4477 130.321V111.556L73.347 70.6667C72.7637 68.1646 71.4028 67.7695 69.9771 67.9671C69.8475 67.9671 69.653 68.0329 69.4586 68.0329V63.2922L82.3549 60.9218V65.465C80.67 65.7942 79.1147 66.5185 79.7627 69.679L85.0768 97.9918L91.2981 69.0864C91.7517 66.6502 91.1037 65.07 88.7059 64.9383V60.4609L102.315 60V64.6091ZM55.8495 72.7078C57.0808 72.8395 58.4417 73.6296 58.4417 76.1975V109.844L45.6102 74.0905L39 79.8189V84.0988C39.6675 84.0066 40.348 84.1975 40.8794 84.6255C41.3784 85.1523 41.6376 85.87 41.5922 86.6008V114.584C41.6311 115.638 40.8729 116.553 39.8425 116.691V120.971L48.7856 127.687V122.683C47.4247 121.498 47.1655 119.457 47.1655 117.942V96.4774L60.1266 132.823L64.2742 134.403V73.8272C64.2094 71.3909 65.0518 69.4815 66.4776 68.6914V63.9506L55.8495 68.428V72.7078ZM156.946 109.053C156.622 112.609 155.974 122.881 148.327 122.881C139.837 122.881 138.412 107.473 138.412 100.626C138.412 98.9136 138.541 83.7695 143.726 78.8971C144.879 77.8041 146.428 77.2576 148.003 77.3827C152.604 77.7778 155.974 83.2428 156.881 91.4074H161.094V78.2387L158.566 75.8683C158.566 75.8683 157.789 78.0412 157.724 78.3704C157.659 78.6996 157.594 78.8313 157.335 78.8313C157.128 78.7654 156.979 78.5877 156.946 78.3704C154.03 72.5761 149.299 71.4568 147.809 71.2593C147.316 71.1802 146.817 71.1342 146.318 71.1276C143.544 71.1144 140.868 72.1481 138.801 74.0247C135.301 77.1193 131.154 84.2963 131.154 100.626C131.154 105.366 132.061 129.136 148.327 129.136C159.15 129.136 160.964 114.255 161.288 109.646C161.288 109.317 161.353 109.119 161.353 108.856C161.288 109.053 157.4 109.053 156.946 109.053V109.053ZM119.877 98.1893C118.84 97.2016 113.98 92.856 112.165 91.144C106.139 85.4156 107.564 76.1317 108.99 71.6543C109.703 69.3498 111.647 66.9794 114.174 66.9794C118.063 66.9794 120.849 70.2058 122.275 80.4774H126.812V63.9506L123.312 62.4362C123.312 62.4362 122.794 65.0041 122.794 65.3333C122.664 65.6626 122.599 65.9259 122.34 65.9259C122.081 65.9259 122.016 65.7284 121.757 65.3333C119.994 62.4165 116.832 60.6848 113.462 60.7901C110.61 60.7901 103.676 62.2387 101.732 75.9342C101.311 79.0683 101.401 82.2486 101.991 85.3498C103.352 92.1317 105.426 95.1605 109.249 98.9794C109.638 99.3745 113.915 103.128 114.887 104.049C117.415 106.42 120.072 109.778 121.044 112.675C122.651 117.1 122.949 121.906 121.886 126.502C121.238 128.872 119.164 132.889 114.304 132.889C109.832 132.889 106.527 129.992 105.102 119.457H100.63V140H104.713C104.713 140 105.296 137.235 105.361 136.774C105.329 136.471 105.452 136.174 105.685 135.984C105.97 136.036 106.229 136.201 106.398 136.444C108.536 138.815 111.841 139.802 115.211 139.802C121.044 139.802 126.293 135.523 128.172 128.016C129.527 122.308 129.391 116.342 127.784 110.7C126.293 105.235 123.636 101.811 119.877 98.1893V98.1893Z" fill="#FF0000"/>
</svg>
